<svg width="326" height="115" viewBox="0 0 326 115" fill="none" xmlns="http://www.w3.org/2000/svg">
<g filter="url(#filter0_b_393_3557)">
<rect width="326" height="115" rx="26.1683" fill="#E7D7C6"/>
<rect x="0.461793" y="0.461793" width="325.076" height="114.076" rx="25.7065" stroke="url(#paint0_linear_393_3557)" stroke-width="0.923586"/>
<path d="M24.1288 37.48H19.8608L19.1766 39.5H16.2606L20.3983 28.0643H23.6238L27.7615 39.5H24.813L24.1288 37.48ZM23.412 35.3297L21.9948 31.1431L20.5938 35.3297H23.412ZM33.3051 28.0643C34.5106 28.0643 35.564 28.3032 36.4654 28.7811C37.3668 29.2589 38.0619 29.9322 38.5506 30.801C39.0501 31.659 39.2999 32.6527 39.2999 33.7821C39.2999 34.9007 39.0501 35.8944 38.5506 36.7632C38.0619 37.6321 37.3614 38.3054 36.4491 38.7832C35.5478 39.2611 34.4998 39.5 33.3051 39.5H29.0208V28.0643H33.3051ZM33.1259 37.0891C34.1794 37.0891 34.9993 36.8013 35.5858 36.2257C36.1722 35.6501 36.4654 34.8356 36.4654 33.7821C36.4654 32.7287 36.1722 31.9088 35.5858 31.3223C34.9993 30.7359 34.1794 30.4427 33.1259 30.4427H31.8064V37.0891H33.1259ZM50.7611 28.0643V39.5H47.9755V34.7921H43.6423V39.5H40.8567V28.0643H43.6423V32.5441H47.9755V28.0643H50.7611ZM57.0564 28.0643C58.2618 28.0643 59.3153 28.3032 60.2166 28.7811C61.118 29.2589 61.8131 29.9322 62.3018 30.801C62.8014 31.659 63.0511 32.6527 63.0511 33.7821C63.0511 34.9007 62.8014 35.8944 62.3018 36.7632C61.8131 37.6321 61.1126 38.3054 60.2004 38.7832C59.299 39.2611 58.251 39.5 57.0564 39.5H52.772V28.0643H57.0564ZM56.8772 37.0891C57.9306 37.0891 58.7505 36.8013 59.337 36.2257C59.9234 35.6501 60.2166 34.8356 60.2166 33.7821C60.2166 32.7287 59.9234 31.9088 59.337 31.3223C58.7505 30.7359 57.9306 30.4427 56.8772 30.4427H55.5577V37.0891H56.8772ZM70.8456 28.0643V39.5H68.06V28.0643H70.8456ZM78.403 30.3123C79.4673 30.3123 80.3144 30.6599 80.9443 31.3549C81.585 32.0391 81.9054 32.9839 81.9054 34.1894V39.5H79.136V34.5641C79.136 33.9559 78.9786 33.4835 78.6636 33.1468C78.3487 32.8102 77.9251 32.6418 77.393 32.6418C76.8608 32.6418 76.4373 32.8102 76.1224 33.1468C75.8074 33.4835 75.6499 33.9559 75.6499 34.5641V39.5H72.8643V30.4101H75.6499V31.6156C75.9323 31.2137 76.3124 30.8988 76.7903 30.6707C77.2681 30.4318 77.8057 30.3123 78.403 30.3123ZM24.1288 61.48H19.8608L19.1766 63.5H16.2606L20.3983 52.0643H23.6238L27.7615 63.5H24.813L24.1288 61.48ZM23.412 59.3297L21.9948 55.1431L20.5938 59.3297H23.412ZM28.467 58.9387C28.467 58.0048 28.6407 57.1848 28.9882 56.4789C29.3466 55.773 29.8299 55.23 30.4381 54.8499C31.0462 54.4698 31.725 54.2798 32.4743 54.2798C33.0716 54.2798 33.6147 54.4046 34.1034 54.6544C34.6029 54.9042 34.9939 55.2409 35.2763 55.6644V51.4453H38.0619V63.5H35.2763V62.1968C35.0156 62.6312 34.6409 62.9787 34.1522 63.2394C33.6744 63.5 33.1151 63.6303 32.4743 63.6303C31.725 63.6303 31.0462 63.4403 30.4381 63.0602C29.8299 62.6692 29.3466 62.1208 28.9882 61.4149C28.6407 60.6981 28.467 59.8727 28.467 58.9387ZM35.2763 58.955C35.2763 58.26 35.0808 57.7116 34.6898 57.3097C34.3097 56.9079 33.8427 56.707 33.2888 56.707C32.735 56.707 32.2626 56.9079 31.8716 57.3097C31.4915 57.7007 31.3014 58.2437 31.3014 58.9387C31.3014 59.6338 31.4915 60.1877 31.8716 60.6003C32.2626 61.0022 32.735 61.2031 33.2888 61.2031C33.8427 61.2031 34.3097 61.0022 34.6898 60.6003C35.0808 60.1985 35.2763 59.6501 35.2763 58.955ZM49.053 54.4101V63.5H46.2674V62.2619C45.9851 62.6638 45.5995 62.9896 45.1108 63.2394C44.633 63.4783 44.1008 63.5977 43.5144 63.5977C42.8193 63.5977 42.2057 63.4457 41.6736 63.1416C41.1414 62.8267 40.7288 62.376 40.4355 61.7895C40.1423 61.2031 39.9957 60.5135 39.9957 59.7207V54.4101H42.765V59.346C42.765 59.9542 42.9225 60.4266 43.2374 60.7632C43.5524 61.0999 43.9759 61.2682 44.5081 61.2682C45.0511 61.2682 45.4801 61.0999 45.795 60.7632C46.1099 60.4266 46.2674 59.9542 46.2674 59.346V54.4101H49.053ZM53.8396 51.4453V63.5H51.0539V51.4453H53.8396ZM60.9245 61.1379V63.5H59.5073C58.4973 63.5 57.7099 63.2556 57.1452 62.7669C56.5805 62.2674 56.2981 61.4583 56.2981 60.3397V56.7233H55.1904V54.4101H56.2981V52.1946H59.0837V54.4101H60.9082V56.7233H59.0837V60.3723C59.0837 60.6438 59.1489 60.8393 59.2792 60.9587C59.4095 61.0782 59.6267 61.1379 59.9308 61.1379H60.9245ZM66.174 63.6303C65.3812 63.6303 64.6753 63.4946 64.0563 63.2231C63.4373 62.9516 62.9486 62.5823 62.5902 62.1153C62.2318 61.6375 62.0309 61.1053 61.9874 60.5189H64.7405C64.7731 60.8338 64.9197 61.0891 65.1803 61.2845C65.441 61.48 65.7613 61.5778 66.1414 61.5778C66.489 61.5778 66.755 61.5126 66.9397 61.3823C67.1351 61.2411 67.2329 61.0619 67.2329 60.8447C67.2329 60.5841 67.0971 60.394 66.8256 60.2745C66.5541 60.1442 66.1143 60.003 65.5061 59.851C64.8545 59.699 64.3115 59.5415 63.8771 59.3786C63.4427 59.2048 63.068 58.9387 62.7531 58.5804C62.4381 58.2111 62.2807 57.717 62.2807 57.098C62.2807 56.5767 62.4218 56.1043 62.7042 55.6807C62.9974 55.2463 63.421 54.9042 63.9748 54.6544C64.5396 54.4046 65.2075 54.2798 65.9785 54.2798C67.1189 54.2798 68.0148 54.5621 68.6664 55.1268C69.3289 55.6916 69.709 56.4409 69.8067 57.3749H67.2329C67.1894 57.0599 67.0483 56.8102 66.8093 56.6255C66.5813 56.4409 66.2772 56.3486 65.8971 56.3486C65.5713 56.3486 65.3215 56.4138 65.1477 56.5441C64.974 56.6636 64.8871 56.8319 64.8871 57.0491C64.8871 57.3097 65.0228 57.5052 65.2943 57.6355C65.5767 57.7659 66.0111 57.8962 66.5976 58.0265C67.2709 58.2003 67.8193 58.374 68.2429 58.5478C68.6664 58.7107 69.0357 58.9822 69.3506 59.3623C69.6764 59.7315 69.8447 60.2311 69.8556 60.861C69.8556 61.3931 69.7036 61.871 69.3995 62.2945C69.1063 62.7072 68.6773 63.033 68.1126 63.2719C67.5587 63.5109 66.9125 63.6303 66.174 63.6303Z" fill="#8F6B55"/>
<path d="M26.8614 77.9132V87.5H25.6007V80.3514L22.4143 87.5H21.5277L18.3274 80.3376V87.5H17.0667V77.9132H18.4244L21.971 85.8375L25.5176 77.9132H26.8614ZM35.9263 83.4131C35.9263 83.6533 35.9124 83.9072 35.8847 84.1751H29.8168C29.863 84.9232 30.1169 85.5097 30.5787 85.9345C31.0498 86.3501 31.6178 86.5579 32.2828 86.5579C32.8277 86.5579 33.2802 86.4333 33.6404 86.1839C34.0099 85.9253 34.2685 85.5836 34.4162 85.1587H35.7739C35.5707 85.8883 35.1643 86.4841 34.5548 86.9458C33.9452 87.3984 33.1879 87.6247 32.2828 87.6247C31.5624 87.6247 30.9158 87.4631 30.3432 87.1398C29.7798 86.8165 29.3365 86.3594 29.0133 85.7683C28.69 85.1679 28.5284 84.4753 28.5284 83.6902C28.5284 82.9052 28.6854 82.2171 28.9994 81.626C29.3134 81.0349 29.7521 80.5823 30.3155 80.2683C30.8881 79.9451 31.5439 79.7834 32.2828 79.7834C33.0031 79.7834 33.6404 79.9404 34.1946 80.2545C34.7487 80.5685 35.1736 81.0026 35.4691 81.5567C35.7739 82.1016 35.9263 82.7204 35.9263 83.4131ZM34.624 83.1499C34.624 82.6696 34.5178 82.2586 34.3054 81.9169C34.093 81.566 33.802 81.3027 33.4326 81.1273C33.0724 80.9425 32.6707 80.8502 32.2273 80.8502C31.5901 80.8502 31.0451 81.0534 30.5926 81.4597C30.1493 81.8661 29.8953 82.4295 29.8306 83.1499H34.624ZM41.2893 79.7696C42.2129 79.7696 42.961 80.0513 43.5337 80.6147C44.1063 81.1688 44.3926 81.9723 44.3926 83.0252V87.5H43.1457V83.2053C43.1457 82.448 42.9564 81.8707 42.5777 81.4736C42.1991 81.0672 41.6819 80.864 41.0261 80.864C40.3611 80.864 39.8301 81.0718 39.4329 81.4875C39.045 81.9031 38.8511 82.508 38.8511 83.3023V87.5H37.5904V79.9081H38.8511V80.9887C39.1004 80.6008 39.4375 80.3006 39.8624 80.0882C40.2965 79.8758 40.7721 79.7696 41.2893 79.7696ZM47.9897 80.9472V85.4219C47.9897 85.7914 48.0682 86.0546 48.2252 86.2116C48.3822 86.3594 48.6547 86.4333 49.0426 86.4333H49.9708V87.5H48.8348C48.1329 87.5 47.6064 87.3384 47.2555 87.0151C46.9045 86.6919 46.729 86.1608 46.729 85.4219V80.9472H45.7454V79.9081H46.729V77.9963H47.9897V79.9081H49.9708V80.9472H47.9897ZM51.0273 83.6764C51.0273 82.9005 51.1843 82.2217 51.4983 81.6398C51.8123 81.0488 52.2418 80.5916 52.7867 80.2683C53.3408 79.9451 53.955 79.7834 54.6292 79.7834C55.2942 79.7834 55.8715 79.9266 56.361 80.2129C56.8505 80.4992 57.2153 80.8594 57.4554 81.2935V79.9081H58.73V87.5H57.4554V86.0869C57.206 86.5302 56.832 86.8997 56.3333 87.1952C55.8438 87.4815 55.2711 87.6247 54.6154 87.6247C53.9412 87.6247 53.3316 87.4584 52.7867 87.1259C52.2418 86.7935 51.8123 86.327 51.4983 85.7267C51.1843 85.1264 51.0273 84.4429 51.0273 83.6764ZM57.4554 83.6902C57.4554 83.1176 57.34 82.6188 57.1091 82.194C56.8782 81.7691 56.5642 81.4459 56.167 81.2242C55.7791 80.9933 55.3496 80.8779 54.8786 80.8779C54.4076 80.8779 53.9781 80.9887 53.5902 81.2104C53.2023 81.432 52.8929 81.7553 52.662 82.1801C52.4311 82.605 52.3157 83.1037 52.3157 83.6764C52.3157 84.2582 52.4311 84.7662 52.662 85.2003C52.8929 85.6251 53.2023 85.953 53.5902 86.1839C53.9781 86.4056 54.4076 86.5164 54.8786 86.5164C55.3496 86.5164 55.7791 86.4056 56.167 86.1839C56.5642 85.953 56.8782 85.6251 57.1091 85.2003C57.34 84.7662 57.4554 84.2628 57.4554 83.6902ZM62.1211 77.2482V87.5H60.8604V77.2482H62.1211ZM75.4027 77.8439V87.5H74.142V83.1222H69.2239V87.5H67.9632V77.8439H69.2239V82.0832H74.142V77.8439H75.4027ZM84.4822 83.4131C84.4822 83.6533 84.4684 83.9072 84.4407 84.1751H78.3727C78.4189 84.9232 78.6729 85.5097 79.1346 85.9345C79.6057 86.3501 80.1737 86.5579 80.8387 86.5579C81.3836 86.5579 81.8361 86.4333 82.1963 86.1839C82.5658 85.9253 82.8244 85.5836 82.9721 85.1587H84.3298C84.1266 85.8883 83.7203 86.4841 83.1107 86.9458C82.5011 87.3984 81.7438 87.6247 80.8387 87.6247C80.1183 87.6247 79.4718 87.4631 78.8991 87.1398C78.3357 86.8165 77.8924 86.3594 77.5692 85.7683C77.2459 85.1679 77.0843 84.4753 77.0843 83.6902C77.0843 82.9052 77.2413 82.2171 77.5553 81.626C77.8693 81.0349 78.308 80.5823 78.8714 80.2683C79.4441 79.9451 80.0998 79.7834 80.8387 79.7834C81.5591 79.7834 82.1963 79.9404 82.7505 80.2545C83.3046 80.5685 83.7295 81.0026 84.025 81.5567C84.3298 82.1016 84.4822 82.7204 84.4822 83.4131ZM83.18 83.1499C83.18 82.6696 83.0737 82.2586 82.8613 81.9169C82.6489 81.566 82.358 81.3027 81.9885 81.1273C81.6283 80.9425 81.2266 80.8502 80.7833 80.8502C80.146 80.8502 79.6011 81.0534 79.1485 81.4597C78.7052 81.8661 78.4512 82.4295 78.3865 83.1499H83.18ZM85.6753 83.6764C85.6753 82.9005 85.8323 82.2217 86.1463 81.6398C86.4603 81.0488 86.8898 80.5916 87.4347 80.2683C87.9888 79.9451 88.603 79.7834 89.2773 79.7834C89.9422 79.7834 90.5195 79.9266 91.009 80.2129C91.4985 80.4992 91.8633 80.8594 92.1034 81.2935V79.9081H93.378V87.5H92.1034V86.0869C91.8541 86.5302 91.48 86.8997 90.9813 87.1952C90.4918 87.4815 89.9191 87.6247 89.2634 87.6247C88.5892 87.6247 87.9796 87.4584 87.4347 87.1259C86.8898 86.7935 86.4603 86.327 86.1463 85.7267C85.8323 85.1264 85.6753 84.4429 85.6753 83.6764ZM92.1034 83.6902C92.1034 83.1176 91.988 82.6188 91.7571 82.194C91.5262 81.7691 91.2122 81.4459 90.815 81.2242C90.4271 80.9933 89.9976 80.8779 89.5266 80.8779C89.0556 80.8779 88.6261 80.9887 88.2382 81.2104C87.8503 81.432 87.5409 81.7553 87.31 82.1801C87.0791 82.605 86.9637 83.1037 86.9637 83.6764C86.9637 84.2582 87.0791 84.7662 87.31 85.2003C87.5409 85.6251 87.8503 85.953 88.2382 86.1839C88.6261 86.4056 89.0556 86.5164 89.5266 86.5164C89.9976 86.5164 90.4271 86.4056 90.815 86.1839C91.2122 85.953 91.5262 85.6251 91.7571 85.2003C91.988 84.7662 92.1034 84.2628 92.1034 83.6902ZM96.7691 77.2482V87.5H95.5084V77.2482H96.7691ZM100.456 80.9472V85.4219C100.456 85.7914 100.534 86.0546 100.691 86.2116C100.848 86.3594 101.121 86.4333 101.508 86.4333H102.437V87.5H101.301C100.599 87.5 100.072 87.3384 99.7213 87.0151C99.3703 86.6919 99.1948 86.1608 99.1948 85.4219V80.9472H98.2112V79.9081H99.1948V77.9963H100.456V79.9081H102.437V80.9472H100.456ZM107.732 79.7696C108.305 79.7696 108.822 79.8943 109.284 80.1436C109.746 80.3838 110.106 80.7486 110.365 81.2381C110.632 81.7276 110.766 82.3233 110.766 83.0252V87.5H109.519V83.2053C109.519 82.448 109.33 81.8707 108.951 81.4736C108.573 81.0672 108.056 80.864 107.4 80.864C106.735 80.864 106.204 81.0718 105.807 81.4875C105.419 81.9031 105.225 82.508 105.225 83.3023V87.5H103.964V77.2482H105.225V80.9887C105.474 80.6008 105.816 80.3006 106.25 80.0882C106.693 79.8758 107.187 79.7696 107.732 79.7696Z" fill="black"/>
<path d="M188.129 48.6069C188.129 48.6069 187.885 49.0207 187.521 49.7571" stroke="#8F6B55" stroke-width="0.343638" stroke-miterlimit="10"/>
<path d="M186.462 52.1439C184.402 57.3312 181.993 67.1596 189.256 74.3033C206.06 90.8315 227.366 67.4534 217.068 64.4104C209.428 62.1533 207.176 76.3189 225.229 75.6964C246.841 74.9513 240.688 40.5556 238.513 30.8315" stroke="#8F6B55" stroke-width="0.343638" stroke-miterlimit="10" stroke-dasharray="2.61 2.61"/>
<path d="M238.219 29.5583C238.025 28.7459 237.904 28.2959 237.904 28.2959" stroke="#8F6B55" stroke-width="0.343638" stroke-miterlimit="10"/>
<path d="M192.934 51.457L186.33 49.5658L182.792 50.5402L197.114 38.9233L192.934 51.457Z" fill="#ED902B"/>
<path d="M197.114 38.9233L189.693 52.947L183.499 50.7102L197.114 38.9233Z" fill="#FFA943"/>
<path d="M197.114 38.9229L182.792 50.5397L178.427 48.4232L197.114 38.9229Z" fill="#FFA943"/>
<path d="M243.282 38.9141C243.282 38.9141 243.597 39.2669 244.179 39.8569" stroke="#8F6B55" stroke-width="0.343638" stroke-miterlimit="10"/>
<path d="M246.099 41.6979C251.472 46.5988 263.67 55.7757 275.094 50.5588C289.506 43.9767 287.488 23.3818 272.908 18.8384" stroke="#8F6B55" stroke-width="0.343638" stroke-miterlimit="10" stroke-dasharray="2.66 2.66"/>
<path d="M271.623 18.488C271.207 18.39 270.781 18.3046 270.346 18.2324" stroke="#8F6B55" stroke-width="0.343638" stroke-miterlimit="10"/>
<path d="M273.74 23.8263L275.028 20.4879L278.604 19.6678L260.485 16.2339L273.74 23.8263Z" fill="#ED902B"/>
<path d="M260.485 16.2339L277.527 23.0075L281.443 15.7339L260.485 16.2339Z" fill="#FFA943"/>
<path d="M290.492 79.9546C290.664 79.5535 290.825 79.1499 290.977 78.7446" stroke="#8F6B55" stroke-width="0.343638" stroke-miterlimit="10"/>
<path d="M291.762 76.3097C294.082 67.7873 292.029 59.1533 285.631 56.5351C276.45 52.778 270.107 64.0421 278.707 69.62C285.131 73.7873 299.716 62.1539 287.349 48.2876C274.292 33.6476 249.569 35.715 243.962 55.0563" stroke="#8F6B55" stroke-width="0.343638" stroke-miterlimit="10" stroke-dasharray="2.56 2.56"/>
<path d="M243.635 56.2935C243.536 56.7105 243.445 57.135 243.363 57.5669" stroke="#8F6B55" stroke-width="0.343638" stroke-miterlimit="10"/>
<path d="M290.231 76.7681L295.197 83.7449L284.437 92.1404L290.231 76.7681Z" fill="#ED902B"/>
<path d="M285.264 75.3496L284.437 92.1408L298.153 79.4883L291.236 77.1233L285.856 89.0663L290.231 76.7685L285.264 75.3496Z" fill="#FFA943"/>
<path d="M230.398 16.1411C230.398 16.1411 229.998 16.3684 229.289 16.8138" stroke="#8F6B55" stroke-width="0.34254" stroke-miterlimit="10"/>
<path d="M227.157 18.2168C217.694 24.7041 191.432 45.9994 202.219 76.4585C214.626 111.492 247.3 91.8717 244.046 76.1614" stroke="#8F6B55" stroke-width="0.34254" stroke-miterlimit="10" stroke-dasharray="2.55 2.55"/>
<path d="M243.713 74.9296C243.577 74.5246 243.415 74.1235 243.227 73.7271" stroke="#8F6B55" stroke-width="0.34254" stroke-miterlimit="10"/>
<path d="M224.53 19.3954L228.475 20.4966L235.318 11.0801L224.53 19.3954Z" fill="#ED902B"/>
<path d="M222.203 15.8003L235.318 11.0801L228.604 25.0203L225.055 20.1068L233.224 12.9493L224.53 19.3954L222.203 15.8003Z" fill="#FFA943"/>
<path d="M199.184 17.1826C199.184 17.1826 197.296 47.7677 228.527 47.9151" stroke="#8F6B55" stroke-width="0.343638" stroke-miterlimit="10" stroke-dasharray="2.6 2.6"/>
<path d="M200.804 23.6L197.025 22.0193L197.489 10.3882L200.804 23.6Z" fill="#ED902B"/>
<path d="M204.859 22.22L197.489 10.3882L194.121 25.49L199.952 23.8331L197.975 13.1533L200.804 23.6L204.859 22.22Z" fill="#FFA943"/>
<path d="M234.532 91.1071C234.532 91.1071 234.741 90.7079 235.142 90.0347" stroke="#8F6B55" stroke-width="0.325792" stroke-miterlimit="10"/>
<path d="M236.489 87.9264C240.006 82.7537 248.032 73.271 258.64 75.1224C272.18 77.4852 278.973 93.7674 271.576 103.333" stroke="#8F6B55" stroke-width="0.325792" stroke-miterlimit="10" stroke-dasharray="2.5 2.5"/>
<path d="M270.766 104.29C270.491 104.589 270.199 104.88 269.892 105.162" stroke="#8F6B55" stroke-width="0.325792" stroke-miterlimit="10"/>
<path d="M273.893 95.0376L275.754 98.6862L267.881 107.26L273.893 95.0376Z" fill="#ED902B"/>
<path d="M269.908 93.4692L267.881 107.261L280.214 97.916L274.694 95.4109L269.298 104.837L273.893 95.0378L269.908 93.4692Z" fill="#FFA943"/>
<path d="M197.708 90.3696C197.708 90.3696 203.438 106.257 219.325 106.517" stroke="#8F6B55" stroke-width="0.34254" stroke-miterlimit="10" stroke-dasharray="2.6 2.6"/>
<path d="M202.812 94.6522L195.853 95.7782L194.099 83.23L202.812 94.6522Z" fill="#ED902B"/>
<path d="M205.269 94.9592L194.099 83.23L200.356 99.3603L205.269 94.9592Z" fill="#FFA943"/>
<path opacity="0.5" d="M209.393 30.1757C209.394 30.1471 209.394 30.1186 209.394 30.0897C209.394 29.8042 209.345 29.5244 209.247 29.2581L208.828 29.4119C208.739 29.1705 208.604 28.9514 208.434 28.7653L208.763 28.4641C208.551 28.2321 208.299 28.0462 208.016 27.9119L207.825 28.315C207.6 28.2082 207.352 28.1428 207.09 28.1288L207.114 27.6841C206.804 27.6676 206.489 27.7112 206.194 27.8136L206.341 28.2351C206.098 28.3199 205.876 28.4509 205.687 28.6178L205.392 28.2829C205.156 28.491 204.966 28.7386 204.826 29.0198L205.226 29.2183C205.115 29.4415 205.046 29.6883 205.027 29.9494L204.582 29.9179C204.578 29.9747 204.576 30.0326 204.576 30.0897C204.576 30.4052 204.636 30.7122 204.755 31.0021L205.168 30.833C205.266 31.0705 205.408 31.2846 205.586 31.465L205.267 31.778C205.488 32.0026 205.745 32.1791 206.034 32.3032L206.21 31.8936C206.438 31.9919 206.688 32.0482 206.95 32.0528L206.942 32.4987C206.957 32.499 206.971 32.4993 206.986 32.4993C207.286 32.4993 207.58 32.4444 207.858 32.3365L207.696 31.9205C207.936 31.8271 208.152 31.6885 208.336 31.5147L208.643 31.839C208.871 31.6226 209.053 31.3678 209.182 31.082L208.775 30.898C208.878 30.6715 208.939 30.4225 208.948 30.1606L209.393 30.1757ZM206.985 29.0849C207.539 29.0849 207.99 29.5357 207.99 30.0897C207.99 30.6438 207.539 31.0943 206.985 31.0943C206.431 31.0943 205.98 30.6435 205.98 30.0897C205.98 29.5357 206.431 29.0849 206.985 29.0849Z" fill="#8F6B55"/>
<path opacity="0.5" d="M219.355 17.7645C219.356 17.7236 219.357 17.6826 219.357 17.6415C219.357 17.2326 219.286 16.8321 219.146 16.4507L218.546 16.6709C218.419 16.3255 218.226 16.012 217.981 15.7451L218.453 15.3138C218.149 14.9815 217.789 14.7155 217.383 14.523L217.11 15.1001C216.788 14.9472 216.433 14.8536 216.058 14.8336L216.092 14.1968C215.648 14.173 215.197 14.2356 214.775 14.3824L214.984 14.9857C214.636 15.107 214.32 15.2945 214.049 15.5337L213.626 15.054C213.288 15.3519 213.016 15.7066 212.816 16.1089L213.389 16.393C213.23 16.7124 213.131 17.066 213.104 17.4397L212.467 17.3946C212.461 17.4762 212.458 17.5591 212.458 17.6409C212.458 18.0926 212.544 18.5319 212.714 18.947L213.305 18.7048C213.445 19.0447 213.649 19.3514 213.903 19.6098L213.447 20.0579C213.763 20.3791 214.132 20.6322 214.544 20.8099L214.797 20.2231C215.123 20.364 215.481 20.4442 215.857 20.451L215.844 21.0894C215.865 21.0897 215.886 21.0899 215.907 21.0899C216.338 21.0899 216.758 21.0114 217.156 20.8566L216.925 20.261C217.267 20.1276 217.578 19.9288 217.84 19.6798L218.28 20.1441C218.607 19.8341 218.867 19.4698 219.052 19.0604L218.469 18.7971C218.616 18.4728 218.704 18.1165 218.717 17.7411L219.355 17.7645ZM215.908 16.2028C216.701 16.2028 217.346 16.848 217.346 17.6415C217.346 18.4347 216.701 19.0799 215.908 19.0799C215.114 19.0799 214.469 18.4347 214.469 17.6415C214.469 16.848 215.114 16.2028 215.908 16.2028Z" fill="#8F6B55"/>
<path opacity="0.5" d="M292.462 42.5829C292.463 42.5543 292.463 42.5258 292.463 42.497C292.463 42.2114 292.413 41.9316 292.315 41.6653L291.897 41.8191C291.808 41.5777 291.673 41.3586 291.502 41.1725L291.832 40.8713C291.62 40.6393 291.368 40.4534 291.085 40.3192L290.894 40.7222C290.669 40.6154 290.421 40.5501 290.159 40.5361L290.183 40.0913C289.872 40.0748 289.557 40.1185 289.263 40.2209L289.409 40.6423C289.166 40.7272 288.945 40.8581 288.756 41.0251L288.46 40.6901C288.225 40.8982 288.034 41.1459 287.895 41.427L288.295 41.6255C288.184 41.8487 288.114 42.0956 288.095 42.3567L287.651 42.3251C287.647 42.3819 287.645 42.4399 287.645 42.497C287.645 42.8124 287.705 43.1194 287.824 43.4093L288.237 43.2402C288.334 43.4777 288.477 43.6918 288.654 43.8722L288.335 44.1852C288.556 44.4098 288.814 44.5864 289.102 44.7105L289.279 44.3008C289.506 44.3991 289.756 44.4554 290.019 44.4601L290.01 44.9059C290.025 44.9062 290.04 44.9065 290.054 44.9065C290.355 44.9065 290.648 44.8516 290.926 44.7437L290.765 44.3277C291.004 44.2344 291.221 44.0957 291.404 43.9219L291.711 44.2462C291.94 44.0298 292.121 43.775 292.25 43.4892L291.843 43.3053C291.946 43.0788 292.007 42.8297 292.016 42.5678L292.462 42.5829ZM290.054 41.4921C290.608 41.4921 291.059 41.9429 291.059 42.497C291.059 43.051 290.608 43.5016 290.054 43.5016C289.5 43.5016 289.05 43.0508 289.05 42.497C289.049 41.9429 289.5 41.4921 290.054 41.4921Z" fill="#8F6B55"/>
<path d="M278.343 32.4517C278.345 32.3963 278.346 32.3408 278.346 32.2851C278.346 31.731 278.25 31.1885 278.06 30.672L277.249 30.9705C277.076 30.5026 276.814 30.0776 276.483 29.7163L277.122 29.1318C276.71 28.6818 276.223 28.3213 275.673 28.0607L275.303 28.8426C274.867 28.6354 274.386 28.5085 273.878 28.4816L273.924 27.6189C273.322 27.5868 272.71 27.6714 272.139 27.8704L272.423 28.6878C271.952 28.852 271.523 29.1062 271.156 29.4302L270.583 28.7806C270.125 29.1839 269.756 29.6647 269.486 30.2097L270.261 30.5946C270.046 31.0273 269.911 31.5064 269.875 32.0127L269.012 31.9518C269.005 32.0621 269.001 32.1744 269.001 32.2853C269.001 32.8971 269.117 33.4926 269.348 34.0549L270.149 33.7271C270.338 34.1875 270.614 34.6032 270.958 34.953L270.34 35.56C270.767 35.9955 271.267 36.3381 271.826 36.5789L272.168 35.7841C272.61 35.9749 273.095 36.0836 273.604 36.0927L273.588 36.9572C273.616 36.9578 273.645 36.9581 273.673 36.9581C274.256 36.9581 274.825 36.8518 275.365 36.6421L275.051 35.8354C275.516 35.6545 275.936 35.3854 276.291 35.0482L276.887 35.6773C277.33 35.2575 277.682 34.7635 277.932 34.2092L277.143 33.8525C277.343 33.4135 277.461 32.9303 277.479 32.4221L278.343 32.4517ZM273.674 30.3363C274.748 30.3363 275.622 31.2105 275.622 32.2851C275.622 33.3597 274.748 34.2339 273.674 34.2339C272.599 34.2339 271.725 33.3597 271.725 32.2851C271.725 31.2105 272.599 30.3363 273.674 30.3363Z" fill="#8F6B55"/>
<path d="M207.092 63.0962C207.095 63.0048 207.097 62.9131 207.097 62.8211C207.097 61.9068 206.938 61.0115 206.624 60.159L205.285 60.6515C205 59.8792 204.568 59.178 204.022 58.5819L205.077 57.6174C204.397 56.8744 203.593 56.2797 202.686 55.8498L202.074 57.1402C201.355 56.7984 200.561 56.5889 199.724 56.5444L199.8 55.1208C198.806 55.0678 197.796 55.2076 196.854 55.5359L197.323 56.8846C196.545 57.1558 195.836 57.5754 195.231 58.1097L194.285 57.0375C193.53 57.7033 192.922 58.4965 192.475 59.396L193.755 60.031C193.4 60.7451 193.177 61.5356 193.118 62.3711L191.694 62.2703C191.681 62.4526 191.674 62.6377 191.674 62.8205C191.674 63.8301 191.867 64.8127 192.247 65.7407L193.569 65.1996C193.88 65.9596 194.337 66.6454 194.904 67.2225L193.884 68.2244C194.59 68.9429 195.415 69.5085 196.337 69.9058L196.902 68.5942C197.631 68.9092 198.432 69.0887 199.272 69.1036L199.245 70.5304C199.291 70.5313 199.338 70.5318 199.386 70.5318C200.347 70.5318 201.286 70.3564 202.177 70.0104L201.66 68.6791C202.426 68.3806 203.119 67.9364 203.706 67.3799L204.69 68.4177C205.42 67.725 206.001 66.9098 206.415 65.9953L205.113 65.4066C205.441 64.6821 205.636 63.8847 205.666 63.046L207.092 63.0962ZM199.386 59.6049C201.159 59.6049 202.602 61.0474 202.602 62.8211C202.602 64.5945 201.159 66.037 199.386 66.037C197.612 66.037 196.17 64.5945 196.17 62.8211C196.17 61.0477 197.612 59.6049 199.386 59.6049Z" fill="#8F6B55"/>
<path d="M215.604 57.2254C215.625 57.1554 215.645 57.0846 215.664 57.0132C215.85 56.3051 215.91 55.5792 215.841 54.8549L214.704 54.9628C214.641 54.3066 214.449 53.6751 214.148 53.1021L215.162 52.5706C214.787 51.8564 214.285 51.2315 213.671 50.7134L212.933 51.5879C212.446 51.1763 211.874 50.8518 211.235 50.6464L211.584 49.5595C210.825 49.3154 210.015 49.2176 209.218 49.2791L209.306 50.4194C208.648 50.4705 208.014 50.6508 207.436 50.941L206.922 49.9175C206.202 50.2791 205.568 50.7692 205.039 51.3746L205.9 52.1277C205.479 52.6082 205.145 53.1751 204.929 53.8099L203.847 53.4412C203.799 53.5796 203.757 53.7218 203.719 53.8635C203.513 54.6451 203.462 55.4457 203.567 56.242L204.701 56.0929C204.787 56.7452 205 57.3696 205.322 57.9324L204.327 58.4999C204.727 59.2003 205.251 59.8071 205.884 60.3032L206.589 59.4027C207.09 59.7953 207.673 60.0979 208.32 60.281L208.008 61.3806C208.044 61.3908 208.08 61.4007 208.117 61.4103C208.861 61.6066 209.625 61.6626 210.385 61.5764L210.257 60.4397C210.911 60.365 211.538 60.1624 212.106 59.8513L212.656 60.8559C213.364 60.4685 213.98 59.9559 214.487 59.3319L213.599 58.61C214.001 58.1158 214.315 57.5384 214.509 56.8946L215.604 57.2254ZM210.348 52.9478C211.722 53.3099 212.545 54.7217 212.183 56.0954C211.82 57.4687 210.408 58.2913 209.035 57.9294C207.662 57.5673 206.839 56.1555 207.201 54.7819C207.563 53.4085 208.975 52.5857 210.348 52.9478Z" fill="#8F6B55"/>
<path opacity="0.5" d="M191.071 80.2904C191.072 80.2619 191.072 80.2333 191.072 80.2045C191.072 79.9189 191.023 79.6392 190.925 79.3728L190.506 79.5266C190.417 79.2853 190.282 79.0662 190.112 78.88L190.441 78.5788C190.229 78.3468 189.977 78.1609 189.694 78.0267L189.503 78.4297C189.278 78.3229 189.03 78.2576 188.768 78.2436L188.792 77.7988C188.482 77.7823 188.166 77.826 187.872 77.9284L188.018 78.3498C187.775 78.4347 187.554 78.5656 187.365 78.7326L187.069 78.3976C186.834 78.6057 186.644 78.8534 186.504 79.1345L186.904 79.333C186.793 79.5563 186.723 79.8031 186.705 80.0642L186.26 80.0326C186.256 80.0894 186.254 80.1474 186.254 80.2045C186.254 80.52 186.314 80.8269 186.433 81.1168L186.846 80.9477C186.943 81.1852 187.086 81.3994 187.263 81.5798L186.945 81.8928C187.165 82.1173 187.423 82.2939 187.711 82.418L187.888 82.0081C188.116 82.1064 188.366 82.1626 188.628 82.1673L188.62 82.6132C188.634 82.6135 188.649 82.6135 188.664 82.6135C188.964 82.6135 189.257 82.5586 189.536 82.4507L189.374 82.0347C189.614 81.9413 189.83 81.8027 190.013 81.6289L190.321 81.9532C190.549 81.7368 190.73 81.482 190.859 81.1962L190.453 81.0122C190.556 80.7857 190.616 80.5367 190.626 80.2748L191.071 80.2904ZM188.663 79.1999C189.217 79.1999 189.668 79.6507 189.668 80.2048C189.668 80.7588 189.217 81.2094 188.663 81.2094C188.109 81.2094 187.659 80.7585 187.659 80.2048C187.658 79.6504 188.109 79.1999 188.663 79.1999Z" fill="#8F6B55"/>
<path d="M218.094 84.0204C218.095 83.9649 218.097 83.9094 218.097 83.8537C218.097 83.2996 218 82.7571 217.81 82.2404L216.999 82.5388C216.826 82.071 216.564 81.646 216.234 81.2847L216.873 80.7001C216.461 80.2501 215.973 79.8896 215.424 79.6291L215.053 80.411C214.617 80.204 214.136 80.0769 213.629 80.05L213.675 79.1873C213.072 79.1552 212.461 79.2397 211.89 79.4388L212.174 80.2562C211.702 80.4206 211.273 80.6746 210.906 80.9986L210.333 80.349C209.876 80.7523 209.507 81.233 209.237 81.778L210.012 82.163C209.797 82.5957 209.662 83.0748 209.626 83.5811L208.763 83.5201C208.755 83.6305 208.751 83.7428 208.751 83.8537C208.751 84.4654 208.868 85.0609 209.098 85.6232L209.899 85.2954C210.088 85.7559 210.365 86.1715 210.708 86.5213L210.09 87.1284C210.518 87.5638 211.018 87.9065 211.577 88.1473L211.919 87.3524C212.361 87.5432 212.846 87.652 213.355 87.661L213.338 88.5256C213.367 88.5262 213.395 88.5264 213.424 88.5264C214.006 88.5264 214.576 88.4202 215.115 88.2104L214.802 87.4035C215.266 87.2225 215.686 86.9535 216.042 86.6163L216.638 87.2451C217.081 86.8253 217.432 86.3313 217.683 85.777L216.894 85.4203C217.093 84.9813 217.211 84.4981 217.229 83.9899L218.094 84.0204ZM213.424 81.9046C214.498 81.9046 215.373 82.7788 215.373 83.8534C215.373 84.9281 214.498 85.8023 213.424 85.8023C212.349 85.8023 211.475 84.9281 211.475 83.8534C211.475 82.7788 212.349 81.9046 213.424 81.9046Z" fill="#8F6B55"/>
<path d="M283.031 77.7691C283.033 77.7137 283.034 77.6582 283.034 77.6025C283.034 77.0487 282.938 76.5059 282.748 75.9894L281.937 76.2879C281.764 75.82 281.502 75.395 281.171 75.0337L281.81 74.4491C281.399 73.9991 280.911 73.6387 280.362 73.3781L279.991 74.16C279.555 73.9527 279.074 73.8259 278.566 73.799L278.613 72.9363C278.01 72.9042 277.399 72.9888 276.827 73.1878L277.112 74.0052C276.64 74.1694 276.211 74.4236 275.844 74.7476L275.271 74.098C274.814 74.5013 274.445 74.9821 274.174 75.5271L274.95 75.912C274.734 76.3447 274.6 76.8238 274.564 77.3298L273.701 77.2689C273.693 77.3792 273.689 77.4915 273.689 77.6025C273.689 78.2142 273.806 78.8097 274.036 79.372L274.837 79.0442C275.026 79.5046 275.303 79.9203 275.646 80.2701L275.028 80.8771C275.456 81.3126 275.956 81.6552 276.515 81.896L276.857 81.1012C277.299 81.292 277.784 81.4007 278.293 81.4098L278.276 82.2744C278.305 82.2749 278.333 82.2752 278.362 82.2752C278.944 82.2752 279.513 82.1689 280.053 81.9592L279.74 81.1525C280.204 80.9716 280.624 80.7025 280.98 80.3654L281.576 80.9941C282.019 80.5743 282.37 80.0804 282.621 79.526L281.832 79.1694C282.031 78.7303 282.149 78.2471 282.167 77.7389L283.031 77.7691ZM278.362 75.6536C279.436 75.6536 280.31 76.5278 280.31 77.6025C280.31 78.6771 279.436 79.5513 278.362 79.5513C277.287 79.5513 276.413 78.6771 276.413 77.6025C276.413 76.5278 277.287 75.6536 278.362 75.6536Z" fill="#8F6B55"/>
<path opacity="0.5" d="M269.735 74.4866C269.736 74.4559 269.736 74.4251 269.736 74.3944C269.736 74.0874 269.683 73.7868 269.578 73.5004L269.128 73.6657C269.032 73.4065 268.887 73.171 268.704 72.9708L269.058 72.6471C268.83 72.3978 268.56 72.1979 268.255 72.0538L268.05 72.487C267.808 72.3723 267.542 72.302 267.26 72.2869L267.286 71.8089C266.952 71.791 266.613 71.838 266.297 71.9483L266.454 72.4011C266.193 72.4922 265.955 72.6331 265.752 72.8124L265.434 72.4524C265.181 72.6759 264.977 72.9422 264.827 73.2443L265.256 73.4576C265.137 73.6973 265.062 73.9628 265.042 74.2434L264.564 74.2096C264.56 74.2708 264.558 74.3329 264.558 74.3944C264.558 74.7332 264.623 75.0632 264.75 75.3748L265.194 75.1931C265.299 75.4481 265.452 75.6785 265.642 75.8723L265.3 76.2087C265.537 76.45 265.814 76.6397 266.123 76.7732L266.313 76.3328C266.558 76.4385 266.827 76.4989 267.109 76.5038L267.1 76.9829C267.115 76.9832 267.131 76.9835 267.147 76.9835C267.47 76.9835 267.785 76.9247 268.084 76.8083L267.911 76.3613C268.168 76.2611 268.401 76.112 268.598 75.9251L268.928 76.2735C269.173 76.0409 269.368 75.7672 269.507 75.46L269.07 75.2623C269.18 75.019 269.246 74.7513 269.256 74.4696L269.735 74.4866ZM267.147 73.3146C267.743 73.3146 268.227 73.7989 268.227 74.3944C268.227 74.9899 267.743 75.4742 267.147 75.4742C266.552 75.4742 266.067 74.9899 266.067 74.3944C266.067 73.7989 266.552 73.3146 267.147 73.3146Z" fill="#8F6B55"/>
<path d="M276.189 66.8145C276.241 66.7483 276.291 66.6808 276.341 66.6124C276.834 65.9321 277.198 65.1801 277.425 64.3767L276.163 64.0212C276.367 63.293 276.423 62.538 276.339 61.8002L277.643 61.6512C277.538 60.7319 277.26 59.8555 276.817 59.0467L275.666 59.6774C275.315 59.0352 274.837 58.4512 274.238 57.9666L275.062 56.9482C274.351 56.3728 273.525 55.9329 272.646 55.6685L272.268 56.9252C271.543 56.7075 270.79 56.6377 270.052 56.7091L269.926 55.4014C269.005 55.49 268.124 55.752 267.307 56.1806L267.917 57.343C267.268 57.683 266.676 58.1511 266.181 58.7408L265.176 57.8982C265.068 58.027 264.964 58.1612 264.865 58.2974C264.321 59.0486 263.934 59.8838 263.717 60.7792L264.992 61.0891C264.814 61.8228 264.784 62.5792 264.895 63.3144L263.596 63.5099C263.734 64.425 264.043 65.291 264.515 66.0836L265.643 65.4121C266.016 66.0394 266.514 66.6045 267.131 67.0685L266.342 68.1157C266.376 68.1415 266.411 68.1673 266.446 68.1925C267.161 68.7109 267.955 69.0868 268.804 69.3094L269.137 68.0399C269.868 68.231 270.624 68.2741 271.36 68.1763L271.533 69.4791C272.45 69.3575 273.321 69.064 274.122 68.6063L273.471 67.4663C274.106 67.1042 274.681 66.616 275.155 66.0079L276.189 66.8145ZM272.337 60.0617C273.657 61.0177 273.952 62.8691 272.996 64.1889C272.04 65.5084 270.189 65.8041 268.869 64.8479C267.55 63.8918 267.254 62.0405 268.21 60.721C269.166 59.4014 271.018 59.1057 272.337 60.0617Z" fill="#8F6B55"/>
<path d="M266.502 49.3001C266.412 48.9001 266.271 48.5124 266.083 48.1511C266.244 48.525 266.358 48.9176 266.428 49.3152C266.5 49.7128 266.522 50.1188 266.475 50.5158C266.455 50.7143 266.414 50.9101 266.358 51.1001C266.303 51.2906 266.224 51.4729 266.133 51.6476C266.038 51.8208 265.926 51.9831 265.8 52.1346C265.67 52.2826 265.532 52.4232 265.377 52.5457C265.304 52.6124 265.221 52.6659 265.139 52.7222C265.059 52.779 264.978 52.8356 264.889 52.8812C264.719 52.9828 264.541 53.069 264.359 53.1502C264.179 53.2337 263.988 53.2955 263.801 53.3641C263.608 53.4166 263.419 53.4841 263.223 53.5245C263.048 53.5607 262.875 53.6044 262.699 53.6329C262.687 53.6239 262.674 53.6151 262.662 53.6063C263.637 53.3965 264.989 52.65 265.584 50.2083C266.568 46.1742 260.763 45.8791 259.484 48.3389C258.205 50.7986 225.046 51.4875 225.046 51.4875L227.899 52.6684C227.899 52.6684 226.014 53.3699 224.414 54.7001C224.171 54.6499 223.931 54.593 223.693 54.5244C223.027 54.3273 222.383 54.053 221.804 53.6738C221.22 53.3021 220.704 52.8273 220.283 52.2771C219.859 51.7283 219.541 51.1012 219.305 50.4461C218.838 49.1282 218.72 47.7044 218.769 46.3033C218.797 45.601 218.87 44.8995 218.983 44.2043C219.098 43.5096 219.239 42.8175 219.437 42.1401C219.218 42.8112 219.051 43.4989 218.921 44.1933C218.791 44.8879 218.701 45.5905 218.656 46.2972C218.567 47.7071 218.67 49.1516 219.127 50.5079C219.358 51.1825 219.676 51.834 220.107 52.4095C220.535 52.9858 221.064 53.4904 221.667 53.883C222.218 54.2468 222.824 54.5151 223.449 54.7166C223.1 54.7298 222.751 54.7622 222.405 54.8322C222.034 54.908 221.664 55.0241 221.324 55.2171C220.986 55.4096 220.681 55.6905 220.494 56.0446C220.385 56.2484 220.319 56.4683 220.282 56.6918C220.043 56.7338 219.811 56.7986 219.584 56.8796C219.237 57.0028 218.886 57.1742 218.584 57.3993C218.28 57.625 218.024 57.9223 217.861 58.2644C217.532 58.9552 217.585 59.7638 217.863 60.4414C217.742 60.0927 217.691 59.7232 217.698 59.3588C217.707 58.9945 217.793 58.6332 217.963 58.3163C218.133 57.9992 218.387 57.7348 218.678 57.5275C218.975 57.3205 219.298 57.1723 219.648 57.0589C219.845 56.9941 220.049 56.9419 220.253 56.9073C220.245 57.0001 220.243 57.0926 220.245 57.1843C220.253 57.5709 220.328 57.9476 220.436 58.3089C220.489 58.4855 220.548 58.6738 220.653 58.8526C220.706 58.9407 220.77 59.0285 220.863 59.1016C220.953 59.1752 221.092 59.2246 221.221 59.2045C221.483 59.1576 221.625 58.9717 221.734 58.8075C221.841 58.6351 221.912 58.4484 221.955 58.2559C222.039 57.877 222.026 57.4405 221.778 57.0913C221.654 56.9205 221.472 56.7969 221.281 56.7286C221.089 56.6621 220.889 56.6393 220.696 56.6451C220.655 56.6465 220.616 56.6522 220.576 56.6553C220.612 56.4891 220.668 56.3294 220.748 56.1819C220.909 55.8824 221.168 55.6438 221.47 55.4733C222.08 55.129 222.818 55.0222 223.537 54.9944C223.716 54.989 223.896 54.9887 224.076 54.9933C222.775 56.1858 221.784 57.8188 222.389 59.8511C223.275 62.8235 225.744 62.6654 227.397 62.1733L227.272 62.2332L227.056 62.3375C226.982 62.3672 226.905 62.3894 226.83 62.4158L226.377 62.5682L225.91 62.6656C225.755 62.7093 225.594 62.6997 225.436 62.7167C225.357 62.7208 225.277 62.7313 225.198 62.7302L224.96 62.7142L224.721 62.6986L224.486 62.6533L224.251 62.6066L224.023 62.533C223.867 62.4913 223.72 62.4273 223.574 62.3603C223.423 62.3024 223.29 62.2093 223.146 62.1344C222.876 61.9578 222.615 61.7621 222.39 61.524C222.591 61.7829 222.838 62.0028 223.103 62.1992C223.243 62.2851 223.373 62.3897 223.524 62.4597C223.669 62.5388 223.817 62.6151 223.974 62.6692L224.208 62.7565L224.451 62.8155C224.532 62.8345 224.613 62.8564 224.695 62.8729L224.943 62.9001L225.193 62.927C225.276 62.9314 225.359 62.9243 225.443 62.9234C225.609 62.913 225.78 62.9284 225.943 62.8905L226.438 62.8079L226.915 62.6568C226.994 62.6302 227.075 62.6077 227.153 62.5778L227.379 62.4729L227.832 62.2623C227.978 62.1841 228.116 62.0921 228.259 62.0072C228.314 61.9729 228.369 61.9397 228.424 61.9062C228.289 62.0866 228.157 62.27 228.036 62.4603C227.859 62.7378 227.699 63.0267 227.56 63.3268C227.419 63.6258 227.308 63.9399 227.233 64.2636C227.195 64.425 227.162 64.5881 227.145 64.7537C227.123 64.9184 227.119 65.085 227.117 65.2512C227.121 65.4178 227.133 65.5834 227.161 65.7476C227.169 65.8305 227.194 65.9104 227.211 65.9914C227.228 66.0726 227.249 66.1528 227.279 66.2302C227.328 66.3889 227.401 66.5377 227.472 66.6866C227.555 66.8282 227.63 66.9757 227.732 67.1044C227.824 67.2401 227.931 67.3639 228.041 67.4839C228.148 67.6063 228.276 67.7087 228.392 67.8216C228.286 67.6983 228.169 67.5857 228.074 67.455C227.974 67.3285 227.878 67.2003 227.797 67.0613C227.706 66.9293 227.643 66.7805 227.572 66.6388C227.514 66.4902 227.454 66.3434 227.417 66.1888C227.37 66.0378 227.346 65.8804 227.325 65.7248C227.305 65.568 227.301 65.4104 227.303 65.2528C227.311 65.0955 227.321 64.9379 227.349 64.7825C227.371 64.6265 227.41 64.4725 227.452 64.3207C227.625 63.7131 227.912 63.1384 228.261 62.6066C228.387 62.415 228.523 62.2307 228.664 62.0498C228.024 63.2104 226.841 65.9809 229.376 67.133C232.02 68.3353 233.686 65.8165 234.213 64.841C234.197 64.8789 234.181 64.9181 234.165 64.9607C234.118 65.0752 234.068 65.2061 234.018 65.3549C233.84 65.8986 233.674 66.6706 233.766 67.457C233.814 67.8468 233.924 68.237 234.115 68.5604C234.203 68.7252 234.316 68.869 234.432 68.9931C234.547 69.1189 234.671 69.224 234.793 69.3058C234.909 69.3967 235.034 69.4505 235.137 69.5068C235.248 69.551 235.34 69.5939 235.42 69.6199C235.581 69.6685 235.673 69.6916 235.673 69.6916C235.673 69.6916 235.589 69.6436 235.444 69.5675C235.371 69.5288 235.289 69.4711 235.192 69.4116C235.104 69.3396 234.997 69.2699 234.899 69.1735C234.796 69.0829 234.696 68.9728 234.6 68.8506C234.505 68.7282 234.418 68.5898 234.344 68.4382C234.265 68.2891 234.213 68.1219 234.159 67.9534C234.115 67.7812 234.075 67.6041 234.059 67.4224C234.024 67.161 234.021 66.8949 234.032 66.6366C234.178 67.1898 234.559 67.7573 235.378 68.2156C237.838 69.593 241.577 62.1151 241.577 62.1151L255.156 59.0648C255.156 59.0648 256.531 62.2208 259.879 61.1311C263.249 60.0337 264.306 56.191 262.608 53.9264C262.621 53.9242 262.635 53.9217 262.648 53.9196C262.71 53.9695 262.772 54.0209 262.83 54.0755C262.967 54.201 263.089 54.3421 263.199 54.4917C263.309 54.6416 263.406 54.8009 263.486 54.9697C263.565 55.1386 263.634 55.3138 263.679 55.4963C263.736 55.6759 263.76 55.8648 263.786 56.0515L263.81 56.3351C263.814 56.4301 263.811 56.5254 263.811 56.6207C263.819 56.8115 263.787 57.0018 263.777 57.1928C263.747 57.382 263.724 57.5728 263.688 57.7617C263.644 57.949 263.615 58.1404 263.56 58.3254C263.505 58.5105 263.464 58.6999 263.398 58.8819C263.28 59.2507 263.141 59.6123 263.001 59.9747L263.247 59.4464C263.328 59.2699 263.393 59.0862 263.466 58.9058C263.543 58.7263 263.594 58.5379 263.659 58.3539C263.725 58.17 263.764 57.9781 263.818 57.79C263.867 57.6006 263.898 57.4064 263.934 57.2134C263.951 57.0177 263.989 56.8236 263.988 56.6256C263.99 56.527 263.997 56.4282 263.996 56.3294L263.98 56.0323C263.959 55.8354 263.94 55.6358 263.887 55.4428C263.845 55.2473 263.776 55.057 263.697 54.8725C263.617 54.688 263.518 54.5107 263.402 54.3454C263.284 54.1812 263.152 54.0266 263.005 53.8888C262.994 53.8775 262.981 53.8679 262.969 53.8567C263.075 53.8322 263.181 53.8059 263.287 53.7825C263.489 53.7386 263.685 53.667 263.884 53.6104C264.078 53.5371 264.275 53.4704 264.463 53.3811L264.745 53.2463C264.837 53.1966 264.925 53.1395 265.015 53.0865C265.106 53.0357 265.19 52.9729 265.274 52.91C265.358 52.8477 265.445 52.7884 265.52 52.7148C265.681 52.5792 265.824 52.4246 265.957 52.2623C266.087 52.0962 266.201 51.9191 266.296 51.7319C266.387 51.5427 266.464 51.3469 266.515 51.1446C266.567 50.9425 266.606 50.7366 266.615 50.529C266.641 50.1133 266.596 49.6996 266.502 49.3001ZM220.698 56.8634C221.045 56.8595 221.396 56.9672 221.577 57.2348C221.762 57.4979 221.782 57.8663 221.704 58.1972C221.665 58.3638 221.601 58.5261 221.512 58.6661C221.426 58.804 221.298 58.9264 221.186 58.9385C221.083 58.9577 220.969 58.8567 220.888 58.7136C220.805 58.5731 220.753 58.4067 220.701 58.2301C220.6 57.885 220.533 57.5305 220.527 57.1791C220.525 57.0762 220.531 56.9737 220.542 56.8724C220.594 56.8691 220.646 56.8636 220.698 56.8634Z" fill="#13132D"/>
<path d="M235.869 62.4089C235.869 62.4089 237.542 77.4633 234.196 78.0538C230.851 78.6441 223.176 75.0035 222.291 85.2366C221.405 95.4697 258.894 87.9918 258.894 87.9918C258.894 87.9918 259.583 79.333 254.761 78.9393C249.94 78.5458 246.791 82.2848 247.578 70.4774C248.365 58.6697 235.869 62.4089 235.869 62.4089Z" fill="#E5B4AA"/>
<path opacity="0.5" d="M238.5 67.7601C239.535 69.6999 240.753 71.6904 242.531 73.0385C244.034 74.1791 245.73 74.838 247.506 75.221C247.425 74.019 247.445 72.4702 247.578 70.4769C248.26 60.2454 238.97 61.6872 236.477 62.2544C236.833 64.1802 237.584 66.0428 238.5 67.7601Z" fill="#510E05"/>
<path d="M242.461 39.8761C242.461 39.8761 254.171 35.9403 256.237 55.2259C256.603 58.6394 256.735 62.5901 256.335 64.8686C254.663 74.4129 240.764 72.215 237.443 65.6558C233.409 57.6856 231.441 43.0247 242.461 39.8761Z" fill="#E5B4AA"/>
<path d="M235.637 59.6378C235.637 59.6378 234.378 52.7212 231.488 55.1856C228.598 57.65 233.496 64.4185 236.229 62.5561C238.963 60.6941 235.637 59.6378 235.637 59.6378Z" fill="#E5B4AA"/>
<path d="M264.313 41.0334L264.631 41.2088C264.732 41.2747 264.829 41.3483 264.929 41.4178C265.028 41.4897 265.131 41.5559 265.226 41.633L265.781 42.116L265.272 41.5795C265.183 41.4941 265.085 41.4189 264.991 41.3379C264.895 41.2591 264.802 41.1764 264.704 41.1007L264.389 40.8991C264.284 40.83 264.177 40.7657 264.06 40.7193L263.715 40.565L263.638 40.543C263.676 40.4837 263.713 40.4244 263.749 40.3648L263.89 40.2289C263.992 40.1194 264.083 40.0011 264.179 39.8879C264.279 39.7773 264.355 39.6485 264.442 39.5285C264.53 39.4088 264.607 39.282 264.68 39.1535C264.757 39.0272 264.83 38.8987 264.893 38.7655C264.962 38.6346 265.024 38.5011 265.079 38.3641C265.138 38.2293 265.192 38.0926 265.24 37.9537C265.342 37.6783 265.428 37.3969 265.486 37.11C265.395 37.3878 265.285 37.6582 265.164 37.9229C265.046 38.1884 264.91 38.4454 264.762 38.6944C264.694 38.8218 264.616 38.9437 264.535 39.0634C264.458 39.1851 264.378 39.3048 264.286 39.4165C264.245 39.4673 264.207 39.5198 264.168 39.5714C265.055 37.6077 264.86 35.5628 262.338 34.3707C261.276 33.8688 260.223 33.6159 259.219 33.5456C259.437 33.483 259.674 33.435 259.924 33.4097C260.134 33.3831 260.354 33.3883 260.575 33.3954C260.798 33.405 261.022 33.4342 261.245 33.477C261.691 33.5588 262.129 33.695 262.529 33.8526C262.928 34.0118 263.297 34.1782 263.601 34.3462C264.214 34.6719 264.601 34.9376 264.601 34.9376C264.601 34.9376 264.519 34.8531 264.364 34.7196C264.206 34.5892 263.98 34.3998 263.684 34.207C263.388 34.0146 263.033 33.8007 262.627 33.6187C262.224 33.4331 261.768 33.2856 261.298 33.1931C261.063 33.1505 260.823 33.1239 260.587 33.1168C260.351 33.1093 260.116 33.1217 259.893 33.1574C259.669 33.186 259.458 33.245 259.263 33.3125C259.155 33.3507 259.053 33.3921 258.956 33.4361C259.244 32.0883 259.135 30.9101 258.402 30.4038C257.695 29.9149 256.548 30.1076 255.32 30.6655C255.398 30.5131 255.469 30.3577 255.536 30.1998C255.583 30.1702 255.629 30.1392 255.676 30.1101C256.324 29.7117 257.005 29.3559 257.726 29.1348C258.085 29.0242 258.455 28.9542 258.825 28.9479C259.108 28.9462 259.389 28.9879 259.65 29.0843C259.571 29.1711 259.495 29.2614 259.427 29.3605C259.319 29.5261 259.227 29.7172 259.219 29.9311C259.206 30.1436 259.295 30.3629 259.444 30.512C259.592 30.6644 259.779 30.7641 259.976 30.8236C260.172 30.8813 260.382 30.9052 260.594 30.8618C260.699 30.8398 260.807 30.7992 260.9 30.721C260.992 30.6452 261.059 30.5216 261.067 30.4014C261.087 30.1589 260.977 29.9574 260.875 29.791C260.652 29.4533 260.359 29.1584 259.995 28.9673C259.974 28.9561 259.952 28.949 259.93 28.9385C260.05 28.8202 260.177 28.7082 260.308 28.6027C260.608 28.365 260.928 28.1497 261.256 27.9479C260.915 28.1272 260.58 28.3208 260.266 28.5484C260.118 28.6565 259.973 28.7713 259.836 28.8965C259.515 28.7579 259.166 28.6955 258.823 28.6964C258.422 28.7016 258.028 28.7757 257.652 28.8896C256.955 29.1005 256.309 29.4278 255.692 29.7935C255.89 29.2257 256.015 28.6324 256.042 28.0295C256.097 26.9966 255.857 25.953 255.376 25.0423C254.886 24.1293 254.194 23.3526 253.378 22.7302C252.565 22.1056 251.628 21.6597 250.657 21.3577C249.681 21.0622 248.668 20.9104 247.655 20.864C246.642 20.8198 245.623 20.8731 244.626 21.0524C245.126 20.9733 245.631 20.9348 246.136 20.9165C246.641 20.8972 247.147 20.9052 247.651 20.9379C248.658 21.0046 249.659 21.1762 250.616 21.4875C251.568 21.8036 252.484 22.2489 253.27 22.8708C254.055 23.4841 254.728 24.2631 255.184 25.1416C255.639 26.0268 255.848 27.0276 255.795 28.0166C255.761 28.6958 255.599 29.3638 255.342 29.9945C255.809 27.1196 254.815 24.1573 250.432 22.8472C242.517 20.4818 232.679 24.4808 229.381 32.1591C229.428 31.9743 229.479 31.7849 229.533 31.585C229.61 31.2898 229.721 30.987 229.814 30.6691C229.931 30.3588 230.033 30.0313 230.172 29.7128C230.237 29.5522 230.304 29.3902 230.37 29.2276C230.437 29.0656 230.522 28.9105 230.597 28.7513C230.675 28.5931 230.742 28.4295 230.825 28.2755C230.911 28.1223 230.996 27.9699 231.08 27.8183C231.241 27.5105 231.431 27.2275 231.609 26.9482C231.779 26.6632 231.98 26.415 232.157 26.1674C232.248 26.0455 232.333 25.9236 232.422 25.811C232.515 25.7017 232.605 25.5963 232.692 25.495C232.869 25.2962 233.016 25.0963 233.167 24.9398C233.319 24.7833 233.452 24.6469 233.562 24.5343C233.779 24.3056 233.902 24.1694 233.902 24.1694C233.902 24.1694 233.75 24.2666 233.488 24.4462C233.357 24.5379 233.199 24.6494 233.017 24.777C232.838 24.9088 232.657 25.0829 232.452 25.2652C232.35 25.3574 232.244 25.4535 232.134 25.5532C232.028 25.657 231.931 25.7759 231.825 25.892C231.619 26.1295 231.382 26.3675 231.192 26.6558C230.995 26.9378 230.767 27.2159 230.598 27.5369C230.507 27.6934 230.415 27.8513 230.323 28.0097C230.233 28.1692 230.159 28.3378 230.076 28.5022C230.001 28.67 229.916 28.8336 229.849 29.0039C229.783 29.1744 229.717 29.3443 229.651 29.5129C229.581 29.6798 229.525 29.8503 229.478 30.0211C229.427 30.1905 229.377 30.358 229.328 30.5227C229.245 30.8563 229.166 31.1789 229.114 31.4892C229.057 31.7983 229.015 32.0921 228.992 32.3653C228.956 32.6366 228.952 32.8886 228.941 33.1096C228.939 33.1879 228.939 33.2576 228.939 33.3284C228.866 33.5492 228.801 33.7735 228.739 33.9995C228.739 33.9583 228.737 33.9174 228.737 33.8762C228.736 33.4193 228.744 32.9627 228.769 32.5072C228.775 32.2791 228.795 32.052 228.812 31.8244C228.826 31.5968 228.848 31.37 228.876 31.1438C228.921 30.6902 228.995 30.2408 229.072 29.7924L229.207 29.1236L229.373 28.463C229.425 28.2417 229.503 28.0284 229.567 27.8106C229.629 27.5921 229.708 27.3798 229.789 27.1684C229.939 26.7401 230.133 26.3305 230.323 25.9206L230.641 25.3218C230.75 25.1241 230.878 24.9376 230.996 24.7449C231.11 24.5494 231.248 24.3707 231.382 24.1895C231.517 24.0088 231.645 23.8221 231.799 23.6574C231.949 23.4885 232.093 23.315 232.247 23.1497L232.732 22.6788C232.888 22.5144 233.076 22.387 233.247 22.2398C233.421 22.0968 233.593 21.9502 233.784 21.8296L234.344 21.4477L234.765 21.2102C234.774 21.3179 234.788 21.4258 234.812 21.5339C234.866 21.7978 235 22.0545 235.187 22.2596C235.375 22.4661 235.619 22.6135 235.872 22.7044C236.385 22.8845 236.924 22.8639 237.428 22.7585C237.93 22.639 238.426 22.4408 238.827 22.0589C239.021 21.864 239.203 21.6259 239.237 21.2813C239.255 20.9985 239.2 20.6985 239.019 20.4431C238.843 20.1867 238.565 20.031 238.303 19.9516C238.037 19.8674 237.771 19.8448 237.511 19.8402C236.988 19.8424 236.495 19.9234 235.995 20.0585L235.983 20.0617L235.973 20.0661L235.328 20.3561L235.17 20.4272C235.192 20.3141 235.217 20.2015 235.246 20.0903C235.275 19.9758 235.307 19.8624 235.349 19.7507L235.407 19.5821L235.433 19.5074L235.471 19.4239L235.772 18.7568C235.887 18.5481 236.017 18.3551 236.139 18.1525C236.195 18.0487 236.272 17.9581 236.348 17.8666L236.574 17.5907C236.714 17.3955 236.909 17.2544 237.076 17.0852C237.24 16.9104 237.448 16.7898 237.639 16.6482C237.826 16.498 238.047 16.4027 238.257 16.289C238.463 16.1655 238.694 16.0979 238.917 16.0125C239.138 15.9173 239.376 15.8772 239.61 15.8204C239.842 15.7536 240.082 15.7394 240.321 15.7105C240.56 15.6724 240.802 15.6803 241.043 15.6795C241.285 15.6691 241.525 15.696 241.766 15.7229C241.886 15.7366 242.007 15.7446 242.126 15.7627L242.482 15.8355L242.838 15.9082C242.955 15.9395 243.07 15.978 243.187 16.0125C243.419 16.0834 243.653 16.1487 243.875 16.2484C244.098 16.345 244.333 16.4172 244.544 16.5386C244.758 16.6536 244.982 16.7533 245.189 16.8813L245.807 17.2733L245.203 16.8587C245 16.7231 244.779 16.6149 244.568 16.4914C244.359 16.3618 244.127 16.2808 243.905 16.1751C243.685 16.0658 243.45 15.9933 243.217 15.9156C243.101 15.8775 242.985 15.8355 242.867 15.8006L242.508 15.7171L242.148 15.6337C242.027 15.612 241.905 15.6002 241.783 15.5831C241.539 15.5491 241.294 15.5153 241.047 15.5192C240.8 15.5131 240.552 15.4988 240.306 15.531C240.06 15.5538 239.811 15.5625 239.57 15.6243C239.328 15.6765 239.081 15.7122 238.849 15.8042C238.614 15.8862 238.372 15.951 238.154 16.0732C237.931 16.1855 237.698 16.2802 237.498 16.4315C237.293 16.574 237.072 16.6968 236.894 16.8744C236.713 17.046 236.505 17.1923 236.355 17.3944L236.112 17.681C236.03 17.776 235.948 17.8702 235.885 17.9809C235.751 18.1942 235.606 18.4059 235.483 18.6225L235.171 19.2845L235.132 19.3671C235.112 19.4143 235.108 19.4308 235.095 19.4643L235.031 19.6408C234.985 19.7573 234.948 19.8775 234.916 19.9997C234.861 20.2012 234.813 20.4099 234.785 20.6229L234.696 20.6718L234.078 21.0167L233.49 21.4126C233.289 21.5381 233.108 21.6899 232.924 21.839C232.744 21.9922 232.547 22.1256 232.382 22.2967L231.87 22.7881C231.709 22.9605 231.556 23.1415 231.398 23.318C231.235 23.4904 231.1 23.6848 230.957 23.8735C230.815 24.0626 230.67 24.2496 230.549 24.453C230.425 24.6538 230.29 24.849 230.175 25.0549L229.839 25.6787C229.638 26.1048 229.434 26.5312 229.276 26.9751C229.19 27.1945 229.107 27.4153 229.041 27.641C228.974 27.8661 228.892 28.0877 228.836 28.3161L228.66 28.9986L228.518 29.6883C228.435 30.1499 228.357 30.6128 228.308 31.0787C228.278 31.3113 228.254 31.5441 228.238 31.7777C228.22 32.0111 228.197 32.2442 228.19 32.4781C228.167 32.9454 228.162 33.4133 228.165 33.8806C228.174 34.7051 228.226 35.5282 228.311 36.3472C228.297 36.4914 228.286 36.6366 228.276 36.7827C228.229 36.6616 228.182 36.5405 228.127 36.4183C227.968 36.0699 227.786 35.7171 227.575 35.3739C227.363 35.0321 227.132 34.6916 226.869 34.3775C226.608 34.0607 226.317 33.7708 226.023 33.4965C225.72 33.2302 225.415 32.977 225.098 32.7612C224.472 32.3178 223.822 32.01 223.26 31.7769C222.694 31.5477 222.2 31.4225 221.855 31.3453C221.508 31.2698 221.306 31.2536 221.306 31.2536C221.306 31.2536 221.505 31.2948 221.841 31.3994C222.179 31.4988 222.65 31.6764 223.196 31.9257C223.467 32.0542 223.758 32.1984 224.053 32.3749C224.35 32.5468 224.65 32.7483 224.953 32.9655C225.258 33.1807 225.551 33.4317 225.84 33.695C226.122 33.9662 226.399 34.2512 226.647 34.5623C226.906 34.8627 227.135 35.1883 227.346 35.517C227.557 35.8467 227.739 36.1869 227.9 36.5238C227.942 36.6179 227.981 36.7099 228.022 36.8027C227.97 36.7297 227.918 36.6567 227.867 36.5831C227.648 36.3165 227.435 36.0458 227.184 35.8052C226.696 35.3157 226.134 34.8904 225.507 34.5815C224.881 34.2716 224.193 34.0805 223.493 34.0343C222.793 33.9838 222.082 34.0854 221.424 34.3432C221.123 34.4607 220.834 34.6128 220.569 34.8056C220.247 34.7987 219.923 34.8251 219.607 34.8981C218.934 35.0486 218.309 35.378 217.8 35.8294C217.282 36.2723 216.875 36.8239 216.531 37.3996C216.192 37.9814 215.919 38.5972 215.703 39.2309C215.489 39.8652 215.315 40.5131 215.206 41.1721C215.339 40.5178 215.535 39.8781 215.77 39.2554C216.01 38.6346 216.292 38.03 216.642 37.4669C216.996 36.9092 217.408 36.3815 217.919 35.9694C218.42 35.548 219.02 35.2545 219.655 35.1298C219.851 35.09 220.049 35.0705 220.248 35.0648C220.061 35.235 219.892 35.4288 219.761 35.6548C219.572 35.9716 219.459 36.3546 219.492 36.7396C219.501 36.9334 219.558 37.1154 219.634 37.2947C219.678 37.3818 219.724 37.4743 219.772 37.5539L219.922 37.7543C220.167 38.0451 220.426 38.2716 220.745 38.4561C221.059 38.6362 221.42 38.7444 221.785 38.7601C222.517 38.7905 223.249 38.4558 223.685 37.8625C223.895 37.5643 224.034 37.1896 223.998 36.8077C223.964 36.4263 223.768 36.0793 223.51 35.8291C222.986 35.3264 222.302 35.095 221.649 34.9418C221.563 34.9225 221.476 34.905 221.389 34.8893C221.459 34.8583 221.527 34.8226 221.599 34.796C222.187 34.5728 222.828 34.4808 223.46 34.5313C224.091 34.5769 224.713 34.7523 225.281 35.0376C225.851 35.322 226.365 35.7146 226.816 36.1715C227.047 36.395 227.245 36.6506 227.45 36.9005C227.631 37.1682 227.829 37.4254 227.984 37.7121C227.993 37.7263 228 37.7414 228.009 37.756C224.758 37.6739 220.75 39.9467 219.831 46.6509C218.5 56.3648 228.297 56.0856 230.084 53.0948L231.737 55.0576C231.737 55.0576 233.803 54.5854 234.59 56.9469C235.377 59.3083 235.673 60.4417 235.673 60.4417L237.936 59.9695L236.952 50.9016C236.952 50.9016 240.711 49.2199 240.646 43.2474C240.655 43.2757 240.663 43.304 240.672 43.332C240.681 43.4086 240.691 43.4849 240.696 43.5621C240.766 44.3325 240.727 45.1131 240.596 45.8785C240.463 46.644 240.246 47.3958 239.958 48.1206C239.813 48.4827 239.649 48.8377 239.468 49.1842C239.287 49.5302 239.094 49.8712 238.87 50.1932C239.343 49.5675 239.725 48.8748 240.044 48.1571C240.36 47.4375 240.61 46.6844 240.757 45.9079C240.874 45.3061 240.932 44.6916 240.928 44.0766C241.11 44.5645 241.317 45.0439 241.557 45.5079C241.898 46.1701 242.31 46.8013 242.809 47.3614C243.055 47.6451 243.333 47.9007 243.624 48.1387C243.915 48.3779 244.238 48.5772 244.571 48.7537C244.609 48.7724 244.649 48.7908 244.688 48.8095C244.702 48.8726 244.719 48.9344 244.745 48.992C244.906 49.3578 245.241 49.6065 245.597 49.7281C245.958 49.852 246.346 49.8531 246.709 49.7745C247.074 49.6944 247.414 49.5379 247.726 49.3432C247.404 49.5206 247.056 49.651 246.698 49.7161C246.34 49.7776 245.967 49.7583 245.634 49.6274C245.303 49.5005 245.015 49.2512 244.885 48.9341C244.879 48.9209 244.876 48.9069 244.871 48.8935C244.944 48.9253 245.016 48.9564 245.088 48.9813C245.276 49.0456 245.463 49.0912 245.66 49.1101C245.856 49.1282 246.062 49.1153 246.258 49.0445C246.454 48.9767 246.638 48.8413 246.743 48.645C246.844 48.4498 246.851 48.1934 246.725 48.0012C246.603 47.8065 246.389 47.7063 246.19 47.6772C245.988 47.6448 245.79 47.6681 245.603 47.7118C245.506 47.7318 245.424 47.7623 245.323 47.7944L245.196 47.8477L245.061 47.9235C244.893 48.0322 244.753 48.2008 244.695 48.3996C244.685 48.4358 244.681 48.4723 244.676 48.5091C244.366 48.3413 244.066 48.1533 243.794 47.9265C243.518 47.6967 243.253 47.4507 243.019 47.1758C242.783 46.9027 242.56 46.6174 242.363 46.3129C242.164 46.0101 241.974 45.7006 241.808 45.3772C241.469 44.7339 241.192 44.0571 240.961 43.365C240.927 43.2598 240.894 43.1533 240.862 43.0473C240.858 43.016 240.854 42.9844 240.851 42.9531C240.839 42.8834 240.828 42.8136 240.817 42.7436C241.366 44.1096 242.973 47.2382 246.201 47.312C247.543 47.3428 248.572 46.9241 249.353 46.3464C249.92 47.5652 250.881 48.6458 252.4 47.6898C252.4 47.6898 252.597 52.035 258.403 50.4291C263.101 49.1293 266.961 43.8081 263.984 40.8747L263.99 40.8769C264.103 40.9148 264.209 40.9714 264.313 41.0334ZM260.674 29.9176C260.777 30.0697 260.856 30.2317 260.848 30.38C260.843 30.5225 260.717 30.6262 260.549 30.6636C260.216 30.7363 259.814 30.6328 259.563 30.3937C259.437 30.2734 259.364 30.1081 259.368 29.9343C259.37 29.7603 259.438 29.5854 259.532 29.4264C259.596 29.3213 259.672 29.2238 259.753 29.1293C259.795 29.1477 259.839 29.1634 259.879 29.1851C260.201 29.3512 260.468 29.6181 260.674 29.9176ZM235.231 20.9494L235.541 20.8083L236.148 20.5307C236.585 20.4099 237.059 20.3311 237.51 20.327C237.958 20.3223 238.43 20.4143 238.643 20.7122C238.751 20.8525 238.799 21.0625 238.787 21.2616C238.778 21.4096 238.667 21.6028 238.519 21.7473C238.216 22.0501 237.776 22.245 237.336 22.3546C236.893 22.4562 236.416 22.4762 236.001 22.3356C235.586 22.2 235.266 21.8774 235.169 21.4469C235.134 21.3069 235.122 21.1603 235.12 21.0114L235.231 20.9494ZM221.581 35.2229C221.913 35.297 222.202 35.4049 222.502 35.5323C222.79 35.6707 223.066 35.8365 223.281 36.0556C223.496 36.2725 223.638 36.546 223.66 36.8335C223.683 37.1215 223.573 37.4114 223.398 37.6525C223.034 38.1332 222.407 38.4097 221.805 38.3724C221.503 38.354 221.207 38.2609 220.945 38.1047C220.686 37.9534 220.443 37.7258 220.261 37.5059L220.114 37.303C220.079 37.2384 220.056 37.1783 220.024 37.1171C219.974 36.9902 219.929 36.8472 219.927 36.7072C219.907 36.4252 219.994 36.1405 220.149 35.8882C220.3 35.6328 220.525 35.4148 220.775 35.2344C220.838 35.1864 220.91 35.1491 220.978 35.1065C221.181 35.1342 221.382 35.1732 221.581 35.2229ZM245.157 48.0747L245.264 48.0174L245.393 47.9677C245.468 47.9471 245.56 47.9158 245.644 47.902C245.815 47.8669 245.991 47.8535 246.152 47.8848C246.314 47.913 246.458 47.9946 246.53 48.119C246.605 48.242 246.596 48.4007 246.527 48.5297C246.382 48.7988 246.015 48.8949 245.683 48.8556C245.514 48.8378 245.342 48.7938 245.181 48.7378C245.057 48.6931 244.943 48.6398 244.829 48.5843C244.833 48.5371 244.84 48.4907 244.853 48.446C244.904 48.2917 245.014 48.1623 245.157 48.0747Z" fill="#191939"/>
<path d="M250.583 44.1223C248.71 44.0347 246.741 43.7283 245.22 42.6858C243.353 41.406 242.927 39.3691 243.241 37.2602C240.442 35.81 238.368 32.6597 237.374 29.8767C236.768 28.1794 236.402 26.2814 236.662 24.4715C233.467 26.1985 230.81 28.8323 229.381 32.1586C229.428 31.9738 229.479 31.7844 229.533 31.5845C229.61 31.2894 229.72 30.9865 229.813 30.6686C229.931 30.3583 230.033 30.0308 230.171 29.7123C230.237 29.5517 230.303 29.3897 230.37 29.2271C230.437 29.0652 230.522 28.91 230.597 28.7508C230.674 28.5926 230.741 28.429 230.825 28.275C230.91 28.1218 230.996 27.9694 231.08 27.8178C231.241 27.5101 231.431 27.227 231.608 26.9478C231.778 26.6628 231.98 26.4146 232.157 26.1669C232.248 26.045 232.333 25.9231 232.422 25.8105C232.515 25.7013 232.605 25.5958 232.691 25.4945C232.868 25.2957 233.015 25.0958 233.167 24.9394C233.319 24.7829 233.452 24.6464 233.561 24.5338C233.779 24.3051 233.901 24.1689 233.901 24.1689C233.901 24.1689 233.75 24.2661 233.487 24.4457C233.357 24.5374 233.198 24.6489 233.017 24.7765C232.837 24.9083 232.657 25.0824 232.452 25.2647C232.35 25.357 232.244 25.4531 232.134 25.5527C232.028 25.6565 231.931 25.7754 231.825 25.8915C231.618 26.129 231.381 26.3671 231.192 26.6553C230.995 26.9373 230.767 27.2154 230.598 27.5364C230.507 27.6929 230.415 27.8508 230.323 28.0092C230.233 28.1687 230.158 28.3373 230.076 28.5018C230.001 28.6695 229.916 28.8332 229.848 29.0034C229.782 29.1739 229.716 29.3438 229.651 29.5124C229.581 29.6793 229.525 29.8498 229.477 30.0206C229.427 30.19 229.376 30.3575 229.327 30.5222C229.244 30.8558 229.165 31.1784 229.114 31.4887C229.057 31.7978 229.015 32.0916 228.991 32.3648C228.956 32.6361 228.952 32.8881 228.941 33.1091C228.939 33.1874 228.939 33.2571 228.938 33.328C228.866 33.5487 228.801 33.773 228.739 33.999C228.739 33.9578 228.737 33.9169 228.737 33.8757C228.736 33.4188 228.744 32.9622 228.769 32.5068C228.774 32.2786 228.795 32.0515 228.811 31.8239C228.825 31.5963 228.848 31.3695 228.876 31.1433C228.921 30.6897 228.994 30.2403 229.072 29.7919L229.206 29.1231L229.373 28.4625C229.425 28.2412 229.503 28.0279 229.567 27.8101C229.629 27.5916 229.708 27.3794 229.789 27.1679C229.938 26.7396 230.132 26.33 230.323 25.9201L230.641 25.3213C230.75 25.1236 230.878 24.9372 230.996 24.7444C231.109 24.5489 231.248 24.3702 231.382 24.189C231.517 24.0083 231.645 23.8216 231.799 23.6569C231.949 23.488 232.093 23.3145 232.246 23.1492L232.732 22.6784C232.888 22.5139 233.076 22.3865 233.246 22.2393C233.421 22.0963 233.593 21.9497 233.784 21.8291L234.344 21.4472L234.765 21.2097C234.773 21.3174 234.787 21.4253 234.812 21.5334C234.866 21.7973 235 22.054 235.187 22.2591C235.375 22.4656 235.618 22.613 235.872 22.7039C236.275 22.8453 236.694 22.862 237.099 22.8121C237.162 22.6572 237.231 22.507 237.304 22.3593C236.87 22.4549 236.406 22.4722 236 22.3349C235.585 22.1993 235.265 21.8766 235.168 21.4461C235.133 21.3061 235.122 21.1595 235.119 21.0107L235.231 20.9486L235.54 20.8075L236.147 20.5299C236.584 20.4091 237.059 20.3303 237.509 20.3262C237.913 20.3221 238.334 20.3976 238.569 20.6301C238.68 20.5233 238.795 20.4201 238.914 20.321C238.742 20.1379 238.519 20.0165 238.303 19.9512C238.036 19.8669 237.77 19.8444 237.51 19.8397C236.988 19.8419 236.495 19.9229 235.994 20.058L235.982 20.0613L235.972 20.0657L235.328 20.3556L235.17 20.4267C235.191 20.3136 235.217 20.201 235.246 20.0898C235.274 19.9753 235.307 19.8619 235.348 19.7502L235.407 19.5816L235.432 19.5069L235.47 19.4235L235.772 18.7563C235.887 18.5476 236.017 18.3546 236.138 18.152C236.194 18.0482 236.271 17.9576 236.348 17.8662L236.574 17.5902C236.713 17.395 236.908 17.2539 237.076 17.0848C237.24 16.9099 237.447 16.7893 237.639 16.6477C237.826 16.4975 238.046 16.4022 238.256 16.2885C238.462 16.165 238.693 16.0974 238.917 16.0121C239.138 15.9168 239.376 15.8767 239.609 15.8199C239.841 15.7532 240.082 15.7389 240.321 15.71C240.56 15.6719 240.801 15.6798 241.042 15.679C241.284 15.6686 241.525 15.6955 241.765 15.7224C241.885 15.7361 242.006 15.7441 242.126 15.7622L242.481 15.835L242.838 15.9077C242.955 15.939 243.07 15.9775 243.186 16.0121C243.418 16.0829 243.653 16.1482 243.875 16.2479C244.097 16.3446 244.332 16.4168 244.544 16.5381C244.758 16.6532 244.981 16.7528 245.189 16.8808L245.807 17.2728L245.203 16.8583C244.999 16.7226 244.779 16.6144 244.568 16.4909C244.359 16.3613 244.126 16.2803 243.905 16.1746C243.684 16.0653 243.45 15.9928 243.217 15.9151C243.1 15.877 242.984 15.835 242.867 15.8001L242.508 15.7166L242.148 15.6332C242.027 15.6115 241.904 15.5997 241.782 15.5826C241.538 15.5486 241.294 15.5148 241.046 15.5187C240.799 15.5126 240.552 15.4984 240.306 15.5305C240.06 15.5533 239.811 15.5621 239.57 15.6238C239.327 15.676 239.08 15.7117 238.848 15.8037C238.614 15.8858 238.372 15.9506 238.153 16.0727C237.931 16.185 237.698 16.2798 237.497 16.431C237.293 16.5735 237.072 16.6963 236.894 16.8739C236.713 17.0455 236.504 17.1918 236.354 17.3939L236.112 17.6806C236.03 17.7756 235.947 17.8697 235.884 17.9804C235.751 18.1937 235.606 18.4054 235.483 18.622L235.17 19.284L235.131 19.3666C235.111 19.4138 235.107 19.4303 235.094 19.4638L235.03 19.6404C234.985 19.7568 234.948 19.877 234.915 19.9992C234.86 20.2007 234.813 20.4094 234.784 20.6225L234.695 20.6713L234.077 21.0162L233.489 21.4121C233.289 21.5376 233.107 21.6894 232.923 21.8385C232.744 21.9917 232.546 22.1251 232.382 22.2962L231.87 22.7876C231.708 22.9601 231.555 23.141 231.397 23.3175C231.235 23.49 231.099 23.6843 230.957 23.873C230.815 24.0621 230.67 24.2491 230.549 24.4526C230.424 24.6533 230.29 24.8485 230.174 25.0544L229.839 25.6782C229.637 26.1043 229.433 26.5307 229.275 26.9747C229.189 27.194 229.107 27.4148 229.04 27.6405C228.973 27.8656 228.891 28.0872 228.836 28.3156L228.66 28.9982L228.517 29.6879C228.435 30.1494 228.356 30.6123 228.308 31.0782C228.277 31.3108 228.254 31.5436 228.238 31.7772C228.219 32.0106 228.197 32.2437 228.19 32.4777C228.166 32.945 228.162 33.4128 228.165 33.8801C228.173 34.7046 228.225 35.5277 228.31 36.3467C228.296 36.4909 228.285 36.6361 228.276 36.7822C228.228 36.6611 228.181 36.54 228.127 36.4178C227.967 36.0694 227.786 35.7166 227.575 35.3734C227.362 35.0316 227.132 34.6911 226.868 34.3771C226.608 34.0602 226.317 33.7703 226.022 33.496C225.72 33.2297 225.414 32.9765 225.097 32.7607C224.471 32.3173 223.821 32.0095 223.259 31.7764C222.693 31.5472 222.199 31.422 221.854 31.3448C221.508 31.2693 221.306 31.2531 221.306 31.2531C221.306 31.2531 221.504 31.2943 221.84 31.3989C222.178 31.4983 222.649 31.6759 223.195 31.9252C223.466 32.0537 223.758 32.1979 224.052 32.3744C224.349 32.5463 224.649 32.7478 224.952 32.965C225.258 33.1802 225.551 33.4312 225.84 33.6945C226.122 33.9658 226.399 34.2508 226.646 34.5618C226.905 34.8622 227.134 35.1878 227.346 35.5165C227.556 35.8462 227.738 36.1864 227.899 36.5233C227.942 36.6175 227.981 36.7094 228.022 36.8022C227.97 36.7292 227.918 36.6562 227.867 36.5826C227.648 36.316 227.434 36.0453 227.184 35.8048C226.696 35.3152 226.133 34.8899 225.506 34.581C224.881 34.2711 224.192 34.08 223.492 34.0339C222.793 33.9833 222.081 34.0849 221.423 34.3427C221.122 34.4602 220.833 34.6123 220.569 34.8051C220.246 34.7982 219.923 34.8246 219.607 34.8976C218.934 35.0481 218.308 35.3775 217.8 35.8289C217.281 36.2718 216.875 36.8234 216.53 37.3991C216.192 37.9809 215.918 38.5967 215.702 39.2304C215.488 39.8647 215.315 40.5126 215.206 41.1716C215.339 40.5173 215.535 39.8776 215.769 39.2549C216.01 38.6341 216.291 38.0295 216.641 37.4664C216.995 36.9088 217.408 36.3811 217.918 35.9689C218.42 35.5475 219.02 35.254 219.655 35.1293C219.851 35.0895 220.049 35.07 220.248 35.0643C220.061 35.2345 219.891 35.4283 219.761 35.6543C219.572 35.9711 219.459 36.3542 219.491 36.7391C219.501 36.9329 219.558 37.115 219.633 37.2942C219.678 37.3813 219.723 37.4738 219.771 37.5534L219.921 37.7539C220.167 38.0446 220.425 38.2711 220.744 38.4556C221.059 38.6357 221.419 38.7439 221.785 38.7596C222.517 38.79 223.248 38.4554 223.685 37.862C223.895 37.5639 224.034 37.1891 223.998 36.8072C223.964 36.4258 223.767 36.0788 223.509 35.8286C222.985 35.3259 222.302 35.0945 221.649 34.9413C221.562 34.922 221.475 34.9045 221.388 34.8888C221.458 34.8578 221.527 34.8221 221.598 34.7955C222.186 34.5723 222.828 34.4803 223.459 34.5308C224.091 34.5764 224.712 34.7518 225.281 35.0371C225.85 35.3215 226.365 35.7142 226.815 36.171C227.047 36.3945 227.245 36.6501 227.449 36.9C227.631 37.1677 227.828 37.4249 227.983 37.7116C227.992 37.7258 228 37.7409 228.008 37.7555C224.758 37.6734 220.75 39.9462 219.831 46.6504C218.499 56.3643 228.296 56.0851 230.083 53.0943L231.736 55.0571C231.736 55.0571 233.803 54.5849 234.59 56.9464C235.377 59.3079 235.672 60.4412 235.672 60.4412L237.935 59.969L236.951 50.9011C236.951 50.9011 240.711 49.2194 240.645 43.247C240.654 43.2752 240.662 43.3035 240.671 43.3315C240.681 43.4081 240.69 43.4845 240.696 43.5616C240.766 44.332 240.726 45.1126 240.595 45.8781C240.463 46.6435 240.245 47.3953 239.957 48.1201C239.812 48.4823 239.649 48.8373 239.468 49.1838C239.287 49.5297 239.093 49.8707 238.87 50.1928C239.343 49.567 239.724 48.8743 240.044 48.1566C240.36 47.437 240.609 46.6839 240.757 45.9074C240.873 45.3056 240.932 44.6911 240.928 44.0761C241.11 44.564 241.316 45.0434 241.557 45.5074C241.897 46.1696 242.309 46.8009 242.808 47.361C243.054 47.6446 243.332 47.9002 243.623 48.1382C243.914 48.3774 244.237 48.5767 244.57 48.7532C244.608 48.7719 244.648 48.7903 244.688 48.809C244.701 48.8721 244.719 48.9339 244.744 48.9916C244.905 49.3573 245.24 49.606 245.597 49.7277C245.957 49.8515 246.346 49.8526 246.709 49.7741C247.073 49.6939 247.414 49.5374 247.726 49.3427C247.403 49.5201 247.056 49.6505 246.698 49.7156C246.34 49.7771 245.966 49.7579 245.634 49.6269C245.303 49.5 245.015 49.2507 244.884 48.9336C244.879 48.9205 244.876 48.9064 244.871 48.893C244.943 48.9248 245.016 48.9559 245.088 48.9809C245.275 49.0451 245.463 49.0907 245.66 49.1096C245.856 49.1277 246.062 49.1148 246.258 49.044C246.453 48.9762 246.638 48.8408 246.743 48.6445C246.844 48.4493 246.85 48.1929 246.724 48.0007C246.602 47.806 246.389 47.7058 246.19 47.6767C245.988 47.6443 245.79 47.6676 245.603 47.7113C245.506 47.7313 245.423 47.7618 245.323 47.7939L245.195 47.8472L245.061 47.923C244.893 48.0317 244.753 48.2003 244.694 48.3991C244.684 48.4353 244.68 48.4718 244.675 48.5086C244.366 48.3409 244.066 48.1528 243.794 47.926C243.518 47.6962 243.253 47.4502 243.018 47.1753C242.783 46.9022 242.559 46.6169 242.363 46.3124C242.164 46.0096 241.974 45.7001 241.807 45.3767C241.469 44.7334 241.191 44.0566 240.961 43.3645C240.926 43.2593 240.894 43.1528 240.861 43.0468C240.857 43.0155 240.854 42.9839 240.85 42.9526C240.839 42.8829 240.828 42.8132 240.817 42.7431C241.366 44.1091 242.973 47.2377 246.201 47.3115C247.543 47.3423 248.572 46.9236 249.352 46.3459C249.808 47.3261 250.519 48.2146 251.571 48.0287C250.664 46.9228 250.165 45.5802 250.583 44.1223ZM221.581 35.223C221.913 35.2971 222.202 35.405 222.503 35.5324C222.791 35.6708 223.066 35.8366 223.281 36.0557C223.496 36.2726 223.638 36.5461 223.66 36.8335C223.683 37.1215 223.573 37.4115 223.398 37.6525C223.034 38.1333 222.408 38.4098 221.805 38.3724C221.504 38.354 221.208 38.261 220.945 38.1047C220.686 37.9535 220.443 37.7258 220.261 37.5059L220.114 37.303C220.079 37.2385 220.056 37.1784 220.024 37.1172C219.974 36.9903 219.929 36.8473 219.927 36.7072C219.908 36.4253 219.994 36.1405 220.149 35.8882C220.3 35.6329 220.525 35.4149 220.775 35.2345C220.839 35.1865 220.91 35.1491 220.979 35.1066C221.181 35.1343 221.383 35.1733 221.581 35.223ZM244.853 48.446C244.904 48.2917 245.015 48.1624 245.157 48.0748L245.264 48.0174L245.393 47.9677C245.469 47.9471 245.56 47.9158 245.644 47.9021C245.815 47.867 245.991 47.8535 246.153 47.8848C246.314 47.9131 246.458 47.9946 246.53 48.119C246.606 48.242 246.597 48.4007 246.527 48.5298C246.382 48.7988 246.015 48.8949 245.683 48.8557C245.514 48.8378 245.342 48.7939 245.182 48.7379C245.058 48.6931 244.944 48.6399 244.829 48.5844C244.833 48.5372 244.84 48.4908 244.853 48.446Z" fill="#13132D"/>
<path d="M238.787 21.2611C238.778 21.4091 238.667 21.6024 238.519 21.7468C238.298 21.9676 238.004 22.1296 237.69 22.2446C237.598 22.4102 237.513 22.5807 237.437 22.7564C237.936 22.6367 238.428 22.4387 238.827 22.059C239.021 21.8641 239.203 21.626 239.238 21.2815C239.253 21.0412 239.21 20.7905 239.088 20.5635C238.965 20.6664 238.847 20.7741 238.733 20.8855C238.775 21.0014 238.795 21.1326 238.787 21.2611Z" fill="#13132D"/>
<path d="M238.526 53.061C238.526 53.061 238.532 52.8995 238.602 52.6316C238.671 52.3633 238.802 51.9853 239.052 51.5723C239.298 51.1586 239.669 50.7086 240.179 50.3297C240.433 50.14 240.725 49.9758 241.039 49.8423C241.357 49.7177 241.695 49.6175 242.042 49.5757C242.215 49.5461 242.389 49.5513 242.562 49.54C242.734 49.5417 242.906 49.5529 243.073 49.5716C243.407 49.6125 243.727 49.6924 244.019 49.7978C244.314 49.8997 244.578 50.0362 244.821 50.1693C245.055 50.3184 245.274 50.4573 245.453 50.6136C245.544 50.691 245.633 50.7605 245.712 50.8338C245.788 50.9109 245.861 50.9812 245.926 51.0512C246.061 51.186 246.165 51.3167 246.247 51.4276C246.414 51.6459 246.496 51.7818 246.496 51.7818C246.496 51.7818 246.336 51.748 246.081 51.6692C245.955 51.6264 245.799 51.5852 245.625 51.5353C245.452 51.4814 245.261 51.4227 245.053 51.3691C244.849 51.3038 244.625 51.2591 244.398 51.197C244.168 51.1503 243.931 51.0979 243.689 51.0644C243.448 51.0271 243.202 51.0108 242.959 50.9988C242.837 50.9949 242.716 51.0051 242.594 51.0026C242.474 51.0169 242.352 51.0133 242.234 51.0383C241.993 51.0581 241.763 51.1267 241.53 51.1846C241.303 51.2601 241.077 51.3409 240.861 51.4422C240.647 51.5468 240.434 51.6528 240.24 51.7758C240.043 51.8944 239.856 52.0179 239.686 52.1412C239.342 52.3847 239.056 52.6184 238.85 52.7859C238.644 52.961 238.526 53.061 238.526 53.061Z" fill="#13132D"/>
<path d="M249.546 52.0762C249.546 52.0762 249.533 51.9335 249.562 51.6916C249.589 51.4491 249.659 51.107 249.819 50.7174C249.983 50.3314 250.234 49.8899 250.635 49.4937C250.832 49.2941 251.068 49.1069 251.341 48.9564C251.607 48.7972 251.917 48.6887 252.234 48.6187C252.553 48.5514 252.882 48.547 253.194 48.5803C253.504 48.6182 253.797 48.7027 254.057 48.8125C254.32 48.9218 254.546 49.0621 254.752 49.201C254.947 49.3534 255.127 49.497 255.268 49.6527C255.417 49.801 255.536 49.95 255.634 50.0876C255.737 50.2202 255.811 50.3484 255.869 50.4552C255.988 50.6666 256.04 50.7971 256.04 50.7971C256.04 50.7971 255.899 50.7605 255.679 50.6793C255.572 50.6359 255.436 50.5917 255.287 50.5403C255.14 50.4857 254.978 50.4242 254.801 50.369C254.629 50.3026 254.44 50.2554 254.251 50.193C254.059 50.1447 253.864 50.095 253.667 50.0618C253.569 50.0434 253.472 50.0385 253.374 50.022C253.279 50.0173 253.183 50.0124 253.085 50.0074C252.896 50.017 252.708 50.0173 252.528 50.0643C252.345 50.0991 252.165 50.154 251.987 50.2309C251.898 50.2647 251.811 50.3147 251.721 50.3536C251.635 50.4047 251.547 50.4489 251.461 50.5036C251.117 50.7117 250.797 50.9714 250.516 51.207C250.237 51.4464 249.997 51.6652 249.823 51.822C249.652 51.981 249.546 52.0762 249.546 52.0762Z" fill="#13132D"/>
<path d="M241.377 55.4351C241.475 56.2481 241.231 56.946 240.832 56.994C240.433 57.0421 240.03 56.4219 239.932 55.6089C239.834 54.7959 240.079 54.098 240.478 54.0499C240.877 54.0022 241.28 54.6221 241.377 55.4351Z" fill="#13132D"/>
<path d="M251.682 54.2515C251.78 55.0645 251.535 55.7624 251.136 55.8105C250.737 55.8585 250.334 55.2383 250.237 54.4253C250.139 53.6124 250.383 52.9144 250.782 52.8664C251.181 52.8183 251.584 53.4383 251.682 54.2515Z" fill="#13132D"/>
<path d="M249.349 52.6675C249.616 53.2314 249.85 53.8055 250.072 54.3832C250.293 54.9611 250.499 55.5435 250.696 56.1291C250.797 56.421 250.885 56.717 250.98 57.0105C251.076 57.304 251.164 57.5997 251.25 57.8962C251.335 58.1927 251.428 58.4873 251.505 58.7866C251.584 59.0853 251.67 59.3818 251.742 59.6822L251.812 59.9721L251.54 59.9891C251.095 60.0172 250.649 60.0375 250.202 60.0498C249.755 60.0578 249.308 60.0669 248.857 60.0471C249.292 59.9288 249.731 59.8395 250.169 59.7492C250.607 59.6632 251.047 59.585 251.487 59.5147L251.286 59.8217C251.178 59.5317 251.084 59.238 250.982 58.9464C250.879 58.6551 250.791 58.3594 250.696 58.0656C250.601 57.7718 250.509 57.4772 250.424 57.1804C250.339 56.8836 250.246 56.5893 250.167 56.2906C250.003 55.6953 249.848 55.0971 249.709 54.4941C249.57 53.8906 249.443 53.2841 249.349 52.6675Z" fill="#510E05"/>
<path d="M248.267 61.1294C248.478 61.2988 248.689 61.4613 248.903 61.6195C249.01 61.6969 249.114 61.7787 249.224 61.8512L249.549 62.0739L249.881 62.2757C249.937 62.3078 249.989 62.3476 250.047 62.3734L250.219 62.4574C250.334 62.5082 250.442 62.581 250.56 62.6145L250.905 62.7391L251.635 63.0033L250.903 63.2591C250.672 63.3396 250.439 63.4118 250.206 63.4837C249.973 63.5551 249.741 63.6317 249.507 63.6984C249.038 63.8322 248.57 63.9692 248.096 64.0864C247.624 64.2105 247.148 64.3203 246.668 64.4197C246.19 64.521 245.707 64.6092 245.217 64.6715C245.661 64.4551 246.113 64.2646 246.569 64.0869C247.025 63.9077 247.483 63.7385 247.946 63.584C248.407 63.4225 248.873 63.2806 249.339 63.1356C249.572 63.0631 249.808 63.0002 250.042 62.9322C250.276 62.8649 250.511 62.7973 250.748 62.7386L250.745 63.2583L250.349 63.0826C250.282 63.0541 250.217 63.0244 250.159 62.9846L249.982 62.8698L249.806 62.7548C249.746 62.7185 249.697 62.6702 249.641 62.6288C249.533 62.5428 249.425 62.4569 249.323 62.3655L249.029 62.0802C248.931 61.9852 248.846 61.8781 248.755 61.7782C248.662 61.6793 248.582 61.5681 248.499 61.4622C248.415 61.3565 248.341 61.2414 248.267 61.1294Z" fill="#510E05"/>
<path d="M247.48 65.4583C247.48 65.4583 247.503 65.3455 247.538 65.1764C247.576 65.0086 247.626 64.7851 247.677 64.5614C247.733 64.3401 247.79 64.119 247.832 63.9532C247.878 63.7888 247.908 63.6792 247.908 63.6792L248.475 63.9225C248.475 63.9225 248.417 64.0199 248.329 64.1663C248.238 64.3112 248.116 64.5043 247.994 64.6975C247.867 64.8884 247.74 65.0792 247.644 65.2222C247.545 65.3639 247.48 65.4583 247.48 65.4583Z" fill="#510E05"/>
<path d="M234.983 62.0146C234.776 61.9391 234.574 61.8449 234.384 61.7247C234.288 61.6654 234.195 61.5981 234.108 61.519C234.022 61.4397 233.939 61.3499 233.876 61.2313C233.846 61.172 233.818 61.1053 233.812 61.0295C233.801 60.9551 233.811 60.8752 233.834 60.8008C233.859 60.7272 233.896 60.6629 233.94 60.6058C233.985 60.5531 234.032 60.502 234.083 60.4628C234.284 60.295 234.505 60.2096 234.723 60.1295L234.568 60.3826C234.483 60.0534 234.384 59.7165 234.281 59.3879C234.175 59.059 234.058 58.735 233.933 58.417C233.808 58.0988 233.657 57.7943 233.496 57.5041C233.335 57.215 233.141 56.9479 232.915 56.7494C232.805 56.6461 232.682 56.5717 232.556 56.5212C232.424 56.4701 232.307 56.4526 232.147 56.4691C231.998 56.4806 231.875 56.5111 231.769 56.5794C231.664 56.6434 231.597 56.7538 231.55 56.8891C231.458 57.1678 231.495 57.5201 231.554 57.8542C231.621 58.1916 231.715 58.5315 231.835 58.8659C231.632 58.5738 231.458 58.2578 231.33 57.9176C231.267 57.7474 231.21 57.5717 231.179 57.3855C231.147 57.1999 231.131 57.0039 231.169 56.7969C231.205 56.5934 231.311 56.371 231.494 56.2255C231.669 56.0786 231.895 56.0034 232.094 55.9721C232.282 55.9386 232.527 55.9488 232.727 56.0179C232.932 56.0838 233.121 56.1895 233.276 56.3172C233.587 56.577 233.814 56.8905 234.003 57.2104C234.195 57.5308 234.338 57.8696 234.468 58.2084C234.599 58.5472 234.702 58.8934 234.79 59.2421C234.881 59.5913 234.953 59.9386 235.005 60.3013L235.034 60.507L234.85 60.5548C234.751 60.5806 234.653 60.608 234.56 60.6418C234.469 60.6775 234.377 60.7121 234.303 60.7599C234.263 60.7821 234.233 60.8085 234.201 60.834C234.175 60.8609 234.152 60.8881 234.137 60.9164C234.108 60.9721 234.105 61.0394 234.129 61.1226C234.181 61.2906 234.33 61.4548 234.479 61.6028C234.634 61.7494 234.804 61.8883 234.983 62.0146Z" fill="#510E05"/>
<path d="M239.756 57.0212C239.756 57.0212 239.803 57.1033 239.885 57.2467C239.969 57.3872 240.091 57.5841 240.251 57.7971C240.413 58.0055 240.616 58.2389 240.869 58.3715C240.99 58.4492 241.126 58.475 241.26 58.5C241.326 58.4975 241.409 58.5033 241.46 58.4964L241.529 58.4868C241.539 58.4822 241.548 58.4783 241.558 58.4753C241.575 58.4737 241.606 58.4547 241.631 58.4454C241.842 58.3435 242.02 58.0558 242.139 57.7617C242.264 57.4663 242.345 57.1596 242.416 56.8952C242.547 56.3508 242.634 55.9878 242.634 55.9878C242.634 55.9878 242.747 56.3582 242.752 56.9353C242.756 57.2239 242.731 57.5632 242.635 57.9295C242.583 58.1115 242.516 58.3021 242.401 58.4871C242.289 58.6708 242.124 58.8558 241.896 58.9734C241.835 58.9983 241.784 59.0261 241.709 59.0431L241.604 59.0683L241.535 59.0766C241.402 59.0914 241.3 59.073 241.184 59.0664C240.961 59.0203 240.744 58.9388 240.583 58.8072C240.411 58.6873 240.291 58.5343 240.187 58.3921C240.087 58.2463 240.013 58.1005 239.957 57.963C239.843 57.6895 239.798 57.4506 239.775 57.2843C239.752 57.1176 239.756 57.0212 239.756 57.0212Z" fill="#510E05"/>
<path d="M250.308 55.6926C250.308 55.6926 250.356 55.7746 250.438 55.9182C250.521 56.0588 250.644 56.2557 250.803 56.4687C250.966 56.6771 251.169 56.9105 251.422 57.0431C251.543 57.1208 251.679 57.1466 251.813 57.1716C251.879 57.1691 251.962 57.1749 252.013 57.168L252.082 57.1587C252.092 57.154 252.101 57.1502 252.111 57.1472C252.128 57.1455 252.159 57.1266 252.184 57.1172C252.395 57.0154 252.573 56.7279 252.692 56.4336C252.817 56.1379 252.898 55.8315 252.969 55.5671C253.1 55.0226 253.187 54.6597 253.187 54.6597C253.187 54.6597 253.3 55.03 253.305 55.6072C253.309 55.8957 253.284 56.2351 253.188 56.6013C253.136 56.7834 253.069 56.9739 252.954 57.159C252.842 57.3429 252.677 57.5277 252.449 57.6452C252.388 57.6702 252.337 57.6979 252.262 57.715L252.157 57.7402L252.088 57.7485C251.955 57.7633 251.853 57.7449 251.736 57.7383C251.513 57.6922 251.297 57.6106 251.135 57.4791C250.964 57.3591 250.844 57.2062 250.739 57.064C250.64 56.9182 250.565 56.7724 250.51 56.6348C250.396 56.3614 250.351 56.1225 250.328 55.9561C250.305 55.7892 250.308 55.6926 250.308 55.6926Z" fill="#510E05"/>
<path d="M262.195 97.6045L263.228 111.999H254.815L257.029 98.217L262.195 97.6045Z" fill="#E5B4AA"/>
<path opacity="0.5" d="M262.195 97.6045L263.228 111.999H254.815L257.029 98.217L262.195 97.6045Z" fill="#510E05"/>
<path d="M249.644 78.4464C249.644 78.4464 259.681 75.5438 261.304 84.9897C262.928 94.4357 263.075 98.4206 263.075 98.4206C263.075 98.4206 259.385 100.634 253.186 100.339C246.988 100.044 249.644 78.4464 249.644 78.4464Z" fill="#FFA943"/>
<path d="M250.104 97.0644C250.731 98.9811 251.706 100.269 253.187 100.339C259.386 100.634 263.075 98.4204 263.075 98.4204C263.075 98.4204 262.991 96.1567 262.256 91.0005C258.817 93.9202 254.555 95.6716 250.104 97.0644Z" fill="#ED902B"/>
<path d="M234.983 73.8218L248.66 75.1992C248.66 75.1992 248.267 78.3479 249.644 78.4462C251.022 78.5445 258.598 77.167 259.287 82.6771C259.976 88.1873 259.976 111.605 259.976 111.605H220.224C220.224 111.605 219.223 85.9323 221.405 80.4139C223.078 76.183 234.59 77.5604 234.59 77.5604L234.983 73.8218Z" fill="#FFA943"/>
<path d="M259.975 111.221C258.736 111.218 257.496 111.16 256.262 111.04C248.49 110.282 240.694 107.405 235.109 101.799C232.006 98.6832 229.625 95.0252 227.388 91.2673C224.991 90.8093 222.584 90.4134 220.163 90.1172C219.751 99.4912 220.499 111.999 220.499 111.999H260.038C260.038 111.999 259.976 111.47 259.975 111.221Z" fill="#ED902B"/>
<path d="M218.059 96.2067L216.731 111.999H228.339L231.048 92.812L218.059 96.2067Z" fill="#E5B4AA"/>
<path opacity="0.5" d="M225.642 103.831C226.928 103.955 228.214 103.98 229.496 103.931L231.048 92.812L218.059 96.2067L217.604 101.618C220.152 102.759 222.839 103.56 225.642 103.831Z" fill="#510E05"/>
<path d="M215.698 99.8971C215.698 99.8971 216.583 80.5623 222.93 78.496C229.276 76.4297 232.524 78.496 232.524 78.496L231.195 102.259C231.195 102.259 221.454 103.587 215.698 99.8971Z" fill="#FFA943"/>
</g>
<defs>
<filter id="filter0_b_393_3557" x="-33.8648" y="-33.8648" width="393.73" height="182.73" filterUnits="userSpaceOnUse" color-interpolation-filters="sRGB">
<feFlood flood-opacity="0" result="BackgroundImageFix"/>
<feGaussianBlur in="BackgroundImageFix" stdDeviation="16.9324"/>
<feComposite in2="SourceAlpha" operator="in" result="effect1_backgroundBlur_393_3557"/>
<feBlend mode="normal" in="SourceGraphic" in2="effect1_backgroundBlur_393_3557" result="shape"/>
</filter>
<linearGradient id="paint0_linear_393_3557" x1="124.592" y1="-124.301" x2="259.397" y2="189.469" gradientUnits="userSpaceOnUse">
<stop stop-color="white" stop-opacity="0.4"/>
<stop offset="1" stop-color="white" stop-opacity="0"/>
</linearGradient>
</defs>
</svg>
