<svg width="160" height="161" viewBox="0 0 160 161" fill="none" xmlns="http://www.w3.org/2000/svg">
<path d="M149.546 96.1162C145.328 108.897 136.243 122.903 122.877 127.476C102.678 134.366 100.874 150.932 64.2144 150.836C58.8625 150.845 53.5256 150.272 48.2976 149.127C45.7415 148.559 43.2244 147.828 40.7616 146.939C19.0464 139.076 7.15522 120.455 5.45922 100.539C3.21922 74.3562 21.04 61.1466 32.6592 53.3674C44.2784 45.5882 57.504 16.6666 93.5424 16.4938C99.0442 16.4471 104.533 17.0333 109.901 18.241C122.138 21.0506 134.73 27.841 142.294 38.1482C142.86 38.9226 143.405 39.7162 143.93 40.529C154.131 56.401 155.293 78.6954 149.546 96.1162Z" fill="#FFA943"/>
<path opacity="0.7" d="M149.546 96.1162C145.328 108.897 136.243 122.903 122.877 127.476C102.678 134.366 100.874 150.932 64.2144 150.836C58.8625 150.845 53.5256 150.272 48.2976 149.127C45.7415 148.559 43.2244 147.828 40.7616 146.939C19.0464 139.076 7.15522 120.455 5.45922 100.539C3.21922 74.3562 21.04 61.1466 32.6592 53.3674C44.2784 45.5882 57.504 16.6666 93.5424 16.4938C99.0442 16.4471 104.533 17.0333 109.901 18.241C122.138 21.0506 134.73 27.841 142.294 38.1482C142.86 38.9226 143.405 39.7162 143.93 40.529C154.131 56.401 155.293 78.6954 149.546 96.1162Z" fill="white"/>
<path d="M154.461 145.297H6.7008C6.65862 145.296 6.6184 145.279 6.58857 145.249C6.55874 145.219 6.54162 145.179 6.5408 145.137C6.5408 145.095 6.55766 145.054 6.58766 145.024C6.61767 144.994 6.65837 144.977 6.7008 144.977H154.461C154.503 144.977 154.544 144.994 154.574 145.024C154.604 145.054 154.621 145.095 154.621 145.137C154.62 145.179 154.603 145.219 154.573 145.249C154.543 145.279 154.503 145.296 154.461 145.297Z" fill="#263238"/>
<path d="M33.1488 116.263V102.919H16.9216V95.0058L31.072 61.9434H41.8688V95.5434H47.4336V102.919H41.8688V116.263H33.1488ZM24.7008 95.5402H33.1488V71.9338L24.7008 95.5402Z" fill="#263238"/>
<path d="M41.8688 116.423H33.1488C33.1064 116.423 33.0657 116.406 33.0357 116.376C33.0057 116.346 32.9888 116.306 32.9888 116.263V103.079H16.9216C16.8792 103.079 16.8385 103.062 16.8085 103.032C16.7785 103.002 16.7616 102.962 16.7616 102.919V95.0057C16.7568 94.9847 16.7568 94.9628 16.7616 94.9417L30.9248 61.8953C30.9376 61.8669 30.9583 61.8428 30.9844 61.8258C31.0105 61.8088 31.0409 61.7996 31.072 61.7993H41.8688C41.9112 61.7993 41.9519 61.8162 41.9819 61.8462C42.0119 61.8762 42.0288 61.9169 42.0288 61.9593V95.3801H47.4336C47.476 95.3801 47.5167 95.397 47.5467 95.427C47.5767 95.457 47.5936 95.4977 47.5936 95.5401V102.919C47.5936 102.962 47.5767 103.002 47.5467 103.032C47.5167 103.062 47.476 103.079 47.4336 103.079H42.0288V116.263C42.0288 116.306 42.0119 116.346 41.9819 116.376C41.9519 116.406 41.9112 116.423 41.8688 116.423ZM33.3088 116.103H41.7088V102.919C41.7088 102.877 41.7257 102.836 41.7557 102.806C41.7857 102.776 41.8264 102.759 41.8688 102.759H47.2736V95.7001H41.8688C41.8264 95.7001 41.7857 95.6833 41.7557 95.6533C41.7257 95.6233 41.7088 95.5826 41.7088 95.5401V62.1033H31.1776L17.0816 95.0377V102.759H33.1488C33.1912 102.759 33.2319 102.776 33.2619 102.806C33.2919 102.836 33.3088 102.877 33.3088 102.919V116.103ZM33.1488 95.7001H24.7008C24.675 95.7011 24.6494 95.6955 24.6264 95.6837C24.6034 95.6719 24.5839 95.6544 24.5696 95.6329C24.5542 95.6126 24.5444 95.5887 24.541 95.5635C24.5376 95.5382 24.5409 95.5125 24.5504 95.4889L32.9984 71.8825C33.0113 71.8468 33.0363 71.8167 33.069 71.7975C33.1017 71.7782 33.1401 71.7709 33.1776 71.7769C33.2146 71.783 33.2482 71.8022 33.2723 71.831C33.2963 71.8598 33.3093 71.8962 33.3088 71.9337V95.5401C33.3088 95.5826 33.2919 95.6233 33.2619 95.6533C33.2319 95.6833 33.1912 95.7001 33.1488 95.7001ZM24.928 95.3801H32.9888V72.8553L24.928 95.3801Z" fill="#263238"/>
<path d="M66.48 117.069C63.3056 117.069 60.6795 116.398 58.6016 115.057C56.5175 113.711 54.8828 111.773 53.9072 109.492C52.8534 107.12 52.3275 104.392 52.3296 101.309V77.2326C52.3296 74.0582 52.8331 71.2753 53.84 68.8838C54.7683 66.5848 56.3844 64.6288 58.4672 63.2838C60.5472 61.9441 63.2139 61.2731 66.4672 61.271C69.7206 61.2689 72.3926 61.9398 74.4832 63.2838C76.566 64.6288 78.1822 66.5848 79.1104 68.8838C80.1302 71.2646 80.64 74.0475 80.64 77.2326V101.309C80.64 104.394 80.1152 107.122 79.0656 109.492C78.0887 111.772 76.4543 113.709 74.3712 115.057C72.2848 116.398 69.6544 117.069 66.48 117.069ZM66.48 109.089C67.8667 109.089 68.895 108.662 69.5648 107.809C70.2583 106.906 70.7197 105.846 70.9088 104.724C71.1225 103.551 71.2296 102.361 71.2288 101.169V77.3606C71.2298 76.114 71.1292 74.8693 70.928 73.639C70.7678 72.5107 70.3217 71.4422 69.632 70.535C68.9622 69.6817 67.9115 69.255 66.48 69.255C65.0486 69.255 63.9979 69.6817 63.328 70.535C62.6339 71.4467 62.1845 72.5207 62.0224 73.655C61.8202 74.8852 61.7185 76.1299 61.7184 77.3766V101.185C61.7199 102.376 61.8411 103.563 62.08 104.73C62.2873 105.853 62.7578 106.91 63.4528 107.815C64.1312 108.664 65.1403 109.089 66.48 109.089Z" fill="#263238"/>
<path d="M66.48 117.23C63.28 117.23 60.6112 116.545 58.5152 115.191C56.4058 113.827 54.7505 111.865 53.76 109.556C52.704 107.179 52.16 104.404 52.16 101.31V77.2329C52.16 74.0521 52.672 71.2233 53.6832 68.8201C54.6285 66.4946 56.2648 64.5153 58.3712 63.1497C60.4672 61.7961 63.1904 61.1113 66.4704 61.1113C69.7504 61.1113 72.4768 61.7961 74.5728 63.1497C76.6799 64.5145 78.3165 66.4941 79.2608 68.8201C80.272 71.2233 80.7808 74.0521 80.7808 77.2329V101.31C80.8281 104.14 80.2831 106.949 79.1808 109.556C78.1892 111.864 76.5341 113.826 74.4256 115.191C72.352 116.545 69.6704 117.23 66.48 117.23ZM66.48 61.4313C63.264 61.4313 60.5952 62.1001 58.5536 63.4185C56.5023 64.7462 54.9082 66.672 53.9872 68.9353C52.9952 71.2969 52.4896 74.0873 52.4896 77.2233V101.3C52.4381 104.085 52.9712 106.849 54.0544 109.415C55.019 111.667 56.632 113.581 58.688 114.913C60.7328 116.231 63.3536 116.9 66.48 116.9C69.6064 116.9 72.24 116.231 74.2752 114.913C76.3297 113.579 77.9423 111.666 78.9088 109.415C79.9903 106.849 80.5222 104.085 80.4704 101.3V77.2329C80.4704 74.0937 79.968 71.3065 78.976 68.9449C78.0566 66.6781 76.4625 64.7488 74.4096 63.4185C72.3648 62.1001 69.6992 61.4313 66.48 61.4313ZM66.48 109.249C65.0944 109.249 64.0384 108.801 63.3376 107.915C62.6262 106.99 62.1447 105.91 61.9328 104.763C61.6872 103.583 61.5617 102.381 61.5584 101.175V77.3673C61.5585 76.1121 61.6602 74.859 61.8624 73.6201C62.0281 72.4563 62.4897 71.3544 63.2032 70.4201C63.904 69.5337 65.0048 69.0857 66.48 69.0857C67.9552 69.0857 69.0592 69.5337 69.76 70.4201C70.4725 71.3547 70.933 72.4565 71.0976 73.6201C71.2998 74.859 71.4015 76.1121 71.4016 77.3673V101.175C71.4039 102.377 71.2968 103.577 71.0816 104.759C70.8875 105.907 70.4162 106.99 69.7088 107.915C68.992 108.801 67.9136 109.255 66.48 109.255V109.249ZM66.48 69.4121C65.1104 69.4121 64.0896 69.8217 63.456 70.6249C62.7751 71.5138 62.3343 72.5629 62.176 73.6713C61.9764 74.8932 61.8758 76.1292 61.8752 77.3673V101.175C61.8796 102.358 62.0029 103.537 62.2432 104.695C62.4466 105.793 62.9059 106.827 63.584 107.713C64.224 108.516 65.184 108.926 66.464 108.926C67.744 108.926 68.7904 108.516 69.424 107.713C70.1006 106.831 70.55 105.795 70.7328 104.699C70.946 103.537 71.0531 102.359 71.0528 101.179V77.3705C71.0531 76.1325 70.9535 74.8965 70.7552 73.6745C70.5955 72.5665 70.1548 71.5177 69.4752 70.6281C68.8704 69.8217 67.84 69.4121 66.48 69.4121Z" fill="#263238"/>
<path d="M102.762 116.263V102.919H86.5344V95.0058L100.685 61.9434H111.482V95.5434H117.046V102.919H111.482V116.263H102.762ZM94.3136 95.5402H102.762V71.9338L94.3136 95.5402Z" fill="#263238"/>
<path d="M111.482 116.423H102.762C102.719 116.423 102.678 116.406 102.648 116.376C102.618 116.346 102.602 116.306 102.602 116.263V103.079H86.5344C86.492 103.079 86.4513 103.062 86.4213 103.032C86.3913 103.002 86.3744 102.962 86.3744 102.919V95.0057C86.3696 94.9847 86.3696 94.9628 86.3744 94.9417L100.538 61.8953C100.55 61.8669 100.571 61.8428 100.597 61.8258C100.623 61.8088 100.654 61.7996 100.685 61.7993H111.482C111.524 61.7993 111.565 61.8162 111.595 61.8462C111.625 61.8762 111.642 61.9169 111.642 61.9593V95.3801H117.046C117.089 95.3801 117.13 95.397 117.16 95.427C117.19 95.457 117.206 95.4977 117.206 95.5401V102.919C117.206 102.962 117.19 103.002 117.16 103.032C117.13 103.062 117.089 103.079 117.046 103.079H111.642V116.263C111.642 116.306 111.625 116.346 111.595 116.376C111.565 116.406 111.524 116.423 111.482 116.423ZM102.922 116.103H111.322V102.919C111.322 102.877 111.338 102.836 111.368 102.806C111.398 102.776 111.439 102.759 111.482 102.759H116.886V95.7001H111.482C111.439 95.7001 111.398 95.6833 111.368 95.6533C111.338 95.6233 111.322 95.5826 111.322 95.5401V62.1033H100.8L86.6944 95.0377V102.759H102.762C102.804 102.759 102.845 102.776 102.875 102.806C102.905 102.836 102.922 102.877 102.922 102.919V116.103ZM102.762 95.7001H94.3136C94.2878 95.7011 94.2622 95.6955 94.2392 95.6837C94.2162 95.6719 94.1967 95.6544 94.1824 95.6329C94.167 95.6126 94.1572 95.5887 94.1538 95.5635C94.1504 95.5382 94.1537 95.5125 94.1632 95.4889L102.611 71.8825C102.624 71.8468 102.649 71.8167 102.682 71.7975C102.715 71.7782 102.753 71.7709 102.79 71.7769C102.827 71.783 102.861 71.8022 102.885 71.831C102.909 71.8598 102.922 71.8962 102.922 71.9337V95.5401C102.922 95.5826 102.905 95.6233 102.875 95.6533C102.845 95.6833 102.804 95.7001 102.762 95.7001ZM94.5408 95.3801H102.602V72.8553L94.5408 95.3801Z" fill="#263238"/>
<path d="M37.1936 116.263V102.919H20.9632V95.0058L35.1136 61.9434H45.9136V95.5434H51.4784V102.919H45.9136V116.263H37.1936ZM28.7424 95.5402H37.1936V71.9338L28.7424 95.5402Z" fill="white"/>
<path d="M45.9136 116.423H37.1936C37.1512 116.423 37.1105 116.406 37.0805 116.376C37.0505 116.346 37.0336 116.306 37.0336 116.263V103.079H20.9632C20.921 103.079 20.8808 103.061 20.851 103.032C20.8212 103.002 20.804 102.961 20.8032 102.919V95.0057C20.7999 94.9845 20.7999 94.9629 20.8032 94.9417L34.9664 61.8953C34.9792 61.8669 34.9999 61.8428 35.026 61.8258C35.0521 61.8088 35.0825 61.7996 35.1136 61.7993H45.9136C45.9561 61.7993 45.9968 61.8162 46.0268 61.8462C46.0568 61.8762 46.0736 61.9169 46.0736 61.9593V95.3801H51.4784C51.5209 95.3801 51.5616 95.397 51.5916 95.427C51.6216 95.457 51.6384 95.4977 51.6384 95.5401V102.919C51.6384 102.962 51.6216 103.002 51.5916 103.032C51.5616 103.062 51.5209 103.079 51.4784 103.079H46.08V116.263C46.08 116.285 46.0757 116.306 46.0673 116.326C46.0588 116.346 46.0465 116.364 46.0309 116.379C46.0154 116.394 45.997 116.405 45.9768 116.413C45.9567 116.421 45.9352 116.424 45.9136 116.423ZM37.3536 116.103H45.76V102.919C45.76 102.877 45.7769 102.836 45.8069 102.806C45.8369 102.776 45.8776 102.759 45.92 102.759H51.3248V95.7001H45.9136C45.8712 95.7001 45.8305 95.6833 45.8005 95.6533C45.7705 95.6232 45.7536 95.5826 45.7536 95.5401V62.1033H35.2192L21.12 95.0377V102.759H37.1904C37.2329 102.759 37.2736 102.776 37.3036 102.806C37.3336 102.836 37.3504 102.877 37.3504 102.919L37.3536 116.103ZM37.1936 95.7001H28.7424C28.7171 95.7009 28.692 95.6951 28.6696 95.6833C28.6472 95.6715 28.6282 95.6542 28.6144 95.6329C28.5993 95.6125 28.5894 95.5888 28.5855 95.5637C28.5816 95.5386 28.5838 95.5129 28.592 95.4889L37.0432 71.8825C37.0562 71.8468 37.0811 71.8167 37.1138 71.7975C37.1465 71.7782 37.1849 71.7709 37.2224 71.7769C37.2594 71.783 37.293 71.8022 37.3171 71.831C37.3412 71.8598 37.3541 71.8962 37.3536 71.9337V95.5401C37.3536 95.5826 37.3368 95.6232 37.3068 95.6533C37.2768 95.6833 37.2361 95.7001 37.1936 95.7001ZM28.9696 95.3801H37.0336V72.8553L28.9696 95.3801Z" fill="#263238"/>
<path d="M70.5248 117.069C67.3504 117.069 64.7232 116.398 62.6432 115.057C60.5601 113.709 58.9258 111.772 57.9488 109.492C56.8992 107.12 56.3744 104.392 56.3744 101.309V77.2326C56.3744 74.0582 56.8768 71.2753 57.8816 68.8838C58.8122 66.5852 60.4292 64.6296 62.512 63.2838C64.5899 61.9441 67.2566 61.2731 70.512 61.271C73.7675 61.2689 76.4342 61.9398 78.512 63.2838C80.5949 64.6296 82.2119 66.5852 83.1424 68.8838C84.1472 71.2753 84.6496 74.0582 84.6496 77.2326V101.309C84.6496 104.394 84.1248 107.122 83.0752 109.492C82.1034 111.769 80.476 113.707 78.4 115.057C76.3243 116.398 73.6992 117.069 70.5248 117.069ZM70.5248 109.089C71.9115 109.089 72.9398 108.662 73.6096 107.809C74.3034 106.906 74.7639 105.847 74.9504 104.724C75.171 103.552 75.2834 102.361 75.2864 101.169V77.3606C75.2874 76.114 75.1868 74.8693 74.9856 73.639C74.8243 72.5039 74.3735 71.4295 73.6768 70.519C73.0048 69.6657 71.9542 69.239 70.5248 69.239C69.0955 69.239 68.0448 69.6657 67.3728 70.519C66.6761 71.4295 66.2254 72.5039 66.064 73.639C65.8629 74.8693 65.7623 76.114 65.7632 77.3606V101.169C65.7661 102.363 65.8894 103.554 66.1312 104.724C66.3396 105.846 66.8112 106.904 67.5072 107.809C68.1792 108.662 69.1851 109.089 70.5248 109.089Z" fill="white"/>
<path d="M70.5248 117.23C67.3248 117.23 64.6528 116.545 62.5568 115.191C60.4491 113.826 58.7951 111.864 57.8048 109.556C56.7488 107.179 56.2048 104.404 56.2048 101.31V77.2329C56.2048 74.0521 56.7168 71.2233 57.7248 68.8201C58.6701 66.4946 60.3064 64.5153 62.4128 63.1497C64.5088 61.7961 67.2352 61.1113 70.5152 61.1113C73.7952 61.1113 76.5216 61.7961 78.6176 63.1497C80.724 64.5153 82.3603 66.4946 83.3056 68.8201C84.3136 71.2233 84.8256 74.0521 84.8256 77.2329V101.31C84.8744 104.14 84.3294 106.949 83.2256 109.556C82.2362 111.865 80.5819 113.826 78.4736 115.191C76.3968 116.545 73.7152 117.23 70.5248 117.23ZM70.5248 61.4313C67.3248 61.4313 64.64 62.1001 62.5984 63.4185C60.5471 64.7462 58.953 66.672 58.032 68.9353C57.0368 71.2969 56.5344 74.0841 56.5344 77.2233V101.3C56.5344 104.35 57.0592 107.079 58.096 109.415C59.0567 111.669 60.6663 113.586 62.72 114.923C64.7616 116.241 67.3856 116.91 70.512 116.91C73.6384 116.91 76.272 116.241 78.304 114.923C80.3602 113.59 81.9741 111.676 82.9408 109.425C84.0223 106.859 84.5542 104.094 84.5024 101.31V77.2329C84.5024 74.0937 84 71.3065 83.008 68.9449C82.0864 66.6785 80.4913 64.7495 78.4384 63.4185C76.4096 62.1001 73.7408 61.4313 70.5248 61.4313ZM70.5248 109.249C69.1392 109.249 68.08 108.801 67.3824 107.915C66.6712 106.99 66.1887 105.909 65.9744 104.763C65.7303 103.582 65.6049 102.381 65.6 101.175V77.3673C65.6054 76.1117 65.7124 74.8585 65.92 73.6201C66.0857 72.4563 66.5473 71.3544 67.2608 70.4201C67.9616 69.5337 69.0624 69.0857 70.5376 69.0857C72.0128 69.0857 73.1168 69.5337 73.8144 70.4201C74.5279 71.3544 74.9895 72.4563 75.1552 73.6201C75.3628 74.8585 75.4698 76.1117 75.4752 77.3673V101.175C75.4711 102.378 75.3576 103.577 75.136 104.759C74.9448 105.908 74.4732 106.992 73.7632 107.915C73.0368 108.801 71.9552 109.255 70.5248 109.255V109.249ZM70.5248 69.4121C69.152 69.4121 68.1344 69.8217 67.4976 70.6249C66.8179 71.5145 66.3772 72.5632 66.2176 73.6713C66.018 74.8932 65.9175 76.1292 65.9168 77.3673V101.175C65.9203 102.358 66.0425 103.537 66.2816 104.695C66.486 105.793 66.9465 106.827 67.6256 107.713C68.2656 108.516 69.2256 108.926 70.5056 108.926C71.7856 108.926 72.8288 108.516 73.4656 107.713C74.1422 106.831 74.5917 105.795 74.7744 104.699C74.9876 103.537 75.0947 102.359 75.0944 101.179V77.3705C75.0953 76.1324 74.9947 74.8962 74.7936 73.6745C74.634 72.5664 74.1933 71.5177 73.5136 70.6281C72.9152 69.8217 71.8976 69.4121 70.5248 69.4121Z" fill="#263238"/>
<path d="M106.806 116.263V102.919H90.576V95.0058L104.726 61.9434H115.52V95.5434H121.085V102.919H115.52V116.263H106.806ZM98.3552 95.5402H106.806V71.9338L98.3552 95.5402Z" fill="white"/>
<path d="M115.52 116.423H106.806C106.764 116.423 106.723 116.406 106.693 116.376C106.663 116.346 106.646 116.306 106.646 116.263V103.079H90.576C90.5338 103.079 90.4936 103.061 90.4638 103.032C90.4339 103.002 90.4168 102.961 90.416 102.919V95.0057C90.4127 94.9845 90.4127 94.9629 90.416 94.9417L104.579 61.8953C104.592 61.8669 104.613 61.8428 104.639 61.8258C104.665 61.8088 104.695 61.7996 104.726 61.7993H115.52C115.562 61.7993 115.603 61.8162 115.633 61.8462C115.663 61.8762 115.68 61.9169 115.68 61.9593V95.3801H121.085C121.127 95.3801 121.168 95.397 121.198 95.427C121.228 95.457 121.245 95.4977 121.245 95.5401V102.919C121.245 102.962 121.228 103.002 121.198 103.032C121.168 103.062 121.127 103.079 121.085 103.079H115.686V116.263C115.686 116.285 115.682 116.306 115.674 116.326C115.665 116.346 115.653 116.364 115.637 116.379C115.622 116.394 115.603 116.405 115.583 116.413C115.563 116.421 115.542 116.424 115.52 116.423ZM106.96 116.103H115.36V102.919C115.36 102.877 115.377 102.836 115.407 102.806C115.437 102.776 115.478 102.759 115.52 102.759H120.925V95.7001H115.52C115.478 95.7001 115.437 95.6833 115.407 95.6533C115.377 95.6232 115.36 95.5826 115.36 95.5401V62.1033H104.832L90.736 95.0377V102.759H106.806C106.849 102.759 106.89 102.776 106.92 102.806C106.95 102.836 106.966 102.877 106.966 102.919L106.96 116.103ZM106.8 95.7001H98.3552C98.3295 95.7005 98.3041 95.6946 98.2812 95.6829C98.2583 95.6712 98.2387 95.654 98.224 95.6329C98.2099 95.612 98.2008 95.5882 98.1975 95.5632C98.1942 95.5382 98.1967 95.5128 98.2048 95.4889L106.656 71.8825C106.668 71.8464 106.693 71.816 106.726 71.7966C106.759 71.7773 106.798 71.7703 106.835 71.7769C106.872 71.783 106.906 71.8022 106.93 71.831C106.954 71.8598 106.967 71.8962 106.966 71.9337V95.5401C106.966 95.5826 106.95 95.6232 106.92 95.6533C106.89 95.6833 106.849 95.7001 106.806 95.7001H106.8ZM98.576 95.3801H106.64V72.8553L98.576 95.3801Z" fill="#263238"/>
<path d="M34.7264 59.3162C34.0986 59.3465 33.4747 59.2014 32.9248 58.897C32.4781 58.6129 32.14 58.1869 31.9648 57.6874C31.7612 57.0848 31.6648 56.4512 31.68 55.8154V51.8378C31.6654 51.2101 31.7629 50.5848 31.968 49.9914C32.1449 49.502 32.4836 49.0877 32.928 48.817C33.4937 48.5472 34.1125 48.4072 34.7392 48.4072C35.3659 48.4072 35.9847 48.5472 36.5504 48.817C36.9931 49.0896 37.3312 49.5033 37.5104 49.9914C37.7194 50.584 37.8191 51.2096 37.8048 51.8378V55.8346C37.8178 56.4627 37.7181 57.088 37.5104 57.681C37.3313 58.1783 36.9941 58.6032 36.5504 58.8906C35.9953 59.2031 35.3625 59.3508 34.7264 59.3162ZM34.7264 57.8858C34.9833 57.9069 35.2388 57.8316 35.4432 57.6746C35.6097 57.5212 35.722 57.318 35.7632 57.0954C35.8188 56.8324 35.8456 56.5641 35.8432 56.2954V51.393C35.8466 51.1231 35.8198 50.8537 35.7632 50.5898C35.7212 50.3738 35.6087 50.1779 35.4432 50.033C35.2372 49.8796 34.9823 49.8067 34.7264 49.8282C34.4768 49.81 34.229 49.8827 34.0288 50.033C33.8628 50.1775 33.7501 50.3736 33.7088 50.5898C33.6522 50.8537 33.6254 51.1231 33.6288 51.393V56.2954C33.6275 56.5638 33.6521 56.8317 33.7024 57.0954C33.7408 57.3189 33.8536 57.523 34.0224 57.6746C34.2234 57.8286 34.4738 57.9037 34.7264 57.8858Z" fill="#263238"/>
<path d="M42.1248 59.3161C41.498 59.3465 40.8751 59.2014 40.3264 58.8969C39.878 58.6148 39.5393 58.188 39.3664 57.6873C39.1597 57.0875 39.0611 56.4559 39.0752 55.8217V51.8377C39.0599 51.2097 39.1586 50.5841 39.3664 49.9913C39.5401 49.5001 39.8795 49.0848 40.3264 48.8169C40.8915 48.5472 41.5098 48.4072 42.136 48.4072C42.7622 48.4072 43.3804 48.5472 43.9456 48.8169C44.3883 49.0895 44.7264 49.5032 44.9056 49.9913C45.1145 50.5839 45.2143 51.2095 45.2 51.8377V55.8345C45.2129 56.4626 45.1132 57.088 44.9056 57.6809C44.7265 58.1783 44.3893 58.6032 43.9456 58.8905C43.3915 59.2028 42.7598 59.3504 42.1248 59.3161ZM42.1248 57.8857C42.3817 57.9068 42.6372 57.8315 42.8416 57.6745C43.0067 57.52 43.1187 57.3173 43.1616 57.0953C43.2145 56.832 43.2402 56.5639 43.2384 56.2953V51.3929C43.241 51.1232 43.2153 50.854 43.1616 50.5897C43.118 50.3743 43.0057 50.1789 42.8416 50.0329C42.6356 49.8795 42.3807 49.8066 42.1248 49.8281C41.8761 49.8095 41.6292 49.8823 41.4304 50.0329C41.2629 50.1762 41.15 50.3729 41.1104 50.5897C41.0554 50.8538 41.0285 51.1231 41.0304 51.3929V56.2953C41.029 56.5637 41.0537 56.8316 41.104 57.0953C41.1424 57.3189 41.2552 57.5229 41.424 57.6745C41.6245 57.827 41.8734 57.9019 42.1248 57.8857Z" fill="#263238"/>
<path d="M46.6336 59.1722V48.5258H49.76C50.3019 48.5024 50.8401 48.6251 51.3184 48.881C51.7178 49.1189 52.0272 49.4823 52.1984 49.9146C52.3993 50.4357 52.4951 50.9914 52.48 51.5498C52.5058 52.1294 52.3847 52.7062 52.128 53.2266C51.9068 53.6346 51.5585 53.9593 51.136 54.1514C50.6598 54.3534 50.1459 54.4516 49.6288 54.4394H48.5792V59.1722H46.6336ZM48.5792 53.073H49.3152C49.5963 53.0876 49.8768 53.0361 50.1344 52.9226C50.2319 52.8733 50.3185 52.8048 50.3889 52.7213C50.4593 52.6377 50.5121 52.5407 50.544 52.4362C50.6274 52.144 50.6652 51.8407 50.656 51.537C50.663 51.2211 50.634 50.9055 50.5696 50.5962C50.5484 50.487 50.5047 50.3834 50.4414 50.2919C50.378 50.2005 50.2964 50.1232 50.2016 50.065C49.9263 49.9308 49.6207 49.8712 49.3152 49.8922H48.5792V53.073Z" fill="#263238"/>
<path d="M56.1888 59.3159C55.6317 59.3351 55.0795 59.2059 54.5888 58.9415C54.1597 58.6877 53.8233 58.303 53.6288 57.8439C53.3911 57.2828 53.2661 56.6805 53.2608 56.0711L54.928 55.7511C54.9393 56.1194 54.9908 56.4853 55.0816 56.8423C55.1404 57.1154 55.272 57.3675 55.4624 57.5719C55.5516 57.6583 55.6575 57.7256 55.7736 57.7696C55.8897 57.8136 56.0135 57.8335 56.1376 57.8279C56.2642 57.8412 56.3922 57.8223 56.5096 57.7731C56.627 57.7239 56.7302 57.6459 56.8096 57.5463C56.947 57.3333 57.0152 57.0829 57.0048 56.8295C57.0194 56.4247 56.9076 56.0254 56.6848 55.6871C56.4428 55.3545 56.1601 55.0534 55.8432 54.7911L54.5024 53.6103C54.1411 53.3045 53.8367 52.9372 53.6032 52.5255C53.3715 52.0683 53.2613 51.5592 53.2832 51.0471C53.26 50.6891 53.3137 50.3303 53.4406 49.9947C53.5676 49.6591 53.7648 49.3546 54.0192 49.1015C54.5756 48.6225 55.2956 48.3771 56.0288 48.4167C56.4565 48.4029 56.8822 48.4815 57.2768 48.6471C57.5927 48.7889 57.867 49.0092 58.0736 49.2871C58.2733 49.5682 58.4217 49.8824 58.512 50.2151C58.6113 50.5737 58.6735 50.9415 58.6976 51.3127L57.04 51.6007C57.027 51.3008 56.9907 51.0023 56.9312 50.7079C56.8845 50.4761 56.7736 50.2621 56.6112 50.0903C56.5258 50.0108 56.4248 49.9499 56.3146 49.9113C56.2045 49.8728 56.0875 49.8575 55.9712 49.8663C55.8461 49.8593 55.721 49.881 55.6056 49.9298C55.4903 49.9786 55.3876 50.0532 55.3056 50.1479C55.1509 50.3494 55.0706 50.5981 55.0784 50.8519C55.0657 51.1624 55.1424 51.4701 55.2992 51.7383C55.4776 52.0063 55.6931 52.2476 55.9392 52.4551L57.264 53.6263C57.7026 53.993 58.0824 54.4247 58.3904 54.9063C58.7126 55.4484 58.8736 56.0712 58.8544 56.7015C58.8668 57.1729 58.7565 57.6393 58.5344 58.0551C58.3159 58.445 57.9921 58.7655 57.6 58.9799C57.1671 59.2135 56.6805 59.3294 56.1888 59.3159Z" fill="#263238"/>
<path d="M59.7216 59.1722V57.4378H61.4592V59.1722H59.7216ZM60.2752 56.6762L59.7376 48.5386H61.5232L60.8832 56.6762H60.2752Z" fill="#263238"/>
<path d="M107.581 122.855V125.143H108.774V123.802C108.774 123.52 108.887 123.249 109.086 123.049C109.286 122.849 109.557 122.737 109.84 122.737H113.75C114.033 122.737 114.304 122.849 114.504 123.049C114.704 123.249 114.816 123.52 114.816 123.802V125.143H116.01V122.855C116.009 122.572 115.896 122.301 115.695 122.101C115.495 121.902 115.224 121.79 114.941 121.79H108.646C108.364 121.79 108.093 121.902 107.893 122.102C107.693 122.301 107.581 122.573 107.581 122.855Z" fill="#263238"/>
<path d="M116.01 125.303H114.816C114.774 125.303 114.733 125.286 114.703 125.256C114.673 125.226 114.656 125.185 114.656 125.143V123.802C114.656 123.562 114.561 123.332 114.391 123.162C114.221 122.992 113.991 122.897 113.75 122.897H109.84C109.6 122.897 109.369 122.992 109.2 123.162C109.03 123.332 108.934 123.562 108.934 123.802V125.143C108.934 125.185 108.918 125.226 108.888 125.256C108.858 125.286 108.817 125.303 108.774 125.303H107.581C107.538 125.303 107.498 125.286 107.468 125.256C107.438 125.226 107.421 125.185 107.421 125.143V122.855C107.422 122.53 107.551 122.219 107.781 121.989C108.01 121.76 108.322 121.63 108.646 121.629H114.944C115.267 121.633 115.576 121.763 115.803 121.993C116.031 122.222 116.159 122.532 116.16 122.855V125.143C116.16 125.184 116.145 125.223 116.117 125.253C116.089 125.283 116.05 125.301 116.01 125.303ZM114.976 124.983H115.84V122.855C115.84 122.615 115.745 122.384 115.575 122.215C115.405 122.045 115.175 121.949 114.934 121.949H108.646C108.406 121.949 108.176 122.045 108.006 122.215C107.836 122.384 107.741 122.615 107.741 122.855V124.983H108.614V123.802C108.614 123.641 108.645 123.482 108.707 123.333C108.768 123.184 108.859 123.049 108.972 122.935C109.086 122.821 109.222 122.73 109.37 122.669C109.519 122.608 109.679 122.576 109.84 122.577H113.75C114.075 122.577 114.387 122.706 114.617 122.936C114.847 123.165 114.976 123.477 114.976 123.802V124.983Z" fill="#263238"/>
<path d="M97.5744 124.519H120.147C120.546 124.519 120.929 124.677 121.211 124.96C121.493 125.242 121.651 125.624 121.651 126.023V144.167C121.651 144.422 121.55 144.666 121.37 144.846C121.19 145.026 120.946 145.127 120.691 145.127H97.0368C96.7822 145.127 96.538 145.026 96.358 144.846C96.1779 144.666 96.0768 144.422 96.0768 144.167V126.023C96.0768 125.625 96.2344 125.244 96.515 124.962C96.7957 124.68 97.1766 124.521 97.5744 124.519Z" fill="#263238"/>
<path d="M120.682 145.297H97.0368C96.7378 145.296 96.4513 145.177 96.2401 144.965C96.029 144.753 95.9104 144.466 95.9104 144.167V126.023C95.9112 125.582 96.0868 125.16 96.3987 124.848C96.7106 124.536 97.1333 124.36 97.5744 124.359H120.147C120.588 124.36 121.011 124.536 121.323 124.848C121.635 125.16 121.81 125.582 121.811 126.023V144.167C121.811 144.316 121.782 144.463 121.725 144.6C121.668 144.737 121.585 144.861 121.48 144.966C121.375 145.071 121.251 145.154 121.114 145.211C120.977 145.268 120.83 145.297 120.682 145.297ZM97.5744 124.679C97.2182 124.68 96.8768 124.822 96.625 125.074C96.3731 125.326 96.2312 125.667 96.2304 126.023V144.167C96.2304 144.382 96.3153 144.587 96.4664 144.739C96.6175 144.89 96.8226 144.976 97.0368 144.977H120.682C120.896 144.976 121.101 144.891 121.253 144.739C121.405 144.587 121.49 144.382 121.491 144.167V126.023C121.49 125.667 121.348 125.326 121.097 125.074C120.845 124.822 120.503 124.68 120.147 124.679H97.5744Z" fill="#263238"/>
<path d="M100.701 124.519H123.274C123.673 124.519 124.055 124.677 124.337 124.96C124.619 125.242 124.778 125.624 124.778 126.023V144.167C124.778 144.422 124.676 144.666 124.496 144.846C124.316 145.026 124.072 145.127 123.818 145.127H100.16C99.9054 145.127 99.6612 145.026 99.4812 144.846C99.3012 144.666 99.2 144.422 99.2 144.167V126.023C99.2 125.625 99.358 125.243 99.6394 124.961C99.9208 124.679 100.302 124.52 100.701 124.519Z" fill="#8A8A8A"/>
<path d="M123.811 145.297H100.16C99.8604 145.297 99.5731 145.178 99.3612 144.966C99.1494 144.754 99.0304 144.467 99.0304 144.167V126.023C99.0321 125.583 99.2079 125.16 99.5196 124.849C99.8313 124.537 100.254 124.361 100.694 124.359H123.267C123.709 124.36 124.132 124.536 124.444 124.847C124.756 125.159 124.933 125.582 124.934 126.023V144.167C124.934 144.466 124.815 144.751 124.605 144.963C124.395 145.174 124.109 145.294 123.811 145.297ZM100.701 124.679C100.345 124.68 100.003 124.822 99.7514 125.074C99.4995 125.326 99.3576 125.667 99.3568 126.023V144.167C99.3576 144.382 99.4432 144.587 99.5948 144.739C99.7465 144.891 99.9519 144.976 100.166 144.977H123.811C124.026 144.976 124.231 144.891 124.383 144.739C124.534 144.587 124.62 144.382 124.621 144.167V126.023C124.62 125.667 124.478 125.325 124.225 125.073C123.973 124.821 123.63 124.679 123.274 124.679H100.701Z" fill="#263238"/>
<path d="M131.2 84.0264C131.2 84.0264 124.768 103.354 124.211 106.852C123.654 110.35 124.013 114.695 124.346 116.894C124.678 119.092 128.106 138.071 128.106 138.071C128.106 138.071 127.258 137.783 127.197 138.391C127.136 138.999 127.347 141.591 127.347 141.591C127.347 141.591 126.461 142.836 124.122 144.19C121.782 145.543 120.643 145.953 121.341 146.398C122.038 146.842 125.027 146.999 126.246 146.817C127.466 146.634 130.746 146.254 131.28 146.177C131.814 146.1 133.427 146.433 133.942 145.502C134.458 144.57 134.083 141.751 134.211 140.753C134.339 139.754 133.616 138.167 133.613 137.937C133.61 137.706 132.973 116.257 132.973 116.257L133.376 110.929C133.376 110.929 133.258 116.004 133.84 116.567C134.422 117.13 140.512 138.311 140.512 138.311L139.92 139.242L140.656 141.29L140.077 142.606C140.077 142.606 137.306 145.194 136.173 145.834C135.04 146.474 133.898 146.65 134.522 147.172C135.146 147.694 141.258 147.396 141.258 147.396L147.658 146.1C147.658 146.1 148.618 145.006 148.451 144.09C148.285 143.175 147.437 139.908 147.437 139.908C147.437 139.908 147.642 135.62 147.408 135.473C147.174 135.326 145.99 133.748 145.901 133.137C145.811 132.526 145.146 120.548 144.442 118.535C143.738 116.522 142.864 113.37 142.864 113.37C143.142 113.086 143.327 112.723 143.392 112.33C143.391 111.819 143.349 111.309 143.267 110.804C143.267 110.804 149.946 93.428 150.25 92.436C150.554 91.444 151.933 86.0872 151.933 83.9464C151.933 81.8056 151.779 80.1992 151.779 80.1992C151.779 80.1992 146.579 82.5704 141.302 82.8008C136.026 83.0312 131.363 82.724 131.363 82.724L131.2 84.0264Z" fill="#263238"/>
<path d="M137.837 147.655C136.282 147.655 134.742 147.578 134.413 147.303C134.341 147.254 134.282 147.188 134.242 147.111C134.202 147.034 134.181 146.948 134.182 146.861C134.224 146.57 134.592 146.407 135.142 146.158C135.43 146.029 135.757 145.885 136.08 145.703C137.126 145.111 139.654 142.775 139.92 142.519L140.48 141.287L139.766 139.3C139.759 139.277 139.756 139.253 139.759 139.229C139.762 139.205 139.77 139.183 139.782 139.162L140.333 138.289C137.914 129.866 134.17 117.21 133.725 116.682C133.469 116.436 133.334 115.508 133.264 114.461L133.126 116.273C133.155 117.13 133.766 137.713 133.766 137.937C133.802 138.082 133.845 138.225 133.898 138.365C134.109 138.986 134.464 140.026 134.365 140.778C134.333 141.291 134.333 141.805 134.365 142.317C134.4 143.546 134.438 144.941 134.086 145.581C133.651 146.369 132.56 146.343 131.846 146.327C131.67 146.315 131.492 146.315 131.315 146.327C131.066 146.369 130.227 146.474 129.258 146.596C128.166 146.73 126.928 146.884 126.278 146.983C125.027 147.169 122.019 147.015 121.267 146.538C121.19 146.5 121.123 146.442 121.074 146.37C121.026 146.298 120.996 146.215 120.989 146.129C120.989 145.761 121.546 145.46 122.739 144.794C123.12 144.586 123.558 144.343 124.051 144.058C126.08 142.881 127.011 141.78 127.194 141.549C127.162 141.143 126.989 138.945 127.046 138.372C127.051 138.285 127.076 138.201 127.12 138.126C127.163 138.051 127.224 137.987 127.296 137.94C127.486 137.838 127.706 137.806 127.917 137.85C127.517 135.642 124.509 118.948 124.198 116.906C123.805 114.327 123.536 110.138 124.061 106.817C124.611 103.367 130.723 84.9703 131.053 83.9815L131.203 82.7015C131.207 82.6604 131.227 82.6226 131.259 82.5963C131.291 82.5699 131.332 82.5571 131.373 82.5607C131.421 82.5607 136.09 82.8647 141.293 82.6375C146.496 82.4103 151.658 80.0775 151.712 80.0519C151.735 80.0417 151.76 80.037 151.785 80.0383C151.81 80.0396 151.835 80.0467 151.856 80.0592C151.878 80.0716 151.897 80.0891 151.911 80.11C151.924 80.131 151.933 80.1549 151.936 80.1799C151.936 80.1959 152.09 81.8183 152.09 83.9431C152.09 86.0679 150.746 91.3543 150.4 92.4775C150.102 93.4535 143.869 109.678 143.43 110.82C143.512 111.321 143.552 111.829 143.549 112.337C143.494 112.74 143.316 113.116 143.04 113.415C143.184 113.933 143.962 116.682 144.589 118.484C145.139 120.061 145.661 127.588 145.91 131.204C145.984 132.237 146.035 132.983 146.054 133.124C146.138 133.687 147.312 135.236 147.491 135.348C147.574 135.402 147.811 135.543 147.594 139.901C147.674 140.221 148.438 143.194 148.605 144.061C148.794 145.041 147.814 146.157 147.773 146.205C147.75 146.231 147.72 146.249 147.686 146.257L141.286 147.553C140.774 147.581 139.296 147.655 137.837 147.655ZM140.093 139.271L140.8 141.255C140.816 141.294 140.816 141.338 140.8 141.377L140.218 142.689C140.211 142.709 140.199 142.726 140.182 142.74C140.067 142.849 137.386 145.351 136.25 145.991C135.938 146.163 135.617 146.319 135.29 146.458C134.947 146.612 134.522 146.801 134.506 146.916C134.506 146.932 134.525 146.986 134.624 147.07C135.043 147.418 138.912 147.37 141.251 147.255L147.568 145.975C147.731 145.777 148.432 144.877 148.291 144.145C148.118 143.245 147.286 140.004 147.277 139.985C147.274 139.969 147.274 139.953 147.277 139.937C147.366 138.017 147.398 135.914 147.293 135.62C146.973 135.364 145.837 133.837 145.741 133.194C145.722 133.05 145.67 132.337 145.597 131.274C145.347 127.671 144.826 120.174 144.291 118.638C143.594 116.644 142.72 113.495 142.71 113.463C142.703 113.436 142.702 113.408 142.71 113.38C142.717 113.353 142.732 113.329 142.752 113.31C143.002 113.052 143.17 112.725 143.235 112.372C143.232 111.872 143.19 111.374 143.11 110.881C143.103 110.854 143.103 110.825 143.11 110.798C143.178 110.625 149.792 93.4151 150.093 92.4391C150.435 91.3223 151.766 86.0647 151.766 83.9975C151.766 82.3431 151.674 80.9959 151.632 80.4775C150.611 80.9159 145.962 82.7975 141.306 83.0023C136.65 83.2071 132.346 82.9831 131.498 82.9351L131.363 84.0839C131.363 84.0839 131.363 84.1063 131.363 84.1159C131.296 84.3079 124.925 103.469 124.378 106.916C123.856 110.199 124.125 114.349 124.515 116.906C124.835 119.076 128.24 137.889 128.275 138.081C128.28 138.108 128.277 138.136 128.267 138.161C128.258 138.187 128.242 138.21 128.221 138.228C128.2 138.247 128.174 138.26 128.147 138.265C128.119 138.271 128.091 138.269 128.064 138.26C127.872 138.189 127.661 138.189 127.469 138.26C127.437 138.281 127.411 138.31 127.393 138.344C127.375 138.379 127.366 138.417 127.366 138.455C127.306 139.047 127.517 141.607 127.517 141.636C127.52 141.673 127.51 141.711 127.488 141.741C127.453 141.793 126.554 143.021 124.211 144.385C123.715 144.673 123.277 144.916 122.896 145.127C122.045 145.597 121.312 146.004 121.296 146.189C121.296 146.212 121.328 146.257 121.424 146.317C122.064 146.717 124.944 146.906 126.224 146.717C126.864 146.618 128.115 146.465 129.21 146.33C130.17 146.209 131.008 146.103 131.254 146.065C131.45 146.047 131.647 146.047 131.843 146.065C132.528 146.065 133.462 146.103 133.802 145.485C134.122 144.922 134.074 143.514 134.042 142.381C134.006 141.849 134.006 141.314 134.042 140.781C134.128 140.103 133.792 139.108 133.587 138.513C133.517 138.345 133.467 138.168 133.44 137.988C133.44 137.764 132.8 116.522 132.8 116.308L133.203 110.964C133.207 110.922 133.226 110.883 133.258 110.856C133.29 110.828 133.331 110.814 133.373 110.817C133.393 110.818 133.414 110.822 133.432 110.831C133.451 110.84 133.468 110.852 133.482 110.867C133.496 110.882 133.507 110.9 133.514 110.919C133.521 110.939 133.524 110.959 133.523 110.98C133.478 112.916 133.552 116.126 133.939 116.5C134.538 117.079 140.019 136.145 140.659 138.314C140.669 138.359 140.662 138.406 140.64 138.445L140.093 139.271Z" fill="#263238"/>
<path d="M149.782 91.0698C149.763 91.0743 149.744 91.0743 149.725 91.0698C147.053 90.049 147.024 84.945 147.024 84.7274C147.024 84.6849 147.041 84.6443 147.071 84.6142C147.101 84.5842 147.142 84.5674 147.184 84.5674C147.226 84.5674 147.267 84.5842 147.297 84.6142C147.327 84.6443 147.344 84.6849 147.344 84.7274C147.344 84.7786 147.373 89.8282 149.84 90.7722C149.86 90.7796 149.878 90.7909 149.893 90.8055C149.909 90.82 149.921 90.8374 149.93 90.8568C149.939 90.8761 149.943 90.897 149.944 90.9182C149.944 90.9394 149.941 90.9604 149.933 90.9802C149.919 91.0076 149.897 91.0305 149.87 91.0464C149.844 91.0622 149.813 91.0703 149.782 91.0698Z" fill="white"/>
<path d="M150.4 89.9976H150.365C150.344 89.993 150.325 89.9844 150.307 89.9723C150.29 89.9602 150.275 89.9448 150.264 89.9269C150.253 89.909 150.245 89.8891 150.241 89.8683C150.238 89.8475 150.238 89.8262 150.243 89.8056C150.667 87.6286 150.845 85.411 150.774 83.1944C150.774 83.1521 150.789 83.1112 150.818 83.0802C150.846 83.0492 150.886 83.0304 150.928 83.028C150.949 83.0271 150.97 83.0304 150.99 83.0377C151.009 83.0449 151.028 83.056 151.043 83.0703C151.059 83.0845 151.071 83.1017 151.08 83.1208C151.089 83.1399 151.094 83.1605 151.094 83.1816C151.165 85.4261 150.985 87.6714 150.557 89.876C150.548 89.9109 150.528 89.9419 150.5 89.964C150.471 89.9861 150.436 89.9979 150.4 89.9976Z" fill="white"/>
<path d="M144.659 102.078H144.618C144.578 102.067 144.544 102.042 144.522 102.006C144.501 101.971 144.494 101.929 144.502 101.889C144.502 101.844 144.541 101.735 145.798 99.0633C145.806 99.0419 145.817 99.0222 145.832 99.0055C145.848 98.9889 145.866 98.9756 145.887 98.9667C145.908 98.9578 145.93 98.9533 145.953 98.9536C145.975 98.954 145.998 98.9591 146.018 98.9686C146.038 98.9782 146.057 98.9919 146.071 99.009C146.086 99.0261 146.097 99.0462 146.104 99.0678C146.11 99.0895 146.112 99.1122 146.109 99.1346C146.106 99.157 146.098 99.1785 146.086 99.1977C145.024 101.467 144.832 101.908 144.806 101.969C144.796 102 144.776 102.027 144.75 102.046C144.724 102.066 144.692 102.077 144.659 102.078Z" fill="white"/>
<path d="M146.374 98.3751C146.351 98.3759 146.328 98.3703 146.307 98.3591C146.288 98.3505 146.271 98.3381 146.257 98.3228C146.242 98.3074 146.231 98.2894 146.224 98.2697C146.217 98.25 146.214 98.2291 146.215 98.2082C146.216 98.1872 146.221 98.1668 146.23 98.1479C147.587 95.2679 149.254 91.7671 149.254 91.7671L149.546 91.9047C149.546 91.9047 147.875 95.4055 146.518 98.2823C146.506 98.3103 146.486 98.3341 146.461 98.3506C146.435 98.3672 146.405 98.3757 146.374 98.3751Z" fill="white"/>
<path d="M134.035 106.308H134C133.979 106.304 133.96 106.295 133.943 106.283C133.926 106.271 133.911 106.255 133.9 106.237C133.889 106.219 133.882 106.199 133.879 106.179C133.875 106.158 133.876 106.137 133.882 106.116L136.682 94.1034L133.76 91.5658C133.73 91.5352 133.712 91.4938 133.712 91.4506C133.712 91.4074 133.73 91.366 133.76 91.3354C133.774 91.3194 133.79 91.3063 133.809 91.2968C133.827 91.2873 133.848 91.2817 133.869 91.2802C133.889 91.2787 133.91 91.2814 133.93 91.2881C133.95 91.2949 133.968 91.3055 133.984 91.3194L136.966 93.921C136.988 93.94 137.005 93.9647 137.014 93.9923C137.023 94.0199 137.024 94.0495 137.018 94.0778L134.195 106.183C134.188 106.22 134.167 106.252 134.138 106.275C134.109 106.298 134.072 106.31 134.035 106.308Z" fill="white"/>
<path d="M133.44 108.935H133.405C133.384 108.931 133.365 108.922 133.347 108.91C133.33 108.898 133.315 108.882 133.304 108.865C133.293 108.847 133.285 108.827 133.281 108.806C133.278 108.785 133.278 108.764 133.283 108.743L133.578 107.486C133.582 107.465 133.591 107.446 133.603 107.428C133.615 107.411 133.631 107.397 133.648 107.386C133.666 107.375 133.686 107.367 133.707 107.364C133.728 107.361 133.749 107.362 133.77 107.367C133.811 107.377 133.846 107.403 133.868 107.439C133.891 107.475 133.898 107.518 133.888 107.559L133.597 108.817C133.588 108.851 133.567 108.881 133.539 108.903C133.51 108.924 133.476 108.936 133.44 108.935Z" fill="white"/>
<path d="M118.742 56.3273L111.085 59.6553C111.085 59.6553 115.654 50.1513 115.84 49.5945C116.026 49.0377 113.309 44.3465 113.37 44.1545C113.43 43.9625 115.779 41.1273 115.84 40.5097C115.901 39.8921 117.2 37.7321 116.211 37.6073C115.222 37.4825 109.974 42.3753 109.85 43.6041C109.725 44.8329 112.195 49.0441 112.445 49.4089C112.694 49.7737 99.7216 63.6745 99.4752 65.8985C99.2288 68.1225 100.278 69.5433 102.131 69.7897C103.984 70.0361 118.557 65.0345 120.781 64.4169C123.005 63.7993 123.744 64.7753 123.744 64.7753C123.744 64.7753 130.723 73.2361 131.219 74.2857C131.715 75.3353 131.466 79.2265 130.899 80.3977C130.333 81.5689 129.725 83.5977 130.035 83.9177C130.398 84.3912 130.916 84.7228 131.498 84.8553C132.422 85.1017 138.858 85.8953 142.509 85.3385C146.16 84.7817 150.477 82.8681 151.469 82.1385C152.461 81.4089 152.579 80.5385 152.579 79.4185C152.579 78.2985 151.837 77.3193 151.344 76.2185C150.851 75.1177 147.578 64.9161 146.224 61.6425C144.87 58.3689 145.299 55.9017 140.173 53.0025C135.046 50.1033 129.034 50.6953 129.034 50.6953L118.742 56.3273Z" fill="#FFA943"/>
<path d="M139.386 85.7032C136.019 85.7032 132.24 85.2296 131.466 85.0216C130.919 84.9051 130.427 84.6115 130.064 84.1864C130.019 84.1384 129.978 84.0904 129.933 84.0456C129.488 83.6008 130.336 81.2488 130.765 80.3432C131.322 79.1688 131.52 75.3128 131.085 74.3656C130.605 73.3448 123.706 64.9736 123.635 64.8872C123.635 64.8872 122.909 63.9944 120.835 64.5672C120.269 64.724 118.877 65.1752 117.11 65.7448C110.243 67.9656 103.427 70.116 102.122 69.9432C100.15 69.6808 99.0784 68.1224 99.328 65.876C99.4784 64.532 103.584 59.6808 108.531 53.9496C110.358 51.8344 112.083 49.8344 112.285 49.4376C111.898 48.8168 109.578 44.8424 109.702 43.5848C109.798 42.644 112.362 40.0648 114.16 38.6312C115.194 37.8056 115.894 37.4088 116.243 37.4536C116.329 37.4594 116.411 37.4857 116.484 37.5302C116.557 37.5748 116.618 37.6363 116.662 37.7096C116.915 38.1384 116.582 38.9736 116.291 39.7096C116.172 39.973 116.079 40.2473 116.013 40.5288C115.968 40.9672 115.072 42.1736 114.077 43.4792C113.853 43.7736 113.622 44.0744 113.552 44.1832C113.616 44.372 113.962 45.0312 114.294 45.6744C115.549 48.0808 116.122 49.2872 116.006 49.6424C115.837 50.1416 112.298 57.524 111.427 59.3384L118.685 56.18L128.96 50.5576C128.979 50.5483 129 50.5419 129.021 50.5384C129.082 50.5384 135.142 49.9592 140.256 52.852C144.301 55.1432 144.931 57.172 145.661 59.5208C145.866 60.18 146.077 60.8584 146.374 61.5752C147.184 63.524 148.656 67.8792 149.84 71.38C150.624 73.7 151.302 75.7032 151.501 76.148C151.635 76.468 151.792 76.7528 151.946 77.044C152.358 77.8344 152.749 78.5832 152.749 79.4216C152.749 80.4584 152.659 81.4536 151.574 82.2696C150.49 83.0856 146.154 84.9608 142.547 85.5112C141.499 85.651 140.443 85.7152 139.386 85.7032ZM122.131 64.052C123.376 64.052 123.85 64.6568 123.872 64.692C124.154 65.0312 130.867 73.172 131.363 74.228C131.894 75.3576 131.616 79.2936 131.043 80.4808C130.403 81.828 129.965 83.62 130.147 83.8184L130.291 83.9688C130.613 84.3492 131.052 84.6115 131.539 84.7144C132.342 84.9288 138.765 85.7608 142.486 85.1944C146.112 84.6408 150.435 82.7112 151.37 82.0136C152.253 81.348 152.416 80.6184 152.416 79.4216C152.416 78.66 152.045 77.9464 151.648 77.1816C151.494 76.8872 151.328 76.5832 151.194 76.2664C150.992 75.8088 150.342 73.8952 149.523 71.4664C148.342 67.972 146.87 63.62 146.067 61.684C145.763 60.9512 145.549 60.2632 145.344 59.6008C144.634 57.316 144.019 55.3448 140.083 53.1144C135.254 50.3784 129.549 50.7976 129.072 50.8392L118.819 56.4552L111.162 59.7896C111.131 59.8023 111.098 59.8055 111.066 59.7986C111.034 59.7917 111.005 59.7752 110.982 59.7512C110.96 59.7278 110.945 59.6981 110.94 59.6661C110.935 59.6341 110.94 59.6013 110.954 59.572C112.534 56.2856 115.558 49.956 115.702 49.524C115.779 49.204 114.627 46.9928 114.01 45.8056C113.238 44.3208 113.194 44.2056 113.232 44.0904C113.404 43.7997 113.601 43.5245 113.821 43.268C114.416 42.4872 115.654 40.8648 115.693 40.4808C115.76 40.169 115.861 39.8653 115.994 39.5752C116.221 39.0088 116.56 38.148 116.387 37.8568C116.368 37.8254 116.342 37.7994 116.31 37.7814C116.278 37.7635 116.242 37.7542 116.205 37.7544C116.019 37.7288 115.434 38.0104 114.358 38.868C112.467 40.3752 110.096 42.8552 110.022 43.6008C109.91 44.724 112.214 48.74 112.582 49.3C112.717 49.5016 112.621 49.6808 108.768 54.1416C105.194 58.2824 99.792 64.5416 99.6416 65.8952C99.408 67.9816 100.349 69.3704 102.157 69.6104C103.498 69.796 111.955 67.0504 117.008 65.4248C118.774 64.852 120.17 64.404 120.746 64.244C121.197 64.1169 121.663 64.0523 122.131 64.052Z" fill="#263238"/>
<path d="M110.72 65.4412C110.678 65.4379 110.639 65.4184 110.611 65.3867C110.583 65.3551 110.568 65.3138 110.57 65.2716L110.634 64.3116C110.634 64.2904 110.64 64.2696 110.649 64.2505C110.658 64.2313 110.67 64.2142 110.686 64.2001C110.702 64.1861 110.721 64.1754 110.741 64.1687C110.761 64.162 110.782 64.1594 110.803 64.1612C110.825 64.1624 110.845 64.1678 110.865 64.1772C110.884 64.1866 110.901 64.1998 110.915 64.2159C110.929 64.232 110.94 64.2507 110.946 64.271C110.953 64.2913 110.955 64.3127 110.954 64.334L110.89 65.294C110.886 65.3359 110.867 65.3748 110.835 65.4023C110.803 65.4299 110.762 65.4438 110.72 65.4412Z" fill="#263238"/>
<path d="M109.12 65.9977C109.103 66.0008 109.086 66.0008 109.069 65.9977C109.029 65.9846 108.995 65.9559 108.976 65.9181C108.957 65.8803 108.953 65.8365 108.966 65.7961L110.941 59.6233C110.953 59.586 110.978 59.5544 111.011 59.5343C111.045 59.5143 111.085 59.5072 111.123 59.5145C111.162 59.5208 111.197 59.5414 111.221 59.5722C111.245 59.603 111.257 59.6418 111.254 59.6809L110.995 63.6137C110.991 63.6553 110.971 63.6938 110.94 63.7211C110.908 63.7485 110.867 63.7628 110.826 63.7609C110.805 63.7597 110.784 63.7543 110.765 63.7452C110.746 63.736 110.729 63.7231 110.715 63.7074C110.701 63.6916 110.691 63.6732 110.684 63.6533C110.677 63.6334 110.674 63.6124 110.675 63.5913L110.848 60.9641L109.27 65.8953C109.259 65.9257 109.238 65.9517 109.211 65.97C109.184 65.9883 109.153 65.998 109.12 65.9977Z" fill="#263238"/>
<path d="M112.259 56.7945C109.133 56.6665 108.774 54.2089 108.771 54.1865C108.768 54.1655 108.77 54.1442 108.775 54.1237C108.781 54.1033 108.79 54.0841 108.803 54.0673C108.816 54.0505 108.832 54.0364 108.851 54.0259C108.869 54.0153 108.889 54.0085 108.91 54.0057C108.931 54.003 108.953 54.0044 108.973 54.01C108.994 54.0155 109.013 54.025 109.03 54.0379C109.046 54.0508 109.061 54.0669 109.071 54.0853C109.082 54.1037 109.088 54.1239 109.091 54.1449C109.091 54.2345 109.427 56.3593 112.275 56.4745C112.317 56.477 112.357 56.4957 112.386 56.5268C112.414 56.5578 112.43 56.5987 112.429 56.6409C112.428 56.6622 112.423 56.6832 112.414 56.7025C112.405 56.7218 112.392 56.7391 112.376 56.7534C112.361 56.7677 112.342 56.7787 112.322 56.7858C112.302 56.7929 112.28 56.7958 112.259 56.7945Z" fill="#263238"/>
<path d="M123.066 64.2312C121.656 63.3101 120.143 62.5582 118.557 61.9912L123.066 64.2312Z" fill="white"/>
<path d="M123.066 64.3913C123.034 64.3902 123.003 64.3814 122.976 64.3657C121.575 63.4562 120.071 62.7161 118.496 62.1609C118.456 62.1477 118.422 62.1191 118.403 62.0813C118.384 62.0435 118.381 61.9996 118.394 61.9593C118.4 61.9391 118.41 61.9203 118.424 61.9041C118.437 61.888 118.454 61.8747 118.473 61.8651C118.491 61.8556 118.512 61.8499 118.533 61.8485C118.554 61.8471 118.575 61.8499 118.595 61.8569C120.193 62.425 121.719 63.1767 123.142 64.0969C123.178 64.1209 123.202 64.1579 123.211 64.1997C123.219 64.2416 123.211 64.2851 123.187 64.3209C123.173 64.3408 123.155 64.3574 123.134 64.3695C123.113 64.3817 123.09 64.3891 123.066 64.3913Z" fill="#263238"/>
<path d="M117.885 62.9641H117.856C117.613 62.9225 117.363 62.8841 117.114 62.8489C117.071 62.843 117.033 62.8204 117.007 62.7862C116.981 62.752 116.97 62.7089 116.976 62.6665C116.982 62.6241 117.005 62.5857 117.039 62.5599C117.073 62.5341 117.116 62.523 117.158 62.5289C117.411 62.5641 117.661 62.6025 117.91 62.6473C117.953 62.6507 117.992 62.6708 118.02 62.7032C118.047 62.7356 118.061 62.7777 118.058 62.8201C118.054 62.8625 118.034 62.9019 118.002 62.9295C117.969 62.9571 117.927 62.9707 117.885 62.9673V62.9641Z" fill="#263238"/>
<path d="M122.262 63.9594H122.218C122.202 63.9594 120.618 63.4954 118.72 63.1242C118.699 63.1208 118.68 63.1132 118.662 63.1019C118.644 63.0906 118.629 63.0758 118.618 63.0584C118.606 63.041 118.598 63.0214 118.594 63.0008C118.59 62.9802 118.591 62.9591 118.595 62.9386C118.603 62.8971 118.627 62.8604 118.662 62.8364C118.696 62.8124 118.739 62.8032 118.781 62.8106C120.701 63.185 122.301 63.6458 122.301 63.6522C122.343 63.6582 122.382 63.6807 122.407 63.7149C122.433 63.7491 122.444 63.7922 122.438 63.8346C122.432 63.8771 122.41 63.9154 122.376 63.9412C122.342 63.967 122.298 63.9782 122.256 63.9722L122.262 63.9594Z" fill="#263238"/>
<path d="M133.997 76.8647C133.926 76.8647 133.856 76.8423 133.482 76.5447C133.465 76.5315 133.452 76.5151 133.442 76.4965C133.432 76.478 133.426 76.4577 133.425 76.4368C133.423 76.4159 133.425 76.3949 133.432 76.375C133.438 76.355 133.449 76.3366 133.462 76.3207C133.489 76.2883 133.528 76.2677 133.57 76.2635C133.612 76.2593 133.654 76.2718 133.686 76.2983C133.792 76.3964 133.908 76.4832 134.032 76.5575C134.068 76.5656 134.099 76.5855 134.122 76.614C134.145 76.6425 134.157 76.6779 134.157 76.7143C134.154 76.7551 134.136 76.7934 134.107 76.8213C134.077 76.8493 134.038 76.8648 133.997 76.8647Z" fill="#263238"/>
<path d="M133.12 76.1798C133.082 76.1791 133.044 76.1656 133.014 76.1414C132.205 75.4342 131.117 74.423 131.094 74.4134C131.079 74.3991 131.067 74.3817 131.059 74.3624C131.05 74.3432 131.046 74.3224 131.046 74.3014C131.046 74.2804 131.05 74.2597 131.059 74.2404C131.067 74.2211 131.079 74.2038 131.094 74.1894C131.109 74.1744 131.127 74.1625 131.146 74.1544C131.166 74.1463 131.187 74.1421 131.208 74.1421C131.229 74.1421 131.25 74.1463 131.27 74.1544C131.289 74.1625 131.307 74.1744 131.322 74.1894C131.322 74.1894 132.416 75.207 133.222 75.911C133.238 75.9245 133.252 75.9411 133.261 75.9597C133.271 75.9784 133.276 75.9988 133.278 76.0196C133.279 76.0405 133.276 76.0615 133.27 76.0813C133.263 76.1011 133.252 76.1194 133.238 76.135C133.206 76.165 133.164 76.1811 133.12 76.1798Z" fill="#263238"/>
<path d="M144.557 85.1401C144.53 85.1403 144.504 85.1337 144.48 85.1208C144.457 85.1079 144.437 85.0892 144.422 85.0665C144.4 85.0308 144.392 84.9876 144.401 84.9462C144.41 84.9048 144.435 84.8686 144.47 84.8457L149.968 81.3865C150.004 81.3648 150.048 81.3579 150.089 81.3675C150.13 81.3771 150.166 81.4022 150.189 81.4377C150.2 81.4554 150.208 81.4753 150.212 81.4961C150.216 81.517 150.215 81.5384 150.21 81.559C150.206 81.5797 150.197 81.5991 150.184 81.6162C150.172 81.6333 150.156 81.6477 150.138 81.6585L144.64 85.1177C144.615 85.1321 144.586 85.1398 144.557 85.1401Z" fill="#263238"/>
<path d="M144.435 80.5097C144.402 80.5096 144.37 80.4995 144.342 80.4809C144.308 80.4564 144.284 80.4192 144.276 80.3774C144.268 80.3355 144.277 80.2923 144.301 80.2569C145.731 78.1993 146.941 73.8569 147.533 71.4601C147.543 71.4177 147.57 71.381 147.607 71.3582C147.644 71.3354 147.689 71.3283 147.731 71.3385C147.774 71.3487 147.81 71.3753 147.833 71.4125C147.856 71.4498 147.863 71.4945 147.853 71.5369C147.254 73.9593 146.035 78.3369 144.576 80.4393C144.56 80.4618 144.539 80.4799 144.514 80.4922C144.49 80.5045 144.463 80.5105 144.435 80.5097Z" fill="#263238"/>
<path d="M147.917 70.7051H147.882C147.861 70.7006 147.841 70.692 147.824 70.6798C147.807 70.6677 147.792 70.6523 147.781 70.6344C147.77 70.6166 147.762 70.5967 147.758 70.5758C147.755 70.555 147.755 70.5337 147.76 70.5131C147.904 69.8955 147.981 69.5179 147.984 69.5179C147.993 69.4755 148.018 69.4381 148.054 69.4141C148.09 69.3901 148.134 69.3814 148.176 69.3899C148.218 69.3984 148.256 69.4234 148.28 69.4594C148.304 69.4954 148.313 69.5395 148.304 69.5819C148.304 69.5819 148.227 69.9627 148.083 70.5867C148.073 70.6224 148.051 70.6536 148.021 70.6751C147.991 70.6967 147.954 70.7072 147.917 70.7051Z" fill="#263238"/>
<path d="M146.038 79.5207C146.008 79.5216 145.977 79.5126 145.952 79.4951C145.916 79.4721 145.891 79.436 145.882 79.3946C145.873 79.3532 145.881 79.3099 145.904 79.2743C146.806 77.8951 147.971 72.8295 147.984 72.7783C147.994 72.7358 148.02 72.699 148.057 72.6759C148.094 72.6528 148.138 72.6453 148.181 72.6551C148.223 72.6648 148.26 72.691 148.283 72.7279C148.306 72.7649 148.314 72.8094 148.304 72.8519C148.256 73.0599 147.114 78.0199 146.182 79.4471C146.168 79.4715 146.146 79.4913 146.121 79.5043C146.095 79.5173 146.067 79.523 146.038 79.5207Z" fill="#263238"/>
<path d="M114.304 52.9352C115.11 51.2264 115.773 49.812 115.84 49.6072C116.026 49.0504 113.309 44.3592 113.37 44.1672C113.43 43.9752 115.779 41.14 115.84 40.5224C115.901 39.9048 117.2 37.7448 116.211 37.62C115.222 37.4952 109.974 42.3752 109.85 43.604C109.725 44.8328 112.195 49.044 112.445 49.4088C112.496 49.4888 111.955 50.1704 111.075 51.22C111.418 52.0584 112.256 53.1208 114.304 52.9352Z" fill="white"/>
<path d="M113.827 53.105C111.968 53.105 111.216 51.985 110.925 51.281C110.914 51.2541 110.91 51.2246 110.915 51.1959C110.919 51.1671 110.932 51.1401 110.95 51.1178C111.43 50.5905 111.871 50.0302 112.272 49.441C111.882 48.801 109.565 44.8458 109.69 43.5882C109.786 42.6474 112.349 40.0682 114.147 38.6346C115.181 37.809 115.882 37.4122 116.23 37.457C116.316 37.4628 116.398 37.4891 116.471 37.5337C116.544 37.5782 116.606 37.6398 116.65 37.713C116.902 38.1418 116.57 38.977 116.278 39.713C116.159 39.9764 116.066 40.2508 116 40.5322C115.955 40.9706 115.059 42.177 114.064 43.4826C113.84 43.777 113.61 44.0778 113.539 44.1866C113.603 44.3754 113.949 45.0346 114.282 45.6778C115.536 48.0842 116.109 49.2906 115.994 49.6458C115.968 49.713 115.901 49.9242 114.448 52.9898C114.436 53.0151 114.417 53.0369 114.394 53.0531C114.371 53.0693 114.345 53.0795 114.317 53.0826C114.147 53.0986 113.981 53.105 113.827 53.105ZM111.261 51.2458C111.616 52.0458 112.41 52.913 114.198 52.7722C115.357 50.3178 115.651 49.6618 115.69 49.5434C115.766 49.2234 114.614 47.0122 113.997 45.825C113.226 44.3402 113.181 44.225 113.219 44.1098C113.391 43.8191 113.588 43.5439 113.808 43.2874C114.403 42.5066 115.642 40.8842 115.68 40.5002C115.747 40.1884 115.848 39.8848 115.981 39.5946C116.208 39.0282 116.547 38.1674 116.374 37.8762C116.356 37.8448 116.329 37.8188 116.297 37.8009C116.265 37.7829 116.229 37.7736 116.192 37.7738C116.006 37.7482 115.421 38.0298 114.346 38.8874C112.454 40.3946 110.083 42.8746 110.01 43.6202C109.898 44.7434 112.202 48.7594 112.57 49.3194C112.666 49.4538 112.71 49.521 111.261 51.2458Z" fill="#263238"/>
<path d="M111.744 44.2506C111.706 44.2494 111.669 44.2356 111.639 44.2113C111.61 44.1869 111.589 44.1535 111.581 44.1162C111.533 43.9274 112.038 42.8042 113.085 40.7786C113.094 40.7599 113.108 40.7433 113.124 40.7297C113.14 40.7161 113.159 40.7058 113.179 40.6995C113.199 40.6931 113.22 40.6907 113.241 40.6925C113.262 40.6942 113.282 40.7001 113.301 40.7098C113.32 40.7195 113.336 40.7327 113.35 40.7488C113.363 40.7649 113.374 40.7835 113.38 40.8035C113.386 40.8236 113.389 40.8447 113.387 40.8657C113.385 40.8867 113.379 40.9071 113.37 40.9258C112.656 42.305 111.91 43.857 111.894 44.065C111.9 44.0848 111.901 44.1054 111.897 44.1256C111.894 44.1458 111.887 44.1651 111.875 44.1823C111.864 44.1995 111.85 44.2141 111.833 44.2253C111.815 44.2365 111.796 44.2441 111.776 44.2474L111.744 44.2506Z" fill="#263238"/>
<path d="M110.429 43.956C110.393 43.956 110.359 43.9444 110.331 43.9231C110.302 43.9017 110.282 43.8717 110.272 43.8376C110.15 43.412 111.402 41.5688 111.946 40.7976C111.97 40.7628 112.007 40.739 112.049 40.7313C112.091 40.7235 112.134 40.7324 112.17 40.756C112.187 40.7681 112.202 40.7836 112.213 40.8014C112.224 40.8193 112.232 40.8392 112.235 40.86C112.239 40.8808 112.238 40.9022 112.234 40.9228C112.229 40.9434 112.22 40.9628 112.208 40.98C111.402 42.1224 110.55 43.508 110.582 43.7544C110.593 43.7951 110.587 43.8385 110.567 43.875C110.546 43.9116 110.511 43.9384 110.47 43.9496L110.429 43.956Z" fill="#263238"/>
<path d="M125.35 63.3032L127.821 68.308L128.995 68.3688L129.984 62.7496L129.181 61.4536L128.624 64.9736L127.142 64.9096L125.414 62.3176L125.35 63.3032Z" fill="#8A8A8A"/>
<path d="M128.995 68.5289L127.824 68.4681C127.795 68.4667 127.767 68.4576 127.743 68.4419C127.719 68.4262 127.699 68.4043 127.686 68.3785L125.216 63.3769C125.21 63.3496 125.21 63.3211 125.216 63.2937L125.28 62.3081C125.28 62.2739 125.292 62.2407 125.312 62.2135C125.333 62.1864 125.362 62.1668 125.395 62.1577C125.428 62.1486 125.463 62.1506 125.495 62.1633C125.527 62.176 125.554 62.1988 125.571 62.2281L127.254 64.7529L128.515 64.8073L129.046 61.4281C129.052 61.3955 129.067 61.3654 129.09 61.3414C129.113 61.3175 129.142 61.3009 129.174 61.2937C129.206 61.2872 129.24 61.2907 129.269 61.3039C129.299 61.3171 129.324 61.3393 129.341 61.3673L130.144 62.6633C130.165 62.6965 130.173 62.7365 130.166 62.7753L129.178 68.3977C129.174 68.4184 129.167 68.4383 129.156 68.4562C129.145 68.4741 129.131 68.4896 129.114 68.5018C129.097 68.5141 129.078 68.5228 129.057 68.5274C129.037 68.5321 129.016 68.5326 128.995 68.5289ZM127.923 68.1513L128.861 68.2025L129.821 62.7817L129.28 61.8953L128.79 64.9897C128.786 65.0291 128.767 65.0653 128.736 65.0904C128.706 65.1156 128.667 65.1277 128.627 65.1241L127.146 65.0633C127.12 65.0626 127.095 65.0558 127.073 65.0436C127.051 65.0314 127.032 65.014 127.018 64.9929L125.552 62.7945L125.523 63.2649L127.923 68.1513Z" fill="#263238"/>
<path d="M127.821 68.3081L125.773 83.2169L128.141 88.1961L130.678 83.0217L128.995 68.3689L127.821 68.3081Z" fill="#8A8A8A"/>
<path d="M128.141 88.3558C128.11 88.356 128.081 88.3473 128.055 88.3308C128.029 88.3143 128.009 88.2908 127.997 88.263L125.629 83.2838C125.621 83.2545 125.621 83.2236 125.629 83.1942L127.68 68.295C127.686 68.2555 127.706 68.2194 127.737 68.1939C127.767 68.1685 127.807 68.1554 127.846 68.1574L129.018 68.2182C129.056 68.2195 129.092 68.2344 129.12 68.2602C129.149 68.286 129.167 68.3211 129.171 68.359L130.835 83.015C130.845 83.0442 130.845 83.0755 130.835 83.1046L128.298 88.279C128.282 88.3056 128.258 88.3271 128.231 88.3407C128.203 88.3543 128.172 88.3596 128.141 88.3558ZM125.939 83.191L128.144 87.815L130.512 82.9798L128.851 68.5094L127.958 68.4614L125.939 83.191Z" fill="#263238"/>
<path d="M127.453 67.5623L129.347 66.3559L129.936 63.0215L128.819 63.7287L128.624 64.9735L127.142 64.9095L127.088 64.8327L126.339 65.3095L127.453 67.5623Z" fill="#263238"/>
<path d="M128.996 68.3696L128.999 68.353L128.973 68.3696H128.996Z" fill="#263238"/>
<path d="M129.501 72.7656L126.989 74.3656L126.544 77.6136L129.818 75.5272L129.501 72.7656Z" fill="#263238"/>
<path d="M129.309 71.1175L128.995 68.3687H128.973L127.702 69.1751L127.258 72.4231L129.309 71.1175Z" fill="#263238"/>
<path d="M130.006 77.1787L126.278 79.5531L125.83 82.8011L130.323 79.9403L130.006 77.1787Z" fill="#263238"/>
<path d="M129.661 85.0985L130.678 83.0217L130.515 81.5913L126.282 84.2857L127.363 86.5609L129.661 85.0985Z" fill="#263238"/>
<path d="M123.622 57.5623C123.622 57.5623 123.126 60.5863 123.19 61.9463C123.254 63.3063 123.93 65.7127 123.93 65.7127L126.957 62.2535L132.019 65.4151C132.019 65.4151 131.84 58.9831 131.84 58.7975C131.84 58.6119 130.666 51.6935 130.294 51.0151C130.092 50.6972 129.806 50.442 129.466 50.278C129.127 50.1141 128.749 50.048 128.374 50.0871C127.821 50.2119 123.622 57.5623 123.622 57.5623Z" fill="#FFA943"/>
<path d="M123.93 65.8728H123.894C123.866 65.8665 123.841 65.8527 123.82 65.833C123.799 65.8133 123.784 65.7884 123.776 65.7608C123.747 65.6616 123.091 63.3192 123.03 61.956C122.97 60.5928 123.443 57.6616 123.466 57.54C123.468 57.5211 123.473 57.5026 123.482 57.4856C124.762 55.2456 127.779 50.0616 128.342 49.9368C128.75 49.8895 129.163 49.9588 129.533 50.1367C129.903 50.3145 130.214 50.5936 130.432 50.9416C130.842 51.6968 131.997 58.7496 131.997 58.8008C131.997 58.98 132.179 65.3384 132.179 65.4024C132.181 65.4315 132.174 65.4606 132.16 65.4861C132.146 65.5116 132.125 65.5325 132.099 65.5464C132.075 65.5614 132.046 65.5693 132.018 65.5693C131.989 65.5693 131.961 65.5614 131.936 65.5464L126.989 62.468L124.051 65.8248C124.035 65.8409 124.016 65.8535 123.996 65.8618C123.975 65.8701 123.952 65.8738 123.93 65.8728ZM123.776 57.6168C123.725 57.9368 123.293 60.6824 123.35 61.94C123.465 63.1039 123.679 64.2558 123.99 65.3832L126.819 62.148C126.845 62.1203 126.879 62.1023 126.916 62.097C126.954 62.0918 126.992 62.0996 127.024 62.1192L131.824 65.1112C131.786 63.8312 131.648 58.9608 131.648 58.7976C131.626 58.4488 130.458 51.7032 130.122 51.092C129.937 50.8059 129.677 50.5758 129.371 50.4263C129.065 50.2769 128.723 50.2139 128.384 50.244C128 50.4456 125.35 54.8552 123.776 57.6168Z" fill="#263238"/>
<path d="M115.091 40.6921C115.091 40.6921 114.931 45.2169 115.037 47.0249C115.142 48.8329 114.877 50.2729 115.357 51.7609C115.837 53.2489 116.368 56.1353 116.845 57.0953C117.115 57.6556 117.539 58.1278 118.067 58.4574C118.595 58.787 119.205 58.9604 119.827 58.9577C121.318 58.9577 122.966 57.7321 123.766 56.9353C124.566 56.1385 125.949 55.0153 126.691 53.5817C127.434 52.1481 126.8 48.5257 126.906 47.5017C127.011 46.4777 127.226 44.7337 127.226 44.7337C127.226 44.7337 128.288 42.1257 127.437 40.8937C126.586 39.6617 122.806 38.2857 119.933 38.5545C118.14 38.7597 116.451 39.5052 115.091 40.6921Z" fill="white"/>
<path d="M119.827 59.1081C119.175 59.1122 118.535 58.9309 117.982 58.5853C117.429 58.2397 116.986 57.744 116.704 57.1561C116.41 56.5705 116.102 55.3065 115.805 54.0841C115.603 53.2617 115.398 52.4137 115.203 51.8121C114.883 50.7977 114.883 49.7961 114.899 48.7369C114.899 48.1961 114.899 47.6361 114.877 47.0345C114.771 45.2393 114.928 40.7305 114.931 40.6857C114.932 40.6446 114.95 40.6055 114.979 40.5769C116.364 39.3633 118.089 38.6047 119.92 38.4041C122.8 38.1353 126.678 39.5337 127.568 40.8137C128.458 42.0937 127.488 44.5097 127.382 44.7753C127.357 44.9769 127.165 46.5833 127.062 47.5209C127.046 48.0378 127.064 48.5552 127.117 49.0697C127.219 50.5673 127.363 52.6185 126.832 53.6457C126.224 54.8169 125.232 55.7609 124.413 56.5257C124.218 56.7081 124.035 56.8809 123.875 57.0409C122.925 57.9913 121.28 59.1081 119.827 59.1081ZM115.248 40.7753C115.229 41.3449 115.098 45.3641 115.197 47.0249C115.232 47.6393 115.226 48.2025 115.219 48.7497C115.219 49.8281 115.197 50.7561 115.507 51.7225C115.706 52.3337 115.914 53.1913 116.115 54.0201C116.41 55.2233 116.714 56.4713 116.989 57.0217C117.248 57.554 117.651 58.0028 118.153 58.3168C118.655 58.6308 119.235 58.7975 119.827 58.7977C121.286 58.7977 122.918 57.5561 123.667 56.8201C123.83 56.6601 124.016 56.4841 124.214 56.2985C125.002 55.5561 125.984 54.6313 126.566 53.5081C127.056 52.5481 126.918 50.5609 126.816 49.0985C126.762 48.567 126.743 48.0325 126.762 47.4985C126.867 46.4969 127.082 44.7433 127.082 44.7273C127.08 44.7135 127.08 44.6995 127.082 44.6857C127.082 44.6601 128.102 42.1449 127.309 41.0057C126.467 39.7929 122.749 38.4713 119.949 38.7305C118.214 38.9322 116.578 39.6438 115.248 40.7753Z" fill="#263238"/>
<path d="M117.837 51.5788C117.543 51.6034 117.248 51.5664 116.97 51.47C116.867 51.3996 116.55 51.1884 117.85 47.3932L117.44 45.8412C117.435 45.8201 117.434 45.7983 117.437 45.7769C117.44 45.7555 117.447 45.7349 117.459 45.7163C117.47 45.6977 117.484 45.6815 117.502 45.6686C117.519 45.6557 117.539 45.6464 117.56 45.6412C117.581 45.6359 117.603 45.6348 117.624 45.638C117.646 45.6412 117.666 45.6486 117.685 45.6597C117.703 45.6709 117.72 45.6856 117.733 45.703C117.745 45.7204 117.755 45.7401 117.76 45.7612L118.186 47.3612C118.194 47.3916 118.194 47.4235 118.186 47.454C117.629 49.0732 117.114 50.894 117.187 51.2172C117.443 51.3132 118.813 51.246 119.987 51.1276C120.03 51.124 120.072 51.137 120.104 51.1639C120.137 51.1907 120.158 51.2294 120.163 51.2716C120.167 51.3135 120.154 51.3552 120.127 51.3875C120.1 51.4199 120.061 51.4403 120.019 51.4444C119.6 51.4828 118.592 51.5788 117.837 51.5788Z" fill="#263238"/>
<path d="M119.68 44.151C119.68 44.151 119.626 44.7366 119.84 44.8422C120.054 44.9478 122.128 45.7478 122.448 45.6422C122.768 45.5366 122.342 45.1078 122.074 45.0022C121.805 44.8966 119.562 43.671 119.68 44.151Z" fill="#263238"/>
<path d="M122.368 45.8088C121.76 45.8088 119.846 45.0312 119.757 44.9864C119.478 44.8488 119.491 44.3464 119.507 44.1576C119.5 44.1167 119.503 44.0744 119.518 44.0355C119.533 43.9966 119.558 43.9624 119.59 43.9368C119.795 43.7768 120.307 43.9368 121.773 44.6824L122.122 44.8552C122.33 44.9384 122.717 45.2392 122.707 45.5176C122.705 45.5811 122.682 45.6423 122.643 45.6919C122.603 45.7415 122.548 45.7769 122.486 45.7928C122.448 45.8039 122.408 45.8093 122.368 45.8088ZM119.824 44.2088C119.797 44.3788 119.823 44.5529 119.898 44.708C120.218 44.868 122.138 45.5656 122.387 45.4984C122.296 45.3496 122.162 45.2315 122.003 45.1592C121.949 45.14 121.811 45.0696 121.629 44.98C121.251 44.7816 120.154 44.2312 119.824 44.1992V44.2088Z" fill="#263238"/>
<path d="M117.59 45.0024C117.59 45.0024 115.888 45.9624 115.568 46.0136C115.248 46.0648 115.782 45.3736 115.782 45.3736C115.782 45.3736 117.062 43.9368 117.382 44.1512C117.702 44.3656 117.59 45.0024 117.59 45.0024Z" fill="#263238"/>
<path d="M115.536 46.177C115.497 46.1785 115.457 46.1694 115.423 46.1509C115.388 46.1324 115.358 46.1049 115.338 46.0714C115.302 46.0138 115.21 45.857 115.658 45.2778C116.298 44.5674 117.11 43.777 117.472 44.017C117.834 44.257 117.766 44.9546 117.754 45.0282C117.749 45.0519 117.739 45.0743 117.726 45.0941C117.712 45.1139 117.694 45.1307 117.674 45.1434C117.386 45.3034 115.93 46.1034 115.597 46.1706L115.536 46.177ZM117.283 44.2826C117.12 44.2826 116.477 44.833 115.901 45.4826C115.822 45.5845 115.751 45.6914 115.686 45.8026C116.058 45.6554 116.886 45.2106 117.443 44.9002C117.459 44.721 117.443 44.3882 117.29 44.2826H117.283Z" fill="#263238"/>
<path d="M121.501 47.7863C121.011 47.7743 120.543 47.5804 120.189 47.2423C120.16 47.2113 120.144 47.17 120.145 47.1274C120.146 47.0848 120.164 47.0444 120.195 47.0151C120.226 46.9858 120.268 46.9701 120.31 46.9713C120.353 46.9725 120.393 46.9905 120.422 47.0215C120.672 47.2682 121 47.4213 121.349 47.4551C121.699 47.4889 122.05 47.4013 122.342 47.2071C122.379 47.1857 122.423 47.1794 122.464 47.1895C122.505 47.1997 122.541 47.2255 122.563 47.2615C122.584 47.2983 122.59 47.3417 122.58 47.3827C122.57 47.4237 122.544 47.4593 122.509 47.4823C122.207 47.6748 121.858 47.78 121.501 47.7863Z" fill="#263238"/>
<path d="M116.534 47.8794C116.279 47.8807 116.028 47.8168 115.805 47.6938C115.787 47.683 115.771 47.6686 115.758 47.6515C115.746 47.6344 115.737 47.615 115.732 47.5943C115.727 47.5737 115.727 47.5523 115.73 47.5315C115.734 47.5106 115.742 47.4907 115.754 47.473C115.764 47.4552 115.779 47.4398 115.796 47.4276C115.812 47.4153 115.831 47.4066 115.852 47.4018C115.872 47.3971 115.893 47.3964 115.913 47.3998C115.934 47.4032 115.954 47.4107 115.971 47.4218C116.219 47.552 116.503 47.5935 116.777 47.5394C117.052 47.4852 117.299 47.3387 117.478 47.1242C117.509 47.0941 117.549 47.0771 117.592 47.0771C117.635 47.0771 117.676 47.0941 117.706 47.1242C117.736 47.1543 117.753 47.1952 117.753 47.2378C117.753 47.2804 117.736 47.3213 117.706 47.3514C117.557 47.5144 117.376 47.6452 117.174 47.736C116.973 47.8268 116.755 47.8756 116.534 47.8794Z" fill="#263238"/>
<path d="M126.906 47.495C127.002 46.5766 127.184 45.0534 127.226 44.775L126.166 44.1958C126.166 44.1958 126.486 48.1318 126.061 50.3142C125.635 52.4966 124.89 53.1942 124.038 53.5142C123.187 53.8342 122.758 53.4086 122.758 53.4086C122.758 53.4086 120.736 51.4886 118.918 51.4406C117.338 51.3926 116.125 53.1302 115.843 53.5718C116.179 54.9414 116.522 56.4518 116.842 57.0918C117.112 57.6521 117.536 58.1243 118.064 58.4539C118.592 58.7835 119.202 58.9569 119.824 58.9542C121.315 58.9542 122.963 57.7286 123.763 56.9318C124.563 56.135 125.946 55.0118 126.688 53.5782C127.43 52.1446 126.8 48.5158 126.906 47.495Z" fill="#263238"/>
<path d="M119.827 59.1079C119.175 59.112 118.535 58.9306 117.982 58.585C117.429 58.2394 116.986 57.7438 116.704 57.1559C116.41 56.5703 116.102 55.3063 115.805 54.0807L115.69 53.6135C115.68 53.5709 115.687 53.5263 115.709 53.4887C116.048 52.9607 117.309 51.2487 118.928 51.2839C120.774 51.3383 122.768 53.2039 122.864 53.2967C122.88 53.3127 123.238 53.6455 123.974 53.3671C124.71 53.0887 125.459 52.5319 125.894 50.2951C126.31 48.1575 126 44.2567 125.997 44.2151C125.994 44.1862 126 44.1572 126.013 44.1311C126.025 44.1051 126.045 44.083 126.069 44.0673C126.093 44.0515 126.122 44.0426 126.151 44.0416C126.18 44.0406 126.208 44.0474 126.234 44.0615L127.293 44.6407C127.321 44.6565 127.343 44.68 127.358 44.7084C127.373 44.7368 127.379 44.7688 127.376 44.8007C127.341 45.0791 127.158 46.6023 127.056 47.5175C127.039 48.0344 127.058 48.5518 127.11 49.0663C127.213 50.5639 127.357 52.6151 126.826 53.6423C126.218 54.8135 125.226 55.7575 124.406 56.5223C124.211 56.7047 124.029 56.8775 123.869 57.0375C122.925 57.9911 121.28 59.1079 119.827 59.1079ZM116.016 53.6039L116.115 54.0071C116.41 55.2135 116.714 56.4615 116.989 57.0119C117.248 57.5442 117.651 57.9929 118.153 58.3069C118.655 58.6209 119.235 58.7876 119.827 58.7879C121.286 58.7879 122.918 57.5463 123.667 56.8103C123.83 56.6503 124.016 56.4743 124.214 56.2887C125.002 55.5463 125.984 54.6215 126.566 53.4983C127.056 52.5383 126.918 50.5511 126.816 49.0887C126.762 48.5572 126.743 48.0226 126.762 47.4887C126.851 46.6535 127.008 45.3191 127.062 44.8743L126.358 44.4871C126.422 45.4471 126.589 48.4999 126.227 50.3559C125.76 52.7495 124.893 53.3735 124.102 53.6679C123.168 54.0199 122.678 53.5463 122.656 53.5239C122.634 53.5015 120.659 51.6519 118.934 51.6039C117.475 51.5527 116.317 53.1527 116.016 53.6039Z" fill="#263238"/>
<path d="M121.475 55.0088C121.475 55.0088 120.358 53.4088 119.296 53.1464C118.234 52.884 117.114 54.9544 117.485 55.3288C117.856 55.7032 118.39 54.3176 119.405 54.7432C120.419 55.1688 120.998 55.86 121.475 55.0088Z" fill="white"/>
<path d="M120.934 55.5719C120.604 55.5301 120.287 55.4118 120.01 55.2263C119.792 55.1077 119.567 55.0008 119.338 54.9063C118.848 54.6983 118.486 54.9991 118.17 55.2647C117.92 55.4791 117.632 55.7191 117.373 55.4567C117.114 55.1943 117.306 54.6279 117.562 54.1767C117.93 53.5367 118.614 52.8295 119.334 53.0087C120.442 53.2871 121.574 54.8679 121.606 54.9287C121.622 54.9543 121.63 54.9836 121.63 55.0135C121.63 55.0434 121.622 55.0728 121.606 55.0983C121.55 55.2326 121.458 55.3483 121.339 55.4321C121.22 55.5159 121.08 55.5644 120.934 55.5719ZM119.014 54.4999C119.168 54.5014 119.319 54.5341 119.459 54.5959C119.699 54.6993 119.933 54.8157 120.16 54.9447C120.781 55.2807 121.034 55.3927 121.28 55.0183C121.037 54.6983 120.112 53.5143 119.251 53.2999C118.742 53.1751 118.176 53.7191 117.837 54.3175C117.562 54.8007 117.533 55.1527 117.594 55.2135C117.654 55.2743 117.741 55.1911 117.962 55.0055C118.241 54.7156 118.616 54.5361 119.018 54.4999H119.014Z" fill="#263238"/>
<path d="M114.931 37.8699C114.931 37.8699 113.331 37.3931 112.323 37.9243C111.662 38.324 111.141 38.9187 110.832 39.6267L112.909 39.7867L113.869 40.2667C113.869 40.2667 113.443 40.2667 113.229 40.8523C113.084 41.2724 112.96 41.6996 112.858 42.1323C113.459 41.8266 114.108 41.6284 114.778 41.5467C115.946 41.3275 117.101 41.0434 118.237 40.6955L118.502 42.4523C119.255 41.9736 120.059 41.5807 120.899 41.2811C121.54 41.0859 122.124 40.739 122.602 40.2699C122.602 40.2699 125.37 41.3323 125.315 41.8123C125.261 42.2923 124.304 43.4635 124.624 43.8347C124.944 44.2059 125.795 45.0059 125.795 45.0059L128.995 46.8171C129.842 45.3663 130.436 43.7821 130.752 42.1323C131.334 39.2523 128.675 36.1707 126.438 35.3195C124.202 34.4683 122.554 34.7883 121.171 34.8395C120.061 34.8307 118.954 34.7063 117.869 34.4683L119.149 35.7995C118.574 36.0268 117.988 36.2223 117.392 36.3851C116.858 36.4907 115.955 36.7563 115.741 36.6507C115.526 36.5451 114.781 36.0651 114.781 36.0651C114.781 36.0651 114.397 37.6587 114.931 37.8699Z" fill="#263238"/>
<path d="M128.982 46.9735C128.954 46.9725 128.927 46.9648 128.902 46.9511L125.702 45.1431L125.674 45.1207C125.638 45.0855 124.81 44.3111 124.49 43.9367C124.221 43.6167 124.528 43.0567 124.81 42.5095C124.949 42.2863 125.056 42.0451 125.13 41.7927C125.088 41.5815 123.949 40.9735 122.614 40.4519C122.131 40.9032 121.551 41.2382 120.918 41.4311C120.092 41.7252 119.302 42.1117 118.563 42.5831C118.54 42.5957 118.513 42.6023 118.486 42.6023C118.46 42.6023 118.433 42.5957 118.41 42.5831C118.385 42.5722 118.365 42.5553 118.349 42.534C118.333 42.5127 118.323 42.4877 118.32 42.4615L118.08 40.8871C116.995 41.2191 115.891 41.4884 114.774 41.6935C114.127 41.7727 113.498 41.9632 112.915 42.2567C112.889 42.2739 112.858 42.283 112.827 42.283C112.796 42.283 112.765 42.2739 112.739 42.2567C112.715 42.238 112.696 42.2127 112.685 42.1839C112.674 42.155 112.672 42.1236 112.678 42.0935C112.782 41.655 112.909 41.2224 113.059 40.7975C113.129 40.5772 113.267 40.3847 113.453 40.2471L112.845 39.9431L110.8 39.7863C110.775 39.7843 110.75 39.7764 110.728 39.763C110.707 39.7496 110.688 39.7313 110.675 39.7095C110.664 39.6871 110.658 39.6624 110.658 39.6375C110.658 39.6125 110.664 39.5879 110.675 39.5655C110.996 38.8224 111.542 38.1989 112.237 37.7831C112.973 37.3959 113.974 37.5047 114.538 37.6167C114.446 37.0846 114.469 36.5392 114.605 36.0167C114.612 35.9922 114.624 35.9695 114.641 35.9501C114.657 35.9308 114.678 35.9153 114.701 35.9047C114.724 35.8929 114.749 35.8867 114.774 35.8867C114.8 35.8867 114.825 35.8929 114.848 35.9047C114.848 35.9047 115.587 36.3783 115.792 36.4807C116.157 36.4705 116.518 36.4113 116.867 36.3047C117.037 36.2663 117.187 36.2279 117.338 36.2023C117.848 36.0675 118.35 35.903 118.842 35.7095L117.731 34.5511C117.707 34.5264 117.692 34.4946 117.688 34.4605C117.684 34.4263 117.691 34.3918 117.709 34.3623C117.726 34.3331 117.752 34.3101 117.783 34.2963C117.814 34.2825 117.848 34.2787 117.882 34.2855C118.953 34.5186 120.046 34.6419 121.142 34.6535C121.376 34.6535 121.616 34.6279 121.866 34.6119C123.078 34.5287 124.586 34.4231 126.474 35.1431C128.682 35.9847 131.498 39.1271 130.886 42.1383C130.568 43.8079 129.966 45.4108 129.107 46.8775C129.096 46.9024 129.078 46.9241 129.057 46.9408C129.035 46.9576 129.009 46.9687 128.982 46.9735ZM125.885 44.8743L128.925 46.5959C129.71 45.1926 130.268 43.6741 130.579 42.0967C131.162 39.2487 128.474 36.2663 126.371 35.4663C124.547 34.7719 123.139 34.8679 121.891 34.9543C121.638 34.9543 121.395 34.9863 121.158 34.9959C120.205 35.0002 119.254 34.908 118.32 34.7207L119.245 35.6807C119.262 35.6999 119.275 35.7229 119.282 35.7478C119.29 35.7728 119.291 35.7991 119.286 35.8247C119.28 35.8505 119.268 35.8745 119.251 35.8945C119.234 35.9146 119.212 35.9302 119.187 35.9399C118.605 36.1722 118.01 36.3709 117.405 36.5351C117.27 36.5607 117.11 36.5991 116.944 36.6375C116.269 36.7943 115.846 36.8839 115.664 36.7847C115.482 36.6855 115.126 36.4647 114.886 36.3175C114.784 36.8935 114.755 37.6231 114.995 37.7191C115.032 37.7356 115.061 37.7651 115.076 37.8019C115.092 37.8387 115.094 37.8801 115.08 37.9179C115.067 37.9557 115.04 37.9871 115.005 38.006C114.97 38.0248 114.928 38.0298 114.89 38.0199C114.89 38.0199 113.344 37.5687 112.403 38.0615C111.836 38.3986 111.379 38.8919 111.085 39.4823L112.928 39.6231C112.947 39.6202 112.967 39.6202 112.986 39.6231L113.946 40.1031C113.978 40.1188 114.004 40.1451 114.02 40.1776C114.036 40.2101 114.04 40.247 114.032 40.2823C114.023 40.3175 114.003 40.349 113.975 40.3716C113.947 40.3942 113.912 40.4067 113.875 40.4071C113.875 40.4071 113.555 40.4071 113.386 40.8871C113.27 41.2071 113.168 41.5655 113.104 41.8183C113.632 41.5924 114.189 41.4395 114.758 41.3639C115.918 41.1471 117.064 40.865 118.192 40.5191C118.215 40.5126 118.238 40.511 118.261 40.5143C118.284 40.5176 118.307 40.5258 118.326 40.5383C118.346 40.55 118.362 40.5659 118.374 40.5847C118.386 40.6035 118.394 40.6248 118.397 40.6471L118.627 42.1639C119.332 41.7286 120.083 41.3734 120.867 41.1047C121.48 40.9205 122.04 40.5912 122.499 40.1447C122.521 40.1212 122.55 40.1047 122.581 40.0973C122.612 40.0899 122.645 40.0919 122.675 40.1031C123.75 40.5191 125.555 41.2903 125.491 41.8151C125.414 42.1159 125.289 42.4023 125.12 42.6631C124.934 43.0055 124.624 43.5815 124.749 43.7287C125.027 44.0647 125.76 44.7687 125.885 44.8743Z" fill="#263238"/>
<path d="M127.757 49.7354C128.236 49.4717 128.653 49.1096 128.982 48.673C129.408 48.033 130.63 45.585 129.194 44.8938C128.106 44.369 127.386 45.3098 127.098 45.7962C127.034 46.353 126.957 47.0122 126.906 47.5018C126.8 48.513 127.437 52.1322 126.691 53.5818C125.946 55.0314 124.563 56.1418 123.766 56.9354C123.384 57.3103 122.969 57.6499 122.525 57.9498L123.872 58.3178C124.249 59.3389 124.79 60.2921 125.472 61.1402C126.146 62.0028 126.875 62.8205 127.654 63.5882C127.654 63.5882 127.974 61.6682 128.826 57.4122C129.677 53.1562 129.037 50.6922 129.037 50.6922L127.757 49.7354Z" fill="white"/>
<path d="M127.651 63.7383C127.61 63.7379 127.57 63.722 127.539 63.6935C126.755 62.9204 126.022 62.0973 125.344 61.2295C124.67 60.3875 124.13 59.4462 123.744 58.4391L122.48 58.0935C122.45 58.0858 122.424 58.0695 122.403 58.0468C122.383 58.024 122.369 57.9958 122.365 57.9655C122.36 57.9353 122.364 57.9042 122.375 57.8759C122.387 57.8476 122.407 57.8232 122.432 57.8055C122.867 57.5121 123.274 57.1789 123.648 56.8103C123.811 56.6503 123.997 56.4743 124.195 56.2887C124.982 55.5463 125.965 54.6215 126.547 53.4983C127.037 52.5383 126.899 50.5511 126.797 49.0887C126.742 48.5573 126.724 48.0227 126.742 47.4887C126.794 46.9991 126.87 46.3367 126.934 45.7831C126.939 45.7608 126.946 45.7392 126.957 45.7191C127.242 45.2327 128.038 44.1639 129.261 44.7591C129.435 44.8387 129.588 44.9562 129.711 45.103C129.833 45.2497 129.921 45.422 129.968 45.6071C130.266 46.6951 129.427 48.2951 129.11 48.7687C128.823 49.1665 128.46 49.5036 128.042 49.7607L129.126 50.5767C129.156 50.5982 129.177 50.6285 129.187 50.6631C129.213 50.7655 129.827 53.1975 128.976 57.4407C128.125 61.6839 127.808 63.5911 127.805 63.6103C127.8 63.6386 127.787 63.665 127.769 63.6869C127.75 63.7088 127.726 63.7255 127.699 63.7351C127.684 63.7389 127.667 63.74 127.651 63.7383ZM122.896 57.8727L123.914 58.1543C123.939 58.1616 123.963 58.175 123.983 58.1934C124.002 58.2118 124.017 58.2346 124.026 58.2599C124.397 59.2614 124.926 60.197 125.594 61.0311C126.203 61.8054 126.855 62.5457 127.546 63.2487C127.667 62.5543 128.01 60.6471 128.666 57.3735C129.43 53.5335 128.986 51.1687 128.893 50.7911L127.661 49.8663C127.639 49.8509 127.622 49.8301 127.611 49.806C127.599 49.7819 127.595 49.7553 127.597 49.7287C127.599 49.7014 127.609 49.6752 127.624 49.6523C127.639 49.6294 127.659 49.6106 127.683 49.5975C128.138 49.3451 128.534 49.0007 128.848 48.5863C129.219 48.0295 129.907 46.5863 129.661 45.6871C129.625 45.5468 129.558 45.4164 129.465 45.3056C129.372 45.1947 129.255 45.1064 129.123 45.0471C128.195 44.5991 127.558 45.3479 127.254 45.8599C127.19 46.4071 127.114 47.0503 127.066 47.5271C127.049 48.044 127.067 48.5615 127.12 49.0759C127.222 50.5735 127.366 52.6247 126.835 53.6519C126.227 54.8231 125.235 55.7671 124.416 56.5319C124.221 56.7143 124.038 56.8871 123.878 57.0471C123.572 57.3465 123.244 57.6225 122.896 57.8727Z" fill="#263238"/>
<path d="M123.872 58.3081L125.734 58.8393L124.829 60.1705C124.461 59.576 124.141 58.9533 123.872 58.3081Z" fill="#263238"/>
<path d="M124.829 60.3303C124.802 60.3306 124.776 60.3237 124.753 60.3101C124.729 60.2966 124.71 60.277 124.698 60.2535C124.326 59.6493 124.005 59.0157 123.738 58.3591C123.728 58.3318 123.726 58.3023 123.732 58.274C123.738 58.2457 123.752 58.2197 123.773 58.1991C123.793 58.1774 123.818 58.1617 123.846 58.1538C123.875 58.1458 123.905 58.146 123.933 58.1543L125.795 58.6855C125.819 58.6928 125.841 58.7055 125.86 58.7227C125.878 58.7399 125.892 58.7611 125.901 58.7847C125.91 58.809 125.913 58.835 125.909 58.8607C125.906 58.8863 125.896 58.9107 125.882 58.9319L124.979 60.2599C124.963 60.284 124.94 60.3033 124.914 60.3157C124.887 60.328 124.858 60.3331 124.829 60.3303ZM124.141 58.5511C124.351 59.0031 124.584 59.4442 124.838 59.8727L125.478 58.9351L124.141 58.5511Z" fill="#263238"/>
<path d="M135.107 56.8807L136.64 95.4951L140.099 95.7415C140.099 95.7415 143.062 83.2615 143.939 79.0055C144.816 74.7495 145.114 72.0295 145.053 68.6311C144.992 65.2327 144.186 58.1959 144.186 58.1959C144.186 58.1959 142.397 55.1687 140.851 54.1191" fill="#FFA943"/>
<path d="M140.112 95.8858L136.64 95.6394C136.601 95.6363 136.564 95.6189 136.537 95.5906C136.51 95.5623 136.494 95.525 136.493 95.4858L134.947 56.8874C134.946 56.8452 134.962 56.8043 134.99 56.7732C135.019 56.7422 135.059 56.7235 135.101 56.721C135.122 56.7202 135.143 56.7235 135.163 56.7307C135.182 56.738 135.2 56.7491 135.216 56.7633C135.231 56.7776 135.244 56.7948 135.253 56.8139C135.261 56.833 135.266 56.8536 135.267 56.8746L136.806 95.3322L139.987 95.5562C140.307 94.2058 142.976 82.9354 143.782 78.9578C144.662 74.6282 144.95 71.9178 144.893 68.6186C144.832 65.3898 144.093 58.769 144.032 58.2314C143.843 57.9114 142.179 55.1978 140.762 54.2346C140.732 54.2089 140.713 54.1732 140.708 54.1344C140.703 54.0955 140.713 54.0562 140.735 54.0239C140.757 53.9915 140.79 53.9684 140.828 53.9589C140.866 53.9494 140.906 53.9541 140.941 53.9722C142.496 55.0282 144.25 57.9722 144.323 58.097C144.335 58.1164 144.343 58.1383 144.346 58.161C144.346 58.2314 145.149 65.249 145.213 68.6122C145.277 71.9754 144.979 74.6666 144.096 79.0218C143.242 83.2394 140.294 95.6394 140.256 95.7642C140.249 95.7976 140.231 95.8277 140.205 95.8497C140.179 95.8717 140.146 95.8844 140.112 95.8858Z" fill="#263238"/>
<path d="M142.131 64.2598H142.083C142.043 64.2466 142.01 64.218 141.99 64.1802C141.971 64.1424 141.968 64.0985 141.981 64.0582C142.301 63.0502 142.49 62.4006 142.49 62.4006C142.502 62.3603 142.53 62.3265 142.567 62.3062C142.604 62.286 142.647 62.2808 142.688 62.2918C142.708 62.2977 142.727 62.3075 142.743 62.3206C142.76 62.3338 142.773 62.35 142.784 62.3685C142.794 62.3869 142.8 62.4071 142.802 62.428C142.805 62.4489 142.803 62.47 142.797 62.4902C142.797 62.4902 142.605 63.1302 142.285 64.1542C142.273 64.1856 142.253 64.2127 142.225 64.2317C142.197 64.2506 142.165 64.2605 142.131 64.2598Z" fill="#263238"/>
<path d="M136.035 79.3992C136.014 79.4022 135.992 79.4022 135.971 79.3992C135.933 79.3816 135.902 79.3498 135.887 79.3104C135.871 79.271 135.872 79.2271 135.888 79.188C135.904 79.1528 137.389 75.684 139.088 71.8984C140.048 69.7896 140.976 67.0984 141.594 65.2264C141.6 65.2062 141.61 65.1874 141.624 65.1712C141.637 65.1551 141.654 65.1418 141.673 65.1322C141.691 65.1227 141.712 65.117 141.733 65.1156C141.754 65.1142 141.775 65.117 141.795 65.124C141.836 65.1371 141.869 65.1658 141.888 65.2036C141.907 65.2414 141.911 65.2853 141.898 65.3256C141.277 67.2104 140.339 69.908 139.379 72.0296C137.67 75.812 136.179 79.2776 136.179 79.3128C136.165 79.3389 136.145 79.3607 136.119 79.3759C136.094 79.3911 136.065 79.3992 136.035 79.3992Z" fill="#263238"/>
<path d="M139.862 74.8264C139.835 74.8271 139.807 74.8205 139.783 74.8071C139.759 74.7938 139.738 74.7743 139.724 74.7506C139.71 74.7268 139.702 74.6997 139.702 74.672C139.701 74.6443 139.708 74.6169 139.722 74.5928C139.825 74.3851 139.916 74.1713 139.994 73.9528C140.001 73.933 140.012 73.9149 140.026 73.8995C140.04 73.8841 140.057 73.8718 140.076 73.8631C140.096 73.8544 140.116 73.8497 140.137 73.8492C140.158 73.8486 140.179 73.8523 140.198 73.86C140.238 73.8744 140.271 73.9041 140.289 73.9425C140.307 73.9809 140.309 74.0249 140.294 74.0648C140.211 74.2959 140.115 74.5224 140.006 74.7432C139.993 74.7691 139.972 74.7907 139.946 74.8054C139.921 74.8201 139.892 74.8274 139.862 74.8264Z" fill="#263238"/>
<path d="M140.48 73.1273H140.435C140.415 73.1214 140.396 73.1115 140.379 73.0981C140.362 73.0848 140.348 73.0682 140.338 73.0494C140.328 73.0306 140.322 73.01 140.32 72.9887C140.318 72.9675 140.32 72.946 140.326 72.9257C141.034 70.5705 141.795 66.9577 141.805 66.9225C141.809 66.9019 141.817 66.8823 141.829 66.8649C141.841 66.8475 141.856 66.8325 141.873 66.821C141.891 66.8094 141.911 66.8013 141.931 66.7974C141.952 66.7934 141.973 66.7935 141.994 66.7977C142.035 66.8069 142.071 66.8317 142.094 66.8669C142.117 66.9021 142.126 66.945 142.118 66.9865C142.118 67.0249 141.344 70.6505 140.634 73.0185C140.623 73.0508 140.603 73.0789 140.575 73.0985C140.547 73.1181 140.514 73.1282 140.48 73.1273Z" fill="#263238"/>
<path d="M140.8 92.4297L136.64 92.2441C136.619 92.2433 136.598 92.2384 136.579 92.2295C136.56 92.2207 136.543 92.2082 136.529 92.1928C136.514 92.1773 136.503 92.1592 136.496 92.1395C136.489 92.1197 136.486 92.0988 136.486 92.0777C136.485 92.0562 136.489 92.0346 136.497 92.0146C136.505 91.9945 136.518 91.9766 136.534 91.9619C136.549 91.9472 136.568 91.9362 136.589 91.9297C136.61 91.9232 136.631 91.9213 136.653 91.9241L140.79 92.1097C140.833 92.1097 140.874 92.1266 140.904 92.1566C140.934 92.1866 140.95 92.2273 140.95 92.2697C140.95 92.3122 140.934 92.3529 140.904 92.3829C140.874 92.4129 140.833 92.4297 140.79 92.4297H140.8Z" fill="#263238"/>
<path d="M136.64 95.4951C136.64 95.4951 136.157 101.454 136.157 101.969C136.157 102.484 136.57 106.244 136.672 106.554C136.774 106.865 139.402 108.82 139.658 108.82C139.914 108.82 141.36 108.974 141.616 108.561C141.872 108.148 141.978 107.892 141.616 107.79C141.173 107.726 140.725 107.709 140.278 107.738L139.712 107.479C139.712 107.479 141.821 107.274 141.978 107.223C142.134 107.172 142.902 106.657 143.059 106.295C143.096 106.166 143.106 106.031 143.088 105.898C143.07 105.766 143.024 105.638 142.954 105.524C142.954 105.524 143.728 104.801 143.779 104.545C143.83 104.289 143.882 103.566 143.523 103.668C143.19 103.831 142.892 104.058 142.646 104.337H141.366C141.366 104.337 142.704 103.463 142.858 103.204C143.069 102.68 143.177 102.121 143.178 101.556C143.126 101.236 142.458 101.607 142.301 101.918C142.144 102.228 141.888 103.05 141.888 103.05L140.346 103.255L139.84 102.57C139.84 102.57 140.87 99.3703 140.87 98.7079C140.87 98.0455 140.125 95.7255 140.125 95.7255L136.64 95.4951Z" fill="white"/>
<path d="M140.48 108.99C140.285 108.99 140.077 108.99 139.869 108.971H139.683C139.334 108.971 136.666 106.948 136.547 106.593C136.429 106.238 136 102.471 136 101.953C136 101.435 136.464 95.7099 136.483 95.4667C136.487 95.4251 136.507 95.3867 136.539 95.3593C136.57 95.3319 136.611 95.3177 136.653 95.3195L140.112 95.5659C140.144 95.5687 140.174 95.5808 140.199 95.6007C140.224 95.6206 140.243 95.6475 140.253 95.6779C140.285 95.7739 141.008 98.0235 141.008 98.7083C141.008 99.3483 140.157 102.03 139.994 102.548L140.403 103.076L141.754 102.897C141.866 102.537 141.998 102.184 142.147 101.838C142.242 101.675 142.376 101.539 142.537 101.44C142.698 101.342 142.881 101.285 143.069 101.275C143.133 101.281 143.192 101.309 143.238 101.354C143.284 101.399 143.313 101.458 143.322 101.521C143.335 102.122 143.226 102.72 143.002 103.278C142.672 103.619 142.301 103.918 141.898 104.167H142.589C142.838 103.884 143.146 103.658 143.491 103.505C143.546 103.489 143.604 103.486 143.66 103.499C143.716 103.511 143.768 103.537 143.811 103.575C144.083 103.828 143.946 104.535 143.939 104.567C143.888 104.817 143.402 105.31 143.155 105.547C143.218 105.67 143.255 105.805 143.265 105.943C143.274 106.081 143.255 106.219 143.21 106.35C143.03 106.766 142.211 107.31 142.032 107.364C141.917 107.403 141.072 107.495 140.403 107.563C140.825 107.535 141.248 107.556 141.664 107.627C141.734 107.64 141.8 107.671 141.856 107.715C141.911 107.76 141.955 107.817 141.984 107.883C142.07 108.1 141.923 108.363 141.75 108.638C141.578 108.913 141.075 108.99 140.48 108.99ZM139.715 108.644H139.885C140.845 108.695 141.395 108.644 141.507 108.455C141.664 108.199 141.734 108.043 141.712 107.985C141.69 107.927 141.67 107.943 141.597 107.921C141.173 107.86 140.744 107.845 140.317 107.876C140.293 107.884 140.267 107.884 140.243 107.876L139.677 107.62C139.644 107.606 139.618 107.581 139.601 107.55C139.584 107.518 139.578 107.483 139.584 107.447C139.591 107.413 139.608 107.381 139.634 107.357C139.66 107.333 139.693 107.317 139.728 107.313C140.522 107.236 141.83 107.102 141.968 107.063C142.106 107.025 142.822 106.532 142.954 106.225C142.982 106.12 142.988 106.011 142.972 105.903C142.956 105.796 142.918 105.693 142.861 105.601C142.841 105.57 142.833 105.532 142.838 105.496C142.842 105.459 142.859 105.425 142.886 105.399C143.189 105.142 143.451 104.842 143.664 104.507C143.728 104.278 143.716 104.034 143.632 103.812C143.315 103.965 143.033 104.183 142.806 104.452C142.791 104.469 142.773 104.482 142.753 104.491C142.732 104.499 142.71 104.504 142.688 104.503H141.408C141.374 104.504 141.34 104.494 141.312 104.473C141.285 104.453 141.264 104.424 141.254 104.391C141.244 104.359 141.245 104.323 141.256 104.291C141.268 104.259 141.29 104.231 141.318 104.212C141.834 103.9 142.317 103.538 142.762 103.131C142.948 102.639 143.046 102.118 143.05 101.591C142.815 101.649 142.61 101.793 142.477 101.995C142.33 102.289 142.077 103.099 142.074 103.105C142.064 103.134 142.047 103.16 142.024 103.18C142.001 103.2 141.973 103.213 141.942 103.217L140.397 103.422C140.369 103.426 140.341 103.423 140.315 103.412C140.289 103.401 140.266 103.384 140.25 103.361L139.734 102.692C139.719 102.672 139.708 102.648 139.703 102.622C139.699 102.596 139.701 102.57 139.709 102.545C139.994 101.662 140.733 99.2587 140.733 98.7307C140.733 98.2027 140.17 96.3531 140.026 95.9019L136.826 95.6747C136.749 96.6347 136.355 101.521 136.355 101.975C136.355 102.51 136.771 106.238 136.861 106.51C137.002 106.785 139.373 108.587 139.715 108.667V108.644Z" fill="#263238"/>
<path d="M140.339 104.57C140.201 104.575 140.063 104.56 139.93 104.525C139.61 104.417 138.627 103.565 138.435 103.415C138.404 103.387 138.384 103.348 138.381 103.305C138.377 103.263 138.39 103.221 138.416 103.188C138.444 103.156 138.484 103.137 138.526 103.134C138.569 103.131 138.611 103.144 138.643 103.172C139.073 103.564 139.538 103.915 140.032 104.221C140.471 104.261 140.913 104.242 141.347 104.164C141.389 104.158 141.432 104.169 141.466 104.194C141.5 104.219 141.523 104.257 141.53 104.298C141.533 104.319 141.532 104.34 141.527 104.361C141.522 104.381 141.513 104.4 141.5 104.417C141.488 104.434 141.472 104.449 141.454 104.459C141.436 104.47 141.416 104.478 141.395 104.481C141.045 104.532 140.693 104.562 140.339 104.57Z" fill="#263238"/>
<path d="M140.083 106.132C139.584 106.132 138.064 104.81 137.763 104.532C137.748 104.518 137.736 104.5 137.727 104.481C137.719 104.462 137.715 104.441 137.715 104.42C137.715 104.399 137.719 104.378 137.727 104.359C137.736 104.34 137.748 104.322 137.763 104.308C137.777 104.292 137.793 104.279 137.812 104.269C137.831 104.26 137.851 104.254 137.872 104.253C137.893 104.251 137.914 104.254 137.933 104.261C137.953 104.268 137.972 104.278 137.987 104.292C138.826 105.031 139.843 105.799 140.096 105.799C140.451 105.799 142.118 105.495 142.95 105.335C142.992 105.328 143.036 105.337 143.071 105.361C143.106 105.385 143.131 105.422 143.139 105.463C143.147 105.505 143.138 105.548 143.114 105.584C143.09 105.619 143.053 105.644 143.011 105.652C142.899 105.684 140.557 106.132 140.083 106.132Z" fill="#263238"/>
<path d="M139.722 107.623C139.701 107.628 139.679 107.628 139.658 107.623C139.658 107.623 139.094 107.367 138.797 107.268C138.499 107.169 137.635 106.177 137.386 105.879C137.372 105.864 137.362 105.845 137.355 105.825C137.349 105.805 137.346 105.784 137.348 105.763C137.35 105.742 137.356 105.722 137.365 105.704C137.375 105.685 137.389 105.669 137.405 105.655C137.438 105.628 137.48 105.615 137.522 105.619C137.565 105.622 137.604 105.642 137.632 105.675C138.112 106.254 138.733 106.91 138.912 106.955C139.232 107.06 139.779 107.31 139.802 107.323C139.834 107.338 139.86 107.364 139.876 107.397C139.892 107.429 139.896 107.466 139.888 107.501C139.88 107.536 139.861 107.568 139.833 107.591C139.805 107.613 139.77 107.626 139.734 107.627L139.722 107.623Z" fill="#263238"/>
</svg>
