<svg width="185" height="156" viewBox="0 0 185 156" fill="none" xmlns="http://www.w3.org/2000/svg">
<g clip-path="url(#clip0_362_1994)">
<path d="M185 141.705H0V141.797H185V141.705Z" fill="#EBEBEB"/>
<path d="M166.463 147.658H154.209V147.751H166.463V147.658Z" fill="#EBEBEB"/>
<path d="M122.551 148.664H119.336V148.756H122.551V148.664Z" fill="#EBEBEB"/>
<path d="M153.839 144.224H146.738V144.316H153.839V144.224Z" fill="#EBEBEB"/>
<path d="M35.3904 144.845H19.4101V144.938H35.3904V144.845Z" fill="#EBEBEB"/>
<path d="M41.0294 144.845H38.6873V144.938H41.0294V144.845Z" fill="#EBEBEB"/>
<path d="M83.3054 146.407H48.6438V146.499H83.3054V146.407Z" fill="#EBEBEB"/>
<path d="M87.69 125.202H16.2467C15.687 125.201 15.1506 124.978 14.7552 124.582C14.3597 124.186 14.1377 123.649 14.1377 123.09V22.6606C14.1425 22.1041 14.3668 21.5721 14.7616 21.1799C15.1565 20.7878 15.6902 20.5674 16.2467 20.5664H87.69C88.2503 20.5664 88.7877 20.789 89.1839 21.1852C89.5801 21.5814 89.8027 22.1188 89.8027 22.6791V123.09C89.8027 123.65 89.5801 124.187 89.1839 124.584C88.7877 124.98 88.2503 125.202 87.69 125.202ZM16.2467 20.6404C15.7115 20.6414 15.1986 20.8547 14.8206 21.2334C14.4425 21.6122 14.2302 22.1255 14.2302 22.6606V123.09C14.2302 123.625 14.4425 124.138 14.8206 124.517C15.1986 124.896 15.7115 125.109 16.2467 125.11H87.69C88.2255 125.109 88.7387 124.896 89.1174 124.517C89.496 124.138 89.7092 123.625 89.7102 123.09V22.6606C89.7092 22.1251 89.496 21.6118 89.1174 21.2332C88.7387 20.8545 88.2255 20.6414 87.69 20.6404H16.2467Z" fill="#EBEBEB"/>
<path d="M167.725 125.202H96.2777C95.7177 125.201 95.1809 124.979 94.7849 124.583C94.3889 124.187 94.166 123.65 94.165 123.09V22.6606C94.1709 22.1038 94.3959 21.5717 94.7914 21.1797C95.1869 20.7877 95.7209 20.5673 96.2777 20.5664H167.725C168.281 20.5683 168.813 20.7892 169.207 21.1812C169.601 21.5733 169.825 22.1048 169.83 22.6606V123.09C169.83 123.649 169.608 124.185 169.214 124.581C168.819 124.977 168.284 125.2 167.725 125.202ZM96.2777 20.6404C95.7422 20.6414 95.229 20.8545 94.8503 21.2332C94.4717 21.6118 94.2585 22.1251 94.2575 22.6606V123.09C94.2585 123.625 94.4717 124.138 94.8503 124.517C95.229 124.896 95.7422 125.109 96.2777 125.11H167.725C168.26 125.109 168.774 124.896 169.152 124.517C169.531 124.138 169.744 123.625 169.745 123.09V22.6606C169.744 22.1251 169.531 21.6118 169.152 21.2332C168.774 20.8545 168.26 20.6414 167.725 20.6404H96.2777Z" fill="#EBEBEB"/>
<path d="M133.792 93.1457H137.011C136.989 90.9257 137.011 85.2683 137.237 72.3147C137.64 48.8381 138.38 47.4062 138.38 47.4062L134.558 58.9947C133.653 61.7194 133.125 64.5553 132.989 67.4232C132.582 76.4586 134.162 83.67 133.792 93.1457Z" fill="#E6E6E6"/>
<path d="M131.35 55.5016C127.062 49.0081 118.496 45.6189 109.742 42.4295C106.305 41.1752 115.951 56.7152 122.962 63.7563C128.412 69.2286 133.692 69.1065 135.261 74.5159C135.564 68.237 135.05 61.096 131.35 55.5016Z" fill="#E6E6E6"/>
<path d="M136.264 51.3323C139.627 43.7399 148.126 33.8905 157.675 26.953C161.427 24.2298 152.174 47.6101 145.647 57.1931C140.567 64.6523 135.827 69.1922 135.087 74.5165C131.883 67.8565 132.904 58.9247 136.264 51.3323Z" fill="#E6E6E6"/>
<path d="M135.945 100.168C134.128 100.167 132.379 99.4716 131.057 98.2239C129.735 96.9763 128.94 95.2706 128.834 93.4559L128.205 87.0142H143.686L143.057 93.4559C142.953 95.2712 142.158 96.9779 140.836 98.226C139.514 99.474 137.764 100.169 135.945 100.168Z" fill="#F0F0F0"/>
<path d="M144.688 87.0515H127.202L126.703 84.7612H145.188L144.688 87.0515Z" fill="#F0F0F0"/>
<path d="M143.826 90.9736H128.064L127.613 88.687H144.278L143.826 90.9736Z" fill="#F0F0F0"/>
<path d="M28.3937 83.7183L110.663 83.7183V31.2153L28.3937 31.2153V83.7183Z" fill="#E6E6E6"/>
<path d="M26.381 83.7183L109.724 83.7183V31.2153L26.381 31.2153V83.7183Z" fill="#F0F0F0"/>
<path d="M28.3937 87.4595L110.663 87.4595V83.7188L28.3937 83.7188V87.4595Z" fill="#E6E6E6"/>
<path d="M24.8973 83.7184H104.499C104.744 83.7159 104.986 83.762 105.213 83.8538C105.439 83.9457 105.645 84.0816 105.819 84.2536C105.993 84.4257 106.131 84.6304 106.225 84.8561C106.319 85.0818 106.368 85.3238 106.368 85.5684C106.368 85.814 106.32 86.0574 106.226 86.2845C106.133 86.5117 105.995 86.7181 105.822 86.892C105.648 87.0659 105.442 87.2038 105.215 87.298C104.988 87.3921 104.745 87.4406 104.499 87.4406H24.8973C24.4008 87.4406 23.9246 87.2433 23.5735 86.8922C23.2224 86.5411 23.0251 86.0649 23.0251 85.5684C23.031 85.0757 23.2308 84.6052 23.5813 84.2588C23.9317 83.9125 24.4046 83.7183 24.8973 83.7184Z" fill="#F0F0F0"/>
<path d="M106.908 80.8979V34.0337L29.204 34.0337V80.8979H106.908Z" fill="#FAFAFA"/>
<path d="M101.513 80.8979L84.9705 34.0337H77.1598L93.7025 80.8979H101.513Z" fill="white"/>
<path d="M105.602 64.9996C105.548 64.9996 105.496 64.9782 105.458 64.94C105.42 64.9019 105.398 64.8501 105.398 64.7961V35.8695C105.394 35.8408 105.397 35.8115 105.405 35.7837C105.413 35.7559 105.427 35.7302 105.447 35.7083C105.466 35.6864 105.489 35.6689 105.516 35.6569C105.542 35.6449 105.571 35.6387 105.6 35.6387C105.629 35.6387 105.658 35.6449 105.684 35.6569C105.71 35.6689 105.734 35.6864 105.753 35.7083C105.772 35.7302 105.786 35.7559 105.795 35.7837C105.803 35.8115 105.805 35.8408 105.801 35.8695V64.7961C105.801 64.8495 105.781 64.9007 105.743 64.9388C105.706 64.9768 105.655 64.9987 105.602 64.9996Z" fill="#F0F0F0"/>
<path d="M92.0263 80.8979L75.4836 34.0337H72.4385L88.9812 80.8979H92.0263Z" fill="white"/>
<path d="M75.2802 80.8979L58.7375 34.0337H50.9305L67.4695 80.8979H75.2802Z" fill="white"/>
<path d="M54.5232 80.8979L37.9805 34.0337H34.9354L51.4781 80.8979H54.5232Z" fill="white"/>
<path d="M29.5555 80.8979L29.5555 34.0337H29.1966L29.1966 80.8979H29.5555Z" fill="#E6E6E6"/>
<path opacity="0.4" d="M25.715 38.7004H107.985L108.244 35.1299H25.974L25.715 38.7004Z" fill="#E6E6E6"/>
<path opacity="0.4" d="M25.715 41.3159H107.985L108.244 37.7417H25.974L25.715 41.3159Z" fill="#E6E6E6"/>
<path opacity="0.4" d="M25.715 44.4504H107.985L108.244 40.8799H25.974L25.715 44.4504Z" fill="#E6E6E6"/>
<path opacity="0.4" d="M25.715 47.9387H107.985L108.244 44.3682H25.974L25.715 47.9387Z" fill="#E6E6E6"/>
<path opacity="0.4" d="M25.715 52.1235H107.985L108.244 48.5493H25.974L25.715 52.1235Z" fill="#E6E6E6"/>
<path opacity="0.4" d="M25.715 56.8264H107.985L108.244 53.2559H25.974L25.715 56.8264Z" fill="#E6E6E6"/>
<path d="M33.8982 141.553C40.7458 140.478 45.4256 134.056 44.3508 127.208C43.2761 120.361 36.8538 115.681 30.0062 116.756C23.1586 117.83 18.4788 124.253 19.5536 131.1C20.6283 137.948 27.0506 142.628 33.8982 141.553Z" fill="#F5F5F5"/>
<g style="mix-blend-mode:multiply" opacity="0.7">
<path d="M31.2502 119.496C30.1735 119.452 29.3225 118.989 29.3447 118.46C29.3669 117.931 30.2549 117.546 31.3316 117.591C32.4083 117.635 33.2593 118.101 33.2371 118.627C33.2149 119.152 32.3269 119.541 31.2502 119.496Z" fill="#E6E6E6"/>
</g>
<g style="mix-blend-mode:multiply" opacity="0.7">
<path d="M25.8519 121.392C24.9491 121.973 23.9834 122.084 23.6985 121.644C23.4136 121.203 23.9168 120.367 24.8085 119.794C25.7002 119.22 26.6585 119.098 26.9619 119.542C27.2653 119.986 26.7584 120.807 25.8519 121.392Z" fill="#E6E6E6"/>
</g>
<g style="mix-blend-mode:multiply" opacity="0.7">
<path d="M29.6519 123.822C28.6677 124.266 27.6539 124.137 27.3838 123.534C27.1137 122.931 27.6872 122.083 28.6677 121.643C29.6482 121.203 30.662 121.329 30.9358 121.932C31.2096 122.535 30.6324 123.378 29.6519 123.822Z" fill="#E6E6E6"/>
</g>
<path d="M47.4821 141.705H63.0702L63.0702 100.168H47.4821L47.4821 141.705Z" fill="#E6E6E6"/>
<path d="M50.4421 141.704H47.4784V130.727H53.5464L50.4421 141.704Z" fill="#F0F0F0"/>
<path d="M136.423 141.705H152.011V100.168H136.423V141.705Z" fill="#E6E6E6"/>
<path d="M47.4821 138.708H139.009V100.168L47.4821 100.168V138.708Z" fill="#F0F0F0"/>
<path d="M136.045 141.704H139.005V130.727H132.941L136.045 141.704Z" fill="#F0F0F0"/>
<path d="M136.249 134.068H108.543V104.416H136.249V134.068ZM109.117 133.494H135.675V105.004H109.117V133.494Z" fill="#E6E6E6"/>
<path d="M107.097 134.068H79.3909V104.416H107.097V134.068ZM79.9644 133.494H106.523V105.004H79.9644V133.494Z" fill="#E6E6E6"/>
<path d="M77.9405 134.068H50.235V104.416H77.9405V134.068ZM50.8085 133.494H77.3671V105.004H50.8085V133.494Z" fill="#E6E6E6"/>
<path d="M92.5 158.414C132.12 158.414 164.239 156.539 164.239 154.226C164.239 151.912 132.12 150.037 92.5 150.037C52.8794 150.037 20.7607 151.912 20.7607 154.226C20.7607 156.539 52.8794 158.414 92.5 158.414Z" fill="#F5F5F5"/>
<path d="M95.5673 42.9328C90.0173 40.7979 84.3896 46.137 84.8373 56.0493C85.174 63.4493 78.0959 62.6427 81.7959 69.2324C85.4959 75.8221 82.7542 80.2806 78.8359 79.0818C81.7959 82.8114 90.539 79.9328 90.5649 73.85C90.5908 67.7672 105.557 76.6435 105.557 76.6435C105.557 76.6435 102.52 81.9863 111 80.7468C119.48 79.5073 126.84 62.454 126.869 54.8801C126.892 49.8592 121.527 47.5393 118.814 48.0314C118.715 41.6193 92.9773 29.6979 95.5673 42.9328Z" fill="#263238"/>
<path d="M80.6933 78.7859C79.9146 78.7865 79.1454 78.616 78.44 78.2864L78.6065 77.9571C78.6065 77.9571 80.3085 78.8081 81.9365 78.2198C82.9207 77.8498 83.6866 77.0506 84.2157 75.8037L84.5561 75.948C83.9863 77.2948 83.1464 78.168 82.0586 78.5676C81.6197 78.7193 81.1576 78.7932 80.6933 78.7859Z" fill="#263238"/>
<path d="M82.2843 64.3817L81.9957 64.1523C84.0418 61.603 83.8198 59.2794 83.5608 56.5895C83.3277 54.1401 83.0613 51.3614 84.5598 47.9722C86.2433 44.1686 88.5188 41.9079 91.1421 41.4343C93.3325 41.0347 95.6561 41.9597 97.6874 44.0243L97.4247 44.2833C95.4822 42.3001 93.2733 41.4121 91.2087 41.7858C88.7112 42.2372 86.5282 44.4276 84.9187 48.1128C83.4387 51.4132 83.7199 54.1364 83.9493 56.5414C84.1824 59.2091 84.4229 61.7177 82.2843 64.3817Z" fill="#263238"/>
<path d="M51.9073 105.137L50.5346 100.904C50.1719 99.7838 49.4952 98.7911 48.5847 98.0442L46.9937 96.7343C46.4623 96.4825 45.8667 96.3985 45.2863 96.4937C44.7059 96.5889 44.1683 96.8587 43.7451 97.2672L41.2328 99.6796C40.7062 100.185 40.3894 100.871 40.3455 101.6C40.3016 102.329 40.5339 103.047 40.996 103.613L42.0727 104.926C42.0727 104.926 45.3139 109.943 49.4505 111.534L50.2793 110.62C50.9428 109.886 51.4333 109.012 51.7151 108.063C51.9968 107.114 52.0625 106.115 51.9073 105.137Z" fill="#E5B4AA"/>
<path d="M90.354 102.222L90.1468 102.832L89.9581 103.373L89.5881 104.427C89.3328 105.126 89.0553 105.803 88.7815 106.481C88.2302 107.838 87.6308 109.163 87.0092 110.48C86.3876 111.797 85.729 113.096 85.0371 114.384C84.3452 115.671 83.6385 116.944 82.8652 118.195C81.3356 120.725 79.6565 123.161 77.8369 125.491C75.9827 127.882 73.9412 130.121 71.7319 132.188C71.4507 132.447 71.1732 132.71 70.8846 132.965L70.0077 133.724L69.7894 133.912L69.6784 134.009L69.4083 134.234C68.9108 134.635 68.3666 134.974 67.7877 135.244C67.1412 135.545 66.4544 135.749 65.749 135.851C65.0844 135.948 64.4099 135.954 63.7436 135.87C62.7451 135.741 61.7783 135.431 60.8909 134.956C60.2847 134.63 59.7131 134.243 59.1852 133.801C58.4042 133.15 57.6892 132.424 57.0503 131.633C56.0295 130.367 55.1114 129.02 54.3049 127.608C53.5464 126.287 52.8767 124.977 52.244 123.671C51.0008 121.047 49.9278 118.428 48.9695 115.779C48.0112 113.129 47.1528 110.484 46.4313 107.713C46.2567 106.988 46.3452 106.225 46.681 105.56C47.0167 104.894 47.5779 104.369 48.2645 104.079C48.951 103.789 49.7183 103.752 50.4296 103.975C51.1408 104.198 51.7497 104.666 52.1478 105.297L52.1848 105.359C54.9561 109.933 57.7015 114.639 60.6208 118.894C61.3423 119.96 62.0823 120.992 62.8408 121.943C63.5116 122.83 64.2462 123.667 65.0386 124.448C65.2886 124.697 65.5697 124.914 65.8748 125.092C65.9562 125.132 65.9895 125.092 65.8748 125.043C65.5964 124.879 65.286 124.777 64.9646 124.744C64.638 124.699 64.307 124.699 63.9804 124.744C63.6127 124.794 63.2539 124.896 62.9148 125.047C62.6436 125.168 62.3878 125.321 62.1526 125.502L62.086 125.558L62.0564 125.58L62.0749 125.561L62.1526 125.48L62.3117 125.321L62.937 124.685L63.5438 124.026C65.1798 122.21 66.6951 120.29 68.08 118.276C69.4749 116.223 70.818 114.103 72.039 111.883C73.26 109.663 74.4181 107.398 75.4985 105.089C76.0387 103.931 76.5493 102.766 77.0488 101.6L77.7888 99.8539L78.1329 98.9918L78.4289 98.2185L78.5251 97.9669C79.0894 96.3968 80.2542 95.1152 81.7634 94.404C83.2726 93.6927 85.0025 93.6101 86.5726 94.1744C88.1427 94.7386 89.4243 95.9035 90.1355 97.4127C90.8468 98.9219 90.9293 100.652 90.3651 102.222H90.354Z" fill="#E5B4AA"/>
<path d="M76.9045 103.739C77.0636 107.387 71.3064 115.819 78.4141 120.707C79.2503 128.073 80.2974 135.325 82.2621 147.406H119.351C117.827 136.957 118.16 125.051 123.051 101.526C123.32 100.239 123.316 98.9105 123.038 97.6258C122.76 96.341 122.215 95.1291 121.438 94.0687C120.661 93.0083 119.67 92.1231 118.529 91.4707C117.388 90.8182 116.123 90.4131 114.815 90.2817C113.335 90.1337 111.766 90.0079 110.16 89.9117C103.922 89.612 98.8048 89.4122 93.3177 89.9117C91.501 90.0782 89.6177 90.3076 87.8269 90.5592C84.694 91.0057 81.8397 92.6029 79.8204 95.0394C77.8011 97.476 76.7616 100.577 76.9045 103.739Z" fill="#263238"/>
<mask id="mask0_362_1994" style="mask-type:luminance" maskUnits="userSpaceOnUse" x="74" y="89" width="50" height="59">
<path d="M76.9045 103.739C77.0636 107.387 71.3064 115.819 78.4141 120.707C79.2503 128.073 80.2974 135.325 82.2621 147.406H119.351C117.827 136.957 118.16 125.051 123.051 101.526C123.32 100.239 123.316 98.9105 123.038 97.6258C122.76 96.341 122.215 95.1291 121.438 94.0687C120.661 93.0083 119.67 92.1231 118.529 91.4707C117.388 90.8182 116.123 90.4131 114.815 90.2817C113.335 90.1337 111.766 90.0079 110.16 89.9117C103.922 89.612 98.8048 89.4122 93.3177 89.9117C91.501 90.0782 89.6177 90.3076 87.8269 90.5592C84.694 91.0057 81.8397 92.6029 79.8204 95.0394C77.8011 97.476 76.7616 100.577 76.9045 103.739Z" fill="white"/>
</mask>
<g mask="url(#mask0_362_1994)">
<path opacity="0.2" d="M76.7788 98.8319C78.4993 100.63 81.0634 101.307 82.3288 100.748C83.5942 100.19 82.0624 99.6052 80.6971 99.5349C79.3318 99.4646 81.4926 98.9466 83.7977 99.1982C86.1028 99.4498 85.903 97.8218 83.4277 97.3963C80.9524 96.9708 83.4647 96.7784 85.5182 96.9264C87.5717 97.0744 87.8011 95.6055 85.3221 95.0764C82.8431 94.5473 89.8842 94.921 87.5421 92.4864C85.2 90.0518 83.979 95.7535 83.9679 93.6704C83.9568 91.5873 82.1549 91.406 81.8256 93.0673C81.4963 94.7286 80.6527 96.6563 80.7526 94.5991C80.8525 92.5419 78.9655 91.9906 78.6991 93.8591C78.4327 95.7276 77.2857 97.3223 77.5373 96.2234C77.7889 95.1245 77.4707 93.7814 76.4939 94.6398C75.5171 95.4982 75.062 97.0337 76.7788 98.8319Z" fill="white"/>
<path opacity="0.2" d="M96.3962 101.1C94.6572 99.3205 92.0857 98.6693 90.8462 99.2502C89.6067 99.8311 91.12 100.386 92.489 100.445C93.858 100.505 91.6972 101.041 89.3921 100.815C87.087 100.59 87.2979 102.214 89.7621 102.61C92.2263 103.006 89.7325 103.231 87.6753 103.106C85.6181 102.98 85.4072 104.449 87.8899 104.956C90.3726 105.463 83.3315 105.159 85.6958 107.583C88.0601 110.006 89.2256 104.275 89.2552 106.358C89.2848 108.441 91.1052 108.604 91.4049 106.939C91.7046 105.274 92.5408 103.339 92.4631 105.396C92.3854 107.453 94.2798 107.986 94.524 106.103C94.7682 104.219 95.9004 102.625 95.6636 103.724C95.4268 104.822 95.7524 106.169 96.7218 105.3C97.6912 104.43 98.1315 102.88 96.3962 101.1Z" fill="white"/>
<path opacity="0.2" d="M71.7061 110.506C73.4266 112.304 75.9944 112.985 77.2561 112.422C78.5178 111.86 76.9934 111.283 75.6244 111.212C74.2554 111.142 76.4199 110.624 78.725 110.876C81.0301 111.127 80.834 109.496 78.355 109.074C75.876 108.652 78.3883 108.452 80.4455 108.6C82.5027 108.748 82.7247 107.279 80.2494 106.75C77.7741 106.221 84.8078 106.599 82.4694 104.16C80.131 101.722 78.9063 107.431 78.8952 105.348C78.8841 103.265 77.0822 103.084 76.7529 104.741C76.4236 106.399 75.58 108.33 75.6799 106.277C75.7798 104.223 73.8928 103.664 73.6264 105.537C73.36 107.409 72.213 108.996 72.4646 107.901C72.7162 106.806 72.398 105.455 71.4212 106.317C70.4444 107.179 69.9893 108.711 71.7061 110.506Z" fill="white"/>
<path opacity="0.2" d="M91.3235 112.774C89.5845 110.994 87.013 110.343 85.7735 110.924C84.534 111.504 86.051 112.063 87.4163 112.119C88.7816 112.174 86.6282 112.714 84.3194 112.489C82.0106 112.263 82.2289 113.887 84.6894 114.287C87.1499 114.686 84.6598 114.905 82.6026 114.779C80.5454 114.653 80.3382 116.126 82.8172 116.629C85.2962 117.132 78.2588 116.829 80.6268 119.252C82.9948 121.676 84.1529 115.948 84.1862 118.028C84.2195 120.107 86.0362 120.273 86.3359 118.612C86.6356 116.951 87.4718 115.008 87.3904 117.066C87.309 119.123 89.2071 119.656 89.455 117.772C89.7029 115.889 90.8277 114.298 90.5909 115.397C90.3541 116.496 90.6797 117.839 91.6491 116.969C92.6185 116.1 93.0625 114.546 91.3235 112.774Z" fill="white"/>
<path opacity="0.2" d="M102.516 102.203C104.233 104.002 106.801 104.679 108.066 104.12C109.331 103.561 107.803 102.977 106.438 102.906C105.073 102.836 107.234 102.318 109.535 102.57C111.836 102.821 111.644 101.193 109.165 100.768C106.686 100.342 109.198 100.15 111.255 100.298C113.313 100.446 113.535 98.9771 111.059 98.448C108.584 97.9189 115.621 98.2926 113.279 95.858C110.937 93.4234 109.72 99.1251 109.709 97.042C109.698 94.9589 107.892 94.7776 107.567 96.4389C107.241 98.1002 106.39 100.028 106.49 97.9707C106.59 95.9135 104.703 95.3622 104.436 97.2307C104.17 99.0992 103.023 100.694 103.275 99.595C103.526 98.4961 103.212 97.153 102.231 98.0114C101.251 98.8698 100.796 100.405 102.516 102.203Z" fill="white"/>
<path opacity="0.2" d="M122.13 104.471C120.394 102.691 117.819 102.04 116.561 102.621C115.303 103.202 116.839 103.757 118.204 103.816C119.569 103.875 117.416 104.412 115.107 104.186C112.798 103.96 113.017 105.585 115.477 105.984C117.938 106.384 115.447 106.602 113.394 106.476C111.34 106.35 111.126 107.819 113.609 108.326C116.091 108.833 109.05 108.526 111.414 110.95C113.779 113.373 114.941 107.642 114.974 109.725C115.007 111.808 116.824 111.971 117.124 110.306C117.423 108.641 118.259 106.706 118.182 108.763C118.104 110.82 119.995 111.353 120.243 109.47C120.491 107.586 121.619 105.995 121.379 107.094C121.138 108.193 121.471 109.536 122.437 108.667C123.402 107.797 123.869 106.251 122.13 104.471Z" fill="white"/>
<path opacity="0.2" d="M97.4433 113.88C99.1638 115.675 101.728 116.355 102.993 115.793C104.259 115.231 102.727 114.653 101.362 114.583C99.9963 114.513 102.157 113.995 104.462 114.246C106.767 114.498 106.567 112.87 104.092 112.444C101.617 112.019 104.129 111.823 106.183 111.971C108.236 112.119 108.466 110.654 105.987 110.121C103.508 109.588 110.549 109.969 108.207 107.531C105.864 105.093 104.643 110.802 104.632 108.719C104.621 106.635 102.819 106.454 102.49 108.112C102.161 109.769 101.317 111.701 101.417 109.647C101.517 107.594 99.63 107.035 99.3599 108.907C99.0898 110.779 97.9502 112.367 98.1981 111.272C98.446 110.176 98.1352 108.826 97.1584 109.688C96.1816 110.55 95.7265 112.082 97.4433 113.88Z" fill="white"/>
<path opacity="0.2" d="M85.9733 125.335C84.2343 123.555 81.6628 122.904 80.4048 123.485C79.1468 124.066 80.6823 124.621 82.0476 124.68C83.4129 124.739 81.2595 125.276 78.9507 125.05C76.6419 124.825 76.8602 126.449 79.3207 126.845C81.7812 127.241 79.2911 127.466 77.2339 127.34C75.1767 127.215 74.9695 128.684 77.4485 129.19C79.9275 129.697 72.8901 129.394 75.2581 131.818C77.6261 134.241 78.7842 128.51 78.8175 130.593C78.8508 132.676 80.6675 132.839 80.9635 131.174C81.2595 129.509 82.1031 127.574 82.0217 129.631C81.9403 131.688 83.8384 132.221 84.0863 130.338C84.3342 128.454 85.459 126.86 85.2222 127.958C84.9854 129.057 85.311 130.404 86.2804 129.535C87.2498 128.665 87.7123 127.126 85.9733 125.335Z" fill="white"/>
<path opacity="0.2" d="M80.9006 137.008C79.1653 135.229 76.5901 134.578 75.3321 135.158C74.0741 135.739 75.6096 136.298 76.9749 136.354C78.3402 136.409 76.1868 136.949 73.8817 136.724C71.5766 136.498 71.7875 138.122 74.2517 138.522C76.7159 138.921 74.2258 139.14 72.1686 139.014C70.1114 138.888 69.9005 140.361 72.3832 140.864C74.8659 141.367 67.8248 141.064 70.1891 143.487C72.5534 145.911 73.7152 140.183 73.7485 142.262C73.7818 144.342 75.5985 144.508 75.8982 142.847C76.1979 141.186 77.0341 139.243 76.9564 141.3C76.8787 143.358 78.7694 143.89 79.0173 142.007C79.2652 140.124 80.3937 138.533 80.1532 139.632C79.9127 140.731 80.2457 142.074 81.2151 141.204C82.1845 140.335 82.6396 138.788 80.9006 137.008Z" fill="white"/>
<path opacity="0.2" d="M92.0931 126.438C93.8099 128.236 96.3777 128.913 97.6431 128.354C98.9085 127.796 97.3767 127.211 96.0114 127.141C94.6461 127.071 96.8069 126.553 99.112 126.804C101.417 127.056 101.217 125.428 98.742 125.002C96.2667 124.577 98.779 124.384 100.832 124.532C102.886 124.68 103.115 123.211 100.636 122.682C98.1574 122.153 105.198 122.527 102.856 120.092C100.514 117.658 99.2933 123.359 99.2822 121.276C99.2711 119.193 97.4692 119.012 97.1399 120.673C96.8106 122.335 95.9633 124.262 96.0669 122.205C96.1705 120.148 94.2798 119.597 94.0097 121.465C93.7396 123.334 92.6 124.928 92.8479 123.829C93.0958 122.73 92.785 121.387 91.8082 122.246C90.8314 123.104 90.3726 124.64 92.0931 126.438Z" fill="white"/>
<path opacity="0.2" d="M87.0204 138.115C88.7409 139.91 91.305 140.591 92.5704 140.028C93.8358 139.466 92.3077 138.889 90.9387 138.818C89.5697 138.748 91.7342 138.23 94.0393 138.482C96.3444 138.733 96.1446 137.105 93.6693 136.68C91.194 136.254 93.7026 136.058 95.7598 136.206C97.817 136.354 98.039 134.889 95.5637 134.356C93.0884 133.823 100.122 134.205 97.7837 131.766C95.4453 129.328 94.2206 135.037 94.2095 132.954C94.1984 130.871 92.3965 130.69 92.0672 132.347C91.7379 134.005 90.8943 135.936 90.9942 133.883C91.0941 131.829 89.2071 131.27 88.9407 133.143C88.6743 135.015 87.5273 136.602 87.7789 135.507C88.0305 134.412 87.7123 133.061 86.7355 133.923C85.7587 134.785 85.3036 136.317 87.0204 138.115Z" fill="white"/>
<path opacity="0.2" d="M111.77 129.158C110.034 127.378 107.459 126.727 106.201 127.308C104.943 127.889 106.479 128.447 107.844 128.503C109.209 128.558 107.056 129.099 104.747 128.873C102.438 128.647 102.657 130.272 105.117 130.671C107.578 131.071 105.091 131.289 103.034 131.163C100.977 131.037 100.766 132.506 103.249 133.013C105.731 133.52 98.6902 133.213 101.055 135.637C103.419 138.06 104.581 132.329 104.614 134.412C104.647 136.495 106.464 136.658 106.764 134.996C107.063 133.335 107.9 131.393 107.822 133.45C107.744 135.507 109.635 136.04 109.883 134.157C110.131 132.273 111.259 130.682 111.019 131.781C110.778 132.88 111.111 134.223 112.081 133.354C113.05 132.484 113.509 130.938 111.77 129.158Z" fill="white"/>
<path opacity="0.2" d="M106.701 140.835C104.962 139.055 102.39 138.404 101.132 138.985C99.8742 139.566 101.406 140.121 102.775 140.18C104.144 140.239 101.983 140.776 99.6781 140.55C97.373 140.325 97.5876 141.949 100.048 142.345C102.509 142.741 100.018 142.966 97.9613 142.841C95.9041 142.715 95.6932 144.184 98.1759 144.691C100.659 145.197 93.6175 144.894 95.9818 147.314C98.3461 149.734 99.5116 144.01 99.5449 146.093C99.5782 148.176 101.395 148.339 101.691 146.674C101.987 145.009 102.827 143.074 102.749 145.127C102.671 147.181 104.566 147.717 104.81 145.838C105.054 143.958 106.186 142.36 105.95 143.458C105.713 144.557 106.038 145.904 107.008 145.035C107.977 144.165 108.436 142.611 106.701 140.835Z" fill="white"/>
<path opacity="0.2" d="M117.889 130.26C119.61 132.059 122.174 132.739 123.439 132.177C124.705 131.615 123.177 131.037 121.808 130.967C120.439 130.897 122.603 130.379 124.908 130.627C127.213 130.875 127.014 129.25 124.538 128.829C122.063 128.407 124.572 128.207 126.629 128.355C128.686 128.503 128.908 127.034 126.433 126.505C123.957 125.976 130.991 126.353 128.653 123.915C126.314 121.477 125.09 127.182 125.079 125.103C125.067 123.023 123.266 122.838 122.936 124.496C122.607 126.153 121.763 128.085 121.863 126.031C121.963 123.978 120.076 123.419 119.81 125.291C119.543 127.164 118.396 128.751 118.648 127.656C118.9 126.56 118.581 125.21 117.605 126.072C116.628 126.934 116.18 128.462 117.889 130.26Z" fill="white"/>
<path opacity="0.2" d="M80.8303 149.837C82.5471 151.635 85.1149 152.312 86.3803 151.75C87.6457 151.187 86.1176 150.61 84.7523 150.54C83.387 150.469 85.5478 149.951 87.8529 150.203C90.158 150.455 89.9582 148.827 87.4829 148.401C85.0076 147.976 87.5162 147.783 89.5734 147.931C91.6306 148.079 91.8526 146.61 89.3773 146.081C86.902 145.552 93.9394 145.929 91.5973 143.491C89.2552 141.053 88.0379 146.758 88.0268 144.675C88.0157 142.592 86.2101 142.411 85.8845 144.068C85.5589 145.726 84.7079 147.661 84.8078 145.604C84.9077 143.547 83.0207 142.995 82.7543 144.864C82.4879 146.732 81.3409 148.323 81.5925 147.228C81.8441 146.133 81.5296 144.786 80.5491 145.645C79.5686 146.503 79.1098 148.038 80.8303 149.837Z" fill="white"/>
<path opacity="0.2" d="M112.82 141.926C114.537 143.724 117.105 144.401 118.37 143.843C119.636 143.284 118.108 142.699 116.742 142.629C115.377 142.559 117.538 142.041 119.843 142.292C122.148 142.544 121.948 140.916 119.473 140.491C116.998 140.065 119.506 139.873 121.564 140.021C123.621 140.169 123.843 138.7 121.367 138.171C118.892 137.642 125.93 138.015 123.587 135.581C121.245 133.146 120.028 138.848 120.017 136.765C120.006 134.682 118.2 134.5 117.875 136.162C117.549 137.823 116.698 139.751 116.798 137.693C116.898 135.636 115.011 135.103 114.744 136.953C114.478 138.803 113.331 140.446 113.59 139.336C113.849 138.226 113.527 136.894 112.547 137.753C111.566 138.611 111.1 140.139 112.82 141.926Z" fill="white"/>
<path opacity="0.2" d="M117.061 116.144C115.322 114.364 112.75 113.713 111.492 114.294C110.234 114.875 111.766 115.43 113.135 115.486C114.504 115.541 112.343 116.081 110.038 115.856C107.733 115.63 107.944 117.254 110.408 117.654C112.872 118.053 110.382 118.275 108.325 118.146C106.268 118.016 106.057 119.493 108.54 119.996C111.022 120.499 103.981 120.196 106.345 122.619C108.71 125.043 109.875 119.315 109.905 121.394C109.934 123.474 111.755 123.64 112.055 121.979C112.354 120.318 113.19 118.379 113.113 120.432C113.035 122.486 114.926 123.022 115.174 121.143C115.422 119.263 116.55 117.665 116.313 118.764C116.076 119.863 116.402 121.209 117.371 120.336C118.341 119.463 118.796 117.924 117.061 116.144Z" fill="white"/>
<path opacity="0.2" d="M118.108 84.8537C116.369 83.074 113.797 82.4228 112.558 83.0037C111.318 83.5846 112.832 84.1396 114.201 84.1988C115.57 84.258 113.413 84.7945 111.104 84.5688C108.795 84.3431 109.013 85.9674 111.474 86.367C113.934 86.7666 111.444 86.9849 109.387 86.8591C107.33 86.7333 107.123 88.2022 109.602 88.7091C112.081 89.216 105.043 88.9089 107.411 91.3324C109.779 93.7559 110.937 88.0246 110.971 90.1077C111.004 92.1908 112.821 92.3536 113.117 90.6886C113.413 89.0236 114.256 87.0885 114.175 89.1457C114.093 91.2029 115.991 91.7357 116.239 89.8524C116.487 87.9691 117.612 86.3781 117.375 87.477C117.138 88.5759 117.464 89.919 118.433 89.0495C119.403 88.18 119.843 86.6334 118.108 84.8537Z" fill="white"/>
</g>
<path opacity="0.2" d="M114.596 99.7017C113.934 105.181 116.269 114.968 119.492 122.29C120.054 117.713 120.894 112.526 122.059 106.517L114.596 99.7017Z" fill="black"/>
<path d="M111.888 90.0445C111.326 90.0075 110.752 89.9742 110.175 89.9446C103.937 89.6412 98.8196 89.4451 93.3325 89.9446L91.8969 90.0889C90.6488 92.0728 89.956 94.3554 89.8909 96.6983C89.8258 99.0413 90.3908 101.359 91.5269 103.409L92.2669 104.793L93.3214 103.627C100.862 95.3059 110.308 90.8659 110.404 90.8104L111.884 90.0445H111.888Z" fill="white"/>
<path d="M108.506 70.9829C107.444 76.3997 106.386 86.3305 110.175 89.9454C110.175 89.9454 100.3 94.2596 92.5 102.877C88.689 95.8062 93.3325 89.9454 93.3325 89.9454C99.3783 88.5024 99.2192 84.0254 98.1684 79.8074L108.506 70.9829Z" fill="#E5B4AA"/>
<path opacity="0.2" d="M104.292 74.5859L98.1721 79.8029C98.4339 80.7821 98.6084 81.7826 98.6938 82.7925C101.003 82.4595 104.173 79.925 104.418 77.5089C104.553 76.535 104.51 75.5447 104.292 74.5859Z" fill="black"/>
<path d="M114.223 61.0406C112.11 69.854 111.4 73.6206 106.175 77.4205C98.3201 83.1222 88.1747 78.623 87.6752 69.3619C87.2164 61.0258 90.7499 48.0129 99.9296 45.9816C108.961 43.9799 116.339 52.2272 114.223 61.0406Z" fill="#E5B4AA"/>
<path d="M114.989 49.9591C106.19 57.4849 97.6172 45.0529 92.5001 51.1764C89.5401 48.542 97.8799 41.7599 102.897 41.512C107.914 41.2641 118.789 44.7199 114.989 49.9591Z" fill="#263238"/>
<path d="M113.631 49.2417C104.421 52.6124 108.502 70.3317 116.424 69.255C124.346 68.1783 123.047 50.8845 113.631 49.2417Z" fill="#263238"/>
<path d="M101.158 61.1368C101.032 61.8768 100.544 62.3837 100.07 62.2986C99.5966 62.2135 99.3303 61.5586 99.4413 60.8186C99.5523 60.0786 100.059 59.5717 100.533 59.6568C101.006 59.7419 101.288 60.4116 101.158 61.1368Z" fill="#263238"/>
<path d="M92.2151 59.6862C92.0893 60.4262 91.6009 60.9294 91.1273 60.8443C90.6537 60.7592 90.3873 60.1043 90.4983 59.3643C90.6093 58.6243 91.1162 58.1211 91.5898 58.2025C92.0634 58.2839 92.3446 58.961 92.2151 59.6862Z" fill="#263238"/>
<path d="M91.7934 58.3069L90.1395 57.4966C90.1395 57.4966 90.7944 59.0062 91.7934 58.3069Z" fill="#263238"/>
<path d="M94.4943 61.314C94.4943 61.314 92.7072 64.2185 91.0866 65.4876C91.8858 66.5495 93.5878 66.4274 93.5878 66.4274L94.4943 61.314Z" fill="#E5B4AA"/>
<path d="M97.2842 69.8502C96.8698 69.8479 96.4565 69.8108 96.0484 69.7392C96.0203 69.7343 95.9935 69.7239 95.9696 69.7086C95.9456 69.6932 95.9249 69.6733 95.9087 69.6498C95.8926 69.6264 95.8812 69.6 95.8753 69.5722C95.8694 69.5443 95.8691 69.5156 95.8745 69.4876C95.8789 69.4597 95.8889 69.433 95.9039 69.4091C95.9189 69.3851 95.9385 69.3644 95.9616 69.3482C95.9847 69.332 96.0109 69.3206 96.0385 69.3147C96.0661 69.3087 96.0946 69.3084 96.1224 69.3137C97.0215 69.493 97.9502 69.4581 98.8334 69.2119C99.7166 68.9658 100.529 68.5152 101.206 67.8966C101.247 67.8562 101.302 67.8335 101.36 67.8335C101.417 67.8335 101.472 67.8562 101.513 67.8966C101.554 67.9375 101.576 67.9927 101.576 68.0502C101.576 68.1077 101.554 68.1629 101.513 68.2037C100.371 69.2809 98.8542 69.8714 97.2842 69.8502Z" fill="#263238"/>
<path d="M114.837 69.6097C114.259 70.2394 113.555 70.7392 112.77 71.076C111.984 71.4128 111.136 71.5789 110.282 71.5633C108.121 71.4486 107.874 68.9511 109.172 66.942C110.338 65.1327 112.872 63.0126 114.7 64.1115C116.528 65.2104 116.402 67.9743 114.837 69.6097Z" fill="#E5B4AA"/>
<path d="M101.698 69.1994C101.636 68.4587 101.732 67.7133 101.978 67.0119C102.224 66.3105 102.615 65.669 103.126 65.1294C102.779 65.1677 102.457 65.3276 102.216 65.5808C101.77 66.0453 101.428 66.5991 101.212 67.2056C100.996 67.8122 100.91 68.4576 100.962 69.0995C101.043 70.4093 101.942 71.5933 103.049 71.8597C102.654 71.5319 102.331 71.1268 102.098 70.6693C101.866 70.2117 101.73 69.7115 101.698 69.1994Z" fill="#E5B4AA"/>
<path opacity="0.2" d="M101.698 69.1994C101.636 68.4587 101.732 67.7133 101.978 67.0119C102.224 66.3105 102.615 65.669 103.126 65.1294C102.779 65.1677 102.457 65.3276 102.216 65.5808C101.77 66.0453 101.428 66.5991 101.212 67.2056C100.996 67.8122 100.91 68.4576 100.962 69.0995C101.043 70.4093 101.942 71.5933 103.049 71.8597C102.654 71.5319 102.331 71.1268 102.098 70.6693C101.866 70.2117 101.73 69.7115 101.698 69.1994Z" fill="black"/>
<path d="M104.118 58.21C104.062 58.1906 104.011 58.1603 103.967 58.1209C103.924 58.0815 103.888 58.0338 103.863 57.9805C103.652 57.4805 103.326 57.0374 102.911 56.6876C102.496 56.3377 102.005 56.0911 101.476 55.9677C101.42 55.9592 101.366 55.9397 101.317 55.9103C101.268 55.8809 101.226 55.8421 101.192 55.7963C101.158 55.7504 101.133 55.6983 101.12 55.643C101.106 55.5876 101.103 55.5302 101.112 55.4738C101.12 55.4174 101.14 55.3633 101.169 55.3145C101.199 55.2657 101.237 55.2231 101.283 55.1893C101.329 55.1554 101.381 55.131 101.437 55.1172C101.492 55.1035 101.549 55.1008 101.606 55.1093C102.277 55.2541 102.904 55.5578 103.434 55.995C103.964 56.4321 104.381 56.9899 104.651 57.6216C104.686 57.6985 104.697 57.7837 104.684 57.867C104.671 57.9502 104.634 58.0278 104.577 58.0903C104.521 58.1528 104.447 58.1974 104.365 58.2186C104.284 58.2399 104.198 58.2369 104.118 58.21Z" fill="#263238"/>
<path d="M89.2885 55.6528C89.1771 55.6596 89.0674 55.6239 88.9814 55.5529C88.938 55.5166 88.9022 55.472 88.876 55.4218C88.8499 55.3716 88.834 55.3167 88.8292 55.2603C88.8244 55.2039 88.8308 55.1471 88.848 55.0932C88.8652 55.0392 88.8929 54.9893 88.9296 54.9461C89.3559 54.4075 89.9056 53.9795 90.5322 53.698C91.1588 53.4166 91.8439 53.2901 92.5297 53.3292C92.6414 53.3449 92.7425 53.4035 92.8116 53.4927C92.8807 53.5818 92.9123 53.6944 92.8997 53.8065C92.8831 53.9185 92.8237 54.0197 92.734 54.0887C92.6442 54.1578 92.5312 54.1892 92.4187 54.1765C91.8756 54.1538 91.335 54.2608 90.8415 54.4885C90.348 54.7163 89.9158 55.0583 89.5808 55.4863C89.5461 55.5326 89.5022 55.5713 89.4519 55.6C89.4016 55.6286 89.346 55.6466 89.2885 55.6528Z" fill="#263238"/>
<path d="M100.736 59.7493L99.0823 58.939C99.0823 58.939 99.7372 60.456 100.736 59.7493Z" fill="#263238"/>
<path d="M108.484 146.067C108.254 145.105 107.811 144.207 107.188 143.438C106.565 142.67 105.778 142.051 104.884 141.627L100.792 139.707C100.195 139.425 99.5396 139.293 98.8809 139.322C98.2222 139.35 97.5803 139.538 97.0103 139.869L95.1603 140.942C94.6526 141.239 94.2471 141.684 93.9974 142.216C93.7476 142.749 93.6654 143.344 93.7617 143.925L94.3315 147.362C94.4524 148.082 94.8395 148.729 95.4159 149.177C95.9923 149.625 96.716 149.839 97.4432 149.778L99.1341 149.634C99.1341 149.634 105.102 149.796 108.754 147.284L108.484 146.067Z" fill="#E5B4AA"/>
<path d="M121.682 94.5032L122.052 95.0102L122.389 95.4652L123.032 96.3569C123.458 96.9489 123.854 97.5483 124.253 98.1477C125.049 99.3428 125.793 100.56 126.518 101.796C127.243 103.032 127.928 104.279 128.586 105.551C129.245 106.824 129.881 108.108 130.469 109.422C132.941 114.748 134.683 120.383 135.649 126.175C135.746 126.915 135.871 127.655 135.938 128.421L136.053 129.553L136.071 129.764L136.09 130.134C136.104 130.381 136.104 130.628 136.09 130.874C136.09 131.118 136.06 131.37 136.031 131.614C136.001 131.858 135.953 132.077 135.908 132.306C135.731 133.112 135.448 133.89 135.069 134.622C134.762 135.208 134.403 135.764 133.996 136.284C133.343 137.099 132.606 137.843 131.798 138.504C130.501 139.548 129.107 140.465 127.635 141.242C126.274 141.959 124.931 142.566 123.591 143.125C122.252 143.684 120.912 144.154 119.577 144.605C118.241 145.056 116.898 145.452 115.558 145.822C114.219 146.192 112.869 146.522 111.518 146.832C110.841 146.98 110.164 147.117 109.483 147.254C108.802 147.391 108.129 147.495 107.404 147.624C106.656 147.761 105.884 147.621 105.231 147.232C104.578 146.842 104.088 146.229 103.853 145.506C103.618 144.784 103.652 144 103.951 143.301C104.249 142.602 104.791 142.034 105.476 141.704L105.594 141.649C110.238 139.34 115.029 137.009 119.247 134.426C120.302 133.786 121.312 133.12 122.226 132.439C123.061 131.856 123.838 131.193 124.546 130.46C124.755 130.249 124.929 130.005 125.06 129.738C125.138 129.594 124.986 129.638 124.853 130.108C124.833 130.172 124.818 130.238 124.808 130.304C124.808 130.378 124.783 130.46 124.779 130.538C124.775 130.615 124.779 130.7 124.779 130.785C124.779 130.871 124.779 130.871 124.779 130.911V130.945V130.889L124.62 130.034C124.524 129.465 124.376 128.891 124.25 128.321C123.069 123.625 121.358 119.078 119.151 114.768C118.063 112.548 116.846 110.373 115.584 108.227C114.948 107.154 114.286 106.099 113.623 105.052L112.61 103.509L112.106 102.769L111.648 102.107L111.492 101.885C111.006 101.217 110.657 100.459 110.463 99.6562C110.27 98.853 110.237 98.0196 110.366 97.2036C110.626 95.5557 111.53 94.0785 112.88 93.0972C114.229 92.1159 115.913 91.7108 117.561 91.971C118.377 92.0999 119.159 92.3882 119.864 92.8195C120.568 93.2508 121.181 93.8166 121.667 94.4847L121.682 94.5032Z" fill="#E5B4AA"/>
<path d="M50.4384 84.1026C50.3351 84.0994 50.2345 84.136 50.1574 84.2049C50.0803 84.2737 50.0325 84.3696 50.024 84.4726L49.8242 89.0828C49.8212 89.1539 49.8011 89.2231 49.7656 89.2848C49.7302 89.3465 49.6805 89.3987 49.6206 89.4371C49.5608 89.4756 49.4926 89.4991 49.4218 89.5057C49.351 89.5123 49.2796 89.5017 49.2137 89.475L48.4737 89.1679C48.3899 89.1326 48.3188 89.0727 48.2699 88.996C48.221 88.9193 48.1966 88.8296 48.1999 88.7387L48.4034 84.0064C48.4107 83.9516 48.4064 83.8958 48.391 83.8427C48.3755 83.7896 48.3492 83.7403 48.3137 83.6978C48.2782 83.6554 48.2343 83.6208 48.1848 83.5963C48.1352 83.5717 48.0811 83.5577 48.0258 83.5551C47.9706 83.5525 47.9154 83.5615 47.8638 83.5813C47.8121 83.6012 47.7652 83.6316 47.7259 83.6705C47.6866 83.7095 47.6559 83.7561 47.6356 83.8076C47.6153 83.859 47.6059 83.9141 47.6079 83.9694L47.4044 88.7054C47.4003 88.7964 47.3682 88.8839 47.3126 88.956C47.257 89.0282 47.1806 89.0815 47.0936 89.1087L46.3277 89.3492C46.2599 89.3706 46.1879 89.3754 46.1178 89.3631C46.0477 89.3509 45.9815 89.3219 45.9249 89.2788C45.8684 89.2356 45.823 89.1795 45.7926 89.1151C45.7623 89.0507 45.7478 88.98 45.7505 88.9089L45.9503 84.2987C45.9525 84.2462 45.9444 84.1938 45.9263 84.1445C45.9082 84.0952 45.8806 84.0499 45.8451 84.0113C45.8095 83.9726 45.7667 83.9413 45.719 83.9192C45.6714 83.8971 45.6199 83.8846 45.5674 83.8825C45.5149 83.8803 45.4625 83.8884 45.4132 83.9065C45.3639 83.9246 45.3186 83.9522 45.28 83.9877C45.2413 84.0233 45.21 84.0661 45.1879 84.1138C45.1658 84.1614 45.1533 84.2129 45.1511 84.2654L44.9254 89.5046C44.9039 90.0265 45.0265 90.5442 45.2798 91.0011C45.533 91.4579 45.9071 91.8363 46.361 92.0946C46.5883 92.2249 46.7729 92.4184 46.8924 92.6515C47.012 92.8847 47.0613 93.1475 47.0344 93.4081C46.7384 96.3311 46.0243 103.324 45.4619 108.045C44.7219 114.139 45.6617 115.238 46.657 115.283C47.6523 115.327 48.6772 114.309 48.4737 108.175C48.3183 103.424 48.2073 96.394 48.1629 93.4562C48.1587 93.1942 48.2305 92.9366 48.3698 92.7146C48.509 92.4926 48.7096 92.3158 48.9473 92.2056C49.422 91.9874 49.8274 91.6427 50.1191 91.2094C50.4109 90.776 50.5777 90.2707 50.6012 89.7488L50.8269 84.5096C50.828 84.4045 50.788 84.3032 50.7154 84.2272C50.6428 84.1512 50.5435 84.1065 50.4384 84.1026Z" fill="#263238"/>
<path d="M43.8155 78.9004C42.4465 83.1776 48.8031 89.327 54.0238 85.9045C50.1684 82.8002 43.8155 78.9004 43.8155 78.9004Z" fill="#FFA943"/>
<path opacity="0.5" d="M44.9994 79.6406C44.2594 82.8892 48.8807 87.2811 52.8027 84.9575C50.098 82.9151 46.7458 80.7469 44.9994 79.6406Z" fill="white"/>
<path d="M164.239 146.463H20.7606V151.151H164.239V146.463Z" fill="#FFA943"/>
<path opacity="0.2" d="M164.239 148.542H20.7606V149.072H164.239V148.542Z" fill="black"/>
<path d="M158.482 152.982H26.5178L22.8178 151.151H162.182L158.482 152.982Z" fill="#FFA943"/>
<path opacity="0.5" d="M158.482 152.982H26.5178L22.8178 151.151H162.182L158.482 152.982Z" fill="white"/>
<path d="M46.0058 133.545C44.7256 132.358 40.9146 134.285 41.144 131.865C41.3734 129.446 38.8056 131.199 38.4504 128.831C38.0952 126.463 41.5399 127.152 40.0821 125.316C38.6243 123.481 39.7861 121.084 42.0209 121.058C44.2557 121.032 43.623 123.903 45.547 122.601C47.6634 121.169 49.4098 122.434 49.4172 124.343C49.4246 126.253 51.1895 125.176 51.9036 127.178C52.8434 129.812 48.5329 130.097 49.3876 131.662C50.2423 133.227 48.1185 135.499 46.0058 133.545Z" fill="#FFA943"/>
<path opacity="0.4" d="M46.0058 133.545C44.7256 132.358 40.9146 134.285 41.144 131.865C41.3734 129.446 38.8056 131.199 38.4504 128.831C38.0952 126.463 41.5399 127.152 40.0821 125.316C38.6243 123.481 39.7861 121.084 42.0209 121.058C44.2557 121.032 43.623 123.903 45.547 122.601C47.6634 121.169 49.4098 122.434 49.4172 124.343C49.4246 126.253 51.1895 125.176 51.9036 127.178C52.8434 129.812 48.5329 130.097 49.3876 131.662C50.2423 133.227 48.1185 135.499 46.0058 133.545Z" fill="white"/>
<path d="M45.7763 132.588C44.3444 130.764 41.5213 133.465 41.7063 131.419C41.8913 129.373 39.1163 130.605 39.3642 128.592C39.6121 126.579 42.6387 126.502 40.9663 125.421C39.2939 124.341 40.2633 121.821 42.1614 121.799C44.0595 121.777 43.7487 124.415 45.3804 123.312C47.1712 122.099 48.6512 123.172 48.6586 124.792C48.666 126.413 50.3199 125.532 51.2079 127.116C52.7471 129.832 47.5671 129.399 48.9028 131.256C49.7945 132.477 47.6226 134.938 45.7763 132.588Z" fill="#FFA943"/>
<path opacity="0.4" d="M45.6394 132.033C44.4702 130.438 41.9875 132.662 42.2132 130.923C42.4389 129.184 40.0339 130.157 40.2966 128.448C40.5593 126.738 43.1419 126.757 41.7507 125.791C40.3595 124.825 41.2512 122.701 42.8607 122.735C44.4702 122.768 44.1372 125.01 45.5617 124.115C47.1231 123.131 48.3552 124.089 48.3145 125.465C48.2738 126.842 49.7094 126.157 50.4235 127.515C51.6593 129.876 47.2563 129.365 48.3441 130.982C49.0693 132.051 47.149 134.09 45.6394 132.033Z" fill="white"/>
<path d="M39.0682 130.315C39.2458 133.645 42.3427 140.206 50.0461 137.93C49.6095 133.383 45.7245 130.401 39.0682 130.315Z" fill="#FFA943"/>
<path opacity="0.3" d="M39.0682 130.315C39.2458 133.645 42.3427 140.206 50.0461 137.93C49.6095 133.383 45.7245 130.401 39.0682 130.315Z" fill="black"/>
<path d="M40.1154 131.17C40.9464 131.915 41.8388 132.588 42.7831 133.183C43.7229 133.801 44.6849 134.393 45.6432 134.981C46.6015 135.569 47.5857 136.132 48.5551 136.702L51.4522 138.437C51.4847 138.455 51.5094 138.484 51.5214 138.519C51.5334 138.554 51.5318 138.592 51.5169 138.626C51.502 138.66 51.475 138.687 51.4411 138.702C51.4071 138.717 51.3689 138.719 51.3338 138.707C50.2395 138.363 49.1842 137.905 48.1851 137.342C47.1861 136.794 46.2167 136.198 45.2547 135.592C44.2927 134.985 43.3566 134.334 42.4427 133.653C41.9839 133.312 41.5325 132.965 41.0996 132.584C40.6527 132.214 40.2437 131.802 39.8786 131.351C39.8555 131.32 39.8454 131.281 39.8502 131.243C39.855 131.204 39.8744 131.169 39.9045 131.144C39.9322 131.122 39.9668 131.109 40.0025 131.109C40.0382 131.109 40.0729 131.122 40.1006 131.144L40.1154 131.17Z" fill="#FFA943"/>
<path d="M42.6054 133.564H42.5832C42.5642 133.562 42.5459 133.555 42.5294 133.545C42.5129 133.535 42.4985 133.522 42.4871 133.507C42.4758 133.491 42.4676 133.474 42.4631 133.455C42.4587 133.436 42.458 133.417 42.4611 133.398C42.5874 132.77 42.5217 132.119 42.2724 131.529C42.254 131.495 42.2498 131.455 42.2609 131.417C42.272 131.38 42.2974 131.348 42.3316 131.33C42.3486 131.32 42.3672 131.314 42.3866 131.312C42.4059 131.309 42.4255 131.311 42.4442 131.316C42.4628 131.322 42.4802 131.331 42.4952 131.344C42.5102 131.356 42.5225 131.371 42.5314 131.389C42.8183 132.033 42.8959 132.751 42.7534 133.442C42.7466 133.477 42.7282 133.507 42.7012 133.53C42.6742 133.552 42.6404 133.564 42.6054 133.564Z" fill="#FFA943"/>
<path d="M42.3538 136.132C42.3146 136.132 42.2769 136.116 42.2492 136.089C42.2214 136.061 42.2058 136.023 42.2058 135.984C42.2058 135.945 42.2214 135.907 42.2492 135.879C42.2769 135.852 42.3146 135.836 42.3538 135.836C42.3538 135.836 44.1372 135.673 44.6478 134.778C44.6566 134.759 44.6692 134.743 44.6846 134.73C44.7001 134.716 44.7181 134.706 44.7376 134.7C44.7571 134.694 44.7777 134.692 44.798 134.695C44.8182 134.697 44.8378 134.704 44.8555 134.714C44.8731 134.724 44.8885 134.738 44.9006 134.754C44.9126 134.771 44.9212 134.79 44.9257 134.809C44.9301 134.829 44.9304 134.85 44.9266 134.87C44.9227 134.89 44.9147 134.909 44.9031 134.926C44.3148 135.954 42.4574 136.125 42.3797 136.132H42.3538Z" fill="#FFA943"/>
<path d="M46.7383 136.216C46.7144 136.215 46.6912 136.207 46.6709 136.194C46.6505 136.182 46.6337 136.164 46.622 136.143C46.6102 136.122 46.6039 136.099 46.6035 136.074C46.6032 136.05 46.6088 136.027 46.6199 136.005C47.223 134.877 46.2499 133.345 46.2499 133.327C46.2391 133.311 46.2316 133.292 46.228 133.273C46.2243 133.254 46.2246 133.234 46.2287 133.215C46.2329 133.196 46.2408 133.178 46.2521 133.163C46.2634 133.147 46.2778 133.133 46.2943 133.123C46.3273 133.102 46.3671 133.095 46.4052 133.103C46.4433 133.112 46.4766 133.135 46.4978 133.168C46.5422 133.238 47.5782 134.862 46.8937 136.128C46.8822 136.158 46.8604 136.184 46.832 136.2C46.8036 136.216 46.7705 136.222 46.7383 136.216Z" fill="#FFA943"/>
<path d="M47.0195 137.76C46.9815 137.76 46.9449 137.746 46.9174 137.719C46.8898 137.693 46.8734 137.657 46.8715 137.62C46.8704 137.581 46.8845 137.543 46.9106 137.514C46.9368 137.485 46.9732 137.467 47.0121 137.464C47.4864 137.4 47.9355 137.213 48.3145 136.92C48.3303 136.909 48.3482 136.901 48.3671 136.896C48.3861 136.892 48.4057 136.891 48.425 136.894C48.4442 136.897 48.4627 136.904 48.4793 136.914C48.4958 136.924 48.5103 136.938 48.5217 136.954C48.5331 136.969 48.5413 136.987 48.5458 137.006C48.5503 137.025 48.551 137.045 48.5479 137.064C48.5449 137.083 48.538 137.102 48.5278 137.118C48.5176 137.135 48.5042 137.149 48.4884 137.161C48.0577 137.49 47.5465 137.697 47.0084 137.76H47.0195Z" fill="#FFA943"/>
<path d="M61.2793 124.829C56.7209 125.047 47.7077 129.251 50.7713 139.821C57.0021 139.248 61.1165 133.946 61.2793 124.829Z" fill="#FFA943"/>
<path opacity="0.3" d="M61.2793 124.829C56.7209 125.047 47.7077 129.251 50.7713 139.821C57.0021 139.248 61.1165 133.946 61.2793 124.829Z" fill="black"/>
<path d="M60.1027 126.257C59.079 127.387 58.1578 128.607 57.3499 129.901C56.4952 131.185 55.6701 132.491 54.8598 133.808C54.0495 135.125 53.2725 136.457 52.4844 137.786L50.0868 141.737C50.0728 141.76 50.0544 141.78 50.0326 141.796C50.0109 141.812 49.9862 141.823 49.9601 141.829C49.9339 141.835 49.9068 141.836 49.8803 141.832C49.8538 141.828 49.8284 141.818 49.8056 141.804C49.7673 141.781 49.7378 141.746 49.7217 141.704C49.7056 141.663 49.7039 141.617 49.7168 141.575C50.1955 140.078 50.8304 138.635 51.6112 137.271C52.3512 135.906 53.1874 134.582 54.0236 133.268C54.8598 131.955 55.7552 130.678 56.695 129.424C57.1649 128.798 57.6496 128.184 58.175 127.596C58.6858 126.987 59.2546 126.43 59.8733 125.931C59.8942 125.915 59.918 125.903 59.9435 125.896C59.9689 125.889 59.9955 125.887 60.0216 125.891C60.0478 125.894 60.073 125.903 60.0958 125.916C60.1186 125.929 60.1385 125.947 60.1545 125.968C60.1865 126.005 60.2042 126.052 60.2042 126.101C60.2042 126.15 60.1865 126.197 60.1545 126.234L60.1027 126.257Z" fill="#FFA943"/>
<path d="M57.9493 129.938C57.622 129.937 57.2952 129.909 56.9725 129.853C56.9465 129.849 56.9217 129.84 56.8993 129.826C56.877 129.812 56.8576 129.793 56.8423 129.772C56.827 129.75 56.8161 129.726 56.8102 129.7C56.8043 129.675 56.8035 129.648 56.8079 129.622C56.8123 129.596 56.8217 129.571 56.8357 129.549C56.8497 129.527 56.8679 129.507 56.8894 129.492C56.9109 129.477 56.9352 129.466 56.9609 129.46C56.9865 129.454 57.0132 129.453 57.0391 129.457C57.898 129.636 58.791 129.55 59.5995 129.21C59.6238 129.197 59.6504 129.189 59.6777 129.187C59.7049 129.184 59.7324 129.187 59.7585 129.196C59.7846 129.204 59.8089 129.217 59.8298 129.235C59.8508 129.252 59.8681 129.274 59.8807 129.298C59.8934 129.323 59.9011 129.349 59.9035 129.376C59.9059 129.404 59.9028 129.431 59.8946 129.457C59.8863 129.483 59.873 129.508 59.8554 129.529C59.8378 129.55 59.8162 129.567 59.7919 129.58C59.2129 129.837 58.5828 129.96 57.9493 129.938Z" fill="#FFA943"/>
<path d="M55.0263 132.798C54.991 132.797 54.9565 132.787 54.9264 132.769C53.5204 131.962 53.2984 129.413 53.2873 129.305C53.2832 129.252 53.3004 129.199 53.335 129.158C53.3696 129.117 53.419 129.092 53.4723 129.087C53.5258 129.083 53.5786 129.1 53.6195 129.135C53.6604 129.169 53.6859 129.219 53.6906 129.272C53.6906 129.298 53.9052 131.718 55.1262 132.421C55.1492 132.434 55.1693 132.451 55.1854 132.472C55.2015 132.493 55.2134 132.517 55.2202 132.542C55.2271 132.568 55.2289 132.594 55.2255 132.62C55.222 132.647 55.2135 132.672 55.2002 132.695C55.1834 132.726 55.1583 132.752 55.1277 132.771C55.0971 132.789 55.062 132.798 55.0263 132.798Z" fill="#FFA943"/>
<path d="M54.6083 135.799C54.1343 135.806 53.6661 135.694 53.2467 135.473C53.2228 135.461 53.2016 135.445 53.1844 135.424C53.1672 135.404 53.1544 135.38 53.1468 135.354C53.1392 135.329 53.1369 135.302 53.1401 135.275C53.1432 135.248 53.1518 135.223 53.1653 135.2C53.1777 135.176 53.1947 135.155 53.2152 135.138C53.2358 135.122 53.2595 135.109 53.285 135.101C53.3106 135.094 53.3373 135.091 53.3638 135.094C53.3902 135.097 53.4158 135.105 53.4391 135.118C54.982 135.951 57.0873 134.626 57.1058 134.611C57.1283 134.597 57.1535 134.587 57.1799 134.583C57.2063 134.578 57.2333 134.579 57.2594 134.584C57.2855 134.59 57.3102 134.601 57.3321 134.617C57.354 134.632 57.3727 134.652 57.387 134.674C57.4012 134.697 57.4109 134.721 57.4155 134.748C57.4201 134.774 57.4194 134.8 57.4136 134.826C57.4077 134.852 57.3968 134.876 57.3814 134.898C57.3661 134.92 57.3466 134.938 57.3241 134.952C56.5048 135.459 55.5705 135.75 54.6083 135.799Z" fill="#FFA943"/>
<path d="M52.0034 137.775C51.9714 137.775 51.9398 137.768 51.9114 137.753C51.883 137.738 51.8587 137.716 51.8406 137.69C51.3956 137.106 51.1146 136.414 51.0266 135.685C51.0246 135.631 51.0436 135.579 51.0796 135.54C51.1156 135.5 51.1657 135.477 51.219 135.474C51.2454 135.472 51.2719 135.475 51.2969 135.484C51.3219 135.492 51.345 135.505 51.3647 135.523C51.3844 135.541 51.4003 135.562 51.4115 135.586C51.4227 135.61 51.429 135.636 51.4299 135.662C51.5172 136.313 51.7722 136.931 52.1699 137.453C52.1856 137.475 52.197 137.499 52.2033 137.524C52.2096 137.55 52.2107 137.577 52.2066 137.603C52.2024 137.629 52.1931 137.654 52.1792 137.677C52.1653 137.699 52.147 137.719 52.1255 137.734C52.0902 137.761 52.0474 137.775 52.0034 137.775Z" fill="#FFA943"/>
<path d="M45.8799 130.996C49.5799 134.511 58.9853 131.07 58.0899 124.048C52.995 126.445 45.8799 130.996 45.8799 130.996Z" fill="#FFA943"/>
<path opacity="0.2" d="M47.2119 130.157C50.1719 132.525 56.9281 129.98 56.4989 124.829C53.0801 126.576 49.2099 128.921 47.2119 130.157Z" fill="white"/>
<path d="M55.5813 144.231C52.0996 147.931 42.4981 145.038 43.0013 137.975C48.2146 140.076 55.5813 144.231 55.5813 144.231Z" fill="#FFA943"/>
<path opacity="0.2" d="M54.1975 143.465C51.3856 145.996 44.4851 143.835 44.6257 138.655C48.1407 140.217 52.1366 142.344 54.1975 143.465Z" fill="white"/>
<path d="M65.0015 129.738C63.9137 130.578 65.1865 133.456 63.2107 133.116C61.2349 132.776 62.4707 134.751 60.4727 134.833C58.4747 134.914 59.3442 132.491 57.7199 133.416C56.0956 134.341 54.1938 133.323 54.3566 131.714C54.5194 130.104 56.8467 130.767 55.9291 129.29C54.9227 127.662 56.1141 126.5 57.6903 126.63C59.2665 126.759 58.5302 125.416 60.2433 125.05C62.5003 124.562 62.3782 127.684 63.7435 127.185C65.1088 126.685 66.796 128.362 65.0015 129.738Z" fill="#FFA943"/>
<path opacity="0.4" d="M65.0015 129.738C63.9137 130.578 65.1865 133.456 63.2107 133.116C61.2349 132.776 62.4707 134.751 60.4727 134.833C58.4747 134.914 59.3442 132.491 57.7199 133.416C56.0956 134.341 54.1938 133.323 54.3566 131.714C54.5194 130.104 56.8467 130.767 55.9291 129.29C54.9227 127.662 56.1141 126.5 57.6903 126.63C59.2665 126.759 58.5302 125.416 60.2433 125.05C62.5003 124.562 62.3782 127.684 63.7435 127.185C65.1088 126.685 66.796 128.362 65.0015 129.738Z" fill="white"/>
<path d="M64.1913 129.838C62.5633 130.733 64.5613 132.961 62.8852 132.672C61.2091 132.384 61.9972 134.47 60.3507 134.152C58.7042 133.834 58.8929 131.647 57.8643 132.772C56.8357 133.897 54.8266 133.016 54.9635 131.662C55.1004 130.308 57.2612 130.711 56.4842 129.442C55.6332 128.062 56.6433 127.078 57.9642 127.189C59.2851 127.3 58.7264 126.049 60.0991 125.524C62.4745 124.614 61.6864 128.306 63.3329 127.481C64.4355 126.937 66.2892 128.676 64.1913 129.838Z" fill="#FFA943"/>
<path opacity="0.4" d="M63.7213 129.894C62.3042 130.634 63.9359 132.565 62.5151 132.28C61.0943 131.996 61.7011 133.79 60.2951 133.479C58.8891 133.168 59.1333 131.307 58.2157 132.24C57.2981 133.172 55.6257 132.377 55.7811 131.215C55.9365 130.053 57.7717 130.475 57.1501 129.365C56.4656 128.17 57.361 127.356 58.4969 127.482C59.6328 127.607 59.1814 126.531 60.3691 126.113C62.4226 125.395 61.6308 128.525 63.0627 127.859C64.0099 127.43 65.5454 128.976 63.7213 129.894Z" fill="white"/>
<path d="M51.1783 140.224C52.5473 139.166 51.4299 135.803 53.6832 136.099C55.9365 136.395 54.7562 134.104 57.0761 133.879C59.396 133.653 58.0973 136.609 60.1175 135.425C62.1377 134.241 64.1875 135.336 63.8175 137.275C63.4475 139.214 60.8094 138.544 61.69 140.257C62.6557 142.141 61.1276 143.587 59.3109 143.528C57.4942 143.469 58.2009 145.008 56.1511 145.559C53.4686 146.266 54.0014 142.537 52.3549 143.21C50.7084 143.883 48.925 141.97 51.1783 140.224Z" fill="#FFA943"/>
<path opacity="0.4" d="M51.1783 140.224C52.5473 139.166 51.4299 135.803 53.6832 136.099C55.9365 136.395 54.7562 134.104 57.0761 133.879C59.396 133.653 58.0973 136.609 60.1175 135.425C62.1377 134.241 64.1875 135.336 63.8175 137.275C63.4475 139.214 60.8094 138.544 61.69 140.257C62.6557 142.141 61.1276 143.587 59.3109 143.528C57.4942 143.469 58.2009 145.008 56.1511 145.559C53.4686 146.266 54.0014 142.537 52.3549 143.21C50.7084 143.883 48.925 141.97 51.1783 140.224Z" fill="white"/>
<path d="M52.1367 140.076C54.1384 138.911 52.096 136.376 54.0052 136.62C55.9144 136.865 55.2595 134.426 57.1317 134.711C59.0039 134.996 58.5118 137.616 59.8512 136.217C61.1906 134.818 63.4069 135.755 63.0776 137.39C62.7483 139.025 60.2878 138.655 61.0315 140.106C61.8529 141.7 60.5542 142.933 59.0187 142.877C57.4832 142.822 57.9901 144.279 56.3325 144.982C53.4576 146.203 54.8525 141.752 52.8212 142.833C51.4892 143.536 49.5541 141.556 52.1367 140.076Z" fill="#FFA943"/>
<path opacity="0.4" d="M52.6879 139.969C54.4269 139.026 52.773 136.795 54.3862 137.057C55.9994 137.32 55.5184 135.207 57.0983 135.5C58.6782 135.792 58.175 138.023 59.3553 136.857C60.5356 135.692 62.3856 136.55 62.0526 137.945C61.7196 139.34 59.6476 138.959 60.2359 140.221C60.8797 141.608 59.7401 142.629 58.4377 142.544C57.1353 142.459 57.5201 143.717 56.0919 144.28C53.6166 145.253 54.9264 141.475 53.18 142.348C52.0293 142.925 50.4494 141.186 52.6879 139.969Z" fill="white"/>
<path opacity="0.3" d="M38.4245 129.491V132.115C38.4352 135.917 39.9504 139.56 42.639 142.249C45.3275 144.937 48.9709 146.452 52.7731 146.463C56.5753 146.452 60.2187 144.937 62.9072 142.249C65.5958 139.56 67.111 135.917 67.1217 132.115V129.491H38.4245Z" fill="#FFA943"/>
<path opacity="0.5" d="M67.4732 129.49H38.073C37.8535 129.489 37.6432 129.402 37.488 129.246C37.3328 129.091 37.2451 128.881 37.2442 128.661C37.2451 128.442 37.3328 128.232 37.488 128.076C37.6432 127.921 37.8535 127.833 38.073 127.833H67.4732C67.6927 127.833 67.9029 127.921 68.0581 128.076C68.2134 128.232 68.301 128.442 68.302 128.661C68.301 128.881 68.2134 129.091 68.0581 129.246C67.9029 129.402 67.6927 129.489 67.4732 129.49Z" fill="#FFA943"/>
<path opacity="0.3" d="M53.1721 143.534C54.7424 141.725 53.3411 137.937 50.0424 135.073C46.7436 132.208 42.7965 131.352 41.2262 133.16C39.656 134.969 41.0572 138.757 44.3559 141.621C47.6547 144.486 51.6018 145.342 53.1721 143.534Z" fill="white"/>
<path opacity="0.3" d="M56.6802 138.596C55.5702 139.081 54.1827 138.352 53.5759 136.965C52.9691 135.577 53.3724 134.064 54.4824 133.579C55.5924 133.094 56.9799 133.823 57.5867 135.207C58.1935 136.591 57.7865 138.093 56.6802 138.596Z" fill="white"/>
<path opacity="0.3" d="M155.522 131.514H141.791L143.19 145.596C143.213 145.834 143.324 146.054 143.5 146.214C143.676 146.374 143.906 146.462 144.145 146.462H153.18C153.418 146.462 153.648 146.374 153.825 146.214C154.001 146.054 154.112 145.834 154.135 145.596L155.522 131.514Z" fill="#FFA943"/>
<path opacity="0.3" d="M144.452 143.369L143.427 133.009C143.427 133.009 146.139 134.6 148.766 133.827C150.435 133.352 152.156 133.077 153.89 133.009L152.862 143.369C152.818 143.812 152.611 144.222 152.281 144.52C151.952 144.818 151.523 144.983 151.078 144.982H146.235C145.791 144.982 145.363 144.817 145.033 144.519C144.704 144.221 144.497 143.811 144.452 143.369Z" fill="#FFA943"/>
<path opacity="0.5" d="M148.548 133.812C146.879 133.337 145.16 133.062 143.427 132.995C143.427 132.995 146.065 134.538 148.659 133.838L148.548 133.812Z" fill="#FFA943"/>
<path opacity="0.3" d="M155.685 131.884H141.625C141.489 131.884 141.358 131.831 141.259 131.738C141.16 131.645 141.1 131.517 141.092 131.381L140.748 125.117C140.744 125.045 140.755 124.973 140.779 124.905C140.804 124.837 140.842 124.775 140.892 124.722C140.941 124.67 141.001 124.628 141.067 124.599C141.133 124.57 141.205 124.555 141.277 124.555H156.029C156.101 124.555 156.173 124.57 156.239 124.599C156.306 124.628 156.366 124.67 156.415 124.722C156.465 124.775 156.504 124.837 156.529 124.905C156.554 124.973 156.565 125.045 156.562 125.117L156.214 131.381C156.206 131.517 156.147 131.644 156.049 131.738C155.951 131.831 155.82 131.884 155.685 131.884Z" fill="#FFA943"/>
</g>
<defs>
<clipPath id="clip0_362_1994">
<rect width="185" height="155" fill="white" transform="translate(0 0.216309)"/>
</clipPath>
</defs>
</svg>
