<svg width="150" height="126" viewBox="0 0 150 126" fill="none" xmlns="http://www.w3.org/2000/svg">
<path d="M12.8554 47.4856C12.8554 47.4856 12.5528 47.9981 12.1019 48.9101" stroke="#8F6B55" stroke-width="0.425607" stroke-miterlimit="10"/>
<path d="M10.7903 51.8663C8.23926 58.2909 5.25498 70.4636 14.2503 79.3114C35.0628 99.7821 61.4514 70.8275 48.6967 67.0587C39.2345 64.2632 36.4447 81.8077 58.8041 81.0368C85.5715 80.1139 77.9513 37.5138 75.2571 25.4702" stroke="#8F6B55" stroke-width="0.425607" stroke-miterlimit="10" stroke-dasharray="3.24 3.24"/>
<path d="M74.8926 23.8931C74.6522 22.8869 74.5026 22.3296 74.5026 22.3296" stroke="#8F6B55" stroke-width="0.425607" stroke-miterlimit="10"/>
<path d="M18.8057 51.0152L10.6265 48.673L6.2449 49.8798L23.9836 35.4919L18.8057 51.0152Z" fill="#ED902B"/>
<path d="M23.9836 35.4919L14.7921 52.8607L7.12054 50.0903L23.9836 35.4919Z" fill="#FFA943"/>
<path d="M23.9836 35.4917L6.2449 49.8796L0.838104 47.2581L23.9836 35.4917Z" fill="#FFA943"/>
<path d="M81.1638 35.4802C81.1638 35.4802 81.5535 35.9172 82.275 36.648" stroke="#8F6B55" stroke-width="0.425607" stroke-miterlimit="10"/>
<path d="M84.652 38.928C91.3068 44.9979 106.415 56.3637 120.563 49.9024C138.414 41.7504 135.914 16.2429 117.857 10.6157" stroke="#8F6B55" stroke-width="0.425607" stroke-miterlimit="10" stroke-dasharray="3.29 3.29"/>
<path d="M116.265 10.1821C115.749 10.0607 115.222 9.95491 114.683 9.86548" stroke="#8F6B55" stroke-width="0.425607" stroke-miterlimit="10"/>
<path d="M118.887 16.7938L120.481 12.6591L124.911 11.6434L102.471 7.39038L118.887 16.7938Z" fill="#ED902B"/>
<path d="M102.471 7.39072L123.577 15.7801L128.428 6.77148L102.471 7.39072Z" fill="#FFA943"/>
<path d="M139.635 86.3099C139.847 85.8131 140.047 85.3132 140.235 84.8113" stroke="#8F6B55" stroke-width="0.425607" stroke-miterlimit="10"/>
<path d="M141.207 81.7956C144.081 71.2405 141.539 60.5469 133.614 57.3042C122.243 52.6509 114.388 66.6019 125.038 73.5103C132.995 78.6716 151.059 64.2633 135.742 47.0894C119.571 28.9573 88.9499 31.5178 82.0057 55.4727" stroke="#8F6B55" stroke-width="0.425607" stroke-miterlimit="10" stroke-dasharray="3.17 3.17"/>
<path d="M81.6014 57.0046C81.4779 57.5212 81.3654 58.0469 81.2634 58.5818" stroke="#8F6B55" stroke-width="0.425607" stroke-miterlimit="10"/>
<path d="M139.311 82.364L145.462 91.005L132.135 101.403L139.311 82.364Z" fill="#ED902B"/>
<path d="M133.16 80.6072L132.135 101.404L149.124 85.7331L140.556 82.8039L133.892 97.5958L139.311 82.3646L133.16 80.6072Z" fill="#FFA943"/>
<path d="M65.2065 7.27539C65.2065 7.27539 64.711 7.55695 63.833 8.10851" stroke="#8F6B55" stroke-width="0.424247" stroke-miterlimit="10"/>
<path d="M61.1928 9.84619C49.4723 17.8809 16.9461 44.2559 30.306 81.9804C45.6722 125.37 86.1399 101.07 82.1093 81.6125" stroke="#8F6B55" stroke-width="0.424247" stroke-miterlimit="10" stroke-dasharray="3.16 3.16"/>
<path d="M81.6972 80.0868C81.5289 79.5853 81.3289 79.0884 81.096 78.5974" stroke="#8F6B55" stroke-width="0.424247" stroke-miterlimit="10"/>
<path d="M57.9387 11.3058L62.8252 12.6698L71.3006 1.00708L57.9387 11.3058Z" fill="#ED902B"/>
<path d="M55.0564 6.85323L71.3006 1.00708L62.985 18.2725L58.5885 12.1869L68.7063 3.32214L57.9386 11.3058L55.0564 6.85323Z" fill="#FFA943"/>
<path d="M26.5465 8.56567C26.5465 8.56567 24.2087 46.4463 62.8894 46.6289" stroke="#8F6B55" stroke-width="0.425607" stroke-miterlimit="10" stroke-dasharray="3.23 3.23"/>
<path d="M28.5535 16.5134L23.8731 14.5557L24.4474 0.150146L28.5535 16.5134Z" fill="#ED902B"/>
<path d="M33.575 14.8045L24.4474 0.150391L20.276 18.8545L27.4977 16.8023L25.0493 3.57504L28.5535 16.5136L33.575 14.8045Z" fill="#FFA943"/>
<path d="M70.327 100.123C70.327 100.123 70.5851 99.6287 71.0823 98.7949" stroke="#8F6B55" stroke-width="0.403504" stroke-miterlimit="10"/>
<path d="M72.7499 96.1837C77.1063 89.7771 87.0463 78.0325 100.184 80.3254C116.954 83.2519 125.368 103.418 116.206 115.265" stroke="#8F6B55" stroke-width="0.403504" stroke-miterlimit="10" stroke-dasharray="3.1 3.1"/>
<path d="M115.204 116.451C114.862 116.821 114.501 117.181 114.121 117.531" stroke="#8F6B55" stroke-width="0.403504" stroke-miterlimit="10"/>
<path d="M119.076 104.991L121.382 109.51L111.631 120.13L119.076 104.991Z" fill="#ED902B"/>
<path d="M114.14 103.048L111.631 120.129L126.905 108.556L120.069 105.453L113.386 117.127L119.076 104.991L114.14 103.048Z" fill="#FFA943"/>
<path d="M24.7188 99.2095C24.7188 99.2095 31.8153 118.886 51.4923 119.209" stroke="#8F6B55" stroke-width="0.424247" stroke-miterlimit="10" stroke-dasharray="3.22 3.22"/>
<path d="M31.0406 104.514L22.4207 105.909L20.2484 90.3672L31.0406 104.514Z" fill="#ED902B"/>
<path d="M34.0827 104.894L20.2484 90.3672L27.9982 110.345L34.0827 104.894Z" fill="#FFA943"/>
<path opacity="0.5" d="M39.191 24.6583C39.1923 24.6229 39.1927 24.5875 39.1927 24.5518C39.1927 24.1982 39.1311 23.8517 39.0097 23.5218L38.4915 23.7122C38.3813 23.4133 38.214 23.142 38.0028 22.9114L38.4109 22.5384C38.148 22.251 37.8365 22.0208 37.4856 21.8545L37.2489 22.3537C36.9704 22.2215 36.6634 22.1405 36.3393 22.1232L36.3689 21.5723C35.9843 21.5519 35.5939 21.606 35.229 21.7328L35.4106 22.2548C35.1097 22.3599 34.8356 22.5221 34.6013 22.7288L34.2354 22.314C33.9437 22.5717 33.708 22.8784 33.5352 23.2267L34.0304 23.4725C33.893 23.749 33.8066 24.0547 33.7838 24.3781L33.2329 24.339C33.2278 24.4094 33.2255 24.4811 33.2255 24.5518C33.2255 24.9425 33.2999 25.3227 33.4472 25.6818L33.9586 25.4723C34.0793 25.7665 34.2558 26.0317 34.4755 26.2551L34.081 26.6428C34.3541 26.921 34.6734 27.1396 35.0305 27.2933L35.2491 26.786C35.5313 26.9077 35.8408 26.9774 36.1659 26.9832L36.1553 27.5354C36.1734 27.5358 36.1917 27.5361 36.2097 27.5361C36.5818 27.5361 36.9453 27.4681 37.2901 27.3345L37.0898 26.8193C37.3863 26.7037 37.6546 26.5319 37.8814 26.3167L38.2623 26.7183C38.5449 26.4503 38.7696 26.1348 38.9295 25.7808L38.4259 25.5529C38.553 25.2724 38.6282 24.964 38.6397 24.6396L39.191 24.6583ZM36.2087 23.3072C36.8949 23.3072 37.4533 23.8656 37.4533 24.5518C37.4533 25.2381 36.8949 25.7961 36.2087 25.7961C35.5225 25.7961 34.9645 25.2377 34.9645 24.5518C34.9645 23.8656 35.5228 23.3072 36.2087 23.3072Z" fill="#8F6B55"/>
<path opacity="0.5" d="M51.529 9.28607C51.5307 9.23541 51.5318 9.18474 51.5318 9.13373C51.5318 8.6274 51.4437 8.13127 51.2699 7.65894L50.5279 7.93166C50.3701 7.50387 50.1304 7.11553 49.8281 6.78501L50.4123 6.25079C50.0359 5.83933 49.5901 5.50981 49.0875 5.27144L48.7488 5.98623C48.3502 5.79682 47.9102 5.68086 47.4464 5.65604L47.4886 4.86746C46.938 4.83788 46.379 4.91541 45.8563 5.09734L46.1161 5.84443C45.6853 5.99473 45.2928 6.22698 44.9576 6.52316L44.4335 5.9291C44.0156 6.29805 43.6783 6.7374 43.4311 7.23557L44.1401 7.58752C43.9432 7.983 43.8201 8.42099 43.7871 8.88379L42.9982 8.82803C42.991 8.92902 42.9873 9.03172 42.9873 9.13305C42.9873 9.69244 43.0941 10.2365 43.3046 10.7507L44.0367 10.4507C44.2094 10.8717 44.4624 11.2516 44.7766 11.5716L44.2118 12.1265C44.6029 12.5244 45.0599 12.8379 45.571 13.0579L45.8839 12.3312C46.2878 12.5057 46.7313 12.605 47.1964 12.6135L47.1811 13.4041C47.207 13.4044 47.2332 13.4048 47.2594 13.4048C47.7922 13.4048 48.3125 13.3075 48.8059 13.1157L48.5192 12.3782C48.9436 12.2129 49.3279 11.9667 49.653 11.6583L50.1981 12.2333C50.6031 11.8494 50.9244 11.3981 51.1536 10.8911L50.4324 10.565C50.6143 10.1634 50.7224 9.72202 50.7388 9.25717L51.529 9.28607ZM47.2597 7.35187C48.2421 7.35187 49.0416 8.15099 49.0416 9.13373C49.0416 10.1161 48.2421 10.9153 47.2597 10.9153C46.2773 10.9153 45.4782 10.1161 45.4782 9.13373C45.4782 8.15099 46.2773 7.35187 47.2597 7.35187Z" fill="#8F6B55"/>
<path opacity="0.5" d="M142.074 40.025C142.076 39.9896 142.076 39.9542 142.076 39.9185C142.076 39.5649 142.014 39.2184 141.893 38.8885L141.375 39.0789C141.265 38.78 141.097 38.5087 140.886 38.2781L141.294 37.9051C141.031 37.6178 140.72 37.3875 140.369 37.2213L140.132 37.7204C139.854 37.5882 139.547 37.5072 139.223 37.4899L139.252 36.939C138.867 36.9186 138.477 36.9727 138.112 37.0995L138.294 37.6215C137.993 37.7266 137.719 37.8888 137.484 38.0955L137.118 37.6807C136.826 37.9384 136.591 38.2451 136.418 38.5934L136.913 38.8392C136.776 39.1157 136.689 39.4214 136.666 39.7448L136.116 39.7057C136.11 39.7761 136.108 39.8478 136.108 39.9185C136.108 40.3092 136.183 40.6894 136.33 41.0485L136.841 40.839C136.962 41.1332 137.138 41.3984 137.358 41.6218L136.964 42.0095C137.237 42.2877 137.556 42.5063 137.913 42.66L138.132 42.1527C138.414 42.2744 138.723 42.3441 139.049 42.3499L139.038 42.9021C139.056 42.9025 139.074 42.9028 139.092 42.9028C139.464 42.9028 139.828 42.8348 140.173 42.7012L139.972 42.186C140.269 42.0704 140.537 41.8986 140.764 41.6834L141.145 42.085C141.428 41.817 141.652 41.5015 141.812 41.1475L141.308 40.9196C141.435 40.6391 141.511 40.3307 141.522 40.0063L142.074 40.025ZM139.092 38.6739C139.779 38.6739 140.337 39.2323 140.337 39.9185C140.337 40.6048 139.779 41.1628 139.092 41.1628C138.406 41.1628 137.848 40.6044 137.848 39.9185C137.848 39.2323 138.406 38.6739 139.092 38.6739Z" fill="#8F6B55"/>
<path d="M124.588 27.4767C124.591 27.408 124.592 27.3393 124.592 27.2703C124.592 26.5841 124.473 25.9121 124.237 25.2725L123.232 25.6421C123.019 25.0627 122.694 24.5363 122.284 24.0888L123.076 23.3648C122.566 22.8075 121.962 22.361 121.281 22.0383L120.822 23.0067C120.282 22.75 119.686 22.5929 119.058 22.5596L119.115 21.4911C118.369 21.4513 117.612 21.5561 116.904 21.8026L117.256 22.8149C116.672 23.0183 116.141 23.3332 115.686 23.7344L114.976 22.9299C114.41 23.4294 113.953 24.0248 113.618 24.6998L114.578 25.1766C114.312 25.7125 114.145 26.3059 114.1 26.933L113.032 26.8575C113.022 26.9942 113.017 27.1332 113.017 27.2706C113.017 28.0283 113.161 28.7658 113.447 29.4623L114.439 29.0562C114.673 29.6265 115.015 30.1413 115.441 30.5746L114.675 31.3264C115.205 31.8657 115.824 32.2901 116.516 32.5883L116.94 31.6039C117.488 31.8402 118.088 31.9749 118.719 31.9861L118.698 33.0569C118.734 33.0576 118.769 33.0579 118.804 33.0579C119.526 33.0579 120.23 32.9263 120.899 32.6665L120.511 31.6675C121.086 31.4434 121.606 31.1101 122.047 30.6926L122.785 31.4716C123.333 30.9517 123.769 30.3399 124.079 29.6534L123.102 29.2116C123.349 28.6679 123.495 28.0694 123.517 27.44L124.588 27.4767ZM118.805 24.8566C120.136 24.8566 121.218 25.9393 121.218 27.2703C121.218 28.6012 120.136 29.684 118.805 29.684C117.474 29.684 116.391 28.6012 116.391 27.2703C116.391 25.9393 117.474 24.8566 118.805 24.8566Z" fill="#8F6B55"/>
<path d="M36.3411 65.4304C36.3452 65.3172 36.3473 65.2036 36.3473 65.0897C36.3473 63.9573 36.1504 62.8484 35.762 61.7925L34.1036 62.4026C33.7506 61.446 33.215 60.5775 32.5394 59.8393L33.8452 58.6447C33.0035 57.7245 32.0072 56.988 30.8837 56.4554L30.1264 58.0537C29.2354 57.6303 28.252 57.3709 27.2152 57.3158L27.3094 55.5526C26.0784 55.487 24.8284 55.6601 23.6607 56.0668L24.2415 57.7371C23.2781 58.0731 22.4008 58.5927 21.651 59.2544L20.4791 57.9265C19.5447 58.7511 18.7908 59.7335 18.2379 60.8475L19.8228 61.6341C19.3828 62.5185 19.107 63.4976 19.0336 64.5323L17.2701 64.4075C17.2541 64.6333 17.2459 64.8625 17.2459 65.089C17.2459 66.3393 17.4847 67.5564 17.9553 68.7058L19.5919 68.0355C19.9782 68.9768 20.5437 69.8262 21.246 70.541L19.9827 71.7819C20.8566 72.6718 21.8788 73.3723 23.021 73.8643L23.7208 72.2399C24.624 72.6299 25.6153 72.8523 26.6555 72.8707L26.6218 74.6379C26.68 74.639 26.7381 74.6396 26.7966 74.6396C27.9875 74.6396 29.1508 74.4224 30.2539 73.9939L29.6132 72.345C30.5623 71.9753 31.4209 71.4251 32.1476 70.7359L33.366 72.0212C34.2709 71.1633 34.9898 70.1537 35.5022 69.021L33.8897 68.2919C34.2967 67.3945 34.5378 66.407 34.5746 65.3682L36.3411 65.4304ZM26.7966 61.1063C28.993 61.1063 30.7799 62.8929 30.7799 65.0897C30.7799 67.2861 28.993 69.0727 26.7966 69.0727C24.6002 69.0727 22.8136 67.2861 22.8136 65.0897C22.8136 62.8933 24.6002 61.1063 26.7966 61.1063Z" fill="#8F6B55"/>
<path d="M46.8834 58.1596C46.9096 58.0729 46.9344 57.9851 46.9575 57.8967C47.1888 57.0197 47.2625 56.1206 47.1775 55.2236L45.7684 55.3572C45.6905 54.5445 45.4528 53.7624 45.0804 53.0527L46.3356 52.3944C45.8717 51.5099 45.2505 50.7359 44.4891 50.0943L43.5761 51.1773C42.9725 50.6676 42.2638 50.2656 41.4722 50.0113L41.905 48.665C40.9648 48.3627 39.9617 48.2417 38.9742 48.3178L39.083 49.7301C38.2682 49.7933 37.4827 50.0167 36.7669 50.3762L36.1307 49.1085C35.2387 49.5563 34.4539 50.1633 33.7982 50.9131L34.865 51.8459C34.3437 52.4409 33.9302 53.1432 33.6619 53.9294L32.3217 53.4727C32.2633 53.644 32.2102 53.8202 32.164 53.9957C31.9086 54.9638 31.845 55.9554 31.9749 56.9415L33.3793 56.7569C33.4864 57.5648 33.7506 58.3381 34.1485 59.0352L32.9168 59.7381C33.4119 60.6056 34.0608 61.3571 34.8449 61.9715L35.7185 60.8562C36.3384 61.3424 37.0607 61.7172 37.8625 61.944L37.4756 63.3059C37.5204 63.3185 37.5653 63.3307 37.6106 63.3426C38.5328 63.5858 39.4781 63.6551 40.42 63.5484L40.2606 62.1405C41.0709 62.0481 41.8483 61.7971 42.5518 61.4118L43.2329 62.6561C44.1089 62.1763 44.8716 61.5414 45.5001 60.7684L44.4 59.8745C44.8982 59.2624 45.2868 58.5472 45.5276 57.7498L46.8834 58.1596ZM40.3745 52.8616C42.0754 53.3101 43.0945 55.0587 42.646 56.7599C42.1975 58.4609 40.4486 59.4797 38.7477 59.0315C37.0467 58.5829 36.0276 56.8344 36.4761 55.1331C36.9247 53.4322 38.6735 52.4131 40.3745 52.8616Z" fill="#8F6B55"/>
<path opacity="0.5" d="M16.4985 86.7266C16.4999 86.6913 16.5002 86.6559 16.5002 86.6202C16.5002 86.2665 16.4386 85.92 16.3173 85.5902L15.799 85.7806C15.6888 85.4817 15.5215 85.2103 15.3104 84.9798L15.7184 84.6068C15.4556 84.3194 15.1441 84.0892 14.7931 83.9229L14.5565 84.4221C14.278 84.2898 13.9709 84.2089 13.6468 84.1916L13.6761 83.6407C13.2915 83.6203 12.9011 83.6743 12.5362 83.8012L12.7178 84.3231C12.4169 84.4282 12.1428 84.5904 11.9085 84.7972L11.5426 84.3823C11.2505 84.6401 11.0152 84.9468 10.8424 85.295L11.3376 85.5409C11.2002 85.8173 11.1138 86.123 11.091 86.4464L10.5401 86.4073C10.535 86.4777 10.5327 86.5495 10.5327 86.6202C10.5327 87.0109 10.6071 87.3911 10.7544 87.7502L11.2658 87.5407C11.3865 87.8349 11.563 88.1001 11.7827 88.3235L11.3882 88.7112C11.6613 88.9893 11.9806 89.208 12.3376 89.3617L12.5563 88.854C12.8385 88.9757 13.148 89.0454 13.4731 89.0512L13.4625 89.6035C13.4806 89.6038 13.4989 89.6038 13.5169 89.6038C13.889 89.6038 14.2525 89.5358 14.5973 89.4021L14.397 88.887C14.6935 88.7714 14.9618 88.5996 15.1886 88.3844L15.5695 88.786C15.8521 88.518 16.0768 88.2024 16.2367 87.8485L15.733 87.6206C15.8602 87.3401 15.9357 87.0317 15.9469 86.7072L16.4985 86.7266ZM13.5166 85.3759C14.2028 85.3759 14.7612 85.9343 14.7612 86.6205C14.7612 87.3068 14.2028 87.8648 13.5166 87.8648C12.8304 87.8648 12.2724 87.3064 12.2724 86.6205C12.272 85.934 12.8304 85.3759 13.5166 85.3759Z" fill="#8F6B55"/>
<path d="M49.9669 91.3462C49.9693 91.2775 49.9707 91.2088 49.9707 91.1398C49.9707 90.4535 49.8513 89.7816 49.616 89.1416L48.6111 89.5113C48.3972 88.9318 48.0728 88.4054 47.6634 87.9579L48.4547 87.2339C47.9446 86.6766 47.341 86.2301 46.6603 85.9074L46.2012 86.8759C45.6612 86.6195 45.0654 86.462 44.437 86.4287L44.4941 85.3603C43.7481 85.3205 42.9908 85.4252 42.2831 85.6718L42.6351 86.6841C42.0512 86.8878 41.5197 87.2023 41.0654 87.6036L40.3554 86.799C39.7892 87.2986 39.3322 87.894 38.9972 88.569L39.9575 89.0457C39.6909 89.5817 39.524 90.175 39.4791 90.8021L38.4106 90.7266C38.4011 90.8633 38.396 91.0024 38.396 91.1398C38.396 91.8974 38.5405 92.635 38.8258 93.3314L39.8178 92.9254C40.0521 93.4956 40.3945 94.0105 40.8199 94.4437L40.0545 95.1955C40.5843 95.7349 41.2035 96.1592 41.8958 96.4575L42.3199 95.473C42.867 95.7094 43.4679 95.844 44.098 95.8552L44.0776 96.9261C44.113 96.9267 44.148 96.9271 44.1833 96.9271C44.9049 96.9271 45.6099 96.7955 46.2784 96.5357L45.8904 95.5363C46.4654 95.3122 46.9857 94.9789 47.4261 94.5614L48.1643 95.3401C48.7128 94.8201 49.1481 94.2084 49.4585 93.5218L48.4816 93.0801C48.7281 92.5364 48.8743 91.9379 48.8968 91.3084L49.9669 91.3462ZM44.1833 88.7257C45.5143 88.7257 46.597 89.8085 46.597 91.1394C46.597 92.4704 45.5143 93.5531 44.1833 93.5531C42.8524 93.5531 41.7697 92.4704 41.7697 91.1394C41.7697 89.8085 42.8524 88.7257 44.1833 88.7257Z" fill="#8F6B55"/>
<path d="M130.395 83.6039C130.397 83.5352 130.398 83.4665 130.398 83.3975C130.398 82.7116 130.279 82.0393 130.044 81.3997L129.039 81.7693C128.825 81.1899 128.5 80.6635 128.091 80.216L128.882 79.492C128.372 78.9347 127.769 78.4882 127.088 78.1655L126.629 79.1339C126.089 78.8772 125.493 78.7201 124.865 78.6868L124.922 77.6183C124.176 77.5785 123.418 77.6833 122.711 77.9298L123.063 78.9421C122.479 79.1455 121.947 79.4604 121.493 79.8616L120.783 79.0571C120.217 79.5566 119.76 80.152 119.425 80.827L120.385 81.3038C120.119 81.8397 119.952 82.4331 119.907 83.0598L118.839 82.9843C118.829 83.121 118.824 83.2601 118.824 83.3975C118.824 84.1551 118.969 84.8927 119.254 85.5891L120.246 85.1831C120.48 85.7534 120.822 86.2682 121.248 86.7014L120.482 87.4533C121.012 87.9926 121.631 88.417 122.323 88.7152L122.748 87.7307C123.295 87.9671 123.896 88.1017 124.526 88.113L124.505 89.1838C124.541 89.1845 124.576 89.1848 124.611 89.1848C125.333 89.1848 126.037 89.0532 126.706 88.7934L126.318 87.7943C126.893 87.5702 127.413 87.237 127.853 86.8194L128.592 87.5981C129.14 87.0782 129.575 86.4664 129.886 85.7799L128.909 85.3382C129.155 84.7944 129.302 84.1959 129.324 83.5665L130.395 83.6039ZM124.611 80.9838C125.942 80.9838 127.025 82.0665 127.025 83.3975C127.025 84.7284 125.942 85.8112 124.611 85.8112C123.28 85.8112 122.197 84.7284 122.197 83.3975C122.197 82.0665 123.28 80.9838 124.611 80.9838Z" fill="#8F6B55"/>
<path opacity="0.5" d="M113.926 79.5386C113.928 79.5005 113.928 79.4624 113.928 79.4244C113.928 79.0442 113.862 78.6718 113.732 78.3172L113.175 78.5219C113.056 78.2009 112.877 77.9091 112.65 77.6612L113.088 77.2603C112.805 76.9515 112.471 76.704 112.094 76.5254L111.839 77.062C111.54 76.9199 111.21 76.8328 110.862 76.8141L110.893 76.2221C110.48 76.2 110.06 76.2581 109.668 76.3948L109.863 76.9556C109.54 77.0685 109.245 77.2429 108.993 77.465L108.6 77.0192C108.287 77.296 108.033 77.6258 107.847 77.9999L108.38 78.2641C108.232 78.561 108.139 78.8898 108.115 79.2373L107.523 79.1955C107.517 79.2713 107.515 79.3482 107.515 79.4244C107.515 79.844 107.595 80.2527 107.753 80.6387L108.302 80.4136C108.432 80.7295 108.622 81.0148 108.857 81.2548L108.433 81.6714C108.727 81.9703 109.07 82.2053 109.454 82.3705L109.689 81.8251C109.992 81.956 110.324 82.0308 110.674 82.037L110.663 82.6303C110.682 82.6307 110.702 82.631 110.721 82.631C111.121 82.631 111.512 82.5583 111.882 82.4141L111.667 81.8605C111.986 81.7364 112.274 81.5517 112.518 81.3201L112.927 81.7517C113.231 81.4636 113.472 81.1246 113.644 80.7441L113.103 80.4993C113.24 80.198 113.321 79.8664 113.333 79.5175L113.926 79.5386ZM110.722 78.0869C111.459 78.0869 112.059 78.6868 112.059 79.4244C112.059 80.1619 111.459 80.7618 110.722 80.7618C109.984 80.7618 109.384 80.1619 109.384 79.4244C109.384 78.6868 109.984 78.0869 110.722 78.0869Z" fill="#8F6B55"/>
<path d="M121.92 70.0364C121.984 69.9545 122.047 69.8708 122.108 69.7862C122.719 68.9435 123.17 68.0121 123.45 67.0171L121.888 66.5768C122.141 65.675 122.21 64.7398 122.105 63.8261L123.721 63.6414C123.591 62.503 123.247 61.4175 122.698 60.4157L121.272 61.1968C120.837 60.4014 120.246 59.6782 119.504 59.078L120.525 57.8167C119.644 57.104 118.621 56.5592 117.532 56.2317L117.064 57.7882C116.166 57.5185 115.233 57.4321 114.319 57.5205L114.163 55.9009C113.023 56.0107 111.932 56.3351 110.92 56.8659L111.675 58.3057C110.871 58.7267 110.138 59.3065 109.525 60.0369L108.28 58.9933C108.147 59.1528 108.017 59.3191 107.895 59.4877C107.221 60.4181 106.742 61.4525 106.473 62.5614L108.052 62.9454C107.832 63.854 107.795 64.7908 107.932 65.7015L106.323 65.9436C106.494 67.077 106.877 68.1495 107.462 69.1312L108.858 68.2995C109.32 69.0765 109.937 69.7763 110.702 70.351L109.724 71.6479C109.766 71.6799 109.809 71.7119 109.853 71.7431C110.739 72.3852 111.722 72.8507 112.774 73.1265L113.186 71.5541C114.092 71.7908 115.027 71.8441 115.94 71.7231L116.153 73.3366C117.289 73.186 118.368 72.8225 119.36 72.2556L118.553 70.8437C119.34 70.3952 120.052 69.7906 120.64 69.0374L121.92 70.0364ZM117.149 61.6729C118.784 62.8569 119.15 65.1499 117.966 66.7845C116.782 68.4188 114.489 68.785 112.854 67.6007C111.22 66.4166 110.854 64.1236 112.038 62.4894C113.222 60.8551 115.515 60.4888 117.149 61.6729Z" fill="#8F6B55"/>
<path d="M109.923 48.3439C109.811 47.8485 109.636 47.3683 109.404 46.9208C109.602 47.3839 109.744 47.8702 109.831 48.3626C109.92 48.855 109.947 49.3579 109.888 49.8497C109.864 50.0955 109.814 50.338 109.744 50.5733C109.676 50.8093 109.579 51.0351 109.465 51.2513C109.348 51.4659 109.209 51.6669 109.053 51.8546C108.892 52.0379 108.721 52.212 108.529 52.3636C108.439 52.4463 108.335 52.5126 108.235 52.5823C108.135 52.6527 108.034 52.7227 107.925 52.7792C107.714 52.905 107.493 53.0118 107.268 53.1124C107.045 53.2158 106.808 53.2923 106.577 53.3773C106.338 53.4423 106.104 53.5259 105.861 53.5759C105.645 53.6208 105.431 53.6749 105.212 53.7102C105.197 53.699 105.182 53.6881 105.166 53.6773C106.374 53.4175 108.048 52.4929 108.786 49.4688C110.005 44.4724 102.815 44.1069 101.23 47.1534C99.6461 50.1999 58.5775 51.0531 58.5775 51.0531L62.1117 52.5156C62.1117 52.5156 59.7772 53.3845 57.7947 55.032C57.4945 54.9698 57.1962 54.8994 56.9021 54.8144C56.0778 54.5702 55.2794 54.2305 54.5622 53.7609C53.8396 53.3005 53.2003 52.7125 52.679 52.0311C52.1536 51.3513 51.7592 50.5746 51.4678 49.7633C50.8887 48.131 50.7435 46.3675 50.804 44.6323C50.838 43.7624 50.9288 42.8936 51.0685 42.0326C51.2114 41.1722 51.3861 40.315 51.631 39.4761C51.36 40.3072 51.1529 41.159 50.992 42.019C50.8312 42.8793 50.719 43.7495 50.6635 44.6248C50.5534 46.3709 50.6805 48.1599 51.2467 49.8398C51.5327 50.6753 51.9272 51.4822 52.461 52.195C52.9912 52.9087 53.6465 53.5338 54.3932 54.02C55.0747 54.4706 55.8262 54.8028 56.5995 55.0524C56.1679 55.0687 55.7351 55.1089 55.3069 55.1956C54.8472 55.2894 54.3888 55.4333 53.9675 55.6723C53.5492 55.9107 53.1718 56.2586 52.9398 56.6972C52.8048 56.9496 52.7236 57.2219 52.6773 57.4987C52.3815 57.5508 52.0938 57.631 51.8133 57.7313C51.3827 57.884 50.9482 58.0962 50.5748 58.3751C50.198 58.6546 49.8811 59.0228 49.6788 59.4466C49.2721 60.3021 49.337 61.3036 49.6815 62.1428C49.5319 61.711 49.4689 61.2532 49.4771 60.802C49.488 60.3507 49.5951 59.9032 49.8056 59.5108C50.0161 59.1181 50.33 58.7906 50.6911 58.5339C51.0587 58.2775 51.4589 58.0938 51.8925 57.9534C52.1366 57.8731 52.3883 57.8085 52.6409 57.7657C52.6321 57.8806 52.6287 57.9952 52.6314 58.1088C52.6416 58.5876 52.7348 59.0541 52.8684 59.5016C52.9334 59.7203 53.0068 59.9536 53.1371 60.1749C53.203 60.2841 53.2823 60.3929 53.3972 60.4834C53.5081 60.5745 53.6801 60.6357 53.8403 60.6109C54.1647 60.5527 54.3405 60.3225 54.4755 60.1192C54.6085 59.9056 54.6959 59.6744 54.7499 59.436C54.854 58.9667 54.8377 58.4261 54.5306 57.9935C54.3769 57.782 54.1518 57.629 53.9151 57.5443C53.6767 57.462 53.4292 57.4338 53.1898 57.4409C53.1398 57.4426 53.0908 57.4498 53.0415 57.4535C53.0861 57.2478 53.1554 57.0499 53.2547 56.8673C53.454 56.4963 53.7747 56.2008 54.1491 55.9896C54.9047 55.5632 55.8184 55.4309 56.7093 55.3966C56.931 55.3897 57.1541 55.3894 57.3768 55.3952C55.7653 56.872 54.5374 58.8946 55.2875 61.4117C56.3842 65.0931 59.4423 64.8972 61.489 64.2878L61.3347 64.362L61.067 64.4912C60.9756 64.5279 60.8804 64.5555 60.7875 64.5881L60.2261 64.7768L59.6477 64.8976C59.4559 64.9516 59.257 64.9397 59.0611 64.9608C58.9628 64.9659 58.8642 64.9788 58.7659 64.9775L58.4711 64.9577L58.1753 64.9384L57.8845 64.8823L57.5931 64.8244L57.3105 64.7333C57.118 64.6816 56.9358 64.6024 56.7545 64.5194C56.5672 64.4477 56.4026 64.3324 56.2251 64.2396C55.8905 64.0209 55.5664 63.7785 55.2886 63.4836C55.5368 63.8043 55.8435 64.0767 56.1713 64.3198C56.3448 64.4262 56.5063 64.5558 56.6926 64.6425C56.8729 64.7405 57.0558 64.835 57.2507 64.902L57.5404 65.0101L57.841 65.0832C57.9416 65.1067 58.0416 65.1339 58.1426 65.1543L58.4507 65.188L58.7595 65.2213C58.8625 65.2267 58.9659 65.2179 59.0696 65.2169C59.2757 65.2039 59.4865 65.223 59.6885 65.1761L60.3019 65.0737L60.8929 64.8867C60.9909 64.8537 61.0908 64.8258 61.1871 64.7887L61.4673 64.6588L62.028 64.398C62.2089 64.3011 62.3803 64.1872 62.5568 64.0821C62.6248 64.0396 62.6935 63.9985 62.7622 63.957C62.5942 64.1804 62.4313 64.4076 62.281 64.6432C62.062 64.987 61.8631 65.3447 61.6914 65.7164C61.5169 66.0867 61.3789 66.4757 61.2864 66.8767C61.2398 67.0766 61.1983 67.2786 61.1779 67.4836C61.1497 67.6877 61.1449 67.8941 61.1425 68.0998C61.1483 68.3062 61.1626 68.5113 61.1973 68.7146C61.2071 68.8173 61.2377 68.9163 61.2592 69.0166C61.2803 69.1172 61.3061 69.2165 61.3438 69.3124C61.4047 69.509 61.4948 69.6933 61.5819 69.8776C61.6856 70.0531 61.7778 70.2357 61.9042 70.3951C62.0185 70.5631 62.1504 70.7165 62.2868 70.8651C62.4198 71.0168 62.5782 71.1436 62.7217 71.2834C62.5908 71.1307 62.4463 70.9913 62.3286 70.8294C62.2048 70.6726 62.0852 70.5138 61.9848 70.3418C61.8719 70.1782 61.7948 69.9939 61.706 69.8184C61.6339 69.6345 61.5598 69.4525 61.5145 69.2611C61.4567 69.0741 61.4268 68.8792 61.4003 68.6864C61.3755 68.4922 61.3704 68.297 61.3727 68.1019C61.3833 67.907 61.3955 67.7118 61.4306 67.5193C61.4578 67.3262 61.5054 67.1354 61.5574 66.9474C61.7723 66.1949 62.1273 65.4831 62.5595 64.8244C62.7153 64.5871 62.8846 64.3589 63.0594 64.1348C62.2657 65.5722 60.8011 69.0037 63.9401 70.4305C67.2158 71.9196 69.2786 68.8 69.9311 67.5918C69.9114 67.6387 69.8917 67.6873 69.8716 67.74C69.8135 67.8818 69.7516 68.044 69.6904 68.2284C69.4693 68.9017 69.264 69.8579 69.3779 70.8318C69.4367 71.3147 69.5734 71.7979 69.8097 72.1984C69.9192 72.4025 70.0593 72.5807 70.2032 72.7344C70.3453 72.8901 70.4983 73.0203 70.6497 73.1217C70.7935 73.2342 70.9486 73.3009 71.0764 73.3706C71.2128 73.4253 71.3274 73.4784 71.4263 73.5107C71.6259 73.5709 71.7399 73.5994 71.7399 73.5994C71.7399 73.5994 71.6361 73.5399 71.4556 73.4457C71.3658 73.3978 71.2638 73.3264 71.1444 73.2526C71.0349 73.1635 70.9027 73.0771 70.7809 72.9578C70.6531 72.8456 70.5293 72.7092 70.4113 72.5579C70.2936 72.4062 70.1848 72.2348 70.094 72.0471C69.9964 71.8625 69.9315 71.6554 69.8648 71.4466C69.8101 71.2334 69.7611 71.014 69.7407 70.7889C69.6979 70.4652 69.6934 70.1357 69.7067 69.8157C69.8879 70.5009 70.3599 71.2038 71.3743 71.7713C74.4208 73.4774 79.052 64.2158 79.052 64.2158L95.8695 60.4378C95.8695 60.4378 97.5732 64.3467 101.719 62.997C105.893 61.6378 107.202 56.8785 105.1 54.0738C105.116 54.071 105.132 54.068 105.149 54.0653C105.226 54.1271 105.302 54.1907 105.374 54.2584C105.544 54.4138 105.696 54.5886 105.832 54.7739C105.967 54.9596 106.088 55.1568 106.187 55.3659C106.285 55.5751 106.37 55.792 106.426 56.0182C106.496 56.2406 106.526 56.4745 106.558 56.7057L106.588 57.057C106.593 57.1747 106.589 57.2927 106.59 57.4107C106.599 57.647 106.56 57.8827 106.547 58.1193C106.51 58.3536 106.481 58.59 106.437 58.8239C106.383 59.0558 106.347 59.2929 106.278 59.522C106.21 59.7512 106.159 59.9859 106.078 60.2113C105.932 60.668 105.76 61.1159 105.586 61.5647L105.891 60.9105C105.992 60.6918 106.071 60.4643 106.163 60.2409C106.257 60.0185 106.321 59.7852 106.401 59.5574C106.483 59.3296 106.532 59.0919 106.599 58.8589C106.659 58.6243 106.697 58.3839 106.741 58.1448C106.763 57.9024 106.81 57.662 106.809 57.4168C106.812 57.2947 106.819 57.1723 106.818 57.0499L106.799 56.6819C106.773 56.4381 106.749 56.1909 106.683 55.9519C106.631 55.7097 106.547 55.4741 106.449 55.2456C106.349 55.0171 106.227 54.7974 106.083 54.5927C105.937 54.3893 105.774 54.1979 105.592 54.0272C105.577 54.0132 105.561 54.0013 105.546 53.9874C105.678 53.9571 105.809 53.9245 105.941 53.8956C106.191 53.8412 106.434 53.7524 106.68 53.6824C106.92 53.5916 107.164 53.5089 107.397 53.3984L107.746 53.2314C107.86 53.1699 107.969 53.0992 108.08 53.0335C108.194 52.9706 108.298 52.8928 108.402 52.8149C108.506 52.7377 108.613 52.6643 108.706 52.5731C108.905 52.4051 109.083 52.2137 109.248 52.0127C109.408 51.807 109.549 51.5876 109.667 51.3557C109.78 51.1214 109.875 50.879 109.939 50.6284C110.003 50.3781 110.052 50.123 110.062 49.866C110.094 49.3511 110.038 48.8387 109.923 48.3439ZM53.1925 57.7113C53.6227 57.7065 54.0569 57.8398 54.2817 58.1714C54.5105 58.4971 54.5354 58.9535 54.4384 59.3632C54.3902 59.5697 54.3109 59.7706 54.2004 59.944C54.0943 60.1148 53.9355 60.2664 53.7971 60.2814C53.6692 60.3052 53.5281 60.18 53.4275 60.0029C53.3258 59.8288 53.2605 59.6227 53.1969 59.404C53.0714 58.9766 52.9881 58.5376 52.9813 58.1023C52.9786 57.9748 52.9864 57.848 53 57.7225C53.0643 57.7184 53.1286 57.7116 53.1925 57.7113Z" fill="#13132D"/>
<path d="M71.9823 64.5794C71.9823 64.5794 74.0539 83.2247 69.9108 83.9561C65.7672 84.6873 56.2618 80.1782 55.1652 92.8522C54.0685 105.526 100.499 96.2646 100.499 96.2646C100.499 96.2646 101.352 85.5404 95.3809 85.0528C89.4096 84.5655 85.5099 89.1963 86.4848 74.5725C87.4594 59.9482 71.9823 64.5794 71.9823 64.5794Z" fill="#E5B4AA"/>
<path opacity="0.5" d="M75.241 71.2074C76.523 73.6099 78.0318 76.0752 80.233 77.7449C82.0951 79.1575 84.1952 79.9736 86.3947 80.4479C86.295 78.9592 86.3202 77.041 86.4848 74.5722C87.3295 61.9002 75.8232 63.6858 72.7359 64.3884C73.1766 66.7735 74.1063 69.0804 75.241 71.2074Z" fill="#510E05"/>
<path d="M80.1473 36.672C80.1473 36.672 94.6494 31.7974 97.2087 55.6832C97.6616 59.911 97.8252 64.804 97.3304 67.6261C95.2588 79.4469 78.0444 76.7248 73.9322 68.601C68.9358 58.7297 66.4984 40.5717 80.1473 36.672Z" fill="#E5B4AA"/>
<path d="M71.6947 61.1477C71.6947 61.1477 70.1359 52.5812 66.5565 55.6335C62.9772 58.6858 69.043 67.0687 72.4285 64.7621C75.8144 62.4559 71.6947 61.1477 71.6947 61.1477Z" fill="#E5B4AA"/>
<path d="M107.211 38.1048L107.605 38.3221C107.73 38.4037 107.851 38.4948 107.975 38.5808C108.096 38.6699 108.224 38.7519 108.342 38.8474L109.029 39.4456L108.399 38.7811C108.289 38.6754 108.167 38.5822 108.051 38.4819C107.932 38.3843 107.817 38.2819 107.695 38.1881L107.305 37.9385C107.176 37.8528 107.043 37.7732 106.897 37.7158L106.471 37.5247L106.376 37.4974C106.422 37.424 106.468 37.3505 106.512 37.2768L106.688 37.1084C106.813 36.9727 106.926 36.8262 107.046 36.6861C107.169 36.549 107.263 36.3896 107.371 36.241C107.481 36.0927 107.575 35.9356 107.666 35.7764C107.761 35.62 107.852 35.4609 107.93 35.296C108.015 35.1338 108.092 34.9685 108.16 34.7988C108.233 34.6318 108.3 34.4625 108.36 34.2904C108.485 33.9494 108.592 33.6008 108.664 33.2455C108.551 33.5896 108.415 33.9245 108.266 34.2523C108.119 34.5812 107.95 34.8995 107.768 35.2079C107.683 35.3657 107.587 35.5167 107.487 35.6649C107.39 35.8156 107.291 35.9638 107.178 36.1022C107.128 36.1651 107.08 36.2301 107.031 36.294C108.13 33.862 107.889 31.3293 104.765 29.8528C103.45 29.2312 102.146 28.918 100.902 28.8309C101.173 28.7534 101.465 28.6939 101.776 28.6626C102.036 28.6296 102.308 28.6361 102.582 28.6449C102.857 28.6568 103.136 28.6929 103.412 28.7459C103.964 28.8472 104.506 29.0159 105.002 29.2111C105.496 29.4083 105.953 29.6144 106.329 29.8225C107.088 30.2258 107.568 30.555 107.568 30.555C107.568 30.555 107.467 30.4502 107.274 30.285C107.078 30.1235 106.798 29.8888 106.432 29.6501C106.066 29.4117 105.626 29.1468 105.124 28.9214C104.623 28.6915 104.059 28.5089 103.477 28.3943C103.185 28.3416 102.889 28.3086 102.596 28.2998C102.304 28.2906 102.014 28.3059 101.737 28.3501C101.46 28.3855 101.198 28.4586 100.957 28.5422C100.823 28.5895 100.697 28.6408 100.577 28.6952C100.934 27.0259 100.798 25.5668 99.8906 24.9397C99.0147 24.3341 97.5939 24.5728 96.0729 25.2638C96.1695 25.0751 96.2582 24.8826 96.3408 24.6871C96.3986 24.6503 96.4554 24.6119 96.5136 24.5759C97.3171 24.0825 98.1601 23.6418 99.0524 23.368C99.4975 23.231 99.9563 23.1443 100.414 23.1364C100.764 23.1344 101.113 23.1861 101.436 23.3054C101.338 23.4129 101.244 23.5248 101.16 23.6475C101.026 23.8526 100.912 24.0893 100.902 24.3542C100.886 24.6174 100.996 24.8891 101.181 25.0737C101.364 25.2624 101.596 25.3859 101.839 25.4597C102.083 25.5311 102.343 25.5607 102.605 25.5069C102.735 25.4797 102.869 25.4294 102.984 25.3325C103.099 25.2386 103.181 25.0856 103.191 24.9367C103.216 24.6364 103.079 24.3868 102.953 24.1807C102.677 23.7625 102.315 23.3973 101.864 23.1606C101.838 23.1466 101.81 23.1378 101.783 23.1249C101.931 22.9783 102.088 22.8396 102.251 22.709C102.622 22.4145 103.018 22.1479 103.424 21.898C103.002 22.12 102.588 22.3598 102.199 22.6417C102.016 22.7756 101.836 22.9178 101.667 23.0729C101.269 22.9011 100.836 22.8239 100.412 22.825C99.9144 22.8314 99.4275 22.9232 98.9609 23.0643C98.0982 23.3255 97.2977 23.7308 96.5337 24.1838C96.7795 23.4806 96.9339 22.7457 96.9679 21.999C97.0359 20.7197 96.738 19.4272 96.1423 18.2992C95.5353 17.1686 94.678 16.2065 93.6684 15.4357C92.6615 14.662 91.5009 14.1098 90.2975 13.7357C89.0889 13.3699 87.8345 13.1818 86.5797 13.1243C85.3246 13.0696 84.063 13.1356 82.8286 13.3576C83.4478 13.2597 84.0735 13.2121 84.6989 13.1893C85.3242 13.1655 85.9506 13.1753 86.5746 13.2158C87.8216 13.2984 89.0617 13.511 90.2465 13.8966C91.4264 14.288 92.5602 14.8395 93.5337 15.6098C94.5069 16.3694 95.3397 17.3342 95.9049 18.4223C96.4687 19.5186 96.7265 20.7581 96.6615 21.983C96.6197 22.8243 96.4191 23.6516 96.1008 24.4327C96.6788 20.872 95.4482 17.2032 90.0186 15.5805C80.2167 12.651 68.032 17.6038 63.9473 27.1137C64.0054 26.8848 64.0687 26.6502 64.135 26.4026C64.2302 26.0371 64.3676 25.662 64.4825 25.2682C64.6284 24.884 64.7542 24.4783 64.926 24.0838C65.0076 23.8849 65.0895 23.6843 65.1718 23.4829C65.2551 23.2823 65.3602 23.0902 65.4534 22.893C65.5489 22.6971 65.6319 22.4944 65.7356 22.3037C65.8414 22.1139 65.9468 21.9252 66.0512 21.7375C66.2508 21.3563 66.4861 21.0057 66.7058 20.6599C66.9163 20.3069 67.1659 19.9995 67.3856 19.6927C67.4981 19.5418 67.6035 19.3908 67.7137 19.2514C67.829 19.116 67.9402 18.9854 68.0473 18.86C68.2663 18.6138 68.4485 18.3662 68.6359 18.1724C68.8246 17.9786 68.9892 17.8096 69.1246 17.6701C69.3939 17.3869 69.5459 17.2182 69.5459 17.2182C69.5459 17.2182 69.3582 17.3386 69.0331 17.561C68.8716 17.6745 68.675 17.8126 68.4499 17.9707C68.2279 18.134 68.0044 18.3495 67.7504 18.5753C67.6243 18.6896 67.4927 18.8086 67.3563 18.9321C67.2254 19.0606 67.1057 19.2078 66.9741 19.3517C66.718 19.6458 66.4246 19.9406 66.1899 20.2977C65.9458 20.6469 65.6639 20.9914 65.4544 21.3889C65.3415 21.5827 65.2276 21.7783 65.1137 21.9745C65.0021 22.1721 64.91 22.3808 64.808 22.5845C64.7145 22.7923 64.6094 22.995 64.5261 23.2058C64.4441 23.417 64.3625 23.6275 64.2812 23.8363C64.1945 24.043 64.1255 24.2542 64.0667 24.4657C64.0038 24.6755 63.9415 24.8829 63.8806 25.087C63.778 25.5001 63.68 25.8997 63.6164 26.2839C63.546 26.6668 63.4933 27.0307 63.4644 27.369C63.4209 27.705 63.4158 28.0172 63.4019 28.2909C63.3995 28.3878 63.3995 28.4742 63.3988 28.5619C63.3094 28.8353 63.2288 29.1132 63.1523 29.393C63.1516 29.342 63.1495 29.2914 63.1492 29.2403C63.1485 28.6745 63.1577 28.109 63.1887 27.5448C63.1958 27.2623 63.2213 26.981 63.2417 26.6991C63.259 26.4172 63.2866 26.1364 63.3213 25.8562C63.377 25.2944 63.4682 24.7377 63.5644 24.1824L63.731 23.3541L63.9371 22.5359C64.0014 22.2618 64.0983 21.9976 64.1772 21.728C64.2544 21.4573 64.352 21.1944 64.4526 20.9326C64.6376 20.4021 64.8777 19.8947 65.1137 19.387L65.5075 18.6454C65.6428 18.4006 65.8013 18.1697 65.9468 17.9309C66.0879 17.6888 66.259 17.4675 66.4252 17.243C66.5926 17.0193 66.7507 16.788 66.9421 16.584C67.1271 16.3749 67.3063 16.16 67.4961 15.9553L68.0976 15.3721C68.2901 15.1684 68.5234 15.0106 68.7345 14.8283C68.9505 14.6512 69.1637 14.4696 69.4007 14.3203L70.0941 13.8473L70.6153 13.5531C70.6259 13.6864 70.6432 13.8201 70.6738 13.9541C70.7405 14.2808 70.9064 14.5988 71.138 14.8528C71.3709 15.1085 71.6722 15.2911 71.9864 15.4037C72.6216 15.6268 73.2885 15.6013 73.9135 15.4707C74.5351 15.3228 75.1489 15.0772 75.6457 14.6042C75.8861 14.3628 76.1116 14.068 76.1538 13.6412C76.1765 13.291 76.1078 12.9193 75.8837 12.603C75.6658 12.2854 75.3213 12.0926 74.9972 11.9943C74.6674 11.89 74.3379 11.8621 74.0159 11.8563C73.3687 11.859 72.7583 11.9593 72.1384 12.1266L72.1231 12.1307L72.1109 12.1361L71.3128 12.4952L71.1173 12.5833C71.1434 12.4432 71.1751 12.3038 71.2111 12.1661C71.2465 12.0243 71.2866 11.8838 71.3383 11.7454L71.4104 11.5366L71.4423 11.4441L71.4889 11.3408L71.8627 10.5144C72.0048 10.256 72.1663 10.017 72.3166 9.766C72.386 9.63746 72.4815 9.52524 72.5761 9.412L72.8559 9.07025C73.0287 8.82848 73.2701 8.65369 73.4776 8.44422C73.6809 8.22761 73.938 8.07833 74.175 7.90286C74.4066 7.71685 74.6796 7.59886 74.9398 7.45807C75.1951 7.30505 75.4811 7.2214 75.7579 7.11564C76.0317 6.99765 76.3262 6.948 76.6152 6.87761C76.9025 6.79498 77.2008 6.7773 77.4969 6.74159C77.7925 6.69432 78.0917 6.70418 78.3906 6.70316C78.6902 6.69024 78.9877 6.72357 79.2856 6.75689C79.4342 6.77389 79.5842 6.78375 79.7321 6.8062L80.1728 6.89631L80.6142 6.98643C80.759 7.02519 80.9015 7.0728 81.0457 7.11564C81.3331 7.20338 81.6235 7.28431 81.8986 7.40775C82.174 7.52745 82.4647 7.61688 82.7269 7.76718C82.9922 7.90966 83.269 8.0331 83.5257 8.19156L84.2912 8.67715L83.543 8.16368C83.2914 7.99569 83.0183 7.86171 82.7565 7.70869C82.4977 7.54819 82.2097 7.44787 81.9356 7.31695C81.6626 7.18161 81.3718 7.09184 81.0835 6.99561C80.9389 6.94834 80.7958 6.89631 80.6499 6.85312L80.2051 6.74975L79.7596 6.64638C79.6097 6.61951 79.4577 6.60489 79.3067 6.58381C79.0044 6.54164 78.7017 6.49981 78.395 6.50457C78.0893 6.49709 77.7829 6.47941 77.4782 6.5192C77.1732 6.54742 76.8651 6.5583 76.5666 6.63481C76.2663 6.69942 75.9603 6.74363 75.6729 6.85754C75.3825 6.95922 75.0826 7.03947 74.8119 7.1908C74.5365 7.32988 74.2478 7.44719 73.9999 7.63456C73.7462 7.81105 73.4724 7.96305 73.2524 8.18306C73.028 8.39559 72.7696 8.57684 72.5842 8.82712L72.2836 9.18213C72.1823 9.29978 72.0803 9.41643 72.0021 9.55347C71.8368 9.81769 71.6573 10.0799 71.5049 10.3482L71.1176 11.168L71.0693 11.2704C71.0445 11.3289 71.0397 11.3493 71.0238 11.3908L70.9442 11.6094C70.8877 11.7536 70.8422 11.9025 70.8017 12.0539C70.7333 12.3035 70.6749 12.5619 70.6395 12.8258L70.5297 12.8863L69.7639 13.3134L69.0358 13.8038C68.7872 13.9592 68.5625 14.1472 68.335 14.3319C68.1122 14.5216 67.8677 14.6869 67.6641 14.8987L67.0299 15.5074C66.8296 15.721 66.6402 15.9451 66.445 16.1637C66.2433 16.3773 66.0757 16.618 65.8992 16.8516C65.7234 17.0859 65.5435 17.3175 65.3939 17.5695C65.2398 17.818 65.0732 18.0598 64.93 18.3149L64.5142 19.0875C64.2646 19.6152 64.0119 20.1433 63.8164 20.6932C63.7103 20.9649 63.6076 21.2383 63.5256 21.5178C63.4423 21.7966 63.3406 22.0711 63.2723 22.354L63.0543 23.1993L62.8778 24.0536C62.7755 24.6252 62.6786 25.1985 62.618 25.7756C62.5806 26.0636 62.5511 26.352 62.5313 26.6413C62.5089 26.9304 62.481 27.2191 62.4722 27.5088C62.4429 28.0876 62.4371 28.667 62.4409 29.2458C62.4518 30.267 62.5157 31.2864 62.6211 32.3008C62.6041 32.4793 62.5902 32.6592 62.5786 32.8401C62.5194 32.6902 62.4616 32.5402 62.394 32.3889C62.1967 31.9573 61.9716 31.5204 61.7105 31.0953C61.4473 30.672 61.1619 30.2503 60.8352 29.8613C60.5128 29.4689 60.1523 29.1098 59.7875 28.7701C59.4131 28.4402 59.0343 28.1267 58.6422 27.8594C57.8665 27.3102 57.0616 26.929 56.3655 26.6403C55.6647 26.3564 55.0529 26.2013 54.6255 26.1058C54.1964 26.0122 53.9461 25.9922 53.9461 25.9922C53.9461 25.9922 54.1916 26.0432 54.6082 26.1727C55.0264 26.2958 55.6099 26.5159 56.286 26.8246C56.6219 26.9838 56.9831 27.1623 57.3476 27.3809C57.7152 27.5938 58.0872 27.8434 58.4626 28.1124C58.8404 28.379 59.2036 28.6898 59.5617 29.0159C59.9106 29.3519 60.254 29.7048 60.5601 30.0901C60.8814 30.4621 61.165 30.8654 61.4268 31.2725C61.6873 31.6809 61.9128 32.1022 62.1121 32.5195C62.1648 32.6361 62.213 32.75 62.2637 32.8649C62.1994 32.7745 62.1352 32.684 62.0723 32.5929C61.8009 32.2627 61.5363 31.9274 61.2262 31.6295C60.6216 31.0232 59.9252 30.4965 59.1485 30.1139C58.3735 29.73 57.5214 29.4933 56.6542 29.4362C55.7875 29.3736 54.9064 29.4995 54.0913 29.8188C53.7189 29.9643 53.3608 30.1527 53.0334 30.3914C52.6338 30.3829 52.2332 30.4156 51.8415 30.506C51.0084 30.6924 50.2337 31.1004 49.6036 31.6595C48.9613 32.208 48.458 32.8911 48.0312 33.6042C47.6123 34.3248 47.2736 35.0875 47.0056 35.8723C46.7411 36.6579 46.5262 37.4604 46.3908 38.2765C46.5554 37.4662 46.7982 36.6738 47.089 35.9026C47.3865 35.1338 47.7354 34.385 48.169 33.6875C48.6073 32.9969 49.118 32.3433 49.7502 31.8329C50.3715 31.3109 51.1148 30.9474 51.9014 30.793C52.1438 30.7437 52.3893 30.7196 52.6355 30.7124C52.4039 30.9233 52.1941 31.1633 52.0323 31.4432C51.7987 31.8356 51.6582 32.31 51.6987 32.7867C51.7106 33.0268 51.7813 33.2523 51.8748 33.4743C51.9299 33.5821 51.986 33.6967 52.0455 33.7953L52.2312 34.0436C52.5352 34.4037 52.8555 34.6842 53.2507 34.9127C53.64 35.1358 54.0869 35.2698 54.5395 35.2892C55.4457 35.3269 56.3519 34.9124 56.8923 34.1775C57.1528 33.8082 57.3245 33.3441 57.2799 32.8711C57.2381 32.3987 56.9946 31.9689 56.6753 31.6591C56.0262 31.0365 55.1798 30.7498 54.3708 30.5601C54.264 30.5363 54.1562 30.5145 54.0481 30.4951C54.1351 30.4567 54.2195 30.4125 54.3086 30.3795C55.0366 30.1031 55.831 29.9891 56.6131 30.0517C57.3956 30.1082 58.1651 30.3254 58.869 30.6788C59.5743 31.031 60.2115 31.5173 60.7699 32.0832C61.0562 32.36 61.3017 32.6766 61.5547 32.986C61.7798 33.3175 62.0243 33.6362 62.2164 33.9912C62.2273 34.0089 62.2365 34.0276 62.2474 34.0456C58.2212 33.9439 53.2571 36.7589 52.119 45.0622C50.4701 57.0932 62.6041 56.7474 64.8171 53.0432L66.8646 55.4742C66.8646 55.4742 69.4238 54.8893 70.3987 57.8141C71.3737 60.7389 71.7392 62.1426 71.7392 62.1426L74.5419 61.5577L73.3232 50.3269C73.3232 50.3269 77.9798 48.2441 77.8989 40.8469C77.9098 40.882 77.92 40.917 77.9309 40.9517C77.9428 41.0466 77.9543 41.1411 77.9611 41.2366C78.0478 42.1908 77.9992 43.1576 77.837 44.1056C77.6728 45.0537 77.4034 45.9848 77.0464 46.8825C76.8668 47.331 76.6642 47.7707 76.4404 48.1999C76.216 48.6283 75.9762 49.0507 75.6998 49.4495C76.2853 48.6746 76.7577 47.8166 77.1535 46.9277C77.5452 46.0365 77.8543 45.1037 78.0366 44.142C78.1808 43.3966 78.2536 42.6356 78.2485 41.8739C78.4739 42.4782 78.73 43.0719 79.0275 43.6466C79.4492 44.4668 79.9593 45.2486 80.5778 45.9423C80.8821 46.2935 81.2263 46.6101 81.5867 46.9049C81.9475 47.2011 82.3471 47.448 82.7596 47.6667C82.8072 47.6898 82.8565 47.7126 82.9051 47.7357C82.9218 47.8139 82.9435 47.8904 82.9755 47.9618C83.1748 48.4148 83.5896 48.7228 84.031 48.8735C84.4775 49.0269 84.959 49.0282 85.4086 48.931C85.8598 48.8317 86.2818 48.6378 86.6681 48.3967C86.2685 48.6164 85.838 48.7779 85.3946 48.8585C84.9515 48.9347 84.4891 48.9109 84.0769 48.7487C83.6668 48.5916 83.3101 48.2828 83.1486 47.8901C83.1418 47.8737 83.138 47.8564 83.1323 47.8397C83.2217 47.8792 83.3115 47.9176 83.4009 47.9486C83.6332 48.0281 83.8651 48.0846 84.1092 48.108C84.352 48.1305 84.6071 48.1145 84.8499 48.0268C85.092 47.9428 85.3205 47.7751 85.4507 47.532C85.5755 47.2902 85.5837 46.9726 85.4279 46.7346C85.2766 46.4935 85.0121 46.3694 84.7655 46.3333C84.5152 46.2932 84.2701 46.3221 84.0385 46.3762C83.9185 46.401 83.8161 46.4387 83.692 46.4785L83.5342 46.5445L83.3672 46.6383C83.1591 46.773 82.986 46.9818 82.9133 47.228C82.9014 47.2729 82.8959 47.3181 82.8898 47.3637C82.5066 47.1559 82.1349 46.923 81.7982 46.6421C81.4562 46.3575 81.1283 46.0528 80.8379 45.7124C80.5458 45.374 80.2694 45.0207 80.0256 44.6436C79.7794 44.2685 79.5441 43.8853 79.338 43.4847C78.9184 42.688 78.5746 41.8498 78.2893 40.9925C78.2464 40.8622 78.2066 40.7303 78.1662 40.599C78.1614 40.5603 78.157 40.5212 78.1526 40.4824C78.1383 40.396 78.1247 40.3097 78.1111 40.2229C78.7908 41.9147 80.7812 45.7896 84.7795 45.8811C86.4416 45.9191 87.7158 45.4006 88.6822 44.6851C89.3844 46.1946 90.5749 47.533 92.4571 46.349C92.4571 46.349 92.7009 51.7306 99.891 49.7416C105.71 48.1318 110.491 41.5413 106.804 37.9082L106.811 37.9109C106.951 37.9579 107.082 38.0279 107.211 38.1048ZM102.704 24.3375C102.832 24.5259 102.93 24.7265 102.919 24.9101C102.913 25.0866 102.758 25.2152 102.549 25.2614C102.137 25.3515 101.64 25.2233 101.328 24.9271C101.172 24.7782 101.082 24.5735 101.087 24.3582C101.089 24.1426 101.174 23.926 101.29 23.7291C101.369 23.5989 101.464 23.4782 101.564 23.3612C101.616 23.384 101.67 23.4034 101.72 23.4302C102.118 23.636 102.449 23.9665 102.704 24.3375ZM71.1928 13.2301L71.5756 13.0553L72.3278 12.7115C72.8692 12.5619 73.4568 12.4643 74.0148 12.4592C74.5701 12.4534 75.1543 12.5673 75.4175 12.9363C75.5519 13.1101 75.6117 13.3702 75.5964 13.6167C75.5848 13.8 75.4481 14.0394 75.2642 14.2183C74.8888 14.5934 74.3443 14.8348 73.7992 14.9705C73.2504 15.0963 72.6604 15.1211 72.1463 14.947C71.6314 14.779 71.2356 14.3795 71.1156 13.8463C71.0717 13.6728 71.0578 13.4912 71.055 13.3069L71.1928 13.2301ZM54.2861 30.9083C54.6969 31.0001 55.0553 31.1337 55.4273 31.2915C55.7841 31.4629 56.1251 31.6683 56.3914 31.9397C56.658 32.2083 56.8341 32.547 56.8613 32.903C56.8899 33.2597 56.7532 33.6188 56.5369 33.9174C56.086 34.5128 55.3097 34.8553 54.564 34.809C54.1902 34.7862 53.8237 34.6709 53.4986 34.4775C53.1776 34.2901 52.8763 34.0082 52.6512 33.7358L52.4696 33.4845C52.4261 33.4046 52.3972 33.3301 52.3574 33.2543C52.2958 33.0972 52.24 32.92 52.2373 32.7466C52.2135 32.3974 52.3203 32.0447 52.5121 31.7322C52.6998 31.416 52.9783 31.146 53.2877 30.9226C53.3666 30.8631 53.4554 30.8168 53.5397 30.7641C53.7907 30.7985 54.0403 30.8467 54.2861 30.9083ZM83.4859 46.8257L83.6182 46.7546L83.7777 46.6931C83.8715 46.6676 83.9848 46.6288 84.0892 46.6118C84.301 46.5683 84.5186 46.5516 84.7186 46.5904C84.9189 46.6254 85.0967 46.7264 85.1862 46.8805C85.2797 47.0328 85.2685 47.2293 85.1828 47.3892C85.0025 47.7224 84.5486 47.8414 84.1371 47.7928C83.9276 47.7707 83.7144 47.7163 83.5162 47.6469C83.3625 47.5915 83.2214 47.5255 83.0796 47.4568C83.0843 47.3984 83.0928 47.3409 83.1091 47.2855C83.1724 47.0944 83.3091 46.9342 83.4859 46.8257Z" fill="#191939"/>
<path d="M90.2063 41.9308C87.8862 41.8223 85.4483 41.4428 83.5645 40.1516C81.2521 38.5667 80.7244 36.0438 81.1127 33.4319C77.6459 31.6358 75.0778 27.734 73.8465 24.2873C73.0957 22.1851 72.6427 19.8343 72.9641 17.5927C69.0069 19.7316 65.7166 22.9937 63.947 27.1134C64.0051 26.8846 64.0684 26.6499 64.1347 26.4024C64.2299 26.0368 64.3673 25.6617 64.4822 25.268C64.6281 24.8837 64.7539 24.478 64.9256 24.0836C65.0072 23.8846 65.0892 23.684 65.1715 23.4827C65.2548 23.2821 65.3599 23.0899 65.453 22.8927C65.5486 22.6968 65.6316 22.4942 65.7353 22.3034C65.841 22.1137 65.9465 21.9249 66.0509 21.7372C66.2505 21.356 66.4858 21.0054 66.7055 20.6596C66.9159 20.3066 67.1655 19.9992 67.3852 19.6925C67.4978 19.5415 67.6032 19.3905 67.7134 19.2511C67.8286 19.1158 67.9398 18.9852 68.047 18.8597C68.2659 18.6135 68.4482 18.366 68.6356 18.1721C68.8243 17.9783 68.9889 17.8093 69.1242 17.6699C69.3936 17.3866 69.5456 17.218 69.5456 17.218C69.5456 17.218 69.3578 17.3383 69.0328 17.5607C68.8712 17.6743 68.6747 17.8124 68.4496 17.9705C68.2275 18.1337 68.0041 18.3493 67.7501 18.5751C67.6239 18.6894 67.4923 18.8084 67.356 18.9318C67.2251 19.0604 67.1054 19.2076 66.9738 19.3514C66.7177 19.6456 66.4242 19.9404 66.1896 20.2975C65.9454 20.6467 65.6635 20.9912 65.4541 21.3887C65.3412 21.5825 65.2273 21.778 65.1133 21.9742C65.0018 22.1718 64.9096 22.3806 64.8076 22.5843C64.7141 22.7921 64.609 22.9947 64.5257 23.2056C64.4438 23.4167 64.3622 23.6272 64.2809 23.836C64.1942 24.0428 64.1251 24.2539 64.0663 24.4655C64.0034 24.6753 63.9412 24.8827 63.8803 25.0867C63.7776 25.4999 63.6797 25.8994 63.6161 26.2837C63.5457 26.6666 63.493 27.0304 63.4641 27.3688C63.4206 27.7048 63.4155 28.0169 63.4015 28.2907C63.3991 28.3876 63.3991 28.474 63.3985 28.5617C63.309 28.8351 63.2284 29.1129 63.1519 29.3928C63.1512 29.3418 63.1492 29.2911 63.1489 29.2401C63.1482 28.6743 63.1574 28.1087 63.1883 27.5446C63.1955 27.262 63.221 26.9808 63.2414 26.6989C63.2587 26.417 63.2863 26.1361 63.3209 25.8559C63.3767 25.2942 63.4678 24.7375 63.5641 24.1822L63.7307 23.3538L63.9368 22.5357C64.001 22.2616 64.098 21.9974 64.1768 21.7277C64.254 21.457 64.3516 21.1942 64.4523 20.9323C64.6373 20.4018 64.8773 19.8945 65.1133 19.3868L65.5071 18.6451C65.6425 18.4003 65.8009 18.1694 65.9465 17.9307C66.0876 17.6886 66.2586 17.4672 66.4249 17.2428C66.5922 17.019 66.7503 16.7878 66.9418 16.5838C67.1268 16.3746 67.306 16.1597 67.4957 15.955L68.0973 15.3718C68.2897 15.1681 68.523 15.0103 68.7342 14.8281C68.9501 14.6509 69.1633 14.4693 69.4004 14.32L70.0937 13.847L70.615 13.5529C70.6256 13.6862 70.6429 13.8198 70.6735 13.9538C70.7402 14.2806 70.9061 14.5985 71.1377 14.8526C71.3706 15.1083 71.6719 15.2909 71.9861 15.4034C72.4853 15.5786 73.0039 15.5993 73.5061 15.5374C73.5837 15.3456 73.6693 15.1596 73.7601 14.9767C73.2218 15.095 72.6478 15.1164 72.1452 14.9464C71.6304 14.7784 71.2346 14.3789 71.1145 13.8457C71.0707 13.6723 71.0567 13.4907 71.054 13.3064L71.1921 13.2295L71.575 13.0547L72.3272 12.7109C72.8685 12.5613 73.4561 12.4637 74.0142 12.4586C74.5144 12.4535 75.0357 12.547 75.3268 12.835C75.4641 12.7028 75.6066 12.5749 75.7539 12.4521C75.5413 12.2253 75.2642 12.075 74.9966 11.9941C74.6667 11.8897 74.3372 11.8618 74.0152 11.856C73.3681 11.8588 72.7577 11.9591 72.1378 12.1264L72.1225 12.1305L72.1102 12.1359L71.3121 12.495L71.1166 12.5831C71.1428 12.443 71.1744 12.3035 71.2104 12.1658C71.2458 12.024 71.2859 11.8836 71.3376 11.7452L71.4097 11.5364L71.4417 11.4439L71.4883 11.3405L71.862 10.5142C72.0041 10.2558 72.1656 10.0167 72.3159 9.76575C72.3853 9.63721 72.4809 9.525 72.5754 9.41176L72.8553 9.07001C73.028 8.82823 73.2694 8.65345 73.4769 8.44397C73.6802 8.22736 73.9373 8.07808 74.1743 7.90262C74.4059 7.71661 74.679 7.59861 74.9391 7.45783C75.1945 7.30481 75.4805 7.22115 75.7573 7.1154C76.031 6.9974 76.3255 6.94775 76.6145 6.87736C76.9019 6.79473 77.2001 6.77705 77.4963 6.74135C77.7918 6.69408 78.091 6.70394 78.3899 6.70292C78.6895 6.69 78.9871 6.72332 79.2849 6.75665C79.4335 6.77365 79.5835 6.78351 79.7314 6.80595L80.1721 6.89606L80.6135 6.98618C80.7584 7.02494 80.9009 7.07255 81.045 7.1154C81.3324 7.20313 81.6228 7.28407 81.8979 7.4075C82.1733 7.5272 82.4641 7.61663 82.7262 7.76694C82.9915 7.90942 83.2683 8.03286 83.525 8.19132L84.2905 8.67691L83.5424 8.16343C83.2907 7.99545 83.0177 7.86147 82.7558 7.70845C82.4971 7.54794 82.209 7.44763 81.935 7.31671C81.6619 7.18137 81.3711 7.0916 81.0828 6.99536C80.9383 6.94809 80.7951 6.89606 80.6492 6.85288L80.2044 6.7495L79.759 6.64613C79.609 6.61926 79.457 6.60464 79.306 6.58356C79.0037 6.5414 78.7011 6.49957 78.3943 6.50433C78.0886 6.49685 77.7823 6.47916 77.4776 6.51895C77.1725 6.54718 76.8645 6.55806 76.5659 6.63457C76.2656 6.69918 75.9596 6.74338 75.6722 6.8573C75.3818 6.95897 75.0819 7.03923 74.8112 7.19055C74.5358 7.32963 74.2471 7.44695 73.9992 7.63432C73.7455 7.8108 73.4718 7.96281 73.2518 8.18282C73.0273 8.39535 72.7689 8.5766 72.5836 8.82687L72.283 9.18188C72.1816 9.29954 72.0796 9.41618 72.0014 9.55322C71.8361 9.81744 71.6566 10.0796 71.5042 10.3479L71.1169 11.1678L71.0686 11.2701C71.0438 11.3286 71.0391 11.349 71.0231 11.3905L70.9435 11.6092C70.8871 11.7533 70.8415 11.9023 70.801 12.0536C70.7327 12.3032 70.6742 12.5616 70.6388 12.8255L70.529 12.8861L69.7632 13.3132L69.0351 13.8035C68.7866 13.9589 68.5618 14.147 68.3343 14.3316C68.1116 14.5214 67.8671 14.6866 67.6634 14.8985L67.0292 15.5072C66.8289 15.7207 66.6395 15.9448 66.4443 16.1635C66.2426 16.377 66.075 16.6178 65.8985 16.8514C65.7227 17.0857 65.5428 17.3173 65.3932 17.5692C65.2392 17.8178 65.0725 18.0596 64.9294 18.3146L64.5135 19.0872C64.2639 19.615 64.0112 20.1431 63.8157 20.6929C63.7096 20.9646 63.6069 21.238 63.525 21.5176C63.4417 21.7964 63.34 22.0708 63.2716 22.3537L63.0537 23.1991L62.8772 24.0533C62.7748 24.6249 62.6779 25.1983 62.6174 25.7753C62.58 26.0633 62.5504 26.3517 62.5307 26.6411C62.5082 26.9301 62.4803 27.2188 62.4715 27.5086C62.4422 28.0873 62.4365 28.6668 62.4402 29.2455C62.4511 30.2667 62.515 31.2862 62.6204 32.3006C62.6034 32.4791 62.5895 32.659 62.5779 32.8399C62.5188 32.6899 62.4609 32.5399 62.3933 32.3886C62.196 31.9571 61.9709 31.5201 61.7098 31.0951C61.4466 30.6717 61.1613 30.25 60.8345 29.861C60.5121 29.4686 60.1517 29.1095 59.7868 28.7698C59.4124 28.44 59.0336 28.1264 58.6415 27.8592C57.8658 27.31 57.0609 26.9288 56.3649 26.6401C55.664 26.3561 55.0523 26.2011 54.6248 26.1055C54.1957 26.012 53.9454 25.9919 53.9454 25.9919C53.9454 25.9919 54.1909 26.0429 54.6075 26.1725C55.0257 26.2956 55.6093 26.5156 56.2853 26.8244C56.6213 26.9835 56.9824 27.162 57.3469 27.3807C57.7145 27.5936 58.0865 27.8432 58.462 28.1122C58.8398 28.3788 59.2029 28.6896 59.561 29.0157C59.9099 29.3516 60.2533 29.7046 60.5594 30.0899C60.8807 30.4619 61.1643 30.8652 61.4262 31.2722C61.6867 31.6806 61.9121 32.102 62.1114 32.5192C62.1641 32.6358 62.2124 32.7498 62.263 32.8647C62.1988 32.7742 62.1345 32.6838 62.0716 32.5927C61.8002 32.2625 61.5357 31.9272 61.2255 31.6293C60.6209 31.023 59.9245 30.4962 59.1478 30.1137C58.3729 29.7298 57.5207 29.4931 56.6536 29.436C55.7868 29.3734 54.9057 29.4992 54.0906 29.8185C53.7182 29.9641 53.3602 30.1525 53.0327 30.3912C52.6332 30.3827 52.2326 30.4153 51.8408 30.5058C51.0077 30.6921 50.2331 31.1002 49.603 31.6592C48.9606 32.2077 48.4573 32.8909 48.0306 33.604C47.6116 34.3245 47.2729 35.0873 47.005 35.8721C46.7404 36.6576 46.5255 37.4601 46.3902 38.2763C46.5548 37.4659 46.7975 36.6736 47.0883 35.9024C47.3858 35.1335 47.7347 34.3847 48.1683 33.6873C48.6066 32.9966 49.1174 32.3431 49.7495 31.8326C50.3708 31.3107 51.1141 30.9471 51.9007 30.7928C52.1431 30.7435 52.3887 30.7193 52.6349 30.7122C52.4033 30.923 52.1935 31.1631 52.0316 31.4429C51.798 31.8354 51.6575 32.3097 51.698 32.7865C51.7099 33.0266 51.7806 33.252 51.8742 33.4741C51.9292 33.5819 51.9854 33.6965 52.0449 33.7951L52.2305 34.0433C52.5345 34.4034 52.8549 34.684 53.25 34.9125C53.6394 35.1356 54.0862 35.2695 54.5388 35.2889C55.445 35.3267 56.3513 34.9121 56.8916 34.1773C57.1521 33.808 57.3238 33.3438 57.2793 32.8708C57.2374 32.3985 56.994 31.9687 56.6746 31.6589C56.0255 31.0362 55.1791 30.7496 54.3701 30.5598C54.2634 30.536 54.1556 30.5143 54.0474 30.4949C54.1345 30.4565 54.2188 30.4122 54.3079 30.3793C55.0359 30.1028 55.8303 29.9889 56.6124 30.0515C57.3949 30.1079 58.1644 30.3252 58.8683 30.6785C59.5736 31.0308 60.2108 31.5171 60.7692 32.0829C61.0555 32.3597 61.301 32.6763 61.554 32.9858C61.7791 33.3173 62.0236 33.6359 62.2158 33.9909C62.2267 34.0086 62.2358 34.0273 62.2467 34.0453C58.2205 33.9437 53.2565 36.7586 52.1183 45.062C50.4694 57.0929 62.6034 56.7471 64.8165 53.0429L66.8639 55.474C66.8639 55.474 69.4231 54.8891 70.3981 57.8139C71.373 60.7386 71.7385 62.1424 71.7385 62.1424L74.5412 61.5575L73.3225 50.3266C73.3225 50.3266 77.9791 48.2438 77.8982 40.8467C77.9091 40.8817 77.9193 40.9167 77.9302 40.9514C77.9421 41.0463 77.9536 41.1408 77.9604 41.2364C78.0472 42.1906 77.9985 43.1573 77.8363 44.1054C77.6721 45.0535 77.4028 45.9845 77.0457 46.8823C76.8662 47.3308 76.6635 47.7705 76.4397 48.1996C76.2153 48.6281 75.9756 49.0504 75.6991 49.4493C76.2847 48.6743 76.757 47.8164 77.1528 46.9275C77.5446 46.0362 77.8537 45.1035 78.0359 44.1418C78.1801 43.3964 78.2529 42.6354 78.2478 41.8736C78.4732 42.4779 78.7293 43.0717 79.0268 43.6463C79.4485 44.4665 79.9586 45.2483 80.5771 45.942C80.8815 46.2933 81.2256 46.6099 81.5861 46.9047C81.9469 47.2009 82.3464 47.4478 82.7589 47.6664C82.8065 47.6895 82.8558 47.7123 82.9044 47.7354C82.9211 47.8137 82.9429 47.8902 82.9748 47.9616C83.1741 48.4145 83.589 48.7226 84.0303 48.8733C84.4768 49.0266 84.9583 49.028 85.4079 48.9307C85.8591 48.8314 86.2811 48.6376 86.6674 48.3965C86.2679 48.6162 85.8374 48.7777 85.3939 48.8583C84.9509 48.9345 84.4884 48.9107 84.0762 48.7485C83.6661 48.5913 83.3094 48.2826 83.1479 47.8898C83.1411 47.8735 83.1374 47.8562 83.1316 47.8395C83.221 47.8789 83.3108 47.9174 83.4002 47.9483C83.6325 48.0279 83.8644 48.0843 84.1086 48.1078C84.3513 48.1302 84.6064 48.1143 84.8492 48.0265C85.0913 47.9425 85.3198 47.7749 85.4501 47.5317C85.5749 47.29 85.583 46.9724 85.4273 46.7343C85.2759 46.4932 85.0114 46.3691 84.7648 46.3331C84.5146 46.2929 84.2694 46.3218 84.0378 46.3759C83.9178 46.4007 83.8154 46.4385 83.6913 46.4783L83.5335 46.5442L83.3666 46.6381C83.1585 46.7728 82.9854 46.9815 82.9126 47.2277C82.9007 47.2726 82.8953 47.3179 82.8891 47.3634C82.5059 47.1557 82.1342 46.9227 81.7976 46.6418C81.4555 46.3572 81.1277 46.0525 80.8373 45.7121C80.5452 45.3738 80.2687 45.0205 80.0249 44.6434C79.7787 44.2683 79.5434 43.885 79.3373 43.4845C78.9177 42.6877 78.5739 41.8495 78.2886 40.9922C78.2457 40.862 78.206 40.7301 78.1655 40.5988C78.1607 40.56 78.1563 40.5209 78.1519 40.4822C78.1376 40.3958 78.124 40.3094 78.1104 40.2227C78.7902 41.9145 80.7805 45.7893 84.7788 45.8808C86.441 45.9189 87.7151 45.4003 88.6816 44.6848C89.246 45.8988 90.1274 46.9992 91.4295 46.769C90.306 45.3993 89.6881 43.7364 90.2063 41.9308ZM54.2865 30.9087C54.6973 31.0005 55.0557 31.1342 55.4277 31.292C55.7844 31.4633 56.1255 31.6687 56.3917 31.9401C56.6583 32.2087 56.8345 32.5474 56.8617 32.9035C56.8902 33.2602 56.7535 33.6193 56.5373 33.9178C56.0864 34.5133 55.31 34.8557 54.5643 34.8094C54.1906 34.7867 53.824 34.6714 53.4989 34.4779C53.1779 34.2905 52.8766 34.0086 52.6515 33.7362L52.4699 33.4849C52.4264 33.405 52.3975 33.3306 52.3577 33.2547C52.2962 33.0976 52.2404 32.9205 52.2377 32.747C52.2139 32.3978 52.3206 32.0452 52.5124 31.7327C52.7001 31.4164 52.9786 31.1464 53.2881 30.923C53.367 30.8635 53.4557 30.8173 53.5401 30.7645C53.791 30.7989 54.0406 30.8472 54.2865 30.9087ZM83.1091 47.2859C83.1727 47.0948 83.3094 46.9346 83.4863 46.8261L83.6185 46.7551L83.778 46.6935C83.8719 46.668 83.9851 46.6293 84.0895 46.6122C84.3014 46.5687 84.519 46.5521 84.7189 46.5908C84.9192 46.6259 85.0971 46.7268 85.1865 46.8809C85.28 47.0332 85.2688 47.2298 85.1831 47.3896C85.0029 47.7229 84.5489 47.8419 84.1375 47.7933C83.928 47.7711 83.7148 47.7167 83.5165 47.6474C83.3628 47.5919 83.2217 47.526 83.0799 47.4573C83.0843 47.3988 83.0928 47.3413 83.1091 47.2859Z" fill="#13132D"/>
<path d="M75.5964 13.617C75.5848 13.8003 75.4481 14.0397 75.2641 14.2186C74.9904 14.492 74.6262 14.6926 74.2382 14.8351C74.124 15.0401 74.0189 15.2513 73.9243 15.4689C74.5426 15.3206 75.1523 15.0755 75.6464 14.6052C75.8868 14.3638 76.1122 14.0689 76.1544 13.6422C76.1738 13.3446 76.1207 13.0342 75.9691 12.7529C75.8167 12.8804 75.6705 13.0137 75.529 13.1518C75.5814 13.2953 75.6062 13.4579 75.5964 13.617Z" fill="#13132D"/>
<path d="M75.2726 53.0014C75.2726 53.0014 75.2801 52.8015 75.3675 52.4696C75.4532 52.1374 75.6154 51.6691 75.9252 51.1577C76.2295 50.6452 76.6883 50.0879 77.3204 49.6186C77.6353 49.3836 77.9971 49.1803 78.3861 49.015C78.7792 48.8606 79.1982 48.7365 79.628 48.6848C79.8419 48.6481 80.0578 48.6546 80.2717 48.6406C80.4846 48.6427 80.6975 48.6566 80.9046 48.6797C81.3187 48.7304 81.7146 48.8294 82.0767 48.9599C82.4419 49.0861 82.7684 49.2551 83.0697 49.42C83.3594 49.6047 83.6304 49.7767 83.8531 49.9702C83.9654 50.0661 84.0752 50.1522 84.1728 50.2429C84.267 50.3385 84.3574 50.4255 84.4384 50.5123C84.605 50.6792 84.7345 50.8411 84.8366 50.9785C85.0433 51.2488 85.144 51.4171 85.144 51.4171C85.144 51.4171 84.9461 51.3753 84.6302 51.2777C84.4747 51.2247 84.2806 51.1737 84.065 51.1118C83.8518 51.0451 83.6148 50.9723 83.357 50.906C83.1047 50.8251 82.8269 50.7697 82.546 50.6928C82.2607 50.635 81.9672 50.5701 81.6676 50.5286C81.3687 50.4823 81.0651 50.4623 80.7634 50.4473C80.6125 50.4425 80.4622 50.4551 80.3119 50.4521C80.1636 50.4698 80.0119 50.4653 79.866 50.4963C79.5678 50.5208 79.2818 50.6058 78.9942 50.6775C78.7126 50.771 78.4327 50.871 78.1648 50.9965C77.8999 51.1261 77.6367 51.2573 77.3959 51.4097C77.1518 51.5566 76.9205 51.7096 76.7097 51.8623C76.2843 52.1639 75.9296 52.4533 75.6746 52.6607C75.4189 52.8776 75.2726 53.0014 75.2726 53.0014Z" fill="#13132D"/>
<path d="M88.9219 51.7824C88.9219 51.7824 88.9059 51.6056 88.9419 51.306C88.9753 51.0057 89.0616 50.582 89.2602 50.0995C89.4629 49.6214 89.7734 49.0746 90.2709 48.5839C90.5147 48.3366 90.8074 48.1047 91.1444 47.9184C91.4746 47.7212 91.8589 47.5868 92.251 47.5001C92.6464 47.4168 93.0531 47.4114 93.4394 47.4525C93.8244 47.4994 94.1865 47.6042 94.5092 47.7402C94.834 47.8755 95.1149 48.0493 95.3696 48.2214C95.6107 48.4101 95.8341 48.5879 96.0092 48.7808C96.1932 48.9644 96.3407 49.149 96.4621 49.3194C96.589 49.4836 96.6811 49.6424 96.7532 49.7747C96.9001 50.0366 96.9651 50.1981 96.9651 50.1981C96.9651 50.1981 96.7906 50.1529 96.5182 50.0522C96.3849 49.9985 96.2173 49.9437 96.0327 49.8801C95.8501 49.8125 95.6494 49.7363 95.4304 49.6679C95.2176 49.5857 94.9833 49.5272 94.7497 49.45C94.5116 49.3901 94.2695 49.3286 94.0264 49.2874C93.9043 49.2646 93.7839 49.2585 93.6632 49.2381C93.5452 49.2323 93.4258 49.2262 93.3055 49.2201C93.0708 49.232 92.8386 49.2323 92.6148 49.2905C92.3887 49.3337 92.1659 49.4017 91.9456 49.4969C91.8344 49.5387 91.7276 49.6006 91.6157 49.6489C91.5096 49.7122 91.3998 49.7669 91.2941 49.8346C90.8673 50.0923 90.4715 50.414 90.1226 50.7058C89.7781 51.0023 89.4802 51.2733 89.2653 51.4675C89.0535 51.6644 88.9219 51.7824 88.9219 51.7824Z" fill="#13132D"/>
<path d="M78.8047 55.9421C78.9258 56.949 78.6235 57.8134 78.129 57.8729C77.6346 57.9325 77.1358 57.1643 77.0147 56.1574C76.8936 55.1505 77.1963 54.2861 77.6904 54.2266C78.1845 54.1674 78.6837 54.9353 78.8047 55.9421Z" fill="#13132D"/>
<path d="M91.5672 54.4761C91.6882 55.483 91.3856 56.3474 90.8915 56.4069C90.3971 56.4664 89.8982 55.6983 89.7771 54.6914C89.6561 53.6845 89.9587 52.8201 90.4528 52.7606C90.9473 52.7011 91.4461 53.4689 91.5672 54.4761Z" fill="#13132D"/>
<path d="M88.6781 52.5142C89.0083 53.2126 89.298 53.9237 89.5731 54.6391C89.8475 55.3549 90.1026 56.0762 90.346 56.8015C90.4719 57.163 90.5803 57.5296 90.698 57.8931C90.8167 58.2566 90.9262 58.6228 91.0323 58.9901C91.138 59.3573 91.2523 59.7222 91.3482 60.0929C91.4454 60.4628 91.5522 60.8301 91.642 61.2021L91.7287 61.5612L91.3917 61.5823C90.8405 61.617 90.2879 61.6421 89.7346 61.6574C89.1807 61.6673 88.6267 61.6785 88.0687 61.654C88.6077 61.5075 89.1504 61.397 89.6931 61.2851C90.2365 61.1786 90.781 61.0817 91.3264 60.9947L91.0765 61.3749C90.9428 61.0158 90.8262 60.6519 90.7 60.2908C90.5725 59.93 90.4634 59.5637 90.3457 59.1999C90.2281 58.836 90.1145 58.4712 90.0097 58.1036C89.9043 57.736 89.7894 57.3714 89.6914 57.0015C89.4881 56.2642 89.2963 55.5233 89.1236 54.7765C88.9518 54.0291 88.7944 53.2779 88.6781 52.5142Z" fill="#510E05"/>
<path d="M87.3376 62.9949C87.5995 63.2047 87.861 63.406 88.1248 63.6019C88.2585 63.6978 88.387 63.7991 88.5234 63.8889L88.925 64.1646L89.3371 64.4146C89.4062 64.4544 89.4704 64.5037 89.5428 64.5356L89.755 64.6397C89.8982 64.7026 90.0318 64.7927 90.1777 64.8342L90.6048 64.9886L91.5087 65.3157L90.6021 65.6326C90.3168 65.7323 90.0281 65.8217 89.7394 65.9108C89.4507 65.9992 89.1637 66.0941 88.8733 66.1767C88.2925 66.3423 87.7127 66.512 87.1258 66.6572C86.5412 66.8109 85.9516 66.9469 85.3579 67.07C84.7648 67.1955 84.167 67.3047 83.5597 67.3819C84.1102 67.1139 84.6699 66.8779 85.2347 66.6579C85.7989 66.4358 86.3668 66.2264 86.9401 66.0349C87.5107 65.835 88.0888 65.6592 88.6655 65.4796C88.9539 65.3899 89.246 65.312 89.5361 65.2276C89.8265 65.1443 90.1165 65.0607 90.41 64.9879L90.4073 65.6316L89.9159 65.414C89.8336 65.3786 89.7527 65.3419 89.6813 65.2926L89.4619 65.1504L89.2443 65.008C89.1698 64.9631 89.1083 64.9032 89.0396 64.8519C88.9059 64.7455 88.772 64.639 88.6455 64.5258L88.2809 64.1725C88.1602 64.0548 88.0545 63.9222 87.9416 63.7984C87.827 63.676 87.7283 63.5383 87.625 63.407C87.5206 63.2761 87.4291 63.1336 87.3376 62.9949Z" fill="#510E05"/>
<path d="M86.3626 68.3564C86.3626 68.3564 86.3912 68.2166 86.4344 68.0071C86.4817 67.7994 86.5442 67.5226 86.6071 67.2454C86.6768 66.9713 86.7469 66.6976 86.7993 66.4922C86.8557 66.2885 86.8935 66.1528 86.8935 66.1528L87.5953 66.4541C87.5953 66.4541 87.5229 66.5748 87.4141 66.7561C87.3012 66.9356 87.1505 67.1747 86.9999 67.4141C86.8424 67.6504 86.6847 67.8867 86.5667 68.0639C86.4439 68.2394 86.3626 68.3564 86.3626 68.3564Z" fill="#510E05"/>
<path d="M70.8857 64.0917C70.6293 63.9982 70.379 63.8815 70.143 63.7326C70.024 63.6591 69.9094 63.5758 69.8019 63.4779C69.6952 63.3796 69.5918 63.2684 69.5146 63.1215C69.4775 63.0481 69.4428 62.9654 69.4347 62.8716C69.4211 62.7794 69.434 62.6805 69.4615 62.5883C69.4925 62.4972 69.5394 62.4176 69.5931 62.3469C69.6486 62.2816 69.7074 62.2183 69.77 62.1697C70.0196 61.9619 70.2936 61.8562 70.5626 61.7569L70.3712 62.0704C70.2661 61.6627 70.143 61.2455 70.0162 60.8384C69.8846 60.431 69.739 60.0298 69.5843 59.636C69.4296 59.2419 69.2429 58.8648 69.0436 58.5053C68.8437 58.1473 68.6036 57.8164 68.3237 57.5705C68.187 57.4427 68.0354 57.3505 67.8789 57.288C67.7161 57.2247 67.5712 57.2029 67.3723 57.2233C67.1883 57.2376 67.036 57.2754 66.904 57.36C66.7741 57.4393 66.6915 57.576 66.633 57.7436C66.5191 58.0888 66.5657 58.5251 66.6378 58.9389C66.7207 59.3568 66.8374 59.7778 66.9856 60.192C66.7343 59.8302 66.5198 59.4388 66.3613 59.0175C66.2824 58.8066 66.2117 58.589 66.1733 58.3584C66.1345 58.1286 66.1137 57.8858 66.161 57.6294C66.2066 57.3774 66.3375 57.1019 66.564 56.9217C66.7802 56.7398 67.0604 56.6466 67.3073 56.6079C67.5403 56.5664 67.8432 56.5789 68.0911 56.6646C68.3455 56.7463 68.5784 56.8772 68.7716 57.0353C69.1565 57.357 69.4367 57.7453 69.6714 58.1415C69.9087 58.5383 70.0859 58.9579 70.2467 59.3776C70.4096 59.7972 70.5371 60.226 70.6459 60.6578C70.7588 61.0904 70.8483 61.5206 70.9122 61.9698L70.9482 62.2245L70.7207 62.2836C70.598 62.3156 70.4766 62.3496 70.361 62.3914C70.2481 62.4356 70.1342 62.4785 70.0427 62.5377C69.9934 62.5652 69.956 62.5978 69.9172 62.6295C69.8839 62.6628 69.8563 62.6965 69.8373 62.7315C69.8016 62.8005 69.7979 62.8838 69.8278 62.9869C69.8917 63.195 70.076 63.3983 70.2607 63.5816C70.4528 63.7632 70.6629 63.9353 70.8857 64.0917Z" fill="#510E05"/>
<path d="M76.796 57.9069C76.796 57.9069 76.8545 58.0086 76.9565 58.1861C77.0599 58.3602 77.2112 58.604 77.4092 58.8679C77.6101 59.126 77.8618 59.415 78.1749 59.5793C78.3252 59.6755 78.4939 59.7075 78.6595 59.7384C78.7408 59.7354 78.8442 59.7425 78.9071 59.734L78.9924 59.7221C79.0047 59.7163 79.0162 59.7115 79.0285 59.7078C79.0492 59.7058 79.088 59.6823 79.1193 59.6708C79.3804 59.5446 79.6011 59.1882 79.7477 58.824C79.9024 58.4581 80.0027 58.0783 80.0908 57.7508C80.253 57.0765 80.3611 56.627 80.3611 56.627C80.3611 56.627 80.5009 57.0857 80.5077 57.8005C80.5128 58.1579 80.4818 58.5782 80.3622 59.0318C80.2986 59.2572 80.2146 59.4932 80.0728 59.7224C79.9337 59.9499 79.73 60.1791 79.4467 60.3247C79.3712 60.3556 79.3087 60.39 79.2158 60.411L79.0856 60.4423L79.0002 60.4525C78.8357 60.4709 78.7092 60.4481 78.5646 60.4399C78.2885 60.3828 78.0199 60.2818 77.8203 60.1189C77.6081 59.9703 77.4588 59.7809 77.3299 59.6048C77.2065 59.4242 77.1143 59.2436 77.046 59.0733C76.9049 58.7346 76.8488 58.4387 76.8202 58.2327C76.792 58.0263 76.796 57.9069 76.796 57.9069Z" fill="#510E05"/>
<path d="M89.8662 56.2614C89.8662 56.2614 89.9247 56.3631 90.0267 56.541C90.1301 56.7151 90.2814 56.9589 90.4793 57.2228C90.6803 57.4809 90.932 57.7699 91.2451 57.9342C91.3954 58.0304 91.5641 58.0623 91.7297 58.0933C91.811 58.0902 91.9144 58.0974 91.9773 58.0889L92.0626 58.0773C92.0749 58.0715 92.0864 58.0668 92.0987 58.063C92.1194 58.061 92.1582 58.0375 92.1895 58.026C92.4506 57.8998 92.6713 57.5438 92.8179 57.1792C92.9726 56.813 93.0729 56.4335 93.161 56.106C93.3232 55.4317 93.4313 54.9822 93.4313 54.9822C93.4313 54.9822 93.5711 55.4409 93.5779 56.1557C93.583 56.5131 93.5521 56.9334 93.4324 57.387C93.3688 57.6125 93.2848 57.8485 93.143 58.0777C93.0039 58.3055 92.8002 58.5343 92.5169 58.6799C92.4414 58.7108 92.3789 58.7452 92.286 58.7663L92.1558 58.7975L92.0704 58.8077C91.9059 58.8261 91.7794 58.8033 91.6348 58.7952C91.3587 58.738 91.0901 58.637 90.8905 58.4741C90.6783 58.3255 90.529 58.1361 90.4001 57.96C90.2767 57.7794 90.1845 57.5989 90.1162 57.4285C89.9751 57.0898 89.9189 56.794 89.8904 56.5879C89.8618 56.3811 89.8662 56.2614 89.8662 56.2614Z" fill="#510E05"/>
<path d="M104.588 108.17L105.868 125.999H95.4482L98.1904 108.929L104.588 108.17Z" fill="#E5B4AA"/>
<path opacity="0.5" d="M104.588 108.17L105.868 125.999H95.4482L98.1904 108.929L104.588 108.17Z" fill="#510E05"/>
<path d="M89.0437 84.4428C89.0437 84.4428 101.474 80.8477 103.485 92.5468C105.495 104.246 105.678 109.181 105.678 109.181C105.678 109.181 101.108 111.923 93.4307 111.558C85.7534 111.192 89.0437 84.4428 89.0437 84.4428Z" fill="#FFA943"/>
<path d="M89.6132 107.502C90.3899 109.875 91.5967 111.47 93.4306 111.557C101.108 111.923 105.678 109.181 105.678 109.181C105.678 109.181 105.574 106.377 104.663 99.9912C100.404 103.607 95.1254 105.776 89.6132 107.502Z" fill="#ED902B"/>
<path d="M70.8857 78.7151L87.8249 80.4211C87.8249 80.4211 87.3373 84.3208 89.0437 84.4426C90.7497 84.5643 100.133 82.8583 100.987 89.6827C101.84 96.5072 101.84 125.511 101.84 125.511H52.6059C52.6059 125.511 51.3661 93.7144 54.0685 86.8797C56.1401 81.6395 70.3984 83.3455 70.3984 83.3455L70.8857 78.7151Z" fill="#FFA943"/>
<path d="M101.839 125.035C100.303 125.031 98.7681 124.96 97.2396 124.81C87.6145 123.872 77.9588 120.309 71.0415 113.365C67.1979 109.506 64.2486 104.976 61.4789 100.322C58.5096 99.7545 55.5287 99.2641 52.5301 98.8972C52.0204 110.507 52.9457 125.999 52.9457 125.999H101.916C101.916 125.999 101.839 125.344 101.839 125.035Z" fill="#ED902B"/>
<path d="M49.9246 106.439L48.2794 125.999H62.6567L66.011 102.235L49.9246 106.439Z" fill="#E5B4AA"/>
<path opacity="0.5" d="M59.3153 115.882C60.9091 116.035 62.5013 116.067 64.0893 116.007L66.0109 102.235L49.9245 106.439L49.3607 113.142C52.5167 114.555 55.8441 115.547 59.3153 115.882Z" fill="#510E05"/>
<path d="M46.9998 111.01C46.9998 111.01 48.0964 87.0631 55.957 84.5039C63.8173 81.9447 67.8391 84.5039 67.8391 84.5039L66.1939 113.935C66.1939 113.935 54.1289 115.58 46.9998 111.01Z" fill="#FFA943"/>
</svg>
